G75*
%MOIN*%
%OFA0B0*%
%FSLAX25Y25*%
%IPPOS*%
%LPD*%
%AMOC8*
5,1,8,0,0,1.08239X$1,22.5*
%
%ADD10C,0.00000*%
%ADD11C,0.08000*%
%ADD12C,0.07087*%
%ADD13C,0.11024*%
%ADD14C,0.01000*%
%ADD15C,0.03569*%
%ADD16C,0.05600*%
%ADD17C,0.05906*%
%ADD18C,0.02400*%
%ADD19C,0.04000*%
D10*
X0022602Y0025558D02*
X0022602Y0153589D01*
X0034413Y0153589D01*
X0034731Y0153593D01*
X0035048Y0153604D01*
X0035366Y0153624D01*
X0035682Y0153651D01*
X0035998Y0153686D01*
X0036313Y0153728D01*
X0036627Y0153778D01*
X0036940Y0153836D01*
X0037251Y0153901D01*
X0037560Y0153974D01*
X0037868Y0154055D01*
X0038173Y0154142D01*
X0038476Y0154238D01*
X0038777Y0154340D01*
X0039075Y0154450D01*
X0039371Y0154567D01*
X0039663Y0154692D01*
X0039953Y0154823D01*
X0040239Y0154961D01*
X0040521Y0155107D01*
X0040800Y0155259D01*
X0041076Y0155418D01*
X0041347Y0155583D01*
X0041614Y0155755D01*
X0041877Y0155934D01*
X0042136Y0156119D01*
X0042389Y0156310D01*
X0042639Y0156507D01*
X0042883Y0156711D01*
X0043122Y0156920D01*
X0043356Y0157135D01*
X0043585Y0157356D01*
X0043808Y0157582D01*
X0044026Y0157813D01*
X0044238Y0158050D01*
X0044445Y0158292D01*
X0044645Y0158538D01*
X0044839Y0158790D01*
X0045027Y0159046D01*
X0045209Y0159307D01*
X0045384Y0159572D01*
X0045553Y0159841D01*
X0045715Y0160115D01*
X0045871Y0160392D01*
X0046020Y0160673D01*
X0046162Y0160957D01*
X0046297Y0161245D01*
X0046424Y0161536D01*
X0046545Y0161830D01*
X0046659Y0162127D01*
X0046765Y0162426D01*
X0046864Y0162728D01*
X0046956Y0163032D01*
X0047040Y0163339D01*
X0047116Y0163647D01*
X0047185Y0163958D01*
X0047247Y0164269D01*
X0047301Y0164583D01*
X0047347Y0164897D01*
X0047386Y0165213D01*
X0047417Y0165529D01*
X0047440Y0165846D01*
X0047455Y0166163D01*
X0047463Y0166481D01*
X0047463Y0166799D01*
X0047455Y0167117D01*
X0047440Y0167434D01*
X0047417Y0167751D01*
X0047386Y0168067D01*
X0047347Y0168383D01*
X0047301Y0168697D01*
X0047247Y0169011D01*
X0047185Y0169322D01*
X0047116Y0169633D01*
X0047040Y0169941D01*
X0046956Y0170248D01*
X0046864Y0170552D01*
X0046765Y0170854D01*
X0046659Y0171153D01*
X0046545Y0171450D01*
X0046424Y0171744D01*
X0046297Y0172035D01*
X0046162Y0172323D01*
X0046020Y0172607D01*
X0045871Y0172888D01*
X0045715Y0173166D01*
X0045553Y0173439D01*
X0045384Y0173708D01*
X0045209Y0173973D01*
X0045027Y0174234D01*
X0044839Y0174490D01*
X0044645Y0174742D01*
X0044445Y0174988D01*
X0044238Y0175230D01*
X0044026Y0175467D01*
X0043808Y0175698D01*
X0043585Y0175924D01*
X0043356Y0176145D01*
X0043122Y0176360D01*
X0042883Y0176569D01*
X0042639Y0176773D01*
X0042389Y0176970D01*
X0042136Y0177161D01*
X0041877Y0177346D01*
X0041614Y0177525D01*
X0041347Y0177697D01*
X0041076Y0177862D01*
X0040800Y0178021D01*
X0040521Y0178173D01*
X0040239Y0178319D01*
X0039953Y0178457D01*
X0039663Y0178588D01*
X0039371Y0178713D01*
X0039075Y0178830D01*
X0038777Y0178940D01*
X0038476Y0179042D01*
X0038173Y0179138D01*
X0037868Y0179225D01*
X0037560Y0179306D01*
X0037251Y0179379D01*
X0036940Y0179444D01*
X0036627Y0179502D01*
X0036313Y0179552D01*
X0035998Y0179594D01*
X0035682Y0179629D01*
X0035366Y0179656D01*
X0035048Y0179676D01*
X0034731Y0179687D01*
X0034413Y0179691D01*
X0034413Y0179692D02*
X0022602Y0179692D01*
X0022602Y0249967D01*
X0243075Y0249967D01*
X0243075Y0179692D01*
X0231263Y0179692D01*
X0231263Y0179691D02*
X0230945Y0179687D01*
X0230628Y0179676D01*
X0230310Y0179656D01*
X0229994Y0179629D01*
X0229678Y0179594D01*
X0229363Y0179552D01*
X0229049Y0179502D01*
X0228736Y0179444D01*
X0228425Y0179379D01*
X0228116Y0179306D01*
X0227808Y0179225D01*
X0227503Y0179138D01*
X0227200Y0179042D01*
X0226899Y0178940D01*
X0226601Y0178830D01*
X0226305Y0178713D01*
X0226013Y0178588D01*
X0225723Y0178457D01*
X0225437Y0178319D01*
X0225155Y0178173D01*
X0224876Y0178021D01*
X0224600Y0177862D01*
X0224329Y0177697D01*
X0224062Y0177525D01*
X0223799Y0177346D01*
X0223540Y0177161D01*
X0223287Y0176970D01*
X0223037Y0176773D01*
X0222793Y0176569D01*
X0222554Y0176360D01*
X0222320Y0176145D01*
X0222091Y0175924D01*
X0221868Y0175698D01*
X0221650Y0175467D01*
X0221438Y0175230D01*
X0221231Y0174988D01*
X0221031Y0174742D01*
X0220837Y0174490D01*
X0220649Y0174234D01*
X0220467Y0173973D01*
X0220292Y0173708D01*
X0220123Y0173439D01*
X0219961Y0173166D01*
X0219805Y0172888D01*
X0219656Y0172607D01*
X0219514Y0172323D01*
X0219379Y0172035D01*
X0219252Y0171744D01*
X0219131Y0171450D01*
X0219017Y0171153D01*
X0218911Y0170854D01*
X0218812Y0170552D01*
X0218720Y0170248D01*
X0218636Y0169941D01*
X0218560Y0169633D01*
X0218491Y0169322D01*
X0218429Y0169011D01*
X0218375Y0168697D01*
X0218329Y0168383D01*
X0218290Y0168067D01*
X0218259Y0167751D01*
X0218236Y0167434D01*
X0218221Y0167117D01*
X0218213Y0166799D01*
X0218213Y0166481D01*
X0218221Y0166163D01*
X0218236Y0165846D01*
X0218259Y0165529D01*
X0218290Y0165213D01*
X0218329Y0164897D01*
X0218375Y0164583D01*
X0218429Y0164269D01*
X0218491Y0163958D01*
X0218560Y0163647D01*
X0218636Y0163339D01*
X0218720Y0163032D01*
X0218812Y0162728D01*
X0218911Y0162426D01*
X0219017Y0162127D01*
X0219131Y0161830D01*
X0219252Y0161536D01*
X0219379Y0161245D01*
X0219514Y0160957D01*
X0219656Y0160673D01*
X0219805Y0160392D01*
X0219961Y0160114D01*
X0220123Y0159841D01*
X0220292Y0159572D01*
X0220467Y0159307D01*
X0220649Y0159046D01*
X0220837Y0158790D01*
X0221031Y0158538D01*
X0221231Y0158292D01*
X0221438Y0158050D01*
X0221650Y0157813D01*
X0221868Y0157582D01*
X0222091Y0157356D01*
X0222320Y0157135D01*
X0222554Y0156920D01*
X0222793Y0156711D01*
X0223037Y0156507D01*
X0223287Y0156310D01*
X0223540Y0156119D01*
X0223799Y0155934D01*
X0224062Y0155755D01*
X0224329Y0155583D01*
X0224600Y0155418D01*
X0224876Y0155259D01*
X0225155Y0155107D01*
X0225437Y0154961D01*
X0225723Y0154823D01*
X0226013Y0154692D01*
X0226305Y0154567D01*
X0226601Y0154450D01*
X0226899Y0154340D01*
X0227200Y0154238D01*
X0227503Y0154142D01*
X0227808Y0154055D01*
X0228116Y0153974D01*
X0228425Y0153901D01*
X0228736Y0153836D01*
X0229049Y0153778D01*
X0229363Y0153728D01*
X0229678Y0153686D01*
X0229994Y0153651D01*
X0230310Y0153624D01*
X0230628Y0153604D01*
X0230945Y0153593D01*
X0231263Y0153589D01*
X0243075Y0153589D01*
X0243075Y0025558D01*
X0022602Y0025558D01*
X0071421Y0080046D02*
X0071423Y0080204D01*
X0071429Y0080362D01*
X0071439Y0080520D01*
X0071453Y0080678D01*
X0071471Y0080835D01*
X0071492Y0080992D01*
X0071518Y0081148D01*
X0071548Y0081304D01*
X0071581Y0081459D01*
X0071619Y0081612D01*
X0071660Y0081765D01*
X0071705Y0081917D01*
X0071754Y0082068D01*
X0071807Y0082217D01*
X0071863Y0082365D01*
X0071923Y0082511D01*
X0071987Y0082656D01*
X0072055Y0082799D01*
X0072126Y0082941D01*
X0072200Y0083081D01*
X0072278Y0083218D01*
X0072360Y0083354D01*
X0072444Y0083488D01*
X0072533Y0083619D01*
X0072624Y0083748D01*
X0072719Y0083875D01*
X0072816Y0084000D01*
X0072917Y0084122D01*
X0073021Y0084241D01*
X0073128Y0084358D01*
X0073238Y0084472D01*
X0073351Y0084583D01*
X0073466Y0084692D01*
X0073584Y0084797D01*
X0073705Y0084899D01*
X0073828Y0084999D01*
X0073954Y0085095D01*
X0074082Y0085188D01*
X0074212Y0085278D01*
X0074345Y0085364D01*
X0074480Y0085448D01*
X0074616Y0085527D01*
X0074755Y0085604D01*
X0074896Y0085676D01*
X0075038Y0085746D01*
X0075182Y0085811D01*
X0075328Y0085873D01*
X0075475Y0085931D01*
X0075624Y0085986D01*
X0075774Y0086037D01*
X0075925Y0086084D01*
X0076077Y0086127D01*
X0076230Y0086166D01*
X0076385Y0086202D01*
X0076540Y0086233D01*
X0076696Y0086261D01*
X0076852Y0086285D01*
X0077009Y0086305D01*
X0077167Y0086321D01*
X0077324Y0086333D01*
X0077483Y0086341D01*
X0077641Y0086345D01*
X0077799Y0086345D01*
X0077957Y0086341D01*
X0078116Y0086333D01*
X0078273Y0086321D01*
X0078431Y0086305D01*
X0078588Y0086285D01*
X0078744Y0086261D01*
X0078900Y0086233D01*
X0079055Y0086202D01*
X0079210Y0086166D01*
X0079363Y0086127D01*
X0079515Y0086084D01*
X0079666Y0086037D01*
X0079816Y0085986D01*
X0079965Y0085931D01*
X0080112Y0085873D01*
X0080258Y0085811D01*
X0080402Y0085746D01*
X0080544Y0085676D01*
X0080685Y0085604D01*
X0080824Y0085527D01*
X0080960Y0085448D01*
X0081095Y0085364D01*
X0081228Y0085278D01*
X0081358Y0085188D01*
X0081486Y0085095D01*
X0081612Y0084999D01*
X0081735Y0084899D01*
X0081856Y0084797D01*
X0081974Y0084692D01*
X0082089Y0084583D01*
X0082202Y0084472D01*
X0082312Y0084358D01*
X0082419Y0084241D01*
X0082523Y0084122D01*
X0082624Y0084000D01*
X0082721Y0083875D01*
X0082816Y0083748D01*
X0082907Y0083619D01*
X0082996Y0083488D01*
X0083080Y0083354D01*
X0083162Y0083218D01*
X0083240Y0083081D01*
X0083314Y0082941D01*
X0083385Y0082799D01*
X0083453Y0082656D01*
X0083517Y0082511D01*
X0083577Y0082365D01*
X0083633Y0082217D01*
X0083686Y0082068D01*
X0083735Y0081917D01*
X0083780Y0081765D01*
X0083821Y0081612D01*
X0083859Y0081459D01*
X0083892Y0081304D01*
X0083922Y0081148D01*
X0083948Y0080992D01*
X0083969Y0080835D01*
X0083987Y0080678D01*
X0084001Y0080520D01*
X0084011Y0080362D01*
X0084017Y0080204D01*
X0084019Y0080046D01*
X0084017Y0079888D01*
X0084011Y0079730D01*
X0084001Y0079572D01*
X0083987Y0079414D01*
X0083969Y0079257D01*
X0083948Y0079100D01*
X0083922Y0078944D01*
X0083892Y0078788D01*
X0083859Y0078633D01*
X0083821Y0078480D01*
X0083780Y0078327D01*
X0083735Y0078175D01*
X0083686Y0078024D01*
X0083633Y0077875D01*
X0083577Y0077727D01*
X0083517Y0077581D01*
X0083453Y0077436D01*
X0083385Y0077293D01*
X0083314Y0077151D01*
X0083240Y0077011D01*
X0083162Y0076874D01*
X0083080Y0076738D01*
X0082996Y0076604D01*
X0082907Y0076473D01*
X0082816Y0076344D01*
X0082721Y0076217D01*
X0082624Y0076092D01*
X0082523Y0075970D01*
X0082419Y0075851D01*
X0082312Y0075734D01*
X0082202Y0075620D01*
X0082089Y0075509D01*
X0081974Y0075400D01*
X0081856Y0075295D01*
X0081735Y0075193D01*
X0081612Y0075093D01*
X0081486Y0074997D01*
X0081358Y0074904D01*
X0081228Y0074814D01*
X0081095Y0074728D01*
X0080960Y0074644D01*
X0080824Y0074565D01*
X0080685Y0074488D01*
X0080544Y0074416D01*
X0080402Y0074346D01*
X0080258Y0074281D01*
X0080112Y0074219D01*
X0079965Y0074161D01*
X0079816Y0074106D01*
X0079666Y0074055D01*
X0079515Y0074008D01*
X0079363Y0073965D01*
X0079210Y0073926D01*
X0079055Y0073890D01*
X0078900Y0073859D01*
X0078744Y0073831D01*
X0078588Y0073807D01*
X0078431Y0073787D01*
X0078273Y0073771D01*
X0078116Y0073759D01*
X0077957Y0073751D01*
X0077799Y0073747D01*
X0077641Y0073747D01*
X0077483Y0073751D01*
X0077324Y0073759D01*
X0077167Y0073771D01*
X0077009Y0073787D01*
X0076852Y0073807D01*
X0076696Y0073831D01*
X0076540Y0073859D01*
X0076385Y0073890D01*
X0076230Y0073926D01*
X0076077Y0073965D01*
X0075925Y0074008D01*
X0075774Y0074055D01*
X0075624Y0074106D01*
X0075475Y0074161D01*
X0075328Y0074219D01*
X0075182Y0074281D01*
X0075038Y0074346D01*
X0074896Y0074416D01*
X0074755Y0074488D01*
X0074616Y0074565D01*
X0074480Y0074644D01*
X0074345Y0074728D01*
X0074212Y0074814D01*
X0074082Y0074904D01*
X0073954Y0074997D01*
X0073828Y0075093D01*
X0073705Y0075193D01*
X0073584Y0075295D01*
X0073466Y0075400D01*
X0073351Y0075509D01*
X0073238Y0075620D01*
X0073128Y0075734D01*
X0073021Y0075851D01*
X0072917Y0075970D01*
X0072816Y0076092D01*
X0072719Y0076217D01*
X0072624Y0076344D01*
X0072533Y0076473D01*
X0072444Y0076604D01*
X0072360Y0076738D01*
X0072278Y0076874D01*
X0072200Y0077011D01*
X0072126Y0077151D01*
X0072055Y0077293D01*
X0071987Y0077436D01*
X0071923Y0077581D01*
X0071863Y0077727D01*
X0071807Y0077875D01*
X0071754Y0078024D01*
X0071705Y0078175D01*
X0071660Y0078327D01*
X0071619Y0078480D01*
X0071581Y0078633D01*
X0071548Y0078788D01*
X0071518Y0078944D01*
X0071492Y0079100D01*
X0071471Y0079257D01*
X0071453Y0079414D01*
X0071439Y0079572D01*
X0071429Y0079730D01*
X0071423Y0079888D01*
X0071421Y0080046D01*
X0071421Y0190282D02*
X0071423Y0190440D01*
X0071429Y0190598D01*
X0071439Y0190756D01*
X0071453Y0190914D01*
X0071471Y0191071D01*
X0071492Y0191228D01*
X0071518Y0191384D01*
X0071548Y0191540D01*
X0071581Y0191695D01*
X0071619Y0191848D01*
X0071660Y0192001D01*
X0071705Y0192153D01*
X0071754Y0192304D01*
X0071807Y0192453D01*
X0071863Y0192601D01*
X0071923Y0192747D01*
X0071987Y0192892D01*
X0072055Y0193035D01*
X0072126Y0193177D01*
X0072200Y0193317D01*
X0072278Y0193454D01*
X0072360Y0193590D01*
X0072444Y0193724D01*
X0072533Y0193855D01*
X0072624Y0193984D01*
X0072719Y0194111D01*
X0072816Y0194236D01*
X0072917Y0194358D01*
X0073021Y0194477D01*
X0073128Y0194594D01*
X0073238Y0194708D01*
X0073351Y0194819D01*
X0073466Y0194928D01*
X0073584Y0195033D01*
X0073705Y0195135D01*
X0073828Y0195235D01*
X0073954Y0195331D01*
X0074082Y0195424D01*
X0074212Y0195514D01*
X0074345Y0195600D01*
X0074480Y0195684D01*
X0074616Y0195763D01*
X0074755Y0195840D01*
X0074896Y0195912D01*
X0075038Y0195982D01*
X0075182Y0196047D01*
X0075328Y0196109D01*
X0075475Y0196167D01*
X0075624Y0196222D01*
X0075774Y0196273D01*
X0075925Y0196320D01*
X0076077Y0196363D01*
X0076230Y0196402D01*
X0076385Y0196438D01*
X0076540Y0196469D01*
X0076696Y0196497D01*
X0076852Y0196521D01*
X0077009Y0196541D01*
X0077167Y0196557D01*
X0077324Y0196569D01*
X0077483Y0196577D01*
X0077641Y0196581D01*
X0077799Y0196581D01*
X0077957Y0196577D01*
X0078116Y0196569D01*
X0078273Y0196557D01*
X0078431Y0196541D01*
X0078588Y0196521D01*
X0078744Y0196497D01*
X0078900Y0196469D01*
X0079055Y0196438D01*
X0079210Y0196402D01*
X0079363Y0196363D01*
X0079515Y0196320D01*
X0079666Y0196273D01*
X0079816Y0196222D01*
X0079965Y0196167D01*
X0080112Y0196109D01*
X0080258Y0196047D01*
X0080402Y0195982D01*
X0080544Y0195912D01*
X0080685Y0195840D01*
X0080824Y0195763D01*
X0080960Y0195684D01*
X0081095Y0195600D01*
X0081228Y0195514D01*
X0081358Y0195424D01*
X0081486Y0195331D01*
X0081612Y0195235D01*
X0081735Y0195135D01*
X0081856Y0195033D01*
X0081974Y0194928D01*
X0082089Y0194819D01*
X0082202Y0194708D01*
X0082312Y0194594D01*
X0082419Y0194477D01*
X0082523Y0194358D01*
X0082624Y0194236D01*
X0082721Y0194111D01*
X0082816Y0193984D01*
X0082907Y0193855D01*
X0082996Y0193724D01*
X0083080Y0193590D01*
X0083162Y0193454D01*
X0083240Y0193317D01*
X0083314Y0193177D01*
X0083385Y0193035D01*
X0083453Y0192892D01*
X0083517Y0192747D01*
X0083577Y0192601D01*
X0083633Y0192453D01*
X0083686Y0192304D01*
X0083735Y0192153D01*
X0083780Y0192001D01*
X0083821Y0191848D01*
X0083859Y0191695D01*
X0083892Y0191540D01*
X0083922Y0191384D01*
X0083948Y0191228D01*
X0083969Y0191071D01*
X0083987Y0190914D01*
X0084001Y0190756D01*
X0084011Y0190598D01*
X0084017Y0190440D01*
X0084019Y0190282D01*
X0084017Y0190124D01*
X0084011Y0189966D01*
X0084001Y0189808D01*
X0083987Y0189650D01*
X0083969Y0189493D01*
X0083948Y0189336D01*
X0083922Y0189180D01*
X0083892Y0189024D01*
X0083859Y0188869D01*
X0083821Y0188716D01*
X0083780Y0188563D01*
X0083735Y0188411D01*
X0083686Y0188260D01*
X0083633Y0188111D01*
X0083577Y0187963D01*
X0083517Y0187817D01*
X0083453Y0187672D01*
X0083385Y0187529D01*
X0083314Y0187387D01*
X0083240Y0187247D01*
X0083162Y0187110D01*
X0083080Y0186974D01*
X0082996Y0186840D01*
X0082907Y0186709D01*
X0082816Y0186580D01*
X0082721Y0186453D01*
X0082624Y0186328D01*
X0082523Y0186206D01*
X0082419Y0186087D01*
X0082312Y0185970D01*
X0082202Y0185856D01*
X0082089Y0185745D01*
X0081974Y0185636D01*
X0081856Y0185531D01*
X0081735Y0185429D01*
X0081612Y0185329D01*
X0081486Y0185233D01*
X0081358Y0185140D01*
X0081228Y0185050D01*
X0081095Y0184964D01*
X0080960Y0184880D01*
X0080824Y0184801D01*
X0080685Y0184724D01*
X0080544Y0184652D01*
X0080402Y0184582D01*
X0080258Y0184517D01*
X0080112Y0184455D01*
X0079965Y0184397D01*
X0079816Y0184342D01*
X0079666Y0184291D01*
X0079515Y0184244D01*
X0079363Y0184201D01*
X0079210Y0184162D01*
X0079055Y0184126D01*
X0078900Y0184095D01*
X0078744Y0184067D01*
X0078588Y0184043D01*
X0078431Y0184023D01*
X0078273Y0184007D01*
X0078116Y0183995D01*
X0077957Y0183987D01*
X0077799Y0183983D01*
X0077641Y0183983D01*
X0077483Y0183987D01*
X0077324Y0183995D01*
X0077167Y0184007D01*
X0077009Y0184023D01*
X0076852Y0184043D01*
X0076696Y0184067D01*
X0076540Y0184095D01*
X0076385Y0184126D01*
X0076230Y0184162D01*
X0076077Y0184201D01*
X0075925Y0184244D01*
X0075774Y0184291D01*
X0075624Y0184342D01*
X0075475Y0184397D01*
X0075328Y0184455D01*
X0075182Y0184517D01*
X0075038Y0184582D01*
X0074896Y0184652D01*
X0074755Y0184724D01*
X0074616Y0184801D01*
X0074480Y0184880D01*
X0074345Y0184964D01*
X0074212Y0185050D01*
X0074082Y0185140D01*
X0073954Y0185233D01*
X0073828Y0185329D01*
X0073705Y0185429D01*
X0073584Y0185531D01*
X0073466Y0185636D01*
X0073351Y0185745D01*
X0073238Y0185856D01*
X0073128Y0185970D01*
X0073021Y0186087D01*
X0072917Y0186206D01*
X0072816Y0186328D01*
X0072719Y0186453D01*
X0072624Y0186580D01*
X0072533Y0186709D01*
X0072444Y0186840D01*
X0072360Y0186974D01*
X0072278Y0187110D01*
X0072200Y0187247D01*
X0072126Y0187387D01*
X0072055Y0187529D01*
X0071987Y0187672D01*
X0071923Y0187817D01*
X0071863Y0187963D01*
X0071807Y0188111D01*
X0071754Y0188260D01*
X0071705Y0188411D01*
X0071660Y0188563D01*
X0071619Y0188716D01*
X0071581Y0188869D01*
X0071548Y0189024D01*
X0071518Y0189180D01*
X0071492Y0189336D01*
X0071471Y0189493D01*
X0071453Y0189650D01*
X0071439Y0189808D01*
X0071429Y0189966D01*
X0071423Y0190124D01*
X0071421Y0190282D01*
X0181657Y0190282D02*
X0181659Y0190440D01*
X0181665Y0190598D01*
X0181675Y0190756D01*
X0181689Y0190914D01*
X0181707Y0191071D01*
X0181728Y0191228D01*
X0181754Y0191384D01*
X0181784Y0191540D01*
X0181817Y0191695D01*
X0181855Y0191848D01*
X0181896Y0192001D01*
X0181941Y0192153D01*
X0181990Y0192304D01*
X0182043Y0192453D01*
X0182099Y0192601D01*
X0182159Y0192747D01*
X0182223Y0192892D01*
X0182291Y0193035D01*
X0182362Y0193177D01*
X0182436Y0193317D01*
X0182514Y0193454D01*
X0182596Y0193590D01*
X0182680Y0193724D01*
X0182769Y0193855D01*
X0182860Y0193984D01*
X0182955Y0194111D01*
X0183052Y0194236D01*
X0183153Y0194358D01*
X0183257Y0194477D01*
X0183364Y0194594D01*
X0183474Y0194708D01*
X0183587Y0194819D01*
X0183702Y0194928D01*
X0183820Y0195033D01*
X0183941Y0195135D01*
X0184064Y0195235D01*
X0184190Y0195331D01*
X0184318Y0195424D01*
X0184448Y0195514D01*
X0184581Y0195600D01*
X0184716Y0195684D01*
X0184852Y0195763D01*
X0184991Y0195840D01*
X0185132Y0195912D01*
X0185274Y0195982D01*
X0185418Y0196047D01*
X0185564Y0196109D01*
X0185711Y0196167D01*
X0185860Y0196222D01*
X0186010Y0196273D01*
X0186161Y0196320D01*
X0186313Y0196363D01*
X0186466Y0196402D01*
X0186621Y0196438D01*
X0186776Y0196469D01*
X0186932Y0196497D01*
X0187088Y0196521D01*
X0187245Y0196541D01*
X0187403Y0196557D01*
X0187560Y0196569D01*
X0187719Y0196577D01*
X0187877Y0196581D01*
X0188035Y0196581D01*
X0188193Y0196577D01*
X0188352Y0196569D01*
X0188509Y0196557D01*
X0188667Y0196541D01*
X0188824Y0196521D01*
X0188980Y0196497D01*
X0189136Y0196469D01*
X0189291Y0196438D01*
X0189446Y0196402D01*
X0189599Y0196363D01*
X0189751Y0196320D01*
X0189902Y0196273D01*
X0190052Y0196222D01*
X0190201Y0196167D01*
X0190348Y0196109D01*
X0190494Y0196047D01*
X0190638Y0195982D01*
X0190780Y0195912D01*
X0190921Y0195840D01*
X0191060Y0195763D01*
X0191196Y0195684D01*
X0191331Y0195600D01*
X0191464Y0195514D01*
X0191594Y0195424D01*
X0191722Y0195331D01*
X0191848Y0195235D01*
X0191971Y0195135D01*
X0192092Y0195033D01*
X0192210Y0194928D01*
X0192325Y0194819D01*
X0192438Y0194708D01*
X0192548Y0194594D01*
X0192655Y0194477D01*
X0192759Y0194358D01*
X0192860Y0194236D01*
X0192957Y0194111D01*
X0193052Y0193984D01*
X0193143Y0193855D01*
X0193232Y0193724D01*
X0193316Y0193590D01*
X0193398Y0193454D01*
X0193476Y0193317D01*
X0193550Y0193177D01*
X0193621Y0193035D01*
X0193689Y0192892D01*
X0193753Y0192747D01*
X0193813Y0192601D01*
X0193869Y0192453D01*
X0193922Y0192304D01*
X0193971Y0192153D01*
X0194016Y0192001D01*
X0194057Y0191848D01*
X0194095Y0191695D01*
X0194128Y0191540D01*
X0194158Y0191384D01*
X0194184Y0191228D01*
X0194205Y0191071D01*
X0194223Y0190914D01*
X0194237Y0190756D01*
X0194247Y0190598D01*
X0194253Y0190440D01*
X0194255Y0190282D01*
X0194253Y0190124D01*
X0194247Y0189966D01*
X0194237Y0189808D01*
X0194223Y0189650D01*
X0194205Y0189493D01*
X0194184Y0189336D01*
X0194158Y0189180D01*
X0194128Y0189024D01*
X0194095Y0188869D01*
X0194057Y0188716D01*
X0194016Y0188563D01*
X0193971Y0188411D01*
X0193922Y0188260D01*
X0193869Y0188111D01*
X0193813Y0187963D01*
X0193753Y0187817D01*
X0193689Y0187672D01*
X0193621Y0187529D01*
X0193550Y0187387D01*
X0193476Y0187247D01*
X0193398Y0187110D01*
X0193316Y0186974D01*
X0193232Y0186840D01*
X0193143Y0186709D01*
X0193052Y0186580D01*
X0192957Y0186453D01*
X0192860Y0186328D01*
X0192759Y0186206D01*
X0192655Y0186087D01*
X0192548Y0185970D01*
X0192438Y0185856D01*
X0192325Y0185745D01*
X0192210Y0185636D01*
X0192092Y0185531D01*
X0191971Y0185429D01*
X0191848Y0185329D01*
X0191722Y0185233D01*
X0191594Y0185140D01*
X0191464Y0185050D01*
X0191331Y0184964D01*
X0191196Y0184880D01*
X0191060Y0184801D01*
X0190921Y0184724D01*
X0190780Y0184652D01*
X0190638Y0184582D01*
X0190494Y0184517D01*
X0190348Y0184455D01*
X0190201Y0184397D01*
X0190052Y0184342D01*
X0189902Y0184291D01*
X0189751Y0184244D01*
X0189599Y0184201D01*
X0189446Y0184162D01*
X0189291Y0184126D01*
X0189136Y0184095D01*
X0188980Y0184067D01*
X0188824Y0184043D01*
X0188667Y0184023D01*
X0188509Y0184007D01*
X0188352Y0183995D01*
X0188193Y0183987D01*
X0188035Y0183983D01*
X0187877Y0183983D01*
X0187719Y0183987D01*
X0187560Y0183995D01*
X0187403Y0184007D01*
X0187245Y0184023D01*
X0187088Y0184043D01*
X0186932Y0184067D01*
X0186776Y0184095D01*
X0186621Y0184126D01*
X0186466Y0184162D01*
X0186313Y0184201D01*
X0186161Y0184244D01*
X0186010Y0184291D01*
X0185860Y0184342D01*
X0185711Y0184397D01*
X0185564Y0184455D01*
X0185418Y0184517D01*
X0185274Y0184582D01*
X0185132Y0184652D01*
X0184991Y0184724D01*
X0184852Y0184801D01*
X0184716Y0184880D01*
X0184581Y0184964D01*
X0184448Y0185050D01*
X0184318Y0185140D01*
X0184190Y0185233D01*
X0184064Y0185329D01*
X0183941Y0185429D01*
X0183820Y0185531D01*
X0183702Y0185636D01*
X0183587Y0185745D01*
X0183474Y0185856D01*
X0183364Y0185970D01*
X0183257Y0186087D01*
X0183153Y0186206D01*
X0183052Y0186328D01*
X0182955Y0186453D01*
X0182860Y0186580D01*
X0182769Y0186709D01*
X0182680Y0186840D01*
X0182596Y0186974D01*
X0182514Y0187110D01*
X0182436Y0187247D01*
X0182362Y0187387D01*
X0182291Y0187529D01*
X0182223Y0187672D01*
X0182159Y0187817D01*
X0182099Y0187963D01*
X0182043Y0188111D01*
X0181990Y0188260D01*
X0181941Y0188411D01*
X0181896Y0188563D01*
X0181855Y0188716D01*
X0181817Y0188869D01*
X0181784Y0189024D01*
X0181754Y0189180D01*
X0181728Y0189336D01*
X0181707Y0189493D01*
X0181689Y0189650D01*
X0181675Y0189808D01*
X0181665Y0189966D01*
X0181659Y0190124D01*
X0181657Y0190282D01*
X0181657Y0080046D02*
X0181659Y0080204D01*
X0181665Y0080362D01*
X0181675Y0080520D01*
X0181689Y0080678D01*
X0181707Y0080835D01*
X0181728Y0080992D01*
X0181754Y0081148D01*
X0181784Y0081304D01*
X0181817Y0081459D01*
X0181855Y0081612D01*
X0181896Y0081765D01*
X0181941Y0081917D01*
X0181990Y0082068D01*
X0182043Y0082217D01*
X0182099Y0082365D01*
X0182159Y0082511D01*
X0182223Y0082656D01*
X0182291Y0082799D01*
X0182362Y0082941D01*
X0182436Y0083081D01*
X0182514Y0083218D01*
X0182596Y0083354D01*
X0182680Y0083488D01*
X0182769Y0083619D01*
X0182860Y0083748D01*
X0182955Y0083875D01*
X0183052Y0084000D01*
X0183153Y0084122D01*
X0183257Y0084241D01*
X0183364Y0084358D01*
X0183474Y0084472D01*
X0183587Y0084583D01*
X0183702Y0084692D01*
X0183820Y0084797D01*
X0183941Y0084899D01*
X0184064Y0084999D01*
X0184190Y0085095D01*
X0184318Y0085188D01*
X0184448Y0085278D01*
X0184581Y0085364D01*
X0184716Y0085448D01*
X0184852Y0085527D01*
X0184991Y0085604D01*
X0185132Y0085676D01*
X0185274Y0085746D01*
X0185418Y0085811D01*
X0185564Y0085873D01*
X0185711Y0085931D01*
X0185860Y0085986D01*
X0186010Y0086037D01*
X0186161Y0086084D01*
X0186313Y0086127D01*
X0186466Y0086166D01*
X0186621Y0086202D01*
X0186776Y0086233D01*
X0186932Y0086261D01*
X0187088Y0086285D01*
X0187245Y0086305D01*
X0187403Y0086321D01*
X0187560Y0086333D01*
X0187719Y0086341D01*
X0187877Y0086345D01*
X0188035Y0086345D01*
X0188193Y0086341D01*
X0188352Y0086333D01*
X0188509Y0086321D01*
X0188667Y0086305D01*
X0188824Y0086285D01*
X0188980Y0086261D01*
X0189136Y0086233D01*
X0189291Y0086202D01*
X0189446Y0086166D01*
X0189599Y0086127D01*
X0189751Y0086084D01*
X0189902Y0086037D01*
X0190052Y0085986D01*
X0190201Y0085931D01*
X0190348Y0085873D01*
X0190494Y0085811D01*
X0190638Y0085746D01*
X0190780Y0085676D01*
X0190921Y0085604D01*
X0191060Y0085527D01*
X0191196Y0085448D01*
X0191331Y0085364D01*
X0191464Y0085278D01*
X0191594Y0085188D01*
X0191722Y0085095D01*
X0191848Y0084999D01*
X0191971Y0084899D01*
X0192092Y0084797D01*
X0192210Y0084692D01*
X0192325Y0084583D01*
X0192438Y0084472D01*
X0192548Y0084358D01*
X0192655Y0084241D01*
X0192759Y0084122D01*
X0192860Y0084000D01*
X0192957Y0083875D01*
X0193052Y0083748D01*
X0193143Y0083619D01*
X0193232Y0083488D01*
X0193316Y0083354D01*
X0193398Y0083218D01*
X0193476Y0083081D01*
X0193550Y0082941D01*
X0193621Y0082799D01*
X0193689Y0082656D01*
X0193753Y0082511D01*
X0193813Y0082365D01*
X0193869Y0082217D01*
X0193922Y0082068D01*
X0193971Y0081917D01*
X0194016Y0081765D01*
X0194057Y0081612D01*
X0194095Y0081459D01*
X0194128Y0081304D01*
X0194158Y0081148D01*
X0194184Y0080992D01*
X0194205Y0080835D01*
X0194223Y0080678D01*
X0194237Y0080520D01*
X0194247Y0080362D01*
X0194253Y0080204D01*
X0194255Y0080046D01*
X0194253Y0079888D01*
X0194247Y0079730D01*
X0194237Y0079572D01*
X0194223Y0079414D01*
X0194205Y0079257D01*
X0194184Y0079100D01*
X0194158Y0078944D01*
X0194128Y0078788D01*
X0194095Y0078633D01*
X0194057Y0078480D01*
X0194016Y0078327D01*
X0193971Y0078175D01*
X0193922Y0078024D01*
X0193869Y0077875D01*
X0193813Y0077727D01*
X0193753Y0077581D01*
X0193689Y0077436D01*
X0193621Y0077293D01*
X0193550Y0077151D01*
X0193476Y0077011D01*
X0193398Y0076874D01*
X0193316Y0076738D01*
X0193232Y0076604D01*
X0193143Y0076473D01*
X0193052Y0076344D01*
X0192957Y0076217D01*
X0192860Y0076092D01*
X0192759Y0075970D01*
X0192655Y0075851D01*
X0192548Y0075734D01*
X0192438Y0075620D01*
X0192325Y0075509D01*
X0192210Y0075400D01*
X0192092Y0075295D01*
X0191971Y0075193D01*
X0191848Y0075093D01*
X0191722Y0074997D01*
X0191594Y0074904D01*
X0191464Y0074814D01*
X0191331Y0074728D01*
X0191196Y0074644D01*
X0191060Y0074565D01*
X0190921Y0074488D01*
X0190780Y0074416D01*
X0190638Y0074346D01*
X0190494Y0074281D01*
X0190348Y0074219D01*
X0190201Y0074161D01*
X0190052Y0074106D01*
X0189902Y0074055D01*
X0189751Y0074008D01*
X0189599Y0073965D01*
X0189446Y0073926D01*
X0189291Y0073890D01*
X0189136Y0073859D01*
X0188980Y0073831D01*
X0188824Y0073807D01*
X0188667Y0073787D01*
X0188509Y0073771D01*
X0188352Y0073759D01*
X0188193Y0073751D01*
X0188035Y0073747D01*
X0187877Y0073747D01*
X0187719Y0073751D01*
X0187560Y0073759D01*
X0187403Y0073771D01*
X0187245Y0073787D01*
X0187088Y0073807D01*
X0186932Y0073831D01*
X0186776Y0073859D01*
X0186621Y0073890D01*
X0186466Y0073926D01*
X0186313Y0073965D01*
X0186161Y0074008D01*
X0186010Y0074055D01*
X0185860Y0074106D01*
X0185711Y0074161D01*
X0185564Y0074219D01*
X0185418Y0074281D01*
X0185274Y0074346D01*
X0185132Y0074416D01*
X0184991Y0074488D01*
X0184852Y0074565D01*
X0184716Y0074644D01*
X0184581Y0074728D01*
X0184448Y0074814D01*
X0184318Y0074904D01*
X0184190Y0074997D01*
X0184064Y0075093D01*
X0183941Y0075193D01*
X0183820Y0075295D01*
X0183702Y0075400D01*
X0183587Y0075509D01*
X0183474Y0075620D01*
X0183364Y0075734D01*
X0183257Y0075851D01*
X0183153Y0075970D01*
X0183052Y0076092D01*
X0182955Y0076217D01*
X0182860Y0076344D01*
X0182769Y0076473D01*
X0182680Y0076604D01*
X0182596Y0076738D01*
X0182514Y0076874D01*
X0182436Y0077011D01*
X0182362Y0077151D01*
X0182291Y0077293D01*
X0182223Y0077436D01*
X0182159Y0077581D01*
X0182099Y0077727D01*
X0182043Y0077875D01*
X0181990Y0078024D01*
X0181941Y0078175D01*
X0181896Y0078327D01*
X0181855Y0078480D01*
X0181817Y0078633D01*
X0181784Y0078788D01*
X0181754Y0078944D01*
X0181728Y0079100D01*
X0181707Y0079257D01*
X0181689Y0079414D01*
X0181675Y0079572D01*
X0181665Y0079730D01*
X0181659Y0079888D01*
X0181657Y0080046D01*
D11*
X0163102Y0166058D03*
X0163102Y0176058D03*
X0153102Y0176058D03*
X0143102Y0176058D03*
X0143102Y0166058D03*
X0153102Y0166058D03*
D12*
X0205602Y0231058D03*
X0215602Y0231058D03*
D13*
X0073602Y0232058D03*
X0058602Y0232058D03*
X0084602Y0043558D03*
X0099602Y0043558D03*
X0114602Y0043558D03*
X0129602Y0043558D03*
X0144602Y0043558D03*
X0159602Y0043558D03*
X0174602Y0043558D03*
D14*
X0175102Y0043531D02*
X0241575Y0043531D01*
X0241575Y0044529D02*
X0181546Y0044529D01*
X0181494Y0044929D02*
X0181256Y0045816D01*
X0180904Y0046666D01*
X0180445Y0047462D01*
X0179885Y0048191D01*
X0179235Y0048841D01*
X0178506Y0049400D01*
X0177710Y0049860D01*
X0176861Y0050212D01*
X0175973Y0050450D01*
X0175102Y0050564D01*
X0175102Y0044058D01*
X0174102Y0044058D01*
X0174102Y0050564D01*
X0173231Y0050450D01*
X0172343Y0050212D01*
X0171494Y0049860D01*
X0170698Y0049400D01*
X0169969Y0048841D01*
X0169602Y0048474D01*
X0169602Y0049886D01*
X0168430Y0051058D01*
X0164430Y0055058D01*
X0078774Y0055058D01*
X0077602Y0053886D01*
X0072602Y0048886D01*
X0072602Y0038729D01*
X0073774Y0037558D01*
X0078102Y0033229D01*
X0079274Y0032058D01*
X0163930Y0032058D01*
X0165102Y0033229D01*
X0169602Y0037729D01*
X0169602Y0038642D01*
X0169969Y0038275D01*
X0170698Y0037715D01*
X0171494Y0037256D01*
X0172343Y0036904D01*
X0173231Y0036666D01*
X0174102Y0036551D01*
X0174102Y0043058D01*
X0175102Y0043058D01*
X0175102Y0044058D01*
X0181609Y0044058D01*
X0181494Y0044929D01*
X0181333Y0045528D02*
X0241575Y0045528D01*
X0241575Y0046526D02*
X0180962Y0046526D01*
X0180396Y0047525D02*
X0241575Y0047525D01*
X0241575Y0048523D02*
X0179552Y0048523D01*
X0178295Y0049522D02*
X0241575Y0049522D01*
X0241575Y0050521D02*
X0175434Y0050521D01*
X0175102Y0050521D02*
X0174102Y0050521D01*
X0173770Y0050521D02*
X0168968Y0050521D01*
X0169602Y0049522D02*
X0170909Y0049522D01*
X0169652Y0048523D02*
X0169602Y0048523D01*
X0167969Y0051519D02*
X0241575Y0051519D01*
X0241575Y0052518D02*
X0229012Y0052518D01*
X0228585Y0052091D02*
X0229569Y0053075D01*
X0230102Y0054362D01*
X0230102Y0055754D01*
X0229569Y0057040D01*
X0226102Y0060507D01*
X0226102Y0079477D01*
X0226247Y0079622D01*
X0226902Y0081202D01*
X0226902Y0082913D01*
X0226247Y0084493D01*
X0225038Y0085703D01*
X0223457Y0086358D01*
X0221747Y0086358D01*
X0220166Y0085703D01*
X0220021Y0085558D01*
X0219052Y0085558D01*
X0202585Y0102025D01*
X0201298Y0102558D01*
X0199552Y0102558D01*
X0198085Y0104025D01*
X0196798Y0104558D01*
X0110406Y0104558D01*
X0109119Y0104025D01*
X0108135Y0103040D01*
X0107452Y0102358D01*
X0107247Y0102358D01*
X0105666Y0101703D01*
X0104457Y0100493D01*
X0103802Y0098913D01*
X0103802Y0097202D01*
X0104457Y0095622D01*
X0105666Y0094412D01*
X0107247Y0093758D01*
X0108957Y0093758D01*
X0110538Y0094412D01*
X0111747Y0095622D01*
X0112402Y0097202D01*
X0112402Y0097408D01*
X0112552Y0097558D01*
X0131102Y0097558D01*
X0131102Y0093862D01*
X0131635Y0092575D01*
X0132619Y0091591D01*
X0133906Y0091058D01*
X0135298Y0091058D01*
X0136585Y0091591D01*
X0137569Y0092575D01*
X0138102Y0093862D01*
X0138102Y0097558D01*
X0156102Y0097558D01*
X0156102Y0093862D01*
X0156635Y0092575D01*
X0157619Y0091591D01*
X0158906Y0091058D01*
X0160298Y0091058D01*
X0161585Y0091591D01*
X0162569Y0092575D01*
X0163102Y0093862D01*
X0163102Y0097558D01*
X0194652Y0097558D01*
X0196119Y0096091D01*
X0197406Y0095558D01*
X0199152Y0095558D01*
X0214635Y0080075D01*
X0215619Y0079091D01*
X0216906Y0078558D01*
X0219102Y0078558D01*
X0219102Y0058362D01*
X0219635Y0057075D01*
X0220619Y0056091D01*
X0224619Y0052091D01*
X0225906Y0051558D01*
X0227298Y0051558D01*
X0228585Y0052091D01*
X0229752Y0053516D02*
X0241575Y0053516D01*
X0241575Y0054515D02*
X0230102Y0054515D01*
X0230102Y0055513D02*
X0241575Y0055513D01*
X0241575Y0056512D02*
X0229788Y0056512D01*
X0229099Y0057510D02*
X0241575Y0057510D01*
X0241575Y0058509D02*
X0228101Y0058509D01*
X0227102Y0059507D02*
X0241575Y0059507D01*
X0241575Y0060506D02*
X0226104Y0060506D01*
X0226102Y0061504D02*
X0241575Y0061504D01*
X0241575Y0062503D02*
X0226102Y0062503D01*
X0226102Y0063501D02*
X0241575Y0063501D01*
X0241575Y0064500D02*
X0226102Y0064500D01*
X0226102Y0065498D02*
X0241575Y0065498D01*
X0241575Y0066497D02*
X0226102Y0066497D01*
X0226102Y0067495D02*
X0241575Y0067495D01*
X0241575Y0068494D02*
X0226102Y0068494D01*
X0226102Y0069492D02*
X0241575Y0069492D01*
X0241575Y0070491D02*
X0226102Y0070491D01*
X0226102Y0071489D02*
X0241575Y0071489D01*
X0241575Y0072488D02*
X0226102Y0072488D01*
X0226102Y0073486D02*
X0241575Y0073486D01*
X0241575Y0074485D02*
X0226102Y0074485D01*
X0226102Y0075483D02*
X0241575Y0075483D01*
X0241575Y0076482D02*
X0226102Y0076482D01*
X0226102Y0077480D02*
X0241575Y0077480D01*
X0241575Y0078479D02*
X0226102Y0078479D01*
X0226103Y0079477D02*
X0241575Y0079477D01*
X0241575Y0080476D02*
X0226601Y0080476D01*
X0226902Y0081474D02*
X0241575Y0081474D01*
X0241575Y0082473D02*
X0226902Y0082473D01*
X0226671Y0083471D02*
X0241575Y0083471D01*
X0241575Y0084470D02*
X0226257Y0084470D01*
X0225272Y0085468D02*
X0241575Y0085468D01*
X0241575Y0086467D02*
X0218143Y0086467D01*
X0217144Y0087465D02*
X0241575Y0087465D01*
X0241575Y0088464D02*
X0216146Y0088464D01*
X0215147Y0089462D02*
X0241575Y0089462D01*
X0241575Y0090461D02*
X0214149Y0090461D01*
X0213150Y0091459D02*
X0241575Y0091459D01*
X0241575Y0092458D02*
X0212152Y0092458D01*
X0211153Y0093457D02*
X0241575Y0093457D01*
X0241575Y0094455D02*
X0210155Y0094455D01*
X0209156Y0095454D02*
X0241575Y0095454D01*
X0241575Y0096452D02*
X0208157Y0096452D01*
X0207159Y0097451D02*
X0241575Y0097451D01*
X0241575Y0098449D02*
X0206160Y0098449D01*
X0205162Y0099448D02*
X0241575Y0099448D01*
X0241575Y0100446D02*
X0204163Y0100446D01*
X0203165Y0101445D02*
X0241575Y0101445D01*
X0241575Y0102443D02*
X0201575Y0102443D01*
X0198668Y0103442D02*
X0241575Y0103442D01*
X0241575Y0104440D02*
X0197082Y0104440D01*
X0194759Y0097451D02*
X0163102Y0097451D01*
X0163102Y0096452D02*
X0182347Y0096452D01*
X0180687Y0095964D02*
X0180687Y0095964D01*
X0185466Y0097368D01*
X0190447Y0097368D01*
X0195226Y0095964D01*
X0195226Y0095964D01*
X0199416Y0093272D01*
X0199416Y0093272D01*
X0202678Y0089507D01*
X0202678Y0089507D01*
X0204748Y0084976D01*
X0204748Y0084976D01*
X0205456Y0080046D01*
X0204748Y0075116D01*
X0204748Y0075116D01*
X0202678Y0070585D01*
X0202678Y0070585D01*
X0199416Y0066820D01*
X0195226Y0064127D01*
X0195226Y0064127D01*
X0190447Y0062724D01*
X0185466Y0062724D01*
X0180687Y0064127D01*
X0180687Y0064127D01*
X0176496Y0066820D01*
X0176496Y0066820D01*
X0173234Y0070585D01*
X0173234Y0070585D01*
X0171165Y0075116D01*
X0171165Y0075116D01*
X0170456Y0080046D01*
X0170456Y0080046D01*
X0171165Y0084976D01*
X0171165Y0084976D01*
X0173234Y0089507D01*
X0173234Y0089507D01*
X0176496Y0093272D01*
X0176496Y0093272D01*
X0176496Y0093272D01*
X0180687Y0095964D01*
X0179892Y0095454D02*
X0163102Y0095454D01*
X0163102Y0094455D02*
X0178338Y0094455D01*
X0176784Y0093457D02*
X0162934Y0093457D01*
X0162452Y0092458D02*
X0175791Y0092458D01*
X0174926Y0091459D02*
X0161268Y0091459D01*
X0157936Y0091459D02*
X0136268Y0091459D01*
X0137452Y0092458D02*
X0156752Y0092458D01*
X0156270Y0093457D02*
X0137934Y0093457D01*
X0138102Y0094455D02*
X0156102Y0094455D01*
X0156102Y0095454D02*
X0138102Y0095454D01*
X0138102Y0096452D02*
X0156102Y0096452D01*
X0156102Y0097451D02*
X0138102Y0097451D01*
X0132936Y0091459D02*
X0090750Y0091459D01*
X0091616Y0090461D02*
X0174061Y0090461D01*
X0173214Y0089462D02*
X0092462Y0089462D01*
X0092442Y0089507D02*
X0092442Y0089507D01*
X0094511Y0084976D01*
X0095220Y0080046D01*
X0095220Y0080046D01*
X0094511Y0075116D01*
X0092442Y0070585D01*
X0089180Y0066820D01*
X0089180Y0066820D01*
X0084990Y0064127D01*
X0084990Y0064127D01*
X0080211Y0062724D01*
X0075230Y0062724D01*
X0070450Y0064127D01*
X0070450Y0064127D01*
X0066260Y0066820D01*
X0066260Y0066820D01*
X0062998Y0070585D01*
X0062998Y0070585D01*
X0060929Y0075116D01*
X0060929Y0075116D01*
X0060220Y0080046D01*
X0060220Y0080046D01*
X0060929Y0084976D01*
X0060929Y0084976D01*
X0062998Y0089507D01*
X0062998Y0089507D01*
X0066260Y0093272D01*
X0066260Y0093272D01*
X0066260Y0093272D01*
X0070450Y0095964D01*
X0070450Y0095964D01*
X0075230Y0097368D01*
X0080211Y0097368D01*
X0084990Y0095964D01*
X0084990Y0095964D01*
X0089180Y0093272D01*
X0089180Y0093272D01*
X0092442Y0089507D01*
X0092919Y0088464D02*
X0172758Y0088464D01*
X0172302Y0087465D02*
X0093375Y0087465D01*
X0093831Y0086467D02*
X0171846Y0086467D01*
X0171390Y0085468D02*
X0094287Y0085468D01*
X0094511Y0084976D02*
X0094511Y0084976D01*
X0094584Y0084470D02*
X0171092Y0084470D01*
X0170949Y0083471D02*
X0094728Y0083471D01*
X0094871Y0082473D02*
X0170805Y0082473D01*
X0170662Y0081474D02*
X0095015Y0081474D01*
X0095158Y0080476D02*
X0170518Y0080476D01*
X0170538Y0079477D02*
X0095138Y0079477D01*
X0094995Y0078479D02*
X0170682Y0078479D01*
X0170825Y0077480D02*
X0094851Y0077480D01*
X0094708Y0076482D02*
X0170969Y0076482D01*
X0171112Y0075483D02*
X0094564Y0075483D01*
X0094223Y0074485D02*
X0171453Y0074485D01*
X0171909Y0073486D02*
X0093767Y0073486D01*
X0093311Y0072488D02*
X0172365Y0072488D01*
X0172821Y0071489D02*
X0092855Y0071489D01*
X0092361Y0070491D02*
X0173316Y0070491D01*
X0174181Y0069492D02*
X0091495Y0069492D01*
X0090630Y0068494D02*
X0175046Y0068494D01*
X0175912Y0067495D02*
X0089765Y0067495D01*
X0088677Y0066497D02*
X0177000Y0066497D01*
X0178554Y0065498D02*
X0087123Y0065498D01*
X0085569Y0064500D02*
X0180107Y0064500D01*
X0182819Y0063501D02*
X0082857Y0063501D01*
X0078230Y0054515D02*
X0024102Y0054515D01*
X0024102Y0055513D02*
X0221197Y0055513D01*
X0222195Y0054515D02*
X0164974Y0054515D01*
X0165972Y0053516D02*
X0223194Y0053516D01*
X0224193Y0052518D02*
X0166971Y0052518D01*
X0174102Y0049522D02*
X0175102Y0049522D01*
X0175102Y0048523D02*
X0174102Y0048523D01*
X0174102Y0047525D02*
X0175102Y0047525D01*
X0175102Y0046526D02*
X0174102Y0046526D01*
X0174102Y0045528D02*
X0175102Y0045528D01*
X0175102Y0044529D02*
X0174102Y0044529D01*
X0175102Y0043058D02*
X0181609Y0043058D01*
X0181494Y0042187D01*
X0181256Y0041299D01*
X0180904Y0040450D01*
X0180445Y0039654D01*
X0179885Y0038925D01*
X0179235Y0038275D01*
X0178506Y0037715D01*
X0177710Y0037256D01*
X0176861Y0036904D01*
X0175973Y0036666D01*
X0175102Y0036551D01*
X0175102Y0043058D01*
X0175102Y0042532D02*
X0174102Y0042532D01*
X0174102Y0041534D02*
X0175102Y0041534D01*
X0175102Y0040535D02*
X0174102Y0040535D01*
X0174102Y0039537D02*
X0175102Y0039537D01*
X0175102Y0038538D02*
X0174102Y0038538D01*
X0174102Y0037540D02*
X0175102Y0037540D01*
X0178202Y0037540D02*
X0241575Y0037540D01*
X0241575Y0038538D02*
X0179499Y0038538D01*
X0180355Y0039537D02*
X0241575Y0039537D01*
X0241575Y0040535D02*
X0180940Y0040535D01*
X0181319Y0041534D02*
X0241575Y0041534D01*
X0241575Y0042532D02*
X0181539Y0042532D01*
X0171002Y0037540D02*
X0169413Y0037540D01*
X0169602Y0038538D02*
X0169705Y0038538D01*
X0168414Y0036541D02*
X0241575Y0036541D01*
X0241575Y0035543D02*
X0167416Y0035543D01*
X0166417Y0034544D02*
X0241575Y0034544D01*
X0241575Y0033546D02*
X0165419Y0033546D01*
X0164420Y0032547D02*
X0241575Y0032547D01*
X0241575Y0031549D02*
X0024102Y0031549D01*
X0024102Y0032547D02*
X0078784Y0032547D01*
X0078102Y0033229D02*
X0078102Y0033229D01*
X0077786Y0033546D02*
X0024102Y0033546D01*
X0024102Y0034544D02*
X0076787Y0034544D01*
X0075789Y0035543D02*
X0024102Y0035543D01*
X0024102Y0036541D02*
X0074790Y0036541D01*
X0073792Y0037540D02*
X0024102Y0037540D01*
X0024102Y0038538D02*
X0072793Y0038538D01*
X0072602Y0039537D02*
X0024102Y0039537D01*
X0024102Y0040535D02*
X0072602Y0040535D01*
X0072602Y0041534D02*
X0024102Y0041534D01*
X0024102Y0042532D02*
X0072602Y0042532D01*
X0072602Y0043531D02*
X0024102Y0043531D01*
X0024102Y0044529D02*
X0072602Y0044529D01*
X0072602Y0045528D02*
X0024102Y0045528D01*
X0024102Y0046526D02*
X0072602Y0046526D01*
X0072602Y0047525D02*
X0024102Y0047525D01*
X0024102Y0048523D02*
X0072602Y0048523D01*
X0073238Y0049522D02*
X0024102Y0049522D01*
X0024102Y0050521D02*
X0074236Y0050521D01*
X0075235Y0051519D02*
X0024102Y0051519D01*
X0024102Y0052518D02*
X0076233Y0052518D01*
X0077232Y0053516D02*
X0024102Y0053516D01*
X0024102Y0056512D02*
X0220198Y0056512D01*
X0219455Y0057510D02*
X0024102Y0057510D01*
X0024102Y0058509D02*
X0219102Y0058509D01*
X0219102Y0059507D02*
X0024102Y0059507D01*
X0024102Y0060506D02*
X0219102Y0060506D01*
X0219102Y0061504D02*
X0024102Y0061504D01*
X0024102Y0062503D02*
X0219102Y0062503D01*
X0219102Y0063501D02*
X0193094Y0063501D01*
X0195805Y0064500D02*
X0219102Y0064500D01*
X0219102Y0065498D02*
X0197359Y0065498D01*
X0198913Y0066497D02*
X0219102Y0066497D01*
X0219102Y0067495D02*
X0200001Y0067495D01*
X0200866Y0068494D02*
X0219102Y0068494D01*
X0219102Y0069492D02*
X0201732Y0069492D01*
X0202597Y0070491D02*
X0219102Y0070491D01*
X0219102Y0071489D02*
X0203091Y0071489D01*
X0203547Y0072488D02*
X0219102Y0072488D01*
X0219102Y0073486D02*
X0204003Y0073486D01*
X0204459Y0074485D02*
X0219102Y0074485D01*
X0219102Y0075483D02*
X0204800Y0075483D01*
X0204944Y0076482D02*
X0219102Y0076482D01*
X0219102Y0077480D02*
X0205087Y0077480D01*
X0205231Y0078479D02*
X0219102Y0078479D01*
X0215233Y0079477D02*
X0205375Y0079477D01*
X0205395Y0080476D02*
X0214234Y0080476D01*
X0214635Y0080075D02*
X0214635Y0080075D01*
X0213236Y0081474D02*
X0205251Y0081474D01*
X0205107Y0082473D02*
X0212237Y0082473D01*
X0211239Y0083471D02*
X0204964Y0083471D01*
X0204820Y0084470D02*
X0210240Y0084470D01*
X0209242Y0085468D02*
X0204523Y0085468D01*
X0204067Y0086467D02*
X0208243Y0086467D01*
X0207245Y0087465D02*
X0203611Y0087465D01*
X0203155Y0088464D02*
X0206246Y0088464D01*
X0205248Y0089462D02*
X0202699Y0089462D01*
X0201852Y0090461D02*
X0204249Y0090461D01*
X0203251Y0091459D02*
X0200987Y0091459D01*
X0200121Y0092458D02*
X0202252Y0092458D01*
X0201254Y0093457D02*
X0199129Y0093457D01*
X0200255Y0094455D02*
X0197575Y0094455D01*
X0196021Y0095454D02*
X0199257Y0095454D01*
X0195758Y0096452D02*
X0193566Y0096452D01*
X0210449Y0148273D02*
X0211755Y0148273D01*
X0212962Y0148773D01*
X0213886Y0149697D01*
X0214386Y0150904D01*
X0214386Y0152211D01*
X0213886Y0153418D01*
X0212962Y0154342D01*
X0211755Y0154842D01*
X0210449Y0154842D01*
X0209242Y0154342D01*
X0209157Y0154258D01*
X0178720Y0154258D01*
X0168430Y0164548D01*
X0168602Y0164964D01*
X0168602Y0167152D01*
X0167765Y0169173D01*
X0166218Y0170720D01*
X0165403Y0171058D01*
X0166218Y0171395D01*
X0167765Y0172942D01*
X0168602Y0174964D01*
X0168602Y0177152D01*
X0167765Y0179173D01*
X0166218Y0180720D01*
X0164196Y0181558D01*
X0162008Y0181558D01*
X0159987Y0180720D01*
X0158439Y0179173D01*
X0158102Y0178359D01*
X0157765Y0179173D01*
X0156218Y0180720D01*
X0154196Y0181558D01*
X0152008Y0181558D01*
X0149987Y0180720D01*
X0148439Y0179173D01*
X0148102Y0178359D01*
X0147765Y0179173D01*
X0146218Y0180720D01*
X0144196Y0181558D01*
X0142008Y0181558D01*
X0139987Y0180720D01*
X0138439Y0179173D01*
X0137602Y0177152D01*
X0137602Y0174964D01*
X0138439Y0172942D01*
X0139987Y0171395D01*
X0140801Y0171058D01*
X0140219Y0170762D01*
X0139519Y0170253D01*
X0138907Y0169641D01*
X0138398Y0168940D01*
X0138005Y0168169D01*
X0137738Y0167346D01*
X0120102Y0167346D01*
X0120102Y0166348D02*
X0142602Y0166348D01*
X0142602Y0166558D02*
X0142602Y0165558D01*
X0137613Y0165558D01*
X0137738Y0164770D01*
X0138005Y0163946D01*
X0138398Y0163175D01*
X0138907Y0162475D01*
X0139519Y0161863D01*
X0140219Y0161354D01*
X0140991Y0160961D01*
X0141814Y0160693D01*
X0142602Y0160568D01*
X0142602Y0165558D01*
X0143602Y0165558D01*
X0143602Y0160568D01*
X0144390Y0160693D01*
X0145213Y0160961D01*
X0145985Y0161354D01*
X0146685Y0161863D01*
X0147297Y0162475D01*
X0147806Y0163175D01*
X0148102Y0163756D01*
X0148439Y0162942D01*
X0149987Y0161395D01*
X0152008Y0160558D01*
X0154196Y0160558D01*
X0156218Y0161395D01*
X0157765Y0162942D01*
X0158102Y0163757D01*
X0158439Y0162942D01*
X0159987Y0161395D01*
X0162008Y0160558D01*
X0164196Y0160558D01*
X0164612Y0160730D01*
X0176073Y0149269D01*
X0177065Y0148858D01*
X0209157Y0148858D01*
X0209242Y0148773D01*
X0210449Y0148273D01*
X0210205Y0148375D02*
X0104919Y0148375D01*
X0105917Y0149373D02*
X0175968Y0149373D01*
X0174970Y0150372D02*
X0106916Y0150372D01*
X0107914Y0151370D02*
X0173971Y0151370D01*
X0172973Y0152369D02*
X0108913Y0152369D01*
X0109912Y0153367D02*
X0171974Y0153367D01*
X0170976Y0154366D02*
X0110910Y0154366D01*
X0111909Y0155364D02*
X0169977Y0155364D01*
X0168979Y0156363D02*
X0112907Y0156363D01*
X0113906Y0157361D02*
X0167980Y0157361D01*
X0166982Y0158360D02*
X0114904Y0158360D01*
X0115903Y0159358D02*
X0165983Y0159358D01*
X0164985Y0160357D02*
X0116901Y0160357D01*
X0117900Y0161355D02*
X0140217Y0161355D01*
X0139028Y0162354D02*
X0118898Y0162354D01*
X0119897Y0163352D02*
X0138308Y0163352D01*
X0137874Y0164351D02*
X0120102Y0164351D01*
X0120102Y0163558D02*
X0120102Y0248467D01*
X0241575Y0248467D01*
X0241575Y0181192D01*
X0229171Y0181192D01*
X0225157Y0180013D01*
X0221637Y0177751D01*
X0221636Y0177751D01*
X0218896Y0174588D01*
X0217158Y0170782D01*
X0216563Y0166640D01*
X0217158Y0162499D01*
X0217158Y0162499D01*
X0218896Y0158693D01*
X0218896Y0158693D01*
X0221636Y0155530D01*
X0221637Y0155530D01*
X0225157Y0153268D01*
X0229171Y0152089D01*
X0241575Y0152089D01*
X0241575Y0027058D01*
X0024102Y0027058D01*
X0024102Y0147058D01*
X0103602Y0147058D01*
X0120102Y0163558D01*
X0120102Y0165349D02*
X0137646Y0165349D01*
X0137613Y0166558D02*
X0142602Y0166558D01*
X0142602Y0165349D02*
X0143602Y0165349D01*
X0143602Y0164351D02*
X0142602Y0164351D01*
X0142602Y0163352D02*
X0143602Y0163352D01*
X0143602Y0162354D02*
X0142602Y0162354D01*
X0142602Y0161355D02*
X0143602Y0161355D01*
X0145987Y0161355D02*
X0150083Y0161355D01*
X0149028Y0162354D02*
X0147176Y0162354D01*
X0147896Y0163352D02*
X0148270Y0163352D01*
X0156121Y0161355D02*
X0160083Y0161355D01*
X0159028Y0162354D02*
X0157176Y0162354D01*
X0157935Y0163352D02*
X0158270Y0163352D01*
X0166596Y0170342D02*
X0217095Y0170342D01*
X0217158Y0170782D02*
X0217158Y0170782D01*
X0217413Y0171340D02*
X0166086Y0171340D01*
X0167161Y0172339D02*
X0217869Y0172339D01*
X0218325Y0173337D02*
X0191731Y0173337D01*
X0190447Y0172960D02*
X0195226Y0174364D01*
X0199416Y0177057D01*
X0202678Y0180821D01*
X0204748Y0185352D01*
X0205456Y0190282D01*
X0204748Y0195212D01*
X0204748Y0195212D01*
X0202678Y0199743D01*
X0199416Y0203508D01*
X0195226Y0206201D01*
X0190447Y0207604D01*
X0185466Y0207604D01*
X0180687Y0206201D01*
X0176496Y0203508D01*
X0176496Y0203508D01*
X0173234Y0199743D01*
X0171165Y0195212D01*
X0170456Y0190282D01*
X0171165Y0185352D01*
X0173234Y0180821D01*
X0176496Y0177057D01*
X0176496Y0177057D01*
X0180687Y0174364D01*
X0185466Y0172960D01*
X0190447Y0172960D01*
X0195132Y0174336D02*
X0218781Y0174336D01*
X0218896Y0174588D02*
X0218896Y0174588D01*
X0219543Y0175334D02*
X0196737Y0175334D01*
X0195226Y0174364D02*
X0195226Y0174364D01*
X0198291Y0176333D02*
X0220408Y0176333D01*
X0221273Y0177331D02*
X0199655Y0177331D01*
X0199416Y0177057D02*
X0199416Y0177057D01*
X0199416Y0177057D01*
X0200520Y0178330D02*
X0222538Y0178330D01*
X0224092Y0179328D02*
X0201385Y0179328D01*
X0202250Y0180327D02*
X0226227Y0180327D01*
X0225157Y0180013D02*
X0225157Y0180013D01*
X0216951Y0169343D02*
X0167595Y0169343D01*
X0168108Y0168345D02*
X0216808Y0168345D01*
X0216664Y0167346D02*
X0168521Y0167346D01*
X0168602Y0166348D02*
X0216605Y0166348D01*
X0216563Y0166640D02*
X0216563Y0166640D01*
X0216748Y0165349D02*
X0168602Y0165349D01*
X0168627Y0164351D02*
X0216892Y0164351D01*
X0217035Y0163352D02*
X0169626Y0163352D01*
X0170624Y0162354D02*
X0217224Y0162354D01*
X0217680Y0161355D02*
X0171623Y0161355D01*
X0172621Y0160357D02*
X0218136Y0160357D01*
X0218592Y0159358D02*
X0173620Y0159358D01*
X0174618Y0158360D02*
X0219185Y0158360D01*
X0220050Y0157361D02*
X0175617Y0157361D01*
X0176615Y0156363D02*
X0220915Y0156363D01*
X0221636Y0155530D02*
X0221636Y0155530D01*
X0221895Y0155364D02*
X0177614Y0155364D01*
X0178612Y0154366D02*
X0209299Y0154366D01*
X0212905Y0154366D02*
X0223449Y0154366D01*
X0225002Y0153367D02*
X0213907Y0153367D01*
X0214321Y0152369D02*
X0228220Y0152369D01*
X0225157Y0153268D02*
X0225157Y0153268D01*
X0214386Y0151370D02*
X0241575Y0151370D01*
X0241575Y0150372D02*
X0214166Y0150372D01*
X0213562Y0149373D02*
X0241575Y0149373D01*
X0241575Y0148375D02*
X0212000Y0148375D01*
X0202678Y0180821D02*
X0202678Y0180821D01*
X0202909Y0181326D02*
X0241575Y0181326D01*
X0241575Y0182324D02*
X0203365Y0182324D01*
X0203821Y0183323D02*
X0241575Y0183323D01*
X0241575Y0184321D02*
X0204277Y0184321D01*
X0204733Y0185320D02*
X0241575Y0185320D01*
X0241575Y0186318D02*
X0204886Y0186318D01*
X0204748Y0185352D02*
X0204748Y0185352D01*
X0205030Y0187317D02*
X0241575Y0187317D01*
X0241575Y0188315D02*
X0205174Y0188315D01*
X0205317Y0189314D02*
X0241575Y0189314D01*
X0241575Y0190312D02*
X0205452Y0190312D01*
X0205309Y0191311D02*
X0241575Y0191311D01*
X0241575Y0192309D02*
X0205165Y0192309D01*
X0205021Y0193308D02*
X0241575Y0193308D01*
X0241575Y0194306D02*
X0204878Y0194306D01*
X0204705Y0195305D02*
X0241575Y0195305D01*
X0241575Y0196303D02*
X0204249Y0196303D01*
X0203793Y0197302D02*
X0241575Y0197302D01*
X0241575Y0198300D02*
X0203337Y0198300D01*
X0202881Y0199299D02*
X0241575Y0199299D01*
X0241575Y0200297D02*
X0202198Y0200297D01*
X0202678Y0199743D02*
X0202678Y0199743D01*
X0201333Y0201296D02*
X0241575Y0201296D01*
X0241575Y0202294D02*
X0200468Y0202294D01*
X0199603Y0203293D02*
X0241575Y0203293D01*
X0241575Y0204291D02*
X0198197Y0204291D01*
X0199416Y0203508D02*
X0199416Y0203508D01*
X0196644Y0205290D02*
X0241575Y0205290D01*
X0241575Y0206288D02*
X0194928Y0206288D01*
X0195226Y0206201D02*
X0195226Y0206201D01*
X0191527Y0207287D02*
X0241575Y0207287D01*
X0241575Y0208285D02*
X0120102Y0208285D01*
X0120102Y0207287D02*
X0184386Y0207287D01*
X0180985Y0206288D02*
X0120102Y0206288D01*
X0120102Y0205290D02*
X0179269Y0205290D01*
X0177716Y0204291D02*
X0120102Y0204291D01*
X0120102Y0203293D02*
X0176310Y0203293D01*
X0175445Y0202294D02*
X0120102Y0202294D01*
X0120102Y0201296D02*
X0174580Y0201296D01*
X0173714Y0200297D02*
X0120102Y0200297D01*
X0120102Y0199299D02*
X0173031Y0199299D01*
X0173234Y0199743D02*
X0173234Y0199743D01*
X0172575Y0198300D02*
X0120102Y0198300D01*
X0120102Y0197302D02*
X0172119Y0197302D01*
X0171663Y0196303D02*
X0120102Y0196303D01*
X0120102Y0195305D02*
X0171207Y0195305D01*
X0171165Y0195212D02*
X0171165Y0195212D01*
X0171035Y0194306D02*
X0120102Y0194306D01*
X0120102Y0193308D02*
X0170891Y0193308D01*
X0170748Y0192309D02*
X0120102Y0192309D01*
X0120102Y0191311D02*
X0170604Y0191311D01*
X0170461Y0190312D02*
X0120102Y0190312D01*
X0120102Y0189314D02*
X0170596Y0189314D01*
X0170456Y0190282D02*
X0170456Y0190282D01*
X0170739Y0188315D02*
X0120102Y0188315D01*
X0120102Y0187317D02*
X0170883Y0187317D01*
X0171026Y0186318D02*
X0120102Y0186318D01*
X0120102Y0185320D02*
X0171180Y0185320D01*
X0171165Y0185352D02*
X0171165Y0185352D01*
X0171636Y0184321D02*
X0120102Y0184321D01*
X0120102Y0183323D02*
X0172092Y0183323D01*
X0172548Y0182324D02*
X0120102Y0182324D01*
X0120102Y0181326D02*
X0141447Y0181326D01*
X0139593Y0180327D02*
X0120102Y0180327D01*
X0120102Y0179328D02*
X0138595Y0179328D01*
X0138090Y0178330D02*
X0120102Y0178330D01*
X0120102Y0177331D02*
X0137677Y0177331D01*
X0137602Y0176333D02*
X0120102Y0176333D01*
X0120102Y0175334D02*
X0137602Y0175334D01*
X0137862Y0174336D02*
X0120102Y0174336D01*
X0120102Y0173337D02*
X0138276Y0173337D01*
X0139043Y0172339D02*
X0120102Y0172339D01*
X0120102Y0171340D02*
X0140119Y0171340D01*
X0139642Y0170342D02*
X0120102Y0170342D01*
X0120102Y0169343D02*
X0138691Y0169343D01*
X0138095Y0168345D02*
X0120102Y0168345D01*
X0137613Y0166558D02*
X0137738Y0167346D01*
X0147609Y0179328D02*
X0148595Y0179328D01*
X0149593Y0180327D02*
X0146611Y0180327D01*
X0144757Y0181326D02*
X0151447Y0181326D01*
X0154757Y0181326D02*
X0161447Y0181326D01*
X0159593Y0180327D02*
X0156611Y0180327D01*
X0157609Y0179328D02*
X0158595Y0179328D01*
X0164757Y0181326D02*
X0173004Y0181326D01*
X0173234Y0180821D02*
X0173234Y0180821D01*
X0173662Y0180327D02*
X0166611Y0180327D01*
X0167609Y0179328D02*
X0174528Y0179328D01*
X0175393Y0178330D02*
X0168114Y0178330D01*
X0168528Y0177331D02*
X0176258Y0177331D01*
X0177622Y0176333D02*
X0168602Y0176333D01*
X0168602Y0175334D02*
X0179176Y0175334D01*
X0180687Y0174364D02*
X0180687Y0174364D01*
X0180781Y0174336D02*
X0168342Y0174336D01*
X0167928Y0173337D02*
X0184181Y0173337D01*
X0203666Y0226384D02*
X0204421Y0226139D01*
X0205205Y0226014D01*
X0205216Y0226014D01*
X0205216Y0230672D01*
X0200559Y0230672D01*
X0200559Y0230661D01*
X0200683Y0229877D01*
X0200928Y0229122D01*
X0201289Y0228414D01*
X0201755Y0227772D01*
X0202317Y0227211D01*
X0202959Y0226744D01*
X0203666Y0226384D01*
X0204052Y0226259D02*
X0120102Y0226259D01*
X0120102Y0227257D02*
X0202270Y0227257D01*
X0201404Y0228256D02*
X0120102Y0228256D01*
X0120102Y0229254D02*
X0200885Y0229254D01*
X0200623Y0230253D02*
X0120102Y0230253D01*
X0120102Y0231251D02*
X0205216Y0231251D01*
X0205216Y0231444D02*
X0205216Y0230672D01*
X0205988Y0230672D01*
X0205988Y0226014D01*
X0205999Y0226014D01*
X0206783Y0226139D01*
X0207538Y0226384D01*
X0208245Y0226744D01*
X0208888Y0227211D01*
X0209449Y0227772D01*
X0209915Y0228414D01*
X0210276Y0229122D01*
X0210521Y0229877D01*
X0210559Y0230114D01*
X0210559Y0230055D01*
X0211327Y0228201D01*
X0212745Y0226782D01*
X0214599Y0226014D01*
X0216605Y0226014D01*
X0218459Y0226782D01*
X0219878Y0228201D01*
X0220645Y0230055D01*
X0220645Y0232061D01*
X0219878Y0233915D01*
X0218459Y0235333D01*
X0216605Y0236101D01*
X0214599Y0236101D01*
X0212745Y0235333D01*
X0211327Y0233915D01*
X0210559Y0232061D01*
X0210559Y0232001D01*
X0210521Y0232239D01*
X0210276Y0232994D01*
X0209915Y0233701D01*
X0209449Y0234343D01*
X0208888Y0234905D01*
X0208245Y0235371D01*
X0207538Y0235732D01*
X0206783Y0235977D01*
X0205999Y0236101D01*
X0205988Y0236101D01*
X0205988Y0231444D01*
X0205216Y0231444D01*
X0205216Y0236101D01*
X0205205Y0236101D01*
X0204421Y0235977D01*
X0203666Y0235732D01*
X0202959Y0235371D01*
X0202317Y0234905D01*
X0201755Y0234343D01*
X0201289Y0233701D01*
X0200928Y0232994D01*
X0200683Y0232239D01*
X0200559Y0231455D01*
X0200559Y0231444D01*
X0205216Y0231444D01*
X0205216Y0232250D02*
X0205988Y0232250D01*
X0205988Y0233248D02*
X0205216Y0233248D01*
X0205216Y0234247D02*
X0205988Y0234247D01*
X0205988Y0235245D02*
X0205216Y0235245D01*
X0202785Y0235245D02*
X0120102Y0235245D01*
X0120102Y0234247D02*
X0201685Y0234247D01*
X0201058Y0233248D02*
X0120102Y0233248D01*
X0120102Y0232250D02*
X0200686Y0232250D01*
X0205216Y0230253D02*
X0205988Y0230253D01*
X0205988Y0229254D02*
X0205216Y0229254D01*
X0205216Y0228256D02*
X0205988Y0228256D01*
X0205988Y0227257D02*
X0205216Y0227257D01*
X0205216Y0226259D02*
X0205988Y0226259D01*
X0207152Y0226259D02*
X0214010Y0226259D01*
X0212270Y0227257D02*
X0208934Y0227257D01*
X0209800Y0228256D02*
X0211304Y0228256D01*
X0210890Y0229254D02*
X0210319Y0229254D01*
X0210518Y0232250D02*
X0210637Y0232250D01*
X0211051Y0233248D02*
X0210146Y0233248D01*
X0209519Y0234247D02*
X0211659Y0234247D01*
X0212657Y0235245D02*
X0208419Y0235245D01*
X0218547Y0235245D02*
X0241575Y0235245D01*
X0241575Y0234247D02*
X0219545Y0234247D01*
X0220154Y0233248D02*
X0241575Y0233248D01*
X0241575Y0232250D02*
X0220567Y0232250D01*
X0220645Y0231251D02*
X0241575Y0231251D01*
X0241575Y0230253D02*
X0220645Y0230253D01*
X0220314Y0229254D02*
X0241575Y0229254D01*
X0241575Y0228256D02*
X0219900Y0228256D01*
X0218934Y0227257D02*
X0241575Y0227257D01*
X0241575Y0226259D02*
X0217195Y0226259D01*
X0241575Y0225260D02*
X0120102Y0225260D01*
X0120102Y0224261D02*
X0241575Y0224261D01*
X0241575Y0223263D02*
X0120102Y0223263D01*
X0120102Y0222264D02*
X0241575Y0222264D01*
X0241575Y0221266D02*
X0120102Y0221266D01*
X0120102Y0220267D02*
X0241575Y0220267D01*
X0241575Y0219269D02*
X0120102Y0219269D01*
X0120102Y0218270D02*
X0241575Y0218270D01*
X0241575Y0217272D02*
X0120102Y0217272D01*
X0120102Y0216273D02*
X0241575Y0216273D01*
X0241575Y0215275D02*
X0120102Y0215275D01*
X0120102Y0214276D02*
X0241575Y0214276D01*
X0241575Y0213278D02*
X0120102Y0213278D01*
X0120102Y0212279D02*
X0241575Y0212279D01*
X0241575Y0211281D02*
X0120102Y0211281D01*
X0120102Y0210282D02*
X0241575Y0210282D01*
X0241575Y0209284D02*
X0120102Y0209284D01*
X0120102Y0236244D02*
X0241575Y0236244D01*
X0241575Y0237242D02*
X0120102Y0237242D01*
X0120102Y0238241D02*
X0241575Y0238241D01*
X0241575Y0239239D02*
X0120102Y0239239D01*
X0120102Y0240238D02*
X0241575Y0240238D01*
X0241575Y0241236D02*
X0120102Y0241236D01*
X0120102Y0242235D02*
X0241575Y0242235D01*
X0241575Y0243233D02*
X0120102Y0243233D01*
X0120102Y0244232D02*
X0241575Y0244232D01*
X0241575Y0245230D02*
X0120102Y0245230D01*
X0120102Y0246229D02*
X0241575Y0246229D01*
X0241575Y0247227D02*
X0120102Y0247227D01*
X0120102Y0248226D02*
X0241575Y0248226D01*
X0241575Y0147376D02*
X0103920Y0147376D01*
X0110122Y0104440D02*
X0024102Y0104440D01*
X0024102Y0103442D02*
X0108536Y0103442D01*
X0107538Y0102443D02*
X0024102Y0102443D01*
X0024102Y0101445D02*
X0105408Y0101445D01*
X0104437Y0100446D02*
X0024102Y0100446D01*
X0024102Y0099448D02*
X0104023Y0099448D01*
X0103802Y0098449D02*
X0024102Y0098449D01*
X0024102Y0097451D02*
X0103802Y0097451D01*
X0104113Y0096452D02*
X0083329Y0096452D01*
X0085785Y0095454D02*
X0104625Y0095454D01*
X0105624Y0094455D02*
X0087339Y0094455D01*
X0088892Y0093457D02*
X0131270Y0093457D01*
X0131102Y0094455D02*
X0110580Y0094455D01*
X0111579Y0095454D02*
X0131102Y0095454D01*
X0131102Y0096452D02*
X0112091Y0096452D01*
X0112445Y0097451D02*
X0131102Y0097451D01*
X0131752Y0092458D02*
X0089885Y0092458D01*
X0072111Y0096452D02*
X0024102Y0096452D01*
X0024102Y0095454D02*
X0069655Y0095454D01*
X0068102Y0094455D02*
X0024102Y0094455D01*
X0024102Y0093457D02*
X0066548Y0093457D01*
X0065555Y0092458D02*
X0024102Y0092458D01*
X0024102Y0091459D02*
X0064690Y0091459D01*
X0063825Y0090461D02*
X0024102Y0090461D01*
X0024102Y0089462D02*
X0062978Y0089462D01*
X0062522Y0088464D02*
X0024102Y0088464D01*
X0024102Y0087465D02*
X0062066Y0087465D01*
X0061610Y0086467D02*
X0024102Y0086467D01*
X0024102Y0085468D02*
X0061154Y0085468D01*
X0060856Y0084470D02*
X0024102Y0084470D01*
X0024102Y0083471D02*
X0060713Y0083471D01*
X0060569Y0082473D02*
X0024102Y0082473D01*
X0024102Y0081474D02*
X0060426Y0081474D01*
X0060282Y0080476D02*
X0024102Y0080476D01*
X0024102Y0079477D02*
X0060302Y0079477D01*
X0060445Y0078479D02*
X0024102Y0078479D01*
X0024102Y0077480D02*
X0060589Y0077480D01*
X0060733Y0076482D02*
X0024102Y0076482D01*
X0024102Y0075483D02*
X0060876Y0075483D01*
X0061217Y0074485D02*
X0024102Y0074485D01*
X0024102Y0073486D02*
X0061673Y0073486D01*
X0062129Y0072488D02*
X0024102Y0072488D01*
X0024102Y0071489D02*
X0062585Y0071489D01*
X0063080Y0070491D02*
X0024102Y0070491D01*
X0024102Y0069492D02*
X0063945Y0069492D01*
X0064810Y0068494D02*
X0024102Y0068494D01*
X0024102Y0067495D02*
X0065675Y0067495D01*
X0066764Y0066497D02*
X0024102Y0066497D01*
X0024102Y0065498D02*
X0068317Y0065498D01*
X0069871Y0064500D02*
X0024102Y0064500D01*
X0024102Y0063501D02*
X0072583Y0063501D01*
X0073774Y0037558D02*
X0073774Y0037558D01*
X0024102Y0030550D02*
X0241575Y0030550D01*
X0241575Y0029552D02*
X0024102Y0029552D01*
X0024102Y0028553D02*
X0241575Y0028553D01*
X0241575Y0027555D02*
X0024102Y0027555D01*
X0024102Y0105439D02*
X0241575Y0105439D01*
X0241575Y0106437D02*
X0024102Y0106437D01*
X0024102Y0107436D02*
X0241575Y0107436D01*
X0241575Y0108434D02*
X0024102Y0108434D01*
X0024102Y0109433D02*
X0241575Y0109433D01*
X0241575Y0110431D02*
X0024102Y0110431D01*
X0024102Y0111430D02*
X0241575Y0111430D01*
X0241575Y0112428D02*
X0024102Y0112428D01*
X0024102Y0113427D02*
X0241575Y0113427D01*
X0241575Y0114425D02*
X0024102Y0114425D01*
X0024102Y0115424D02*
X0241575Y0115424D01*
X0241575Y0116422D02*
X0024102Y0116422D01*
X0024102Y0117421D02*
X0241575Y0117421D01*
X0241575Y0118419D02*
X0024102Y0118419D01*
X0024102Y0119418D02*
X0241575Y0119418D01*
X0241575Y0120416D02*
X0024102Y0120416D01*
X0024102Y0121415D02*
X0241575Y0121415D01*
X0241575Y0122413D02*
X0024102Y0122413D01*
X0024102Y0123412D02*
X0241575Y0123412D01*
X0241575Y0124410D02*
X0024102Y0124410D01*
X0024102Y0125409D02*
X0241575Y0125409D01*
X0241575Y0126407D02*
X0024102Y0126407D01*
X0024102Y0127406D02*
X0241575Y0127406D01*
X0241575Y0128404D02*
X0024102Y0128404D01*
X0024102Y0129403D02*
X0241575Y0129403D01*
X0241575Y0130401D02*
X0024102Y0130401D01*
X0024102Y0131400D02*
X0241575Y0131400D01*
X0241575Y0132398D02*
X0024102Y0132398D01*
X0024102Y0133397D02*
X0241575Y0133397D01*
X0241575Y0134395D02*
X0024102Y0134395D01*
X0024102Y0135394D02*
X0241575Y0135394D01*
X0241575Y0136392D02*
X0024102Y0136392D01*
X0024102Y0137391D02*
X0241575Y0137391D01*
X0241575Y0138390D02*
X0024102Y0138390D01*
X0024102Y0139388D02*
X0241575Y0139388D01*
X0241575Y0140387D02*
X0024102Y0140387D01*
X0024102Y0141385D02*
X0241575Y0141385D01*
X0241575Y0142384D02*
X0024102Y0142384D01*
X0024102Y0143382D02*
X0241575Y0143382D01*
X0241575Y0144381D02*
X0024102Y0144381D01*
X0024102Y0145379D02*
X0241575Y0145379D01*
X0241575Y0146378D02*
X0024102Y0146378D01*
D15*
X0067602Y0141558D03*
X0073602Y0141558D03*
X0082102Y0129058D03*
X0088102Y0129058D03*
X0088102Y0123058D03*
X0082102Y0123058D03*
X0082102Y0117058D03*
X0088102Y0117058D03*
X0088102Y0111058D03*
X0082102Y0111058D03*
X0117602Y0094558D03*
X0134602Y0094558D03*
X0142602Y0094558D03*
X0159602Y0094558D03*
X0167602Y0094558D03*
X0143102Y0126058D03*
X0143102Y0131558D03*
X0143102Y0137058D03*
X0137602Y0124558D03*
X0132102Y0124558D03*
X0200602Y0104558D03*
X0200602Y0099058D03*
X0203602Y0123558D03*
X0203602Y0129558D03*
X0211102Y0151558D03*
X0203102Y0170058D03*
X0204102Y0205558D03*
X0191602Y0223558D03*
X0191602Y0229558D03*
X0133602Y0231058D03*
X0133602Y0236558D03*
X0230602Y0112558D03*
X0236602Y0112558D03*
X0234602Y0055058D03*
X0226602Y0055058D03*
D16*
X0222602Y0082058D03*
X0230602Y0082058D03*
X0108102Y0098058D03*
D17*
X0101602Y0120058D03*
D18*
X0163102Y0166058D02*
X0177602Y0151558D01*
X0211102Y0151558D01*
D19*
X0196102Y0101058D02*
X0198102Y0099058D01*
X0200602Y0099058D01*
X0217602Y0082058D01*
X0222602Y0082058D01*
X0222602Y0059058D01*
X0226602Y0055058D01*
X0196102Y0101058D02*
X0159602Y0101058D01*
X0159602Y0094558D01*
X0159602Y0101058D02*
X0134602Y0101058D01*
X0134602Y0094558D01*
X0134602Y0101058D02*
X0111102Y0101058D01*
X0108102Y0098058D01*
M02*
