G75*
%MOIN*%
%OFA0B0*%
%FSLAX25Y25*%
%IPPOS*%
%LPD*%
%AMOC8*
5,1,8,0,0,1.08239X$1,22.5*
%
%ADD10C,0.00000*%
%ADD11C,0.00827*%
%ADD12C,0.00780*%
%ADD13C,0.01535*%
%ADD14C,0.01181*%
%ADD15C,0.01890*%
%ADD16C,0.01984*%
%ADD17C,0.08661*%
%ADD18C,0.01772*%
%ADD19C,0.06800*%
%ADD20C,0.07000*%
%ADD21C,0.01417*%
%ADD22C,0.10236*%
%ADD23C,0.00709*%
%ADD24C,0.01000*%
%ADD25C,0.03569*%
%ADD26C,0.03200*%
%ADD27C,0.05600*%
%ADD28C,0.04000*%
%ADD29C,0.05906*%
%ADD30C,0.01200*%
%ADD31C,0.01600*%
%ADD32C,0.02400*%
D10*
X0022602Y0025558D02*
X0022602Y0153589D01*
X0034413Y0153589D01*
X0034731Y0153593D01*
X0035048Y0153604D01*
X0035366Y0153624D01*
X0035682Y0153651D01*
X0035998Y0153686D01*
X0036313Y0153728D01*
X0036627Y0153778D01*
X0036940Y0153836D01*
X0037251Y0153901D01*
X0037560Y0153974D01*
X0037868Y0154055D01*
X0038173Y0154142D01*
X0038476Y0154238D01*
X0038777Y0154340D01*
X0039075Y0154450D01*
X0039371Y0154567D01*
X0039663Y0154692D01*
X0039953Y0154823D01*
X0040239Y0154961D01*
X0040521Y0155107D01*
X0040800Y0155259D01*
X0041076Y0155418D01*
X0041347Y0155583D01*
X0041614Y0155755D01*
X0041877Y0155934D01*
X0042136Y0156119D01*
X0042389Y0156310D01*
X0042639Y0156507D01*
X0042883Y0156711D01*
X0043122Y0156920D01*
X0043356Y0157135D01*
X0043585Y0157356D01*
X0043808Y0157582D01*
X0044026Y0157813D01*
X0044238Y0158050D01*
X0044445Y0158292D01*
X0044645Y0158538D01*
X0044839Y0158790D01*
X0045027Y0159046D01*
X0045209Y0159307D01*
X0045384Y0159572D01*
X0045553Y0159841D01*
X0045715Y0160115D01*
X0045871Y0160392D01*
X0046020Y0160673D01*
X0046162Y0160957D01*
X0046297Y0161245D01*
X0046424Y0161536D01*
X0046545Y0161830D01*
X0046659Y0162127D01*
X0046765Y0162426D01*
X0046864Y0162728D01*
X0046956Y0163032D01*
X0047040Y0163339D01*
X0047116Y0163647D01*
X0047185Y0163958D01*
X0047247Y0164269D01*
X0047301Y0164583D01*
X0047347Y0164897D01*
X0047386Y0165213D01*
X0047417Y0165529D01*
X0047440Y0165846D01*
X0047455Y0166163D01*
X0047463Y0166481D01*
X0047463Y0166799D01*
X0047455Y0167117D01*
X0047440Y0167434D01*
X0047417Y0167751D01*
X0047386Y0168067D01*
X0047347Y0168383D01*
X0047301Y0168697D01*
X0047247Y0169011D01*
X0047185Y0169322D01*
X0047116Y0169633D01*
X0047040Y0169941D01*
X0046956Y0170248D01*
X0046864Y0170552D01*
X0046765Y0170854D01*
X0046659Y0171153D01*
X0046545Y0171450D01*
X0046424Y0171744D01*
X0046297Y0172035D01*
X0046162Y0172323D01*
X0046020Y0172607D01*
X0045871Y0172888D01*
X0045715Y0173166D01*
X0045553Y0173439D01*
X0045384Y0173708D01*
X0045209Y0173973D01*
X0045027Y0174234D01*
X0044839Y0174490D01*
X0044645Y0174742D01*
X0044445Y0174988D01*
X0044238Y0175230D01*
X0044026Y0175467D01*
X0043808Y0175698D01*
X0043585Y0175924D01*
X0043356Y0176145D01*
X0043122Y0176360D01*
X0042883Y0176569D01*
X0042639Y0176773D01*
X0042389Y0176970D01*
X0042136Y0177161D01*
X0041877Y0177346D01*
X0041614Y0177525D01*
X0041347Y0177697D01*
X0041076Y0177862D01*
X0040800Y0178021D01*
X0040521Y0178173D01*
X0040239Y0178319D01*
X0039953Y0178457D01*
X0039663Y0178588D01*
X0039371Y0178713D01*
X0039075Y0178830D01*
X0038777Y0178940D01*
X0038476Y0179042D01*
X0038173Y0179138D01*
X0037868Y0179225D01*
X0037560Y0179306D01*
X0037251Y0179379D01*
X0036940Y0179444D01*
X0036627Y0179502D01*
X0036313Y0179552D01*
X0035998Y0179594D01*
X0035682Y0179629D01*
X0035366Y0179656D01*
X0035048Y0179676D01*
X0034731Y0179687D01*
X0034413Y0179691D01*
X0034413Y0179692D02*
X0022602Y0179692D01*
X0022602Y0249967D01*
X0243075Y0249967D01*
X0243075Y0179692D01*
X0231263Y0179692D01*
X0231263Y0179691D02*
X0230945Y0179687D01*
X0230628Y0179676D01*
X0230310Y0179656D01*
X0229994Y0179629D01*
X0229678Y0179594D01*
X0229363Y0179552D01*
X0229049Y0179502D01*
X0228736Y0179444D01*
X0228425Y0179379D01*
X0228116Y0179306D01*
X0227808Y0179225D01*
X0227503Y0179138D01*
X0227200Y0179042D01*
X0226899Y0178940D01*
X0226601Y0178830D01*
X0226305Y0178713D01*
X0226013Y0178588D01*
X0225723Y0178457D01*
X0225437Y0178319D01*
X0225155Y0178173D01*
X0224876Y0178021D01*
X0224600Y0177862D01*
X0224329Y0177697D01*
X0224062Y0177525D01*
X0223799Y0177346D01*
X0223540Y0177161D01*
X0223287Y0176970D01*
X0223037Y0176773D01*
X0222793Y0176569D01*
X0222554Y0176360D01*
X0222320Y0176145D01*
X0222091Y0175924D01*
X0221868Y0175698D01*
X0221650Y0175467D01*
X0221438Y0175230D01*
X0221231Y0174988D01*
X0221031Y0174742D01*
X0220837Y0174490D01*
X0220649Y0174234D01*
X0220467Y0173973D01*
X0220292Y0173708D01*
X0220123Y0173439D01*
X0219961Y0173166D01*
X0219805Y0172888D01*
X0219656Y0172607D01*
X0219514Y0172323D01*
X0219379Y0172035D01*
X0219252Y0171744D01*
X0219131Y0171450D01*
X0219017Y0171153D01*
X0218911Y0170854D01*
X0218812Y0170552D01*
X0218720Y0170248D01*
X0218636Y0169941D01*
X0218560Y0169633D01*
X0218491Y0169322D01*
X0218429Y0169011D01*
X0218375Y0168697D01*
X0218329Y0168383D01*
X0218290Y0168067D01*
X0218259Y0167751D01*
X0218236Y0167434D01*
X0218221Y0167117D01*
X0218213Y0166799D01*
X0218213Y0166481D01*
X0218221Y0166163D01*
X0218236Y0165846D01*
X0218259Y0165529D01*
X0218290Y0165213D01*
X0218329Y0164897D01*
X0218375Y0164583D01*
X0218429Y0164269D01*
X0218491Y0163958D01*
X0218560Y0163647D01*
X0218636Y0163339D01*
X0218720Y0163032D01*
X0218812Y0162728D01*
X0218911Y0162426D01*
X0219017Y0162127D01*
X0219131Y0161830D01*
X0219252Y0161536D01*
X0219379Y0161245D01*
X0219514Y0160957D01*
X0219656Y0160673D01*
X0219805Y0160392D01*
X0219961Y0160114D01*
X0220123Y0159841D01*
X0220292Y0159572D01*
X0220467Y0159307D01*
X0220649Y0159046D01*
X0220837Y0158790D01*
X0221031Y0158538D01*
X0221231Y0158292D01*
X0221438Y0158050D01*
X0221650Y0157813D01*
X0221868Y0157582D01*
X0222091Y0157356D01*
X0222320Y0157135D01*
X0222554Y0156920D01*
X0222793Y0156711D01*
X0223037Y0156507D01*
X0223287Y0156310D01*
X0223540Y0156119D01*
X0223799Y0155934D01*
X0224062Y0155755D01*
X0224329Y0155583D01*
X0224600Y0155418D01*
X0224876Y0155259D01*
X0225155Y0155107D01*
X0225437Y0154961D01*
X0225723Y0154823D01*
X0226013Y0154692D01*
X0226305Y0154567D01*
X0226601Y0154450D01*
X0226899Y0154340D01*
X0227200Y0154238D01*
X0227503Y0154142D01*
X0227808Y0154055D01*
X0228116Y0153974D01*
X0228425Y0153901D01*
X0228736Y0153836D01*
X0229049Y0153778D01*
X0229363Y0153728D01*
X0229678Y0153686D01*
X0229994Y0153651D01*
X0230310Y0153624D01*
X0230628Y0153604D01*
X0230945Y0153593D01*
X0231263Y0153589D01*
X0243075Y0153589D01*
X0243075Y0025558D01*
X0022602Y0025558D01*
X0071421Y0080046D02*
X0071423Y0080204D01*
X0071429Y0080362D01*
X0071439Y0080520D01*
X0071453Y0080678D01*
X0071471Y0080835D01*
X0071492Y0080992D01*
X0071518Y0081148D01*
X0071548Y0081304D01*
X0071581Y0081459D01*
X0071619Y0081612D01*
X0071660Y0081765D01*
X0071705Y0081917D01*
X0071754Y0082068D01*
X0071807Y0082217D01*
X0071863Y0082365D01*
X0071923Y0082511D01*
X0071987Y0082656D01*
X0072055Y0082799D01*
X0072126Y0082941D01*
X0072200Y0083081D01*
X0072278Y0083218D01*
X0072360Y0083354D01*
X0072444Y0083488D01*
X0072533Y0083619D01*
X0072624Y0083748D01*
X0072719Y0083875D01*
X0072816Y0084000D01*
X0072917Y0084122D01*
X0073021Y0084241D01*
X0073128Y0084358D01*
X0073238Y0084472D01*
X0073351Y0084583D01*
X0073466Y0084692D01*
X0073584Y0084797D01*
X0073705Y0084899D01*
X0073828Y0084999D01*
X0073954Y0085095D01*
X0074082Y0085188D01*
X0074212Y0085278D01*
X0074345Y0085364D01*
X0074480Y0085448D01*
X0074616Y0085527D01*
X0074755Y0085604D01*
X0074896Y0085676D01*
X0075038Y0085746D01*
X0075182Y0085811D01*
X0075328Y0085873D01*
X0075475Y0085931D01*
X0075624Y0085986D01*
X0075774Y0086037D01*
X0075925Y0086084D01*
X0076077Y0086127D01*
X0076230Y0086166D01*
X0076385Y0086202D01*
X0076540Y0086233D01*
X0076696Y0086261D01*
X0076852Y0086285D01*
X0077009Y0086305D01*
X0077167Y0086321D01*
X0077324Y0086333D01*
X0077483Y0086341D01*
X0077641Y0086345D01*
X0077799Y0086345D01*
X0077957Y0086341D01*
X0078116Y0086333D01*
X0078273Y0086321D01*
X0078431Y0086305D01*
X0078588Y0086285D01*
X0078744Y0086261D01*
X0078900Y0086233D01*
X0079055Y0086202D01*
X0079210Y0086166D01*
X0079363Y0086127D01*
X0079515Y0086084D01*
X0079666Y0086037D01*
X0079816Y0085986D01*
X0079965Y0085931D01*
X0080112Y0085873D01*
X0080258Y0085811D01*
X0080402Y0085746D01*
X0080544Y0085676D01*
X0080685Y0085604D01*
X0080824Y0085527D01*
X0080960Y0085448D01*
X0081095Y0085364D01*
X0081228Y0085278D01*
X0081358Y0085188D01*
X0081486Y0085095D01*
X0081612Y0084999D01*
X0081735Y0084899D01*
X0081856Y0084797D01*
X0081974Y0084692D01*
X0082089Y0084583D01*
X0082202Y0084472D01*
X0082312Y0084358D01*
X0082419Y0084241D01*
X0082523Y0084122D01*
X0082624Y0084000D01*
X0082721Y0083875D01*
X0082816Y0083748D01*
X0082907Y0083619D01*
X0082996Y0083488D01*
X0083080Y0083354D01*
X0083162Y0083218D01*
X0083240Y0083081D01*
X0083314Y0082941D01*
X0083385Y0082799D01*
X0083453Y0082656D01*
X0083517Y0082511D01*
X0083577Y0082365D01*
X0083633Y0082217D01*
X0083686Y0082068D01*
X0083735Y0081917D01*
X0083780Y0081765D01*
X0083821Y0081612D01*
X0083859Y0081459D01*
X0083892Y0081304D01*
X0083922Y0081148D01*
X0083948Y0080992D01*
X0083969Y0080835D01*
X0083987Y0080678D01*
X0084001Y0080520D01*
X0084011Y0080362D01*
X0084017Y0080204D01*
X0084019Y0080046D01*
X0084017Y0079888D01*
X0084011Y0079730D01*
X0084001Y0079572D01*
X0083987Y0079414D01*
X0083969Y0079257D01*
X0083948Y0079100D01*
X0083922Y0078944D01*
X0083892Y0078788D01*
X0083859Y0078633D01*
X0083821Y0078480D01*
X0083780Y0078327D01*
X0083735Y0078175D01*
X0083686Y0078024D01*
X0083633Y0077875D01*
X0083577Y0077727D01*
X0083517Y0077581D01*
X0083453Y0077436D01*
X0083385Y0077293D01*
X0083314Y0077151D01*
X0083240Y0077011D01*
X0083162Y0076874D01*
X0083080Y0076738D01*
X0082996Y0076604D01*
X0082907Y0076473D01*
X0082816Y0076344D01*
X0082721Y0076217D01*
X0082624Y0076092D01*
X0082523Y0075970D01*
X0082419Y0075851D01*
X0082312Y0075734D01*
X0082202Y0075620D01*
X0082089Y0075509D01*
X0081974Y0075400D01*
X0081856Y0075295D01*
X0081735Y0075193D01*
X0081612Y0075093D01*
X0081486Y0074997D01*
X0081358Y0074904D01*
X0081228Y0074814D01*
X0081095Y0074728D01*
X0080960Y0074644D01*
X0080824Y0074565D01*
X0080685Y0074488D01*
X0080544Y0074416D01*
X0080402Y0074346D01*
X0080258Y0074281D01*
X0080112Y0074219D01*
X0079965Y0074161D01*
X0079816Y0074106D01*
X0079666Y0074055D01*
X0079515Y0074008D01*
X0079363Y0073965D01*
X0079210Y0073926D01*
X0079055Y0073890D01*
X0078900Y0073859D01*
X0078744Y0073831D01*
X0078588Y0073807D01*
X0078431Y0073787D01*
X0078273Y0073771D01*
X0078116Y0073759D01*
X0077957Y0073751D01*
X0077799Y0073747D01*
X0077641Y0073747D01*
X0077483Y0073751D01*
X0077324Y0073759D01*
X0077167Y0073771D01*
X0077009Y0073787D01*
X0076852Y0073807D01*
X0076696Y0073831D01*
X0076540Y0073859D01*
X0076385Y0073890D01*
X0076230Y0073926D01*
X0076077Y0073965D01*
X0075925Y0074008D01*
X0075774Y0074055D01*
X0075624Y0074106D01*
X0075475Y0074161D01*
X0075328Y0074219D01*
X0075182Y0074281D01*
X0075038Y0074346D01*
X0074896Y0074416D01*
X0074755Y0074488D01*
X0074616Y0074565D01*
X0074480Y0074644D01*
X0074345Y0074728D01*
X0074212Y0074814D01*
X0074082Y0074904D01*
X0073954Y0074997D01*
X0073828Y0075093D01*
X0073705Y0075193D01*
X0073584Y0075295D01*
X0073466Y0075400D01*
X0073351Y0075509D01*
X0073238Y0075620D01*
X0073128Y0075734D01*
X0073021Y0075851D01*
X0072917Y0075970D01*
X0072816Y0076092D01*
X0072719Y0076217D01*
X0072624Y0076344D01*
X0072533Y0076473D01*
X0072444Y0076604D01*
X0072360Y0076738D01*
X0072278Y0076874D01*
X0072200Y0077011D01*
X0072126Y0077151D01*
X0072055Y0077293D01*
X0071987Y0077436D01*
X0071923Y0077581D01*
X0071863Y0077727D01*
X0071807Y0077875D01*
X0071754Y0078024D01*
X0071705Y0078175D01*
X0071660Y0078327D01*
X0071619Y0078480D01*
X0071581Y0078633D01*
X0071548Y0078788D01*
X0071518Y0078944D01*
X0071492Y0079100D01*
X0071471Y0079257D01*
X0071453Y0079414D01*
X0071439Y0079572D01*
X0071429Y0079730D01*
X0071423Y0079888D01*
X0071421Y0080046D01*
X0071421Y0190282D02*
X0071423Y0190440D01*
X0071429Y0190598D01*
X0071439Y0190756D01*
X0071453Y0190914D01*
X0071471Y0191071D01*
X0071492Y0191228D01*
X0071518Y0191384D01*
X0071548Y0191540D01*
X0071581Y0191695D01*
X0071619Y0191848D01*
X0071660Y0192001D01*
X0071705Y0192153D01*
X0071754Y0192304D01*
X0071807Y0192453D01*
X0071863Y0192601D01*
X0071923Y0192747D01*
X0071987Y0192892D01*
X0072055Y0193035D01*
X0072126Y0193177D01*
X0072200Y0193317D01*
X0072278Y0193454D01*
X0072360Y0193590D01*
X0072444Y0193724D01*
X0072533Y0193855D01*
X0072624Y0193984D01*
X0072719Y0194111D01*
X0072816Y0194236D01*
X0072917Y0194358D01*
X0073021Y0194477D01*
X0073128Y0194594D01*
X0073238Y0194708D01*
X0073351Y0194819D01*
X0073466Y0194928D01*
X0073584Y0195033D01*
X0073705Y0195135D01*
X0073828Y0195235D01*
X0073954Y0195331D01*
X0074082Y0195424D01*
X0074212Y0195514D01*
X0074345Y0195600D01*
X0074480Y0195684D01*
X0074616Y0195763D01*
X0074755Y0195840D01*
X0074896Y0195912D01*
X0075038Y0195982D01*
X0075182Y0196047D01*
X0075328Y0196109D01*
X0075475Y0196167D01*
X0075624Y0196222D01*
X0075774Y0196273D01*
X0075925Y0196320D01*
X0076077Y0196363D01*
X0076230Y0196402D01*
X0076385Y0196438D01*
X0076540Y0196469D01*
X0076696Y0196497D01*
X0076852Y0196521D01*
X0077009Y0196541D01*
X0077167Y0196557D01*
X0077324Y0196569D01*
X0077483Y0196577D01*
X0077641Y0196581D01*
X0077799Y0196581D01*
X0077957Y0196577D01*
X0078116Y0196569D01*
X0078273Y0196557D01*
X0078431Y0196541D01*
X0078588Y0196521D01*
X0078744Y0196497D01*
X0078900Y0196469D01*
X0079055Y0196438D01*
X0079210Y0196402D01*
X0079363Y0196363D01*
X0079515Y0196320D01*
X0079666Y0196273D01*
X0079816Y0196222D01*
X0079965Y0196167D01*
X0080112Y0196109D01*
X0080258Y0196047D01*
X0080402Y0195982D01*
X0080544Y0195912D01*
X0080685Y0195840D01*
X0080824Y0195763D01*
X0080960Y0195684D01*
X0081095Y0195600D01*
X0081228Y0195514D01*
X0081358Y0195424D01*
X0081486Y0195331D01*
X0081612Y0195235D01*
X0081735Y0195135D01*
X0081856Y0195033D01*
X0081974Y0194928D01*
X0082089Y0194819D01*
X0082202Y0194708D01*
X0082312Y0194594D01*
X0082419Y0194477D01*
X0082523Y0194358D01*
X0082624Y0194236D01*
X0082721Y0194111D01*
X0082816Y0193984D01*
X0082907Y0193855D01*
X0082996Y0193724D01*
X0083080Y0193590D01*
X0083162Y0193454D01*
X0083240Y0193317D01*
X0083314Y0193177D01*
X0083385Y0193035D01*
X0083453Y0192892D01*
X0083517Y0192747D01*
X0083577Y0192601D01*
X0083633Y0192453D01*
X0083686Y0192304D01*
X0083735Y0192153D01*
X0083780Y0192001D01*
X0083821Y0191848D01*
X0083859Y0191695D01*
X0083892Y0191540D01*
X0083922Y0191384D01*
X0083948Y0191228D01*
X0083969Y0191071D01*
X0083987Y0190914D01*
X0084001Y0190756D01*
X0084011Y0190598D01*
X0084017Y0190440D01*
X0084019Y0190282D01*
X0084017Y0190124D01*
X0084011Y0189966D01*
X0084001Y0189808D01*
X0083987Y0189650D01*
X0083969Y0189493D01*
X0083948Y0189336D01*
X0083922Y0189180D01*
X0083892Y0189024D01*
X0083859Y0188869D01*
X0083821Y0188716D01*
X0083780Y0188563D01*
X0083735Y0188411D01*
X0083686Y0188260D01*
X0083633Y0188111D01*
X0083577Y0187963D01*
X0083517Y0187817D01*
X0083453Y0187672D01*
X0083385Y0187529D01*
X0083314Y0187387D01*
X0083240Y0187247D01*
X0083162Y0187110D01*
X0083080Y0186974D01*
X0082996Y0186840D01*
X0082907Y0186709D01*
X0082816Y0186580D01*
X0082721Y0186453D01*
X0082624Y0186328D01*
X0082523Y0186206D01*
X0082419Y0186087D01*
X0082312Y0185970D01*
X0082202Y0185856D01*
X0082089Y0185745D01*
X0081974Y0185636D01*
X0081856Y0185531D01*
X0081735Y0185429D01*
X0081612Y0185329D01*
X0081486Y0185233D01*
X0081358Y0185140D01*
X0081228Y0185050D01*
X0081095Y0184964D01*
X0080960Y0184880D01*
X0080824Y0184801D01*
X0080685Y0184724D01*
X0080544Y0184652D01*
X0080402Y0184582D01*
X0080258Y0184517D01*
X0080112Y0184455D01*
X0079965Y0184397D01*
X0079816Y0184342D01*
X0079666Y0184291D01*
X0079515Y0184244D01*
X0079363Y0184201D01*
X0079210Y0184162D01*
X0079055Y0184126D01*
X0078900Y0184095D01*
X0078744Y0184067D01*
X0078588Y0184043D01*
X0078431Y0184023D01*
X0078273Y0184007D01*
X0078116Y0183995D01*
X0077957Y0183987D01*
X0077799Y0183983D01*
X0077641Y0183983D01*
X0077483Y0183987D01*
X0077324Y0183995D01*
X0077167Y0184007D01*
X0077009Y0184023D01*
X0076852Y0184043D01*
X0076696Y0184067D01*
X0076540Y0184095D01*
X0076385Y0184126D01*
X0076230Y0184162D01*
X0076077Y0184201D01*
X0075925Y0184244D01*
X0075774Y0184291D01*
X0075624Y0184342D01*
X0075475Y0184397D01*
X0075328Y0184455D01*
X0075182Y0184517D01*
X0075038Y0184582D01*
X0074896Y0184652D01*
X0074755Y0184724D01*
X0074616Y0184801D01*
X0074480Y0184880D01*
X0074345Y0184964D01*
X0074212Y0185050D01*
X0074082Y0185140D01*
X0073954Y0185233D01*
X0073828Y0185329D01*
X0073705Y0185429D01*
X0073584Y0185531D01*
X0073466Y0185636D01*
X0073351Y0185745D01*
X0073238Y0185856D01*
X0073128Y0185970D01*
X0073021Y0186087D01*
X0072917Y0186206D01*
X0072816Y0186328D01*
X0072719Y0186453D01*
X0072624Y0186580D01*
X0072533Y0186709D01*
X0072444Y0186840D01*
X0072360Y0186974D01*
X0072278Y0187110D01*
X0072200Y0187247D01*
X0072126Y0187387D01*
X0072055Y0187529D01*
X0071987Y0187672D01*
X0071923Y0187817D01*
X0071863Y0187963D01*
X0071807Y0188111D01*
X0071754Y0188260D01*
X0071705Y0188411D01*
X0071660Y0188563D01*
X0071619Y0188716D01*
X0071581Y0188869D01*
X0071548Y0189024D01*
X0071518Y0189180D01*
X0071492Y0189336D01*
X0071471Y0189493D01*
X0071453Y0189650D01*
X0071439Y0189808D01*
X0071429Y0189966D01*
X0071423Y0190124D01*
X0071421Y0190282D01*
X0181657Y0190282D02*
X0181659Y0190440D01*
X0181665Y0190598D01*
X0181675Y0190756D01*
X0181689Y0190914D01*
X0181707Y0191071D01*
X0181728Y0191228D01*
X0181754Y0191384D01*
X0181784Y0191540D01*
X0181817Y0191695D01*
X0181855Y0191848D01*
X0181896Y0192001D01*
X0181941Y0192153D01*
X0181990Y0192304D01*
X0182043Y0192453D01*
X0182099Y0192601D01*
X0182159Y0192747D01*
X0182223Y0192892D01*
X0182291Y0193035D01*
X0182362Y0193177D01*
X0182436Y0193317D01*
X0182514Y0193454D01*
X0182596Y0193590D01*
X0182680Y0193724D01*
X0182769Y0193855D01*
X0182860Y0193984D01*
X0182955Y0194111D01*
X0183052Y0194236D01*
X0183153Y0194358D01*
X0183257Y0194477D01*
X0183364Y0194594D01*
X0183474Y0194708D01*
X0183587Y0194819D01*
X0183702Y0194928D01*
X0183820Y0195033D01*
X0183941Y0195135D01*
X0184064Y0195235D01*
X0184190Y0195331D01*
X0184318Y0195424D01*
X0184448Y0195514D01*
X0184581Y0195600D01*
X0184716Y0195684D01*
X0184852Y0195763D01*
X0184991Y0195840D01*
X0185132Y0195912D01*
X0185274Y0195982D01*
X0185418Y0196047D01*
X0185564Y0196109D01*
X0185711Y0196167D01*
X0185860Y0196222D01*
X0186010Y0196273D01*
X0186161Y0196320D01*
X0186313Y0196363D01*
X0186466Y0196402D01*
X0186621Y0196438D01*
X0186776Y0196469D01*
X0186932Y0196497D01*
X0187088Y0196521D01*
X0187245Y0196541D01*
X0187403Y0196557D01*
X0187560Y0196569D01*
X0187719Y0196577D01*
X0187877Y0196581D01*
X0188035Y0196581D01*
X0188193Y0196577D01*
X0188352Y0196569D01*
X0188509Y0196557D01*
X0188667Y0196541D01*
X0188824Y0196521D01*
X0188980Y0196497D01*
X0189136Y0196469D01*
X0189291Y0196438D01*
X0189446Y0196402D01*
X0189599Y0196363D01*
X0189751Y0196320D01*
X0189902Y0196273D01*
X0190052Y0196222D01*
X0190201Y0196167D01*
X0190348Y0196109D01*
X0190494Y0196047D01*
X0190638Y0195982D01*
X0190780Y0195912D01*
X0190921Y0195840D01*
X0191060Y0195763D01*
X0191196Y0195684D01*
X0191331Y0195600D01*
X0191464Y0195514D01*
X0191594Y0195424D01*
X0191722Y0195331D01*
X0191848Y0195235D01*
X0191971Y0195135D01*
X0192092Y0195033D01*
X0192210Y0194928D01*
X0192325Y0194819D01*
X0192438Y0194708D01*
X0192548Y0194594D01*
X0192655Y0194477D01*
X0192759Y0194358D01*
X0192860Y0194236D01*
X0192957Y0194111D01*
X0193052Y0193984D01*
X0193143Y0193855D01*
X0193232Y0193724D01*
X0193316Y0193590D01*
X0193398Y0193454D01*
X0193476Y0193317D01*
X0193550Y0193177D01*
X0193621Y0193035D01*
X0193689Y0192892D01*
X0193753Y0192747D01*
X0193813Y0192601D01*
X0193869Y0192453D01*
X0193922Y0192304D01*
X0193971Y0192153D01*
X0194016Y0192001D01*
X0194057Y0191848D01*
X0194095Y0191695D01*
X0194128Y0191540D01*
X0194158Y0191384D01*
X0194184Y0191228D01*
X0194205Y0191071D01*
X0194223Y0190914D01*
X0194237Y0190756D01*
X0194247Y0190598D01*
X0194253Y0190440D01*
X0194255Y0190282D01*
X0194253Y0190124D01*
X0194247Y0189966D01*
X0194237Y0189808D01*
X0194223Y0189650D01*
X0194205Y0189493D01*
X0194184Y0189336D01*
X0194158Y0189180D01*
X0194128Y0189024D01*
X0194095Y0188869D01*
X0194057Y0188716D01*
X0194016Y0188563D01*
X0193971Y0188411D01*
X0193922Y0188260D01*
X0193869Y0188111D01*
X0193813Y0187963D01*
X0193753Y0187817D01*
X0193689Y0187672D01*
X0193621Y0187529D01*
X0193550Y0187387D01*
X0193476Y0187247D01*
X0193398Y0187110D01*
X0193316Y0186974D01*
X0193232Y0186840D01*
X0193143Y0186709D01*
X0193052Y0186580D01*
X0192957Y0186453D01*
X0192860Y0186328D01*
X0192759Y0186206D01*
X0192655Y0186087D01*
X0192548Y0185970D01*
X0192438Y0185856D01*
X0192325Y0185745D01*
X0192210Y0185636D01*
X0192092Y0185531D01*
X0191971Y0185429D01*
X0191848Y0185329D01*
X0191722Y0185233D01*
X0191594Y0185140D01*
X0191464Y0185050D01*
X0191331Y0184964D01*
X0191196Y0184880D01*
X0191060Y0184801D01*
X0190921Y0184724D01*
X0190780Y0184652D01*
X0190638Y0184582D01*
X0190494Y0184517D01*
X0190348Y0184455D01*
X0190201Y0184397D01*
X0190052Y0184342D01*
X0189902Y0184291D01*
X0189751Y0184244D01*
X0189599Y0184201D01*
X0189446Y0184162D01*
X0189291Y0184126D01*
X0189136Y0184095D01*
X0188980Y0184067D01*
X0188824Y0184043D01*
X0188667Y0184023D01*
X0188509Y0184007D01*
X0188352Y0183995D01*
X0188193Y0183987D01*
X0188035Y0183983D01*
X0187877Y0183983D01*
X0187719Y0183987D01*
X0187560Y0183995D01*
X0187403Y0184007D01*
X0187245Y0184023D01*
X0187088Y0184043D01*
X0186932Y0184067D01*
X0186776Y0184095D01*
X0186621Y0184126D01*
X0186466Y0184162D01*
X0186313Y0184201D01*
X0186161Y0184244D01*
X0186010Y0184291D01*
X0185860Y0184342D01*
X0185711Y0184397D01*
X0185564Y0184455D01*
X0185418Y0184517D01*
X0185274Y0184582D01*
X0185132Y0184652D01*
X0184991Y0184724D01*
X0184852Y0184801D01*
X0184716Y0184880D01*
X0184581Y0184964D01*
X0184448Y0185050D01*
X0184318Y0185140D01*
X0184190Y0185233D01*
X0184064Y0185329D01*
X0183941Y0185429D01*
X0183820Y0185531D01*
X0183702Y0185636D01*
X0183587Y0185745D01*
X0183474Y0185856D01*
X0183364Y0185970D01*
X0183257Y0186087D01*
X0183153Y0186206D01*
X0183052Y0186328D01*
X0182955Y0186453D01*
X0182860Y0186580D01*
X0182769Y0186709D01*
X0182680Y0186840D01*
X0182596Y0186974D01*
X0182514Y0187110D01*
X0182436Y0187247D01*
X0182362Y0187387D01*
X0182291Y0187529D01*
X0182223Y0187672D01*
X0182159Y0187817D01*
X0182099Y0187963D01*
X0182043Y0188111D01*
X0181990Y0188260D01*
X0181941Y0188411D01*
X0181896Y0188563D01*
X0181855Y0188716D01*
X0181817Y0188869D01*
X0181784Y0189024D01*
X0181754Y0189180D01*
X0181728Y0189336D01*
X0181707Y0189493D01*
X0181689Y0189650D01*
X0181675Y0189808D01*
X0181665Y0189966D01*
X0181659Y0190124D01*
X0181657Y0190282D01*
X0181657Y0080046D02*
X0181659Y0080204D01*
X0181665Y0080362D01*
X0181675Y0080520D01*
X0181689Y0080678D01*
X0181707Y0080835D01*
X0181728Y0080992D01*
X0181754Y0081148D01*
X0181784Y0081304D01*
X0181817Y0081459D01*
X0181855Y0081612D01*
X0181896Y0081765D01*
X0181941Y0081917D01*
X0181990Y0082068D01*
X0182043Y0082217D01*
X0182099Y0082365D01*
X0182159Y0082511D01*
X0182223Y0082656D01*
X0182291Y0082799D01*
X0182362Y0082941D01*
X0182436Y0083081D01*
X0182514Y0083218D01*
X0182596Y0083354D01*
X0182680Y0083488D01*
X0182769Y0083619D01*
X0182860Y0083748D01*
X0182955Y0083875D01*
X0183052Y0084000D01*
X0183153Y0084122D01*
X0183257Y0084241D01*
X0183364Y0084358D01*
X0183474Y0084472D01*
X0183587Y0084583D01*
X0183702Y0084692D01*
X0183820Y0084797D01*
X0183941Y0084899D01*
X0184064Y0084999D01*
X0184190Y0085095D01*
X0184318Y0085188D01*
X0184448Y0085278D01*
X0184581Y0085364D01*
X0184716Y0085448D01*
X0184852Y0085527D01*
X0184991Y0085604D01*
X0185132Y0085676D01*
X0185274Y0085746D01*
X0185418Y0085811D01*
X0185564Y0085873D01*
X0185711Y0085931D01*
X0185860Y0085986D01*
X0186010Y0086037D01*
X0186161Y0086084D01*
X0186313Y0086127D01*
X0186466Y0086166D01*
X0186621Y0086202D01*
X0186776Y0086233D01*
X0186932Y0086261D01*
X0187088Y0086285D01*
X0187245Y0086305D01*
X0187403Y0086321D01*
X0187560Y0086333D01*
X0187719Y0086341D01*
X0187877Y0086345D01*
X0188035Y0086345D01*
X0188193Y0086341D01*
X0188352Y0086333D01*
X0188509Y0086321D01*
X0188667Y0086305D01*
X0188824Y0086285D01*
X0188980Y0086261D01*
X0189136Y0086233D01*
X0189291Y0086202D01*
X0189446Y0086166D01*
X0189599Y0086127D01*
X0189751Y0086084D01*
X0189902Y0086037D01*
X0190052Y0085986D01*
X0190201Y0085931D01*
X0190348Y0085873D01*
X0190494Y0085811D01*
X0190638Y0085746D01*
X0190780Y0085676D01*
X0190921Y0085604D01*
X0191060Y0085527D01*
X0191196Y0085448D01*
X0191331Y0085364D01*
X0191464Y0085278D01*
X0191594Y0085188D01*
X0191722Y0085095D01*
X0191848Y0084999D01*
X0191971Y0084899D01*
X0192092Y0084797D01*
X0192210Y0084692D01*
X0192325Y0084583D01*
X0192438Y0084472D01*
X0192548Y0084358D01*
X0192655Y0084241D01*
X0192759Y0084122D01*
X0192860Y0084000D01*
X0192957Y0083875D01*
X0193052Y0083748D01*
X0193143Y0083619D01*
X0193232Y0083488D01*
X0193316Y0083354D01*
X0193398Y0083218D01*
X0193476Y0083081D01*
X0193550Y0082941D01*
X0193621Y0082799D01*
X0193689Y0082656D01*
X0193753Y0082511D01*
X0193813Y0082365D01*
X0193869Y0082217D01*
X0193922Y0082068D01*
X0193971Y0081917D01*
X0194016Y0081765D01*
X0194057Y0081612D01*
X0194095Y0081459D01*
X0194128Y0081304D01*
X0194158Y0081148D01*
X0194184Y0080992D01*
X0194205Y0080835D01*
X0194223Y0080678D01*
X0194237Y0080520D01*
X0194247Y0080362D01*
X0194253Y0080204D01*
X0194255Y0080046D01*
X0194253Y0079888D01*
X0194247Y0079730D01*
X0194237Y0079572D01*
X0194223Y0079414D01*
X0194205Y0079257D01*
X0194184Y0079100D01*
X0194158Y0078944D01*
X0194128Y0078788D01*
X0194095Y0078633D01*
X0194057Y0078480D01*
X0194016Y0078327D01*
X0193971Y0078175D01*
X0193922Y0078024D01*
X0193869Y0077875D01*
X0193813Y0077727D01*
X0193753Y0077581D01*
X0193689Y0077436D01*
X0193621Y0077293D01*
X0193550Y0077151D01*
X0193476Y0077011D01*
X0193398Y0076874D01*
X0193316Y0076738D01*
X0193232Y0076604D01*
X0193143Y0076473D01*
X0193052Y0076344D01*
X0192957Y0076217D01*
X0192860Y0076092D01*
X0192759Y0075970D01*
X0192655Y0075851D01*
X0192548Y0075734D01*
X0192438Y0075620D01*
X0192325Y0075509D01*
X0192210Y0075400D01*
X0192092Y0075295D01*
X0191971Y0075193D01*
X0191848Y0075093D01*
X0191722Y0074997D01*
X0191594Y0074904D01*
X0191464Y0074814D01*
X0191331Y0074728D01*
X0191196Y0074644D01*
X0191060Y0074565D01*
X0190921Y0074488D01*
X0190780Y0074416D01*
X0190638Y0074346D01*
X0190494Y0074281D01*
X0190348Y0074219D01*
X0190201Y0074161D01*
X0190052Y0074106D01*
X0189902Y0074055D01*
X0189751Y0074008D01*
X0189599Y0073965D01*
X0189446Y0073926D01*
X0189291Y0073890D01*
X0189136Y0073859D01*
X0188980Y0073831D01*
X0188824Y0073807D01*
X0188667Y0073787D01*
X0188509Y0073771D01*
X0188352Y0073759D01*
X0188193Y0073751D01*
X0188035Y0073747D01*
X0187877Y0073747D01*
X0187719Y0073751D01*
X0187560Y0073759D01*
X0187403Y0073771D01*
X0187245Y0073787D01*
X0187088Y0073807D01*
X0186932Y0073831D01*
X0186776Y0073859D01*
X0186621Y0073890D01*
X0186466Y0073926D01*
X0186313Y0073965D01*
X0186161Y0074008D01*
X0186010Y0074055D01*
X0185860Y0074106D01*
X0185711Y0074161D01*
X0185564Y0074219D01*
X0185418Y0074281D01*
X0185274Y0074346D01*
X0185132Y0074416D01*
X0184991Y0074488D01*
X0184852Y0074565D01*
X0184716Y0074644D01*
X0184581Y0074728D01*
X0184448Y0074814D01*
X0184318Y0074904D01*
X0184190Y0074997D01*
X0184064Y0075093D01*
X0183941Y0075193D01*
X0183820Y0075295D01*
X0183702Y0075400D01*
X0183587Y0075509D01*
X0183474Y0075620D01*
X0183364Y0075734D01*
X0183257Y0075851D01*
X0183153Y0075970D01*
X0183052Y0076092D01*
X0182955Y0076217D01*
X0182860Y0076344D01*
X0182769Y0076473D01*
X0182680Y0076604D01*
X0182596Y0076738D01*
X0182514Y0076874D01*
X0182436Y0077011D01*
X0182362Y0077151D01*
X0182291Y0077293D01*
X0182223Y0077436D01*
X0182159Y0077581D01*
X0182099Y0077727D01*
X0182043Y0077875D01*
X0181990Y0078024D01*
X0181941Y0078175D01*
X0181896Y0078327D01*
X0181855Y0078480D01*
X0181817Y0078633D01*
X0181784Y0078788D01*
X0181754Y0078944D01*
X0181728Y0079100D01*
X0181707Y0079257D01*
X0181689Y0079414D01*
X0181675Y0079572D01*
X0181665Y0079730D01*
X0181659Y0079888D01*
X0181657Y0080046D01*
D11*
X0162594Y0201093D02*
X0162594Y0203023D01*
X0169838Y0203023D01*
X0169838Y0201093D01*
X0162594Y0201093D01*
X0162594Y0201919D02*
X0169838Y0201919D01*
X0169838Y0202745D02*
X0162594Y0202745D01*
X0162594Y0206093D02*
X0162594Y0208023D01*
X0169838Y0208023D01*
X0169838Y0206093D01*
X0162594Y0206093D01*
X0162594Y0206919D02*
X0169838Y0206919D01*
X0169838Y0207745D02*
X0162594Y0207745D01*
X0162594Y0211093D02*
X0162594Y0213023D01*
X0169838Y0213023D01*
X0169838Y0211093D01*
X0162594Y0211093D01*
X0162594Y0211919D02*
X0169838Y0211919D01*
X0169838Y0212745D02*
X0162594Y0212745D01*
X0162594Y0216093D02*
X0162594Y0218023D01*
X0169838Y0218023D01*
X0169838Y0216093D01*
X0162594Y0216093D01*
X0162594Y0216919D02*
X0169838Y0216919D01*
X0169838Y0217745D02*
X0162594Y0217745D01*
X0162594Y0221093D02*
X0162594Y0223023D01*
X0169838Y0223023D01*
X0169838Y0221093D01*
X0162594Y0221093D01*
X0162594Y0221919D02*
X0169838Y0221919D01*
X0169838Y0222745D02*
X0162594Y0222745D01*
X0162594Y0226093D02*
X0162594Y0228023D01*
X0169838Y0228023D01*
X0169838Y0226093D01*
X0162594Y0226093D01*
X0162594Y0226919D02*
X0169838Y0226919D01*
X0169838Y0227745D02*
X0162594Y0227745D01*
X0162594Y0231093D02*
X0162594Y0233023D01*
X0169838Y0233023D01*
X0169838Y0231093D01*
X0162594Y0231093D01*
X0162594Y0231919D02*
X0169838Y0231919D01*
X0169838Y0232745D02*
X0162594Y0232745D01*
X0162594Y0236093D02*
X0162594Y0238023D01*
X0169838Y0238023D01*
X0169838Y0236093D01*
X0162594Y0236093D01*
X0162594Y0236919D02*
X0169838Y0236919D01*
X0169838Y0237745D02*
X0162594Y0237745D01*
X0139366Y0238023D02*
X0139366Y0236093D01*
X0139366Y0238023D02*
X0146610Y0238023D01*
X0146610Y0236093D01*
X0139366Y0236093D01*
X0139366Y0236919D02*
X0146610Y0236919D01*
X0146610Y0237745D02*
X0139366Y0237745D01*
X0139366Y0233023D02*
X0139366Y0231093D01*
X0139366Y0233023D02*
X0146610Y0233023D01*
X0146610Y0231093D01*
X0139366Y0231093D01*
X0139366Y0231919D02*
X0146610Y0231919D01*
X0146610Y0232745D02*
X0139366Y0232745D01*
X0139366Y0228023D02*
X0139366Y0226093D01*
X0139366Y0228023D02*
X0146610Y0228023D01*
X0146610Y0226093D01*
X0139366Y0226093D01*
X0139366Y0226919D02*
X0146610Y0226919D01*
X0146610Y0227745D02*
X0139366Y0227745D01*
X0139366Y0223023D02*
X0139366Y0221093D01*
X0139366Y0223023D02*
X0146610Y0223023D01*
X0146610Y0221093D01*
X0139366Y0221093D01*
X0139366Y0221919D02*
X0146610Y0221919D01*
X0146610Y0222745D02*
X0139366Y0222745D01*
X0139366Y0218023D02*
X0139366Y0216093D01*
X0139366Y0218023D02*
X0146610Y0218023D01*
X0146610Y0216093D01*
X0139366Y0216093D01*
X0139366Y0216919D02*
X0146610Y0216919D01*
X0146610Y0217745D02*
X0139366Y0217745D01*
X0139366Y0213023D02*
X0139366Y0211093D01*
X0139366Y0213023D02*
X0146610Y0213023D01*
X0146610Y0211093D01*
X0139366Y0211093D01*
X0139366Y0211919D02*
X0146610Y0211919D01*
X0146610Y0212745D02*
X0139366Y0212745D01*
X0139366Y0208023D02*
X0139366Y0206093D01*
X0139366Y0208023D02*
X0146610Y0208023D01*
X0146610Y0206093D01*
X0139366Y0206093D01*
X0139366Y0206919D02*
X0146610Y0206919D01*
X0146610Y0207745D02*
X0139366Y0207745D01*
X0139366Y0203023D02*
X0139366Y0201093D01*
X0139366Y0203023D02*
X0146610Y0203023D01*
X0146610Y0201093D01*
X0139366Y0201093D01*
X0139366Y0201919D02*
X0146610Y0201919D01*
X0146610Y0202745D02*
X0139366Y0202745D01*
D12*
X0170112Y0143468D02*
X0170112Y0141648D01*
X0162892Y0141648D01*
X0162892Y0143468D01*
X0170112Y0143468D01*
X0170112Y0142427D02*
X0162892Y0142427D01*
X0162892Y0143206D02*
X0170112Y0143206D01*
X0170112Y0138468D02*
X0170112Y0136648D01*
X0162892Y0136648D01*
X0162892Y0138468D01*
X0170112Y0138468D01*
X0170112Y0137427D02*
X0162892Y0137427D01*
X0162892Y0138206D02*
X0170112Y0138206D01*
X0170112Y0133468D02*
X0170112Y0131648D01*
X0162892Y0131648D01*
X0162892Y0133468D01*
X0170112Y0133468D01*
X0170112Y0132427D02*
X0162892Y0132427D01*
X0162892Y0133206D02*
X0170112Y0133206D01*
X0170112Y0128468D02*
X0170112Y0126648D01*
X0162892Y0126648D01*
X0162892Y0128468D01*
X0170112Y0128468D01*
X0170112Y0127427D02*
X0162892Y0127427D01*
X0162892Y0128206D02*
X0170112Y0128206D01*
X0170112Y0123468D02*
X0170112Y0121648D01*
X0162892Y0121648D01*
X0162892Y0123468D01*
X0170112Y0123468D01*
X0170112Y0122427D02*
X0162892Y0122427D01*
X0162892Y0123206D02*
X0170112Y0123206D01*
X0170112Y0118468D02*
X0170112Y0116648D01*
X0162892Y0116648D01*
X0162892Y0118468D01*
X0170112Y0118468D01*
X0170112Y0117427D02*
X0162892Y0117427D01*
X0162892Y0118206D02*
X0170112Y0118206D01*
X0170112Y0113468D02*
X0170112Y0111648D01*
X0162892Y0111648D01*
X0162892Y0113468D01*
X0170112Y0113468D01*
X0170112Y0112427D02*
X0162892Y0112427D01*
X0162892Y0113206D02*
X0170112Y0113206D01*
X0170112Y0108468D02*
X0170112Y0106648D01*
X0162892Y0106648D01*
X0162892Y0108468D01*
X0170112Y0108468D01*
X0170112Y0107427D02*
X0162892Y0107427D01*
X0162892Y0108206D02*
X0170112Y0108206D01*
X0194312Y0108468D02*
X0194312Y0106648D01*
X0187092Y0106648D01*
X0187092Y0108468D01*
X0194312Y0108468D01*
X0194312Y0107427D02*
X0187092Y0107427D01*
X0187092Y0108206D02*
X0194312Y0108206D01*
X0194312Y0111648D02*
X0194312Y0113468D01*
X0194312Y0111648D02*
X0187092Y0111648D01*
X0187092Y0113468D01*
X0194312Y0113468D01*
X0194312Y0112427D02*
X0187092Y0112427D01*
X0187092Y0113206D02*
X0194312Y0113206D01*
X0194312Y0116648D02*
X0194312Y0118468D01*
X0194312Y0116648D02*
X0187092Y0116648D01*
X0187092Y0118468D01*
X0194312Y0118468D01*
X0194312Y0117427D02*
X0187092Y0117427D01*
X0187092Y0118206D02*
X0194312Y0118206D01*
X0194312Y0121648D02*
X0194312Y0123468D01*
X0194312Y0121648D02*
X0187092Y0121648D01*
X0187092Y0123468D01*
X0194312Y0123468D01*
X0194312Y0122427D02*
X0187092Y0122427D01*
X0187092Y0123206D02*
X0194312Y0123206D01*
X0194312Y0126648D02*
X0194312Y0128468D01*
X0194312Y0126648D02*
X0187092Y0126648D01*
X0187092Y0128468D01*
X0194312Y0128468D01*
X0194312Y0127427D02*
X0187092Y0127427D01*
X0187092Y0128206D02*
X0194312Y0128206D01*
X0194312Y0131648D02*
X0194312Y0133468D01*
X0194312Y0131648D02*
X0187092Y0131648D01*
X0187092Y0133468D01*
X0194312Y0133468D01*
X0194312Y0132427D02*
X0187092Y0132427D01*
X0187092Y0133206D02*
X0194312Y0133206D01*
X0194312Y0136648D02*
X0194312Y0138468D01*
X0194312Y0136648D02*
X0187092Y0136648D01*
X0187092Y0138468D01*
X0194312Y0138468D01*
X0194312Y0137427D02*
X0187092Y0137427D01*
X0187092Y0138206D02*
X0194312Y0138206D01*
X0194312Y0141648D02*
X0194312Y0143468D01*
X0194312Y0141648D02*
X0187092Y0141648D01*
X0187092Y0143468D01*
X0194312Y0143468D01*
X0194312Y0142427D02*
X0187092Y0142427D01*
X0187092Y0143206D02*
X0194312Y0143206D01*
D13*
X0204788Y0143006D02*
X0204788Y0146590D01*
X0204788Y0143006D02*
X0200416Y0143006D01*
X0200416Y0146590D01*
X0204788Y0146590D01*
X0204788Y0144540D02*
X0200416Y0144540D01*
X0200416Y0146074D02*
X0204788Y0146074D01*
X0204788Y0139110D02*
X0204788Y0135526D01*
X0200416Y0135526D01*
X0200416Y0139110D01*
X0204788Y0139110D01*
X0204788Y0137060D02*
X0200416Y0137060D01*
X0200416Y0138594D02*
X0204788Y0138594D01*
X0215916Y0139006D02*
X0215916Y0142590D01*
X0220288Y0142590D01*
X0220288Y0139006D01*
X0215916Y0139006D01*
X0215916Y0140540D02*
X0220288Y0140540D01*
X0220288Y0142074D02*
X0215916Y0142074D01*
X0215916Y0135110D02*
X0215916Y0131526D01*
X0215916Y0135110D02*
X0220288Y0135110D01*
X0220288Y0131526D01*
X0215916Y0131526D01*
X0215916Y0133060D02*
X0220288Y0133060D01*
X0220288Y0134594D02*
X0215916Y0134594D01*
X0216550Y0126744D02*
X0220134Y0126744D01*
X0220134Y0122372D01*
X0216550Y0122372D01*
X0216550Y0126744D01*
X0216550Y0123906D02*
X0220134Y0123906D01*
X0220134Y0125440D02*
X0216550Y0125440D01*
X0212654Y0126744D02*
X0209070Y0126744D01*
X0212654Y0126744D02*
X0212654Y0122372D01*
X0209070Y0122372D01*
X0209070Y0126744D01*
X0209070Y0123906D02*
X0212654Y0123906D01*
X0212654Y0125440D02*
X0209070Y0125440D01*
X0226070Y0118372D02*
X0229654Y0118372D01*
X0226070Y0118372D02*
X0226070Y0122744D01*
X0229654Y0122744D01*
X0229654Y0118372D01*
X0229654Y0119906D02*
X0226070Y0119906D01*
X0226070Y0121440D02*
X0229654Y0121440D01*
X0233550Y0118372D02*
X0237134Y0118372D01*
X0233550Y0118372D02*
X0233550Y0122744D01*
X0237134Y0122744D01*
X0237134Y0118372D01*
X0237134Y0119906D02*
X0233550Y0119906D01*
X0233550Y0121440D02*
X0237134Y0121440D01*
X0231634Y0088872D02*
X0228050Y0088872D01*
X0228050Y0093244D01*
X0231634Y0093244D01*
X0231634Y0088872D01*
X0231634Y0090406D02*
X0228050Y0090406D01*
X0228050Y0091940D02*
X0231634Y0091940D01*
X0224154Y0088872D02*
X0220570Y0088872D01*
X0220570Y0093244D01*
X0224154Y0093244D01*
X0224154Y0088872D01*
X0224154Y0090406D02*
X0220570Y0090406D01*
X0220570Y0091940D02*
X0224154Y0091940D01*
X0165134Y0155244D02*
X0161550Y0155244D01*
X0165134Y0155244D02*
X0165134Y0150872D01*
X0161550Y0150872D01*
X0161550Y0155244D01*
X0161550Y0152406D02*
X0165134Y0152406D01*
X0165134Y0153940D02*
X0161550Y0153940D01*
X0157654Y0155244D02*
X0154070Y0155244D01*
X0157654Y0155244D02*
X0157654Y0150872D01*
X0154070Y0150872D01*
X0154070Y0155244D01*
X0154070Y0152406D02*
X0157654Y0152406D01*
X0157654Y0153940D02*
X0154070Y0153940D01*
X0147634Y0150872D02*
X0144050Y0150872D01*
X0144050Y0155244D01*
X0147634Y0155244D01*
X0147634Y0150872D01*
X0147634Y0152406D02*
X0144050Y0152406D01*
X0144050Y0153940D02*
X0147634Y0153940D01*
X0140154Y0150872D02*
X0136570Y0150872D01*
X0136570Y0155244D01*
X0140154Y0155244D01*
X0140154Y0150872D01*
X0140154Y0152406D02*
X0136570Y0152406D01*
X0136570Y0153940D02*
X0140154Y0153940D01*
X0140070Y0187372D02*
X0143654Y0187372D01*
X0140070Y0187372D02*
X0140070Y0191744D01*
X0143654Y0191744D01*
X0143654Y0187372D01*
X0143654Y0188906D02*
X0140070Y0188906D01*
X0140070Y0190440D02*
X0143654Y0190440D01*
X0147550Y0187372D02*
X0151134Y0187372D01*
X0147550Y0187372D02*
X0147550Y0191744D01*
X0151134Y0191744D01*
X0151134Y0187372D01*
X0151134Y0188906D02*
X0147550Y0188906D01*
X0147550Y0190440D02*
X0151134Y0190440D01*
X0134788Y0214526D02*
X0134788Y0218110D01*
X0134788Y0214526D02*
X0130416Y0214526D01*
X0130416Y0218110D01*
X0134788Y0218110D01*
X0134788Y0216060D02*
X0130416Y0216060D01*
X0130416Y0217594D02*
X0134788Y0217594D01*
X0134788Y0222006D02*
X0134788Y0225590D01*
X0134788Y0222006D02*
X0130416Y0222006D01*
X0130416Y0225590D01*
X0134788Y0225590D01*
X0134788Y0223540D02*
X0130416Y0223540D01*
X0130416Y0225074D02*
X0134788Y0225074D01*
X0091916Y0225526D02*
X0091916Y0229110D01*
X0096288Y0229110D01*
X0096288Y0225526D01*
X0091916Y0225526D01*
X0091916Y0227060D02*
X0096288Y0227060D01*
X0096288Y0228594D02*
X0091916Y0228594D01*
X0091916Y0233006D02*
X0091916Y0236590D01*
X0096288Y0236590D01*
X0096288Y0233006D01*
X0091916Y0233006D01*
X0091916Y0234540D02*
X0096288Y0234540D01*
X0096288Y0236074D02*
X0091916Y0236074D01*
X0092550Y0212372D02*
X0096134Y0212372D01*
X0092550Y0212372D02*
X0092550Y0216744D01*
X0096134Y0216744D01*
X0096134Y0212372D01*
X0096134Y0213906D02*
X0092550Y0213906D01*
X0092550Y0215440D02*
X0096134Y0215440D01*
X0088654Y0212372D02*
X0085070Y0212372D01*
X0085070Y0216744D01*
X0088654Y0216744D01*
X0088654Y0212372D01*
X0088654Y0213906D02*
X0085070Y0213906D01*
X0085070Y0215440D02*
X0088654Y0215440D01*
X0046134Y0143744D02*
X0042550Y0143744D01*
X0046134Y0143744D02*
X0046134Y0139372D01*
X0042550Y0139372D01*
X0042550Y0143744D01*
X0042550Y0140906D02*
X0046134Y0140906D01*
X0046134Y0142440D02*
X0042550Y0142440D01*
X0038654Y0143744D02*
X0035070Y0143744D01*
X0038654Y0143744D02*
X0038654Y0139372D01*
X0035070Y0139372D01*
X0035070Y0143744D01*
X0035070Y0140906D02*
X0038654Y0140906D01*
X0038654Y0142440D02*
X0035070Y0142440D01*
X0136788Y0117590D02*
X0136788Y0114006D01*
X0132416Y0114006D01*
X0132416Y0117590D01*
X0136788Y0117590D01*
X0136788Y0115540D02*
X0132416Y0115540D01*
X0132416Y0117074D02*
X0136788Y0117074D01*
X0146788Y0117590D02*
X0146788Y0114006D01*
X0142416Y0114006D01*
X0142416Y0117590D01*
X0146788Y0117590D01*
X0146788Y0115540D02*
X0142416Y0115540D01*
X0142416Y0117074D02*
X0146788Y0117074D01*
X0156788Y0117590D02*
X0156788Y0114006D01*
X0152416Y0114006D01*
X0152416Y0117590D01*
X0156788Y0117590D01*
X0156788Y0115540D02*
X0152416Y0115540D01*
X0152416Y0117074D02*
X0156788Y0117074D01*
X0156788Y0110110D02*
X0156788Y0106526D01*
X0152416Y0106526D01*
X0152416Y0110110D01*
X0156788Y0110110D01*
X0156788Y0108060D02*
X0152416Y0108060D01*
X0152416Y0109594D02*
X0156788Y0109594D01*
X0146788Y0110110D02*
X0146788Y0106526D01*
X0142416Y0106526D01*
X0142416Y0110110D01*
X0146788Y0110110D01*
X0146788Y0108060D02*
X0142416Y0108060D01*
X0142416Y0109594D02*
X0146788Y0109594D01*
X0136788Y0110110D02*
X0136788Y0106526D01*
X0132416Y0106526D01*
X0132416Y0110110D01*
X0136788Y0110110D01*
X0136788Y0108060D02*
X0132416Y0108060D01*
X0132416Y0109594D02*
X0136788Y0109594D01*
X0176570Y0235372D02*
X0180154Y0235372D01*
X0176570Y0235372D02*
X0176570Y0239744D01*
X0180154Y0239744D01*
X0180154Y0235372D01*
X0180154Y0236906D02*
X0176570Y0236906D01*
X0176570Y0238440D02*
X0180154Y0238440D01*
X0184050Y0235372D02*
X0187634Y0235372D01*
X0184050Y0235372D02*
X0184050Y0239744D01*
X0187634Y0239744D01*
X0187634Y0235372D01*
X0187634Y0236906D02*
X0184050Y0236906D01*
X0184050Y0238440D02*
X0187634Y0238440D01*
D14*
X0210484Y0205554D02*
X0213240Y0205554D01*
X0213240Y0201222D01*
X0210484Y0201222D01*
X0210484Y0205554D01*
X0210484Y0202402D02*
X0213240Y0202402D01*
X0213240Y0203582D02*
X0210484Y0203582D01*
X0210484Y0204762D02*
X0213240Y0204762D01*
X0217964Y0205554D02*
X0220720Y0205554D01*
X0220720Y0201222D01*
X0217964Y0201222D01*
X0217964Y0205554D01*
X0217964Y0202402D02*
X0220720Y0202402D01*
X0220720Y0203582D02*
X0217964Y0203582D01*
X0217964Y0204762D02*
X0220720Y0204762D01*
X0216980Y0196893D02*
X0214224Y0196893D01*
X0216980Y0196893D02*
X0216980Y0192561D01*
X0214224Y0192561D01*
X0214224Y0196893D01*
X0214224Y0193741D02*
X0216980Y0193741D01*
X0216980Y0194921D02*
X0214224Y0194921D01*
X0214224Y0196101D02*
X0216980Y0196101D01*
X0207720Y0165554D02*
X0204964Y0165554D01*
X0207720Y0165554D02*
X0207720Y0161222D01*
X0204964Y0161222D01*
X0204964Y0165554D01*
X0204964Y0162402D02*
X0207720Y0162402D01*
X0207720Y0163582D02*
X0204964Y0163582D01*
X0204964Y0164762D02*
X0207720Y0164762D01*
X0200240Y0165554D02*
X0197484Y0165554D01*
X0200240Y0165554D02*
X0200240Y0161222D01*
X0197484Y0161222D01*
X0197484Y0165554D01*
X0197484Y0162402D02*
X0200240Y0162402D01*
X0200240Y0163582D02*
X0197484Y0163582D01*
X0197484Y0164762D02*
X0200240Y0164762D01*
X0201224Y0156893D02*
X0203980Y0156893D01*
X0203980Y0152561D01*
X0201224Y0152561D01*
X0201224Y0156893D01*
X0201224Y0153741D02*
X0203980Y0153741D01*
X0203980Y0154921D02*
X0201224Y0154921D01*
X0201224Y0156101D02*
X0203980Y0156101D01*
X0183267Y0160680D02*
X0183267Y0163436D01*
X0187599Y0163436D01*
X0187599Y0160680D01*
X0183267Y0160680D01*
X0183267Y0161860D02*
X0187599Y0161860D01*
X0187599Y0163040D02*
X0183267Y0163040D01*
X0174605Y0164420D02*
X0174605Y0167176D01*
X0178937Y0167176D01*
X0178937Y0164420D01*
X0174605Y0164420D01*
X0174605Y0165600D02*
X0178937Y0165600D01*
X0178937Y0166780D02*
X0174605Y0166780D01*
X0174605Y0159696D02*
X0174605Y0156940D01*
X0174605Y0159696D02*
X0178937Y0159696D01*
X0178937Y0156940D01*
X0174605Y0156940D01*
X0174605Y0158120D02*
X0178937Y0158120D01*
X0178937Y0159300D02*
X0174605Y0159300D01*
X0205605Y0106176D02*
X0205605Y0103420D01*
X0205605Y0106176D02*
X0209937Y0106176D01*
X0209937Y0103420D01*
X0205605Y0103420D01*
X0205605Y0104600D02*
X0209937Y0104600D01*
X0209937Y0105780D02*
X0205605Y0105780D01*
X0205605Y0098696D02*
X0205605Y0095940D01*
X0205605Y0098696D02*
X0209937Y0098696D01*
X0209937Y0095940D01*
X0205605Y0095940D01*
X0205605Y0097120D02*
X0209937Y0097120D01*
X0209937Y0098300D02*
X0205605Y0098300D01*
X0214267Y0099680D02*
X0214267Y0102436D01*
X0218599Y0102436D01*
X0218599Y0099680D01*
X0214267Y0099680D01*
X0214267Y0100860D02*
X0218599Y0100860D01*
X0218599Y0102040D02*
X0214267Y0102040D01*
X0221484Y0076554D02*
X0224240Y0076554D01*
X0224240Y0072222D01*
X0221484Y0072222D01*
X0221484Y0076554D01*
X0221484Y0073402D02*
X0224240Y0073402D01*
X0224240Y0074582D02*
X0221484Y0074582D01*
X0221484Y0075762D02*
X0224240Y0075762D01*
X0228964Y0076554D02*
X0231720Y0076554D01*
X0231720Y0072222D01*
X0228964Y0072222D01*
X0228964Y0076554D01*
X0228964Y0073402D02*
X0231720Y0073402D01*
X0231720Y0074582D02*
X0228964Y0074582D01*
X0228964Y0075762D02*
X0231720Y0075762D01*
X0227980Y0067893D02*
X0225224Y0067893D01*
X0227980Y0067893D02*
X0227980Y0063561D01*
X0225224Y0063561D01*
X0225224Y0067893D01*
X0225224Y0064741D02*
X0227980Y0064741D01*
X0227980Y0065921D02*
X0225224Y0065921D01*
X0225224Y0067101D02*
X0227980Y0067101D01*
X0228240Y0050554D02*
X0225484Y0050554D01*
X0228240Y0050554D02*
X0228240Y0046222D01*
X0225484Y0046222D01*
X0225484Y0050554D01*
X0225484Y0047402D02*
X0228240Y0047402D01*
X0228240Y0048582D02*
X0225484Y0048582D01*
X0225484Y0049762D02*
X0228240Y0049762D01*
X0232964Y0050554D02*
X0235720Y0050554D01*
X0235720Y0046222D01*
X0232964Y0046222D01*
X0232964Y0050554D01*
X0232964Y0047402D02*
X0235720Y0047402D01*
X0235720Y0048582D02*
X0232964Y0048582D01*
X0232964Y0049762D02*
X0235720Y0049762D01*
X0231980Y0041893D02*
X0229224Y0041893D01*
X0231980Y0041893D02*
X0231980Y0037561D01*
X0229224Y0037561D01*
X0229224Y0041893D01*
X0229224Y0038741D02*
X0231980Y0038741D01*
X0231980Y0039921D02*
X0229224Y0039921D01*
X0229224Y0041101D02*
X0231980Y0041101D01*
X0168720Y0090054D02*
X0165964Y0090054D01*
X0168720Y0090054D02*
X0168720Y0085722D01*
X0165964Y0085722D01*
X0165964Y0090054D01*
X0165964Y0086902D02*
X0168720Y0086902D01*
X0168720Y0088082D02*
X0165964Y0088082D01*
X0165964Y0089262D02*
X0168720Y0089262D01*
X0164980Y0081393D02*
X0162224Y0081393D01*
X0164980Y0081393D02*
X0164980Y0077061D01*
X0162224Y0077061D01*
X0162224Y0081393D01*
X0162224Y0078241D02*
X0164980Y0078241D01*
X0164980Y0079421D02*
X0162224Y0079421D01*
X0162224Y0080601D02*
X0164980Y0080601D01*
X0161240Y0090054D02*
X0158484Y0090054D01*
X0161240Y0090054D02*
X0161240Y0085722D01*
X0158484Y0085722D01*
X0158484Y0090054D01*
X0158484Y0086902D02*
X0161240Y0086902D01*
X0161240Y0088082D02*
X0158484Y0088082D01*
X0158484Y0089262D02*
X0161240Y0089262D01*
X0143720Y0090054D02*
X0140964Y0090054D01*
X0143720Y0090054D02*
X0143720Y0085722D01*
X0140964Y0085722D01*
X0140964Y0090054D01*
X0140964Y0086902D02*
X0143720Y0086902D01*
X0143720Y0088082D02*
X0140964Y0088082D01*
X0140964Y0089262D02*
X0143720Y0089262D01*
X0139980Y0081393D02*
X0137224Y0081393D01*
X0139980Y0081393D02*
X0139980Y0077061D01*
X0137224Y0077061D01*
X0137224Y0081393D01*
X0137224Y0078241D02*
X0139980Y0078241D01*
X0139980Y0079421D02*
X0137224Y0079421D01*
X0137224Y0080601D02*
X0139980Y0080601D01*
X0136240Y0090054D02*
X0133484Y0090054D01*
X0136240Y0090054D02*
X0136240Y0085722D01*
X0133484Y0085722D01*
X0133484Y0090054D01*
X0133484Y0086902D02*
X0136240Y0086902D01*
X0136240Y0088082D02*
X0133484Y0088082D01*
X0133484Y0089262D02*
X0136240Y0089262D01*
X0118720Y0090054D02*
X0115964Y0090054D01*
X0118720Y0090054D02*
X0118720Y0085722D01*
X0115964Y0085722D01*
X0115964Y0090054D01*
X0115964Y0086902D02*
X0118720Y0086902D01*
X0118720Y0088082D02*
X0115964Y0088082D01*
X0115964Y0089262D02*
X0118720Y0089262D01*
X0114980Y0081393D02*
X0112224Y0081393D01*
X0114980Y0081393D02*
X0114980Y0077061D01*
X0112224Y0077061D01*
X0112224Y0081393D01*
X0112224Y0078241D02*
X0114980Y0078241D01*
X0114980Y0079421D02*
X0112224Y0079421D01*
X0112224Y0080601D02*
X0114980Y0080601D01*
X0111240Y0090054D02*
X0108484Y0090054D01*
X0111240Y0090054D02*
X0111240Y0085722D01*
X0108484Y0085722D01*
X0108484Y0090054D01*
X0108484Y0086902D02*
X0111240Y0086902D01*
X0111240Y0088082D02*
X0108484Y0088082D01*
X0108484Y0089262D02*
X0111240Y0089262D01*
X0112764Y0112778D02*
X0112764Y0115534D01*
X0112764Y0112778D02*
X0108038Y0112778D01*
X0108038Y0115534D01*
X0112764Y0115534D01*
X0112764Y0113958D02*
X0108038Y0113958D01*
X0108038Y0115138D02*
X0112764Y0115138D01*
X0112748Y0118680D02*
X0112748Y0121436D01*
X0112748Y0118680D02*
X0106054Y0118680D01*
X0106054Y0121436D01*
X0112748Y0121436D01*
X0112748Y0119860D02*
X0106054Y0119860D01*
X0106054Y0121040D02*
X0112748Y0121040D01*
X0112764Y0124581D02*
X0112764Y0127337D01*
X0112764Y0124581D02*
X0108038Y0124581D01*
X0108038Y0127337D01*
X0112764Y0127337D01*
X0112764Y0125761D02*
X0108038Y0125761D01*
X0108038Y0126941D02*
X0112764Y0126941D01*
X0088130Y0139195D02*
X0088130Y0143921D01*
X0088130Y0139195D02*
X0085374Y0139195D01*
X0085374Y0143921D01*
X0088130Y0143921D01*
X0088130Y0140375D02*
X0085374Y0140375D01*
X0085374Y0141555D02*
X0088130Y0141555D01*
X0088130Y0142735D02*
X0085374Y0142735D01*
X0085374Y0143915D02*
X0088130Y0143915D01*
X0081830Y0143921D02*
X0081830Y0139195D01*
X0079074Y0139195D01*
X0079074Y0143921D01*
X0081830Y0143921D01*
X0081830Y0140375D02*
X0079074Y0140375D01*
X0079074Y0141555D02*
X0081830Y0141555D01*
X0081830Y0142735D02*
X0079074Y0142735D01*
X0079074Y0143915D02*
X0081830Y0143915D01*
X0079074Y0164195D02*
X0079074Y0168921D01*
X0081830Y0168921D01*
X0081830Y0164195D01*
X0079074Y0164195D01*
X0079074Y0165375D02*
X0081830Y0165375D01*
X0081830Y0166555D02*
X0079074Y0166555D01*
X0079074Y0167735D02*
X0081830Y0167735D01*
X0081830Y0168915D02*
X0079074Y0168915D01*
X0085374Y0168921D02*
X0085374Y0164195D01*
X0085374Y0168921D02*
X0088130Y0168921D01*
X0088130Y0164195D01*
X0085374Y0164195D01*
X0085374Y0165375D02*
X0088130Y0165375D01*
X0088130Y0166555D02*
X0085374Y0166555D01*
X0085374Y0167735D02*
X0088130Y0167735D01*
X0088130Y0168915D02*
X0085374Y0168915D01*
X0059374Y0168921D02*
X0059374Y0164195D01*
X0059374Y0168921D02*
X0062130Y0168921D01*
X0062130Y0164195D01*
X0059374Y0164195D01*
X0059374Y0165375D02*
X0062130Y0165375D01*
X0062130Y0166555D02*
X0059374Y0166555D01*
X0059374Y0167735D02*
X0062130Y0167735D01*
X0062130Y0168915D02*
X0059374Y0168915D01*
X0053074Y0168921D02*
X0053074Y0164195D01*
X0053074Y0168921D02*
X0055830Y0168921D01*
X0055830Y0164195D01*
X0053074Y0164195D01*
X0053074Y0165375D02*
X0055830Y0165375D01*
X0055830Y0166555D02*
X0053074Y0166555D01*
X0053074Y0167735D02*
X0055830Y0167735D01*
X0055830Y0168915D02*
X0053074Y0168915D01*
X0055830Y0143921D02*
X0055830Y0139195D01*
X0053074Y0139195D01*
X0053074Y0143921D01*
X0055830Y0143921D01*
X0055830Y0140375D02*
X0053074Y0140375D01*
X0053074Y0141555D02*
X0055830Y0141555D01*
X0055830Y0142735D02*
X0053074Y0142735D01*
X0053074Y0143915D02*
X0055830Y0143915D01*
X0062130Y0143921D02*
X0062130Y0139195D01*
X0059374Y0139195D01*
X0059374Y0143921D01*
X0062130Y0143921D01*
X0062130Y0140375D02*
X0059374Y0140375D01*
X0059374Y0141555D02*
X0062130Y0141555D01*
X0062130Y0142735D02*
X0059374Y0142735D01*
X0059374Y0143915D02*
X0062130Y0143915D01*
X0049220Y0197561D02*
X0046464Y0197561D01*
X0046464Y0201893D01*
X0049220Y0201893D01*
X0049220Y0197561D01*
X0049220Y0198741D02*
X0046464Y0198741D01*
X0046464Y0199921D02*
X0049220Y0199921D01*
X0049220Y0201101D02*
X0046464Y0201101D01*
X0041740Y0197561D02*
X0038984Y0197561D01*
X0038984Y0201893D01*
X0041740Y0201893D01*
X0041740Y0197561D01*
X0041740Y0198741D02*
X0038984Y0198741D01*
X0038984Y0199921D02*
X0041740Y0199921D01*
X0041740Y0201101D02*
X0038984Y0201101D01*
X0042724Y0206222D02*
X0045480Y0206222D01*
X0042724Y0206222D02*
X0042724Y0210554D01*
X0045480Y0210554D01*
X0045480Y0206222D01*
X0045480Y0207402D02*
X0042724Y0207402D01*
X0042724Y0208582D02*
X0045480Y0208582D01*
X0045480Y0209762D02*
X0042724Y0209762D01*
X0037980Y0219893D02*
X0035224Y0219893D01*
X0037980Y0219893D02*
X0037980Y0215561D01*
X0035224Y0215561D01*
X0035224Y0219893D01*
X0035224Y0216741D02*
X0037980Y0216741D01*
X0037980Y0217921D02*
X0035224Y0217921D01*
X0035224Y0219101D02*
X0037980Y0219101D01*
X0038964Y0228554D02*
X0041720Y0228554D01*
X0041720Y0224222D01*
X0038964Y0224222D01*
X0038964Y0228554D01*
X0038964Y0225402D02*
X0041720Y0225402D01*
X0041720Y0226582D02*
X0038964Y0226582D01*
X0038964Y0227762D02*
X0041720Y0227762D01*
X0034240Y0228554D02*
X0031484Y0228554D01*
X0034240Y0228554D02*
X0034240Y0224222D01*
X0031484Y0224222D01*
X0031484Y0228554D01*
X0031484Y0225402D02*
X0034240Y0225402D01*
X0034240Y0226582D02*
X0031484Y0226582D01*
X0031484Y0227762D02*
X0034240Y0227762D01*
D15*
X0121386Y0130460D02*
X0125794Y0130460D01*
X0121386Y0130460D02*
X0121386Y0135656D01*
X0125794Y0135656D01*
X0125794Y0130460D01*
X0125794Y0132349D02*
X0121386Y0132349D01*
X0121386Y0134238D02*
X0125794Y0134238D01*
X0132410Y0130460D02*
X0136818Y0130460D01*
X0132410Y0130460D02*
X0132410Y0135656D01*
X0136818Y0135656D01*
X0136818Y0130460D01*
X0136818Y0132349D02*
X0132410Y0132349D01*
X0132410Y0134238D02*
X0136818Y0134238D01*
X0125700Y0123774D02*
X0125700Y0119366D01*
X0120504Y0119366D01*
X0120504Y0123774D01*
X0125700Y0123774D01*
X0125700Y0121255D02*
X0120504Y0121255D01*
X0120504Y0123144D02*
X0125700Y0123144D01*
X0125700Y0112750D02*
X0125700Y0108342D01*
X0120504Y0108342D01*
X0120504Y0112750D01*
X0125700Y0112750D01*
X0125700Y0110231D02*
X0120504Y0110231D01*
X0120504Y0112120D02*
X0125700Y0112120D01*
X0128706Y0085360D02*
X0128706Y0080952D01*
X0123498Y0080952D01*
X0123498Y0085360D01*
X0128706Y0085360D01*
X0128706Y0082841D02*
X0123498Y0082841D01*
X0123498Y0084730D02*
X0128706Y0084730D01*
X0128706Y0074163D02*
X0128706Y0069755D01*
X0123498Y0069755D01*
X0123498Y0074163D01*
X0128706Y0074163D01*
X0128706Y0071644D02*
X0123498Y0071644D01*
X0123498Y0073533D02*
X0128706Y0073533D01*
X0153706Y0074163D02*
X0153706Y0069755D01*
X0148498Y0069755D01*
X0148498Y0074163D01*
X0153706Y0074163D01*
X0153706Y0071644D02*
X0148498Y0071644D01*
X0148498Y0073533D02*
X0153706Y0073533D01*
X0153706Y0080952D02*
X0153706Y0085360D01*
X0153706Y0080952D02*
X0148498Y0080952D01*
X0148498Y0085360D01*
X0153706Y0085360D01*
X0153706Y0082841D02*
X0148498Y0082841D01*
X0148498Y0084730D02*
X0153706Y0084730D01*
X0103706Y0085360D02*
X0103706Y0080952D01*
X0098498Y0080952D01*
X0098498Y0085360D01*
X0103706Y0085360D01*
X0103706Y0082841D02*
X0098498Y0082841D01*
X0098498Y0084730D02*
X0103706Y0084730D01*
X0103706Y0074163D02*
X0103706Y0069755D01*
X0098498Y0069755D01*
X0098498Y0074163D01*
X0103706Y0074163D01*
X0103706Y0071644D02*
X0098498Y0071644D01*
X0098498Y0073533D02*
X0103706Y0073533D01*
X0202300Y0047954D02*
X0206708Y0047954D01*
X0202300Y0047954D02*
X0202300Y0053162D01*
X0206708Y0053162D01*
X0206708Y0047954D01*
X0206708Y0049843D02*
X0202300Y0049843D01*
X0202300Y0051732D02*
X0206708Y0051732D01*
X0213496Y0047954D02*
X0217904Y0047954D01*
X0213496Y0047954D02*
X0213496Y0053162D01*
X0217904Y0053162D01*
X0217904Y0047954D01*
X0217904Y0049843D02*
X0213496Y0049843D01*
X0213496Y0051732D02*
X0217904Y0051732D01*
X0214706Y0063255D02*
X0214706Y0067663D01*
X0214706Y0063255D02*
X0209498Y0063255D01*
X0209498Y0067663D01*
X0214706Y0067663D01*
X0214706Y0065144D02*
X0209498Y0065144D01*
X0209498Y0067033D02*
X0214706Y0067033D01*
X0214706Y0074452D02*
X0214706Y0078860D01*
X0214706Y0074452D02*
X0209498Y0074452D01*
X0209498Y0078860D01*
X0214706Y0078860D01*
X0214706Y0076341D02*
X0209498Y0076341D01*
X0209498Y0078230D02*
X0214706Y0078230D01*
X0213496Y0033954D02*
X0217904Y0033954D01*
X0213496Y0033954D02*
X0213496Y0039162D01*
X0217904Y0039162D01*
X0217904Y0033954D01*
X0217904Y0035843D02*
X0213496Y0035843D01*
X0213496Y0037732D02*
X0217904Y0037732D01*
X0206708Y0033954D02*
X0202300Y0033954D01*
X0202300Y0039162D01*
X0206708Y0039162D01*
X0206708Y0033954D01*
X0206708Y0035843D02*
X0202300Y0035843D01*
X0202300Y0037732D02*
X0206708Y0037732D01*
D16*
X0070334Y0100664D02*
X0070334Y0108128D01*
X0070334Y0100664D02*
X0062870Y0100664D01*
X0062870Y0108128D01*
X0070334Y0108128D01*
X0070334Y0102647D02*
X0062870Y0102647D01*
X0062870Y0104630D02*
X0070334Y0104630D01*
X0070334Y0106613D02*
X0062870Y0106613D01*
X0070334Y0117987D02*
X0070334Y0125451D01*
X0070334Y0117987D02*
X0062870Y0117987D01*
X0062870Y0125451D01*
X0070334Y0125451D01*
X0070334Y0119970D02*
X0062870Y0119970D01*
X0062870Y0121953D02*
X0070334Y0121953D01*
X0070334Y0123936D02*
X0062870Y0123936D01*
X0040370Y0080951D02*
X0040370Y0073487D01*
X0040370Y0080951D02*
X0047834Y0080951D01*
X0047834Y0073487D01*
X0040370Y0073487D01*
X0040370Y0075470D02*
X0047834Y0075470D01*
X0047834Y0077453D02*
X0040370Y0077453D01*
X0040370Y0079436D02*
X0047834Y0079436D01*
X0040370Y0063628D02*
X0040370Y0056164D01*
X0040370Y0063628D02*
X0047834Y0063628D01*
X0047834Y0056164D01*
X0040370Y0056164D01*
X0040370Y0058147D02*
X0047834Y0058147D01*
X0047834Y0060130D02*
X0040370Y0060130D01*
X0040370Y0062113D02*
X0047834Y0062113D01*
D17*
X0101854Y0120058D02*
X0101854Y0120058D01*
X0095948Y0120058D01*
X0095948Y0120058D01*
X0101854Y0120058D01*
D18*
X0065075Y0047109D02*
X0060941Y0047109D01*
X0065075Y0047109D02*
X0065075Y0041007D01*
X0060941Y0041007D01*
X0060941Y0047109D01*
X0060941Y0042778D02*
X0065075Y0042778D01*
X0065075Y0044549D02*
X0060941Y0044549D01*
X0060941Y0046320D02*
X0065075Y0046320D01*
X0053264Y0047109D02*
X0049130Y0047109D01*
X0053264Y0047109D02*
X0053264Y0041007D01*
X0049130Y0041007D01*
X0049130Y0047109D01*
X0049130Y0042778D02*
X0053264Y0042778D01*
X0053264Y0044549D02*
X0049130Y0044549D01*
X0049130Y0046320D02*
X0053264Y0046320D01*
D19*
X0143102Y0166058D03*
X0143102Y0176058D03*
X0153102Y0176058D03*
X0163102Y0176058D03*
X0163102Y0166058D03*
X0153102Y0166058D03*
D20*
X0205602Y0231058D03*
X0215602Y0231058D03*
D21*
X0216390Y0242904D02*
X0216390Y0246212D01*
X0216390Y0242904D02*
X0213082Y0242904D01*
X0213082Y0246212D01*
X0216390Y0246212D01*
X0216390Y0244320D02*
X0213082Y0244320D01*
X0213082Y0245736D02*
X0216390Y0245736D01*
X0208122Y0246212D02*
X0208122Y0242904D01*
X0204814Y0242904D01*
X0204814Y0246212D01*
X0208122Y0246212D01*
X0208122Y0244320D02*
X0204814Y0244320D01*
X0204814Y0245736D02*
X0208122Y0245736D01*
D22*
X0073602Y0232058D03*
X0058602Y0232058D03*
X0084602Y0043558D03*
X0099602Y0043558D03*
X0114602Y0043558D03*
X0129602Y0043558D03*
X0144602Y0043558D03*
X0159602Y0043558D03*
X0174602Y0043558D03*
D23*
X0226535Y0128408D02*
X0228189Y0128408D01*
X0226535Y0128408D02*
X0226535Y0132424D01*
X0228189Y0132424D01*
X0228189Y0128408D01*
X0228189Y0129116D02*
X0226535Y0129116D01*
X0226535Y0129824D02*
X0228189Y0129824D01*
X0228189Y0130532D02*
X0226535Y0130532D01*
X0226535Y0131240D02*
X0228189Y0131240D01*
X0228189Y0131948D02*
X0226535Y0131948D01*
X0230275Y0128408D02*
X0231929Y0128408D01*
X0230275Y0128408D02*
X0230275Y0132424D01*
X0231929Y0132424D01*
X0231929Y0128408D01*
X0231929Y0129116D02*
X0230275Y0129116D01*
X0230275Y0129824D02*
X0231929Y0129824D01*
X0231929Y0130532D02*
X0230275Y0130532D01*
X0230275Y0131240D02*
X0231929Y0131240D01*
X0231929Y0131948D02*
X0230275Y0131948D01*
X0234015Y0128408D02*
X0235669Y0128408D01*
X0234015Y0128408D02*
X0234015Y0132424D01*
X0235669Y0132424D01*
X0235669Y0128408D01*
X0235669Y0129116D02*
X0234015Y0129116D01*
X0234015Y0129824D02*
X0235669Y0129824D01*
X0235669Y0130532D02*
X0234015Y0130532D01*
X0234015Y0131240D02*
X0235669Y0131240D01*
X0235669Y0131948D02*
X0234015Y0131948D01*
X0234015Y0138691D02*
X0235669Y0138691D01*
X0234015Y0138691D02*
X0234015Y0142707D01*
X0235669Y0142707D01*
X0235669Y0138691D01*
X0235669Y0139399D02*
X0234015Y0139399D01*
X0234015Y0140107D02*
X0235669Y0140107D01*
X0235669Y0140815D02*
X0234015Y0140815D01*
X0234015Y0141523D02*
X0235669Y0141523D01*
X0235669Y0142231D02*
X0234015Y0142231D01*
X0228189Y0138691D02*
X0226535Y0138691D01*
X0226535Y0142707D01*
X0228189Y0142707D01*
X0228189Y0138691D01*
X0228189Y0139399D02*
X0226535Y0139399D01*
X0226535Y0140107D02*
X0228189Y0140107D01*
X0228189Y0140815D02*
X0226535Y0140815D01*
X0226535Y0141523D02*
X0228189Y0141523D01*
X0228189Y0142231D02*
X0226535Y0142231D01*
D24*
X0224681Y0143098D02*
X0222555Y0143098D01*
X0222555Y0143529D01*
X0221226Y0144857D01*
X0217861Y0144857D01*
X0213802Y0148916D01*
X0213802Y0149613D01*
X0213886Y0149697D01*
X0214386Y0150904D01*
X0214386Y0152211D01*
X0213886Y0153418D01*
X0212962Y0154342D01*
X0211755Y0154842D01*
X0210449Y0154842D01*
X0209242Y0154342D01*
X0208318Y0153418D01*
X0207818Y0152211D01*
X0207818Y0150904D01*
X0208318Y0149697D01*
X0208402Y0149613D01*
X0208402Y0147261D01*
X0208813Y0146268D01*
X0209573Y0145509D01*
X0213649Y0141432D01*
X0213649Y0138067D01*
X0214695Y0137022D01*
X0214525Y0136924D01*
X0214102Y0136501D01*
X0213804Y0135984D01*
X0213649Y0135407D01*
X0213649Y0133818D01*
X0217602Y0133818D01*
X0217602Y0132818D01*
X0213649Y0132818D01*
X0213649Y0131228D01*
X0213804Y0130651D01*
X0214102Y0130134D01*
X0214525Y0129712D01*
X0215042Y0129413D01*
X0215618Y0129259D01*
X0217602Y0129259D01*
X0217602Y0132818D01*
X0218602Y0132818D01*
X0218602Y0133818D01*
X0222555Y0133818D01*
X0222555Y0135407D01*
X0222400Y0135984D01*
X0222102Y0136501D01*
X0221680Y0136924D01*
X0221509Y0137022D01*
X0222555Y0138067D01*
X0222555Y0138498D01*
X0224681Y0138498D01*
X0224681Y0137923D01*
X0225767Y0136837D01*
X0228957Y0136837D01*
X0230043Y0137923D01*
X0230043Y0143475D01*
X0228957Y0144562D01*
X0225767Y0144562D01*
X0224681Y0143475D01*
X0224681Y0143098D01*
X0224681Y0143382D02*
X0222555Y0143382D01*
X0221703Y0144381D02*
X0225586Y0144381D01*
X0222149Y0145758D02*
X0231649Y0145758D01*
X0232542Y0144865D01*
X0232542Y0143857D01*
X0232161Y0143475D01*
X0232161Y0137923D01*
X0232542Y0137542D01*
X0232542Y0134179D01*
X0232173Y0134278D01*
X0231193Y0134278D01*
X0231193Y0130507D01*
X0231011Y0130507D01*
X0231011Y0134278D01*
X0230031Y0134278D01*
X0229560Y0134152D01*
X0229258Y0133977D01*
X0228957Y0134278D01*
X0225767Y0134278D01*
X0224681Y0133192D01*
X0224681Y0127640D01*
X0225062Y0127259D01*
X0225062Y0124941D01*
X0224979Y0124858D01*
X0222401Y0124858D01*
X0222401Y0127682D01*
X0221073Y0129010D01*
X0215612Y0129010D01*
X0214602Y0128001D01*
X0213593Y0129010D01*
X0212402Y0129010D01*
X0212402Y0142010D01*
X0209902Y0144510D01*
X0208555Y0145858D01*
X0207055Y0145858D01*
X0207055Y0147529D01*
X0205726Y0148857D01*
X0201056Y0148857D01*
X0198555Y0151358D01*
X0187372Y0151358D01*
X0187972Y0151958D01*
X0199134Y0151958D01*
X0199134Y0151696D01*
X0200358Y0150471D01*
X0204846Y0150471D01*
X0206071Y0151696D01*
X0206071Y0157758D01*
X0204846Y0158983D01*
X0200358Y0158983D01*
X0199134Y0157758D01*
X0199134Y0156158D01*
X0192672Y0156158D01*
X0194202Y0157688D01*
X0194202Y0163688D01*
X0195393Y0164879D01*
X0195393Y0163873D01*
X0198378Y0163873D01*
X0198378Y0167644D01*
X0198159Y0167644D01*
X0205502Y0174988D01*
X0205502Y0167644D01*
X0204098Y0167644D01*
X0202874Y0166420D01*
X0202874Y0160357D01*
X0202154Y0160357D01*
X0202188Y0160416D02*
X0202330Y0160948D01*
X0202330Y0162904D01*
X0199346Y0162904D01*
X0199346Y0159133D01*
X0200515Y0159133D01*
X0201047Y0159275D01*
X0201523Y0159550D01*
X0201913Y0159939D01*
X0202188Y0160416D01*
X0202874Y0160357D02*
X0204098Y0159133D01*
X0208586Y0159133D01*
X0209811Y0160357D01*
X0209811Y0166420D01*
X0209702Y0166528D01*
X0209702Y0175688D01*
X0226202Y0192188D01*
X0226202Y0207428D01*
X0218972Y0214658D01*
X0171109Y0214658D01*
X0171209Y0214758D01*
X0220649Y0214758D01*
X0227302Y0208105D01*
X0227302Y0192510D01*
X0211649Y0176858D01*
X0210302Y0175510D01*
X0210302Y0157605D01*
X0220802Y0147105D01*
X0222149Y0145758D01*
X0221530Y0146378D02*
X0216341Y0146378D01*
X0215342Y0147376D02*
X0220531Y0147376D01*
X0219532Y0148375D02*
X0214344Y0148375D01*
X0213802Y0149373D02*
X0218534Y0149373D01*
X0217535Y0150372D02*
X0214166Y0150372D01*
X0214386Y0151370D02*
X0216537Y0151370D01*
X0215538Y0152369D02*
X0214321Y0152369D01*
X0214540Y0153367D02*
X0213907Y0153367D01*
X0213541Y0154366D02*
X0212905Y0154366D01*
X0212543Y0155364D02*
X0206071Y0155364D01*
X0206071Y0154366D02*
X0209299Y0154366D01*
X0208297Y0153367D02*
X0206071Y0153367D01*
X0206071Y0152369D02*
X0207883Y0152369D01*
X0207818Y0151370D02*
X0205745Y0151370D01*
X0208039Y0150372D02*
X0199541Y0150372D01*
X0199459Y0151370D02*
X0187384Y0151370D01*
X0187555Y0146758D02*
X0196649Y0146758D01*
X0198149Y0145258D01*
X0198149Y0142067D01*
X0199195Y0141022D01*
X0199025Y0140924D01*
X0198602Y0140501D01*
X0198304Y0139984D01*
X0198149Y0139407D01*
X0198149Y0137818D01*
X0202102Y0137818D01*
X0202102Y0136818D01*
X0198149Y0136818D01*
X0198149Y0135228D01*
X0198304Y0134651D01*
X0198602Y0134134D01*
X0199025Y0133712D01*
X0199542Y0133413D01*
X0200118Y0133259D01*
X0202102Y0133259D01*
X0202102Y0136818D01*
X0203102Y0136818D01*
X0203102Y0137818D01*
X0207055Y0137818D01*
X0207055Y0139407D01*
X0206900Y0139984D01*
X0206602Y0140501D01*
X0206180Y0140924D01*
X0206009Y0141022D01*
X0206245Y0141258D01*
X0206649Y0141258D01*
X0207802Y0140105D01*
X0207802Y0128681D01*
X0206803Y0127682D01*
X0206803Y0121433D01*
X0208131Y0120105D01*
X0213593Y0120105D01*
X0214602Y0121114D01*
X0215612Y0120105D01*
X0221073Y0120105D01*
X0221226Y0120258D01*
X0223803Y0120258D01*
X0223803Y0117433D01*
X0225131Y0116105D01*
X0230593Y0116105D01*
X0231638Y0117150D01*
X0231736Y0116980D01*
X0232158Y0116558D01*
X0232676Y0116260D01*
X0233252Y0116105D01*
X0234842Y0116105D01*
X0234842Y0120058D01*
X0235842Y0120058D01*
X0235842Y0121058D01*
X0234842Y0121058D01*
X0234842Y0125010D01*
X0233252Y0125010D01*
X0232676Y0124856D01*
X0232158Y0124557D01*
X0231736Y0124135D01*
X0231638Y0123965D01*
X0230593Y0125010D01*
X0229662Y0125010D01*
X0229662Y0126653D01*
X0230031Y0126554D01*
X0231011Y0126554D01*
X0231011Y0130325D01*
X0231193Y0130325D01*
X0231193Y0126554D01*
X0232173Y0126554D01*
X0232645Y0126680D01*
X0232947Y0126855D01*
X0233247Y0126554D01*
X0236437Y0126554D01*
X0237523Y0127640D01*
X0237523Y0133192D01*
X0237142Y0133573D01*
X0237142Y0137542D01*
X0237523Y0137923D01*
X0237523Y0143475D01*
X0237142Y0143857D01*
X0237142Y0146770D01*
X0235795Y0148118D01*
X0233555Y0150358D01*
X0224055Y0150358D01*
X0214902Y0159510D01*
X0214902Y0173605D01*
X0231902Y0190605D01*
X0231902Y0210010D01*
X0230555Y0211358D01*
X0222555Y0219358D01*
X0171209Y0219358D01*
X0171009Y0219558D01*
X0171209Y0219758D01*
X0173055Y0219758D01*
X0176555Y0223258D01*
X0177902Y0224605D01*
X0177902Y0233105D01*
X0181093Y0233105D01*
X0182102Y0234114D01*
X0183112Y0233105D01*
X0188573Y0233105D01*
X0189901Y0234433D01*
X0189901Y0235258D01*
X0191149Y0235258D01*
X0194802Y0231605D01*
X0194802Y0227105D01*
X0196149Y0225758D01*
X0200149Y0221758D01*
X0209555Y0221758D01*
X0210902Y0223105D01*
X0214075Y0226278D01*
X0214607Y0226058D01*
X0216597Y0226058D01*
X0218434Y0226819D01*
X0219841Y0228225D01*
X0220602Y0230063D01*
X0220602Y0232052D01*
X0219841Y0233890D01*
X0218434Y0235297D01*
X0217902Y0235517D01*
X0217902Y0241293D01*
X0218598Y0241989D01*
X0218598Y0247126D01*
X0217304Y0248420D01*
X0212168Y0248420D01*
X0210874Y0247126D01*
X0210874Y0241989D01*
X0212168Y0240696D01*
X0213302Y0240696D01*
X0213302Y0235517D01*
X0212770Y0235297D01*
X0211363Y0233890D01*
X0210602Y0232052D01*
X0210602Y0230063D01*
X0210823Y0229531D01*
X0210034Y0228742D01*
X0210236Y0229138D01*
X0210479Y0229887D01*
X0210602Y0230664D01*
X0210602Y0230672D01*
X0205988Y0230672D01*
X0205988Y0231444D01*
X0205216Y0231444D01*
X0205216Y0236058D01*
X0205209Y0236058D01*
X0204431Y0235935D01*
X0203683Y0235691D01*
X0202981Y0235334D01*
X0202345Y0234872D01*
X0201788Y0234315D01*
X0201326Y0233678D01*
X0200968Y0232977D01*
X0200725Y0232229D01*
X0200602Y0231451D01*
X0200602Y0231444D01*
X0205216Y0231444D01*
X0205216Y0230672D01*
X0200602Y0230672D01*
X0200602Y0230664D01*
X0200725Y0229887D01*
X0200968Y0229138D01*
X0201326Y0228437D01*
X0201788Y0227800D01*
X0202345Y0227244D01*
X0202981Y0226781D01*
X0203683Y0226424D01*
X0203887Y0226358D01*
X0202055Y0226358D01*
X0199402Y0229010D01*
X0199402Y0233510D01*
X0194402Y0238510D01*
X0193055Y0239858D01*
X0189901Y0239858D01*
X0189901Y0240682D01*
X0188573Y0242010D01*
X0183112Y0242010D01*
X0182102Y0241001D01*
X0181093Y0242010D01*
X0175631Y0242010D01*
X0174303Y0240682D01*
X0174303Y0240327D01*
X0168972Y0245658D01*
X0130232Y0245658D01*
X0123732Y0239158D01*
X0122502Y0237928D01*
X0122502Y0162428D01*
X0101732Y0141658D01*
X0090220Y0141658D01*
X0090220Y0144786D01*
X0088996Y0146010D01*
X0084508Y0146010D01*
X0083576Y0145078D01*
X0083503Y0145204D01*
X0083114Y0145593D01*
X0082637Y0145868D01*
X0082106Y0146010D01*
X0080937Y0146010D01*
X0080937Y0142042D01*
X0079968Y0142042D01*
X0079968Y0141073D01*
X0076984Y0141073D01*
X0076984Y0138920D01*
X0077126Y0138389D01*
X0077126Y0138390D02*
X0065740Y0138390D01*
X0065972Y0138158D02*
X0064220Y0139909D01*
X0064220Y0144786D01*
X0062996Y0146010D01*
X0058508Y0146010D01*
X0057602Y0145105D01*
X0056696Y0146010D01*
X0052209Y0146010D01*
X0050984Y0144786D01*
X0050984Y0143858D01*
X0048401Y0143858D01*
X0048401Y0144682D01*
X0047073Y0146010D01*
X0041612Y0146010D01*
X0040602Y0145001D01*
X0039593Y0146010D01*
X0034131Y0146010D01*
X0032803Y0144682D01*
X0032803Y0138433D01*
X0034131Y0137105D01*
X0035802Y0137105D01*
X0035802Y0135605D01*
X0037149Y0134258D01*
X0038802Y0132605D01*
X0040149Y0131258D01*
X0105555Y0131258D01*
X0117555Y0143258D01*
X0120090Y0143258D01*
X0120090Y0137766D01*
X0120001Y0137729D01*
X0119313Y0137041D01*
X0118941Y0136142D01*
X0118941Y0134658D01*
X0117485Y0134658D01*
X0116346Y0134186D01*
X0111588Y0129428D01*
X0107173Y0129428D01*
X0105949Y0128203D01*
X0105949Y0124209D01*
X0105652Y0124505D01*
X0104910Y0125045D01*
X0104092Y0125461D01*
X0103219Y0125745D01*
X0102313Y0125888D01*
X0099401Y0125888D01*
X0099401Y0120558D01*
X0098401Y0120558D01*
X0098401Y0119558D01*
X0090124Y0119558D01*
X0090261Y0118692D01*
X0090545Y0117820D01*
X0090962Y0117002D01*
X0091501Y0116259D01*
X0092150Y0115610D01*
X0092893Y0115071D01*
X0093710Y0114654D01*
X0094583Y0114371D01*
X0095490Y0114227D01*
X0098401Y0114227D01*
X0098401Y0119558D01*
X0099401Y0119558D01*
X0099401Y0120558D01*
X0103964Y0120558D01*
X0103964Y0120542D01*
X0108917Y0120542D01*
X0108917Y0119573D01*
X0103964Y0119573D01*
X0103964Y0119558D01*
X0099401Y0119558D01*
X0099401Y0114227D01*
X0102313Y0114227D01*
X0103219Y0114371D01*
X0104092Y0114654D01*
X0104910Y0115071D01*
X0105652Y0115610D01*
X0105949Y0115906D01*
X0105949Y0111912D01*
X0107173Y0110688D01*
X0108920Y0110688D01*
X0111044Y0108563D01*
X0111290Y0108318D01*
X0072826Y0108318D01*
X0072826Y0108624D01*
X0072447Y0109540D01*
X0071746Y0110241D01*
X0070830Y0110621D01*
X0062374Y0110621D01*
X0061458Y0110241D01*
X0060757Y0109540D01*
X0060378Y0108624D01*
X0060378Y0100168D01*
X0060602Y0099627D01*
X0060602Y0099007D01*
X0045038Y0083444D01*
X0039874Y0083444D01*
X0038958Y0083064D01*
X0038257Y0082363D01*
X0037878Y0081447D01*
X0037878Y0072991D01*
X0038257Y0072075D01*
X0038958Y0071374D01*
X0039874Y0070995D01*
X0048330Y0070995D01*
X0049246Y0071374D01*
X0049947Y0072075D01*
X0050326Y0072991D01*
X0050326Y0078832D01*
X0053602Y0082108D01*
X0053602Y0049495D01*
X0050709Y0049495D01*
X0047602Y0052602D01*
X0047602Y0053672D01*
X0048330Y0053672D01*
X0049246Y0054051D01*
X0049947Y0054752D01*
X0050326Y0055668D01*
X0050326Y0064124D01*
X0049947Y0065040D01*
X0049246Y0065741D01*
X0048330Y0066121D01*
X0039874Y0066121D01*
X0038958Y0065741D01*
X0038257Y0065040D01*
X0037878Y0064124D01*
X0037878Y0055668D01*
X0038257Y0054752D01*
X0038958Y0054051D01*
X0039874Y0053672D01*
X0040602Y0053672D01*
X0040602Y0050456D01*
X0041135Y0049170D01*
X0042119Y0048185D01*
X0046744Y0043561D01*
X0046744Y0040018D01*
X0048141Y0038621D01*
X0053602Y0038621D01*
X0053602Y0027058D01*
X0024102Y0027058D01*
X0024102Y0147058D01*
X0103602Y0147058D01*
X0120102Y0163558D01*
X0120102Y0248467D01*
X0241575Y0248467D01*
X0241575Y0181192D01*
X0229171Y0181192D01*
X0225157Y0180013D01*
X0221637Y0177751D01*
X0221636Y0177751D01*
X0218896Y0174588D01*
X0217158Y0170782D01*
X0216563Y0166640D01*
X0217158Y0162499D01*
X0217158Y0162499D01*
X0218896Y0158693D01*
X0218896Y0158693D01*
X0221636Y0155530D01*
X0221637Y0155530D01*
X0225157Y0153268D01*
X0229171Y0152089D01*
X0241575Y0152089D01*
X0241575Y0109058D01*
X0228572Y0109058D01*
X0220702Y0116928D01*
X0219472Y0118158D01*
X0205472Y0118158D01*
X0201202Y0122428D01*
X0201202Y0127428D01*
X0200202Y0128428D01*
X0198972Y0129658D01*
X0195795Y0129658D01*
X0195374Y0130079D01*
X0195473Y0130135D01*
X0195824Y0130487D01*
X0196073Y0130918D01*
X0196202Y0131399D01*
X0196202Y0132408D01*
X0190852Y0132408D01*
X0190852Y0132708D01*
X0190552Y0132708D01*
X0190552Y0137408D01*
X0185202Y0137408D01*
X0185202Y0136399D01*
X0185331Y0135918D01*
X0185580Y0135487D01*
X0185932Y0135135D01*
X0186066Y0135058D01*
X0185932Y0134980D01*
X0185580Y0134628D01*
X0185331Y0134197D01*
X0185202Y0133717D01*
X0185202Y0132708D01*
X0190552Y0132708D01*
X0190552Y0132408D01*
X0185202Y0132408D01*
X0185202Y0131399D01*
X0185331Y0130918D01*
X0185580Y0130487D01*
X0185932Y0130135D01*
X0186030Y0130079D01*
X0185202Y0129251D01*
X0185202Y0125865D01*
X0186030Y0125037D01*
X0185932Y0124980D01*
X0185580Y0124628D01*
X0185331Y0124197D01*
X0185202Y0123717D01*
X0185202Y0122708D01*
X0190552Y0122708D01*
X0190552Y0122408D01*
X0185202Y0122408D01*
X0185202Y0121399D01*
X0185331Y0120918D01*
X0185580Y0120487D01*
X0185932Y0120135D01*
X0186030Y0120079D01*
X0185932Y0119980D01*
X0184402Y0121510D01*
X0184402Y0143605D01*
X0187555Y0146758D01*
X0187175Y0146378D02*
X0197030Y0146378D01*
X0198028Y0145379D02*
X0186176Y0145379D01*
X0186363Y0145229D02*
X0185932Y0144980D01*
X0185580Y0144628D01*
X0185331Y0144197D01*
X0185202Y0143717D01*
X0185202Y0142708D01*
X0190552Y0142708D01*
X0190552Y0145358D01*
X0186843Y0145358D01*
X0186363Y0145229D01*
X0185437Y0144381D02*
X0185178Y0144381D01*
X0185202Y0143382D02*
X0184402Y0143382D01*
X0184402Y0142384D02*
X0185202Y0142384D01*
X0185202Y0142408D02*
X0185202Y0141399D01*
X0185331Y0140918D01*
X0185580Y0140487D01*
X0185932Y0140135D01*
X0186066Y0140058D01*
X0185932Y0139980D01*
X0185580Y0139628D01*
X0185331Y0139197D01*
X0185202Y0138717D01*
X0185202Y0137708D01*
X0190552Y0137708D01*
X0190552Y0142408D01*
X0185202Y0142408D01*
X0185206Y0141385D02*
X0184402Y0141385D01*
X0184402Y0140387D02*
X0185680Y0140387D01*
X0185441Y0139388D02*
X0184402Y0139388D01*
X0184402Y0138390D02*
X0185202Y0138390D01*
X0185202Y0137391D02*
X0184402Y0137391D01*
X0184402Y0136392D02*
X0185204Y0136392D01*
X0185673Y0135394D02*
X0184402Y0135394D01*
X0184402Y0134395D02*
X0185445Y0134395D01*
X0185202Y0133397D02*
X0184402Y0133397D01*
X0184402Y0132398D02*
X0185202Y0132398D01*
X0185202Y0131400D02*
X0184402Y0131400D01*
X0184402Y0130401D02*
X0185666Y0130401D01*
X0185354Y0129403D02*
X0184402Y0129403D01*
X0184402Y0128404D02*
X0185202Y0128404D01*
X0185202Y0127406D02*
X0184402Y0127406D01*
X0184402Y0126407D02*
X0185202Y0126407D01*
X0185658Y0125409D02*
X0184402Y0125409D01*
X0184402Y0124410D02*
X0185454Y0124410D01*
X0185202Y0123412D02*
X0184402Y0123412D01*
X0184402Y0122413D02*
X0190552Y0122413D01*
X0190852Y0122413D02*
X0197002Y0122413D01*
X0196202Y0122408D02*
X0190852Y0122408D01*
X0190852Y0122708D01*
X0196202Y0122708D01*
X0196202Y0123717D01*
X0196073Y0124197D01*
X0195824Y0124628D01*
X0195473Y0124980D01*
X0195374Y0125037D01*
X0195795Y0125458D01*
X0197002Y0125458D01*
X0197002Y0120688D01*
X0198232Y0119458D01*
X0202532Y0115158D01*
X0195495Y0115158D01*
X0196202Y0115865D01*
X0196202Y0119251D01*
X0195374Y0120079D01*
X0195473Y0120135D01*
X0195824Y0120487D01*
X0196073Y0120918D01*
X0196202Y0121399D01*
X0196202Y0122408D01*
X0196202Y0121415D02*
X0197002Y0121415D01*
X0197274Y0120416D02*
X0195754Y0120416D01*
X0196035Y0119418D02*
X0198272Y0119418D01*
X0199271Y0118419D02*
X0196202Y0118419D01*
X0196202Y0117421D02*
X0200269Y0117421D01*
X0201268Y0116422D02*
X0196202Y0116422D01*
X0195761Y0115424D02*
X0202266Y0115424D01*
X0205210Y0118419D02*
X0223803Y0118419D01*
X0223815Y0117421D02*
X0220209Y0117421D01*
X0221207Y0116422D02*
X0224814Y0116422D01*
X0223204Y0114425D02*
X0241575Y0114425D01*
X0241575Y0113427D02*
X0224203Y0113427D01*
X0225201Y0112428D02*
X0241575Y0112428D01*
X0241575Y0111430D02*
X0226200Y0111430D01*
X0227198Y0110431D02*
X0241575Y0110431D01*
X0241575Y0109433D02*
X0228197Y0109433D01*
X0222206Y0115424D02*
X0241575Y0115424D01*
X0241575Y0116422D02*
X0238291Y0116422D01*
X0238526Y0116558D02*
X0238948Y0116980D01*
X0239247Y0117497D01*
X0239401Y0118074D01*
X0239401Y0120058D01*
X0235842Y0120058D01*
X0235842Y0116105D01*
X0237432Y0116105D01*
X0238009Y0116260D01*
X0238526Y0116558D01*
X0239202Y0117421D02*
X0241575Y0117421D01*
X0241575Y0118419D02*
X0239401Y0118419D01*
X0239401Y0119418D02*
X0241575Y0119418D01*
X0241575Y0120416D02*
X0235842Y0120416D01*
X0235842Y0121058D02*
X0239401Y0121058D01*
X0239401Y0123041D01*
X0239247Y0123618D01*
X0238948Y0124135D01*
X0238526Y0124557D01*
X0238009Y0124856D01*
X0237432Y0125010D01*
X0235842Y0125010D01*
X0235842Y0121058D01*
X0235842Y0121415D02*
X0234842Y0121415D01*
X0234842Y0122413D02*
X0235842Y0122413D01*
X0235842Y0123412D02*
X0234842Y0123412D01*
X0234842Y0124410D02*
X0235842Y0124410D01*
X0238673Y0124410D02*
X0241575Y0124410D01*
X0241575Y0123412D02*
X0239302Y0123412D01*
X0239401Y0122413D02*
X0241575Y0122413D01*
X0241575Y0121415D02*
X0239401Y0121415D01*
X0241575Y0125409D02*
X0229662Y0125409D01*
X0229662Y0126407D02*
X0241575Y0126407D01*
X0241575Y0127406D02*
X0237289Y0127406D01*
X0237523Y0128404D02*
X0241575Y0128404D01*
X0241575Y0129403D02*
X0237523Y0129403D01*
X0237523Y0130401D02*
X0241575Y0130401D01*
X0241575Y0131400D02*
X0237523Y0131400D01*
X0237523Y0132398D02*
X0241575Y0132398D01*
X0241575Y0133397D02*
X0237318Y0133397D01*
X0237142Y0134395D02*
X0241575Y0134395D01*
X0241575Y0135394D02*
X0237142Y0135394D01*
X0237142Y0136392D02*
X0241575Y0136392D01*
X0241575Y0137391D02*
X0237142Y0137391D01*
X0237523Y0138390D02*
X0241575Y0138390D01*
X0241575Y0139388D02*
X0237523Y0139388D01*
X0237523Y0140387D02*
X0241575Y0140387D01*
X0241575Y0141385D02*
X0237523Y0141385D01*
X0237523Y0142384D02*
X0241575Y0142384D01*
X0241575Y0143382D02*
X0237523Y0143382D01*
X0237142Y0144381D02*
X0241575Y0144381D01*
X0241575Y0145379D02*
X0237142Y0145379D01*
X0237142Y0146378D02*
X0241575Y0146378D01*
X0241575Y0147376D02*
X0236536Y0147376D01*
X0235538Y0148375D02*
X0241575Y0148375D01*
X0241575Y0149373D02*
X0234539Y0149373D01*
X0232028Y0145379D02*
X0217339Y0145379D01*
X0213649Y0141385D02*
X0212402Y0141385D01*
X0212402Y0140387D02*
X0213649Y0140387D01*
X0213649Y0139388D02*
X0212402Y0139388D01*
X0212402Y0138390D02*
X0213649Y0138390D01*
X0214326Y0137391D02*
X0212402Y0137391D01*
X0212402Y0136392D02*
X0214040Y0136392D01*
X0213649Y0135394D02*
X0212402Y0135394D01*
X0212402Y0134395D02*
X0213649Y0134395D01*
X0212402Y0133397D02*
X0217602Y0133397D01*
X0217602Y0132398D02*
X0218602Y0132398D01*
X0218602Y0132818D02*
X0218602Y0129259D01*
X0220586Y0129259D01*
X0221162Y0129413D01*
X0221680Y0129712D01*
X0222102Y0130134D01*
X0222400Y0130651D01*
X0222555Y0131228D01*
X0222555Y0132818D01*
X0218602Y0132818D01*
X0218602Y0133397D02*
X0224886Y0133397D01*
X0224681Y0132398D02*
X0222555Y0132398D01*
X0222555Y0131400D02*
X0224681Y0131400D01*
X0224681Y0130401D02*
X0222256Y0130401D01*
X0221125Y0129403D02*
X0224681Y0129403D01*
X0224681Y0128404D02*
X0221679Y0128404D01*
X0222401Y0127406D02*
X0224915Y0127406D01*
X0225062Y0126407D02*
X0222401Y0126407D01*
X0222401Y0125409D02*
X0225062Y0125409D01*
X0223803Y0119418D02*
X0204212Y0119418D01*
X0203213Y0120416D02*
X0207820Y0120416D01*
X0206821Y0121415D02*
X0202215Y0121415D01*
X0201216Y0122413D02*
X0206803Y0122413D01*
X0206803Y0123412D02*
X0201202Y0123412D01*
X0201202Y0124410D02*
X0206803Y0124410D01*
X0206803Y0125409D02*
X0201202Y0125409D01*
X0201202Y0126407D02*
X0206803Y0126407D01*
X0206803Y0127406D02*
X0201202Y0127406D01*
X0200225Y0128404D02*
X0207525Y0128404D01*
X0207802Y0129403D02*
X0199227Y0129403D01*
X0196202Y0131400D02*
X0207802Y0131400D01*
X0207802Y0132398D02*
X0196202Y0132398D01*
X0196202Y0132708D02*
X0196202Y0133717D01*
X0196073Y0134197D01*
X0195824Y0134628D01*
X0195473Y0134980D01*
X0195338Y0135058D01*
X0195473Y0135135D01*
X0195824Y0135487D01*
X0196073Y0135918D01*
X0196202Y0136399D01*
X0196202Y0137408D01*
X0190852Y0137408D01*
X0190852Y0137708D01*
X0190552Y0137708D01*
X0190552Y0137408D01*
X0190852Y0137408D01*
X0190852Y0134758D01*
X0190852Y0132708D01*
X0196202Y0132708D01*
X0196202Y0133397D02*
X0199602Y0133397D01*
X0198451Y0134395D02*
X0195959Y0134395D01*
X0195731Y0135394D02*
X0198149Y0135394D01*
X0198149Y0136392D02*
X0196200Y0136392D01*
X0196202Y0137391D02*
X0202102Y0137391D01*
X0202102Y0136392D02*
X0203102Y0136392D01*
X0203102Y0136818D02*
X0203102Y0133259D01*
X0205086Y0133259D01*
X0205662Y0133413D01*
X0206180Y0133712D01*
X0206602Y0134134D01*
X0206900Y0134651D01*
X0207055Y0135228D01*
X0207055Y0136818D01*
X0203102Y0136818D01*
X0203102Y0137391D02*
X0207802Y0137391D01*
X0207802Y0136392D02*
X0207055Y0136392D01*
X0207055Y0135394D02*
X0207802Y0135394D01*
X0207802Y0134395D02*
X0206753Y0134395D01*
X0207802Y0133397D02*
X0205602Y0133397D01*
X0203102Y0133397D02*
X0202102Y0133397D01*
X0202102Y0134395D02*
X0203102Y0134395D01*
X0203102Y0135394D02*
X0202102Y0135394D01*
X0198149Y0138390D02*
X0196202Y0138390D01*
X0196202Y0138717D02*
X0196202Y0137708D01*
X0190852Y0137708D01*
X0190852Y0139758D01*
X0190852Y0142408D01*
X0190852Y0142708D01*
X0190552Y0142708D01*
X0190552Y0142408D01*
X0190852Y0142408D01*
X0196202Y0142408D01*
X0196202Y0141399D01*
X0196073Y0140918D01*
X0195824Y0140487D01*
X0195473Y0140135D01*
X0195338Y0140058D01*
X0195473Y0139980D01*
X0195824Y0139628D01*
X0196073Y0139197D01*
X0196202Y0138717D01*
X0195963Y0139388D02*
X0198149Y0139388D01*
X0198536Y0140387D02*
X0195724Y0140387D01*
X0196198Y0141385D02*
X0198831Y0141385D01*
X0198149Y0142384D02*
X0196202Y0142384D01*
X0196202Y0142708D02*
X0196202Y0143717D01*
X0196073Y0144197D01*
X0195824Y0144628D01*
X0195473Y0144980D01*
X0195042Y0145229D01*
X0194561Y0145358D01*
X0190852Y0145358D01*
X0190852Y0142708D01*
X0196202Y0142708D01*
X0196202Y0143382D02*
X0198149Y0143382D01*
X0198149Y0144381D02*
X0195967Y0144381D01*
X0190852Y0144381D02*
X0190552Y0144381D01*
X0190552Y0143382D02*
X0190852Y0143382D01*
X0190852Y0142384D02*
X0190552Y0142384D01*
X0190552Y0141385D02*
X0190852Y0141385D01*
X0190852Y0140387D02*
X0190552Y0140387D01*
X0190552Y0139388D02*
X0190852Y0139388D01*
X0190852Y0138390D02*
X0190552Y0138390D01*
X0190552Y0137391D02*
X0190852Y0137391D01*
X0190852Y0136392D02*
X0190552Y0136392D01*
X0190552Y0135394D02*
X0190852Y0135394D01*
X0190852Y0134395D02*
X0190552Y0134395D01*
X0190552Y0133397D02*
X0190852Y0133397D01*
X0195739Y0130401D02*
X0207802Y0130401D01*
X0212402Y0130401D02*
X0213948Y0130401D01*
X0213649Y0131400D02*
X0212402Y0131400D01*
X0212402Y0132398D02*
X0213649Y0132398D01*
X0212402Y0129403D02*
X0215080Y0129403D01*
X0215005Y0128404D02*
X0214199Y0128404D01*
X0217602Y0129403D02*
X0218602Y0129403D01*
X0218602Y0130401D02*
X0217602Y0130401D01*
X0217602Y0131400D02*
X0218602Y0131400D01*
X0222555Y0134395D02*
X0232542Y0134395D01*
X0232542Y0135394D02*
X0222555Y0135394D01*
X0222165Y0136392D02*
X0232542Y0136392D01*
X0232542Y0137391D02*
X0229511Y0137391D01*
X0230043Y0138390D02*
X0232161Y0138390D01*
X0232161Y0139388D02*
X0230043Y0139388D01*
X0230043Y0140387D02*
X0232161Y0140387D01*
X0232161Y0141385D02*
X0230043Y0141385D01*
X0230043Y0142384D02*
X0232161Y0142384D01*
X0232161Y0143382D02*
X0230043Y0143382D01*
X0229138Y0144381D02*
X0232542Y0144381D01*
X0228220Y0152369D02*
X0222044Y0152369D01*
X0221045Y0153367D02*
X0225002Y0153367D01*
X0225157Y0153268D02*
X0225157Y0153268D01*
X0223449Y0154366D02*
X0220047Y0154366D01*
X0219048Y0155364D02*
X0221895Y0155364D01*
X0221636Y0155530D02*
X0221636Y0155530D01*
X0220915Y0156363D02*
X0218050Y0156363D01*
X0217051Y0157361D02*
X0220050Y0157361D01*
X0219185Y0158360D02*
X0216053Y0158360D01*
X0215054Y0159358D02*
X0218592Y0159358D01*
X0218136Y0160357D02*
X0214902Y0160357D01*
X0214902Y0161355D02*
X0217680Y0161355D01*
X0217224Y0162354D02*
X0214902Y0162354D01*
X0214902Y0163352D02*
X0217035Y0163352D01*
X0216892Y0164351D02*
X0214902Y0164351D01*
X0214902Y0165349D02*
X0216748Y0165349D01*
X0216605Y0166348D02*
X0214902Y0166348D01*
X0214902Y0167346D02*
X0216664Y0167346D01*
X0216563Y0166640D02*
X0216563Y0166640D01*
X0216808Y0168345D02*
X0214902Y0168345D01*
X0214902Y0169343D02*
X0216951Y0169343D01*
X0217095Y0170342D02*
X0214902Y0170342D01*
X0214902Y0171340D02*
X0217413Y0171340D01*
X0217158Y0170782D02*
X0217158Y0170782D01*
X0217869Y0172339D02*
X0214902Y0172339D01*
X0214902Y0173337D02*
X0218325Y0173337D01*
X0218781Y0174336D02*
X0215633Y0174336D01*
X0216631Y0175334D02*
X0219543Y0175334D01*
X0218896Y0174588D02*
X0218896Y0174588D01*
X0217630Y0176333D02*
X0220408Y0176333D01*
X0221273Y0177331D02*
X0218628Y0177331D01*
X0219627Y0178330D02*
X0222538Y0178330D01*
X0224092Y0179328D02*
X0220625Y0179328D01*
X0221624Y0180327D02*
X0226227Y0180327D01*
X0225157Y0180013D02*
X0225157Y0180013D01*
X0223621Y0182324D02*
X0241575Y0182324D01*
X0241575Y0181326D02*
X0222623Y0181326D01*
X0224620Y0183323D02*
X0241575Y0183323D01*
X0241575Y0184321D02*
X0225618Y0184321D01*
X0226617Y0185320D02*
X0241575Y0185320D01*
X0241575Y0186318D02*
X0227615Y0186318D01*
X0228614Y0187317D02*
X0241575Y0187317D01*
X0241575Y0188315D02*
X0229612Y0188315D01*
X0230611Y0189314D02*
X0241575Y0189314D01*
X0241575Y0190312D02*
X0231609Y0190312D01*
X0231902Y0191311D02*
X0241575Y0191311D01*
X0241575Y0192309D02*
X0231902Y0192309D01*
X0231902Y0193308D02*
X0241575Y0193308D01*
X0241575Y0194306D02*
X0231902Y0194306D01*
X0231902Y0195305D02*
X0241575Y0195305D01*
X0241575Y0196303D02*
X0231902Y0196303D01*
X0231902Y0197302D02*
X0241575Y0197302D01*
X0241575Y0198300D02*
X0231902Y0198300D01*
X0231902Y0199299D02*
X0241575Y0199299D01*
X0241575Y0200297D02*
X0231902Y0200297D01*
X0231902Y0201296D02*
X0241575Y0201296D01*
X0241575Y0202294D02*
X0231902Y0202294D01*
X0231902Y0203293D02*
X0241575Y0203293D01*
X0241575Y0204291D02*
X0231902Y0204291D01*
X0231902Y0205290D02*
X0241575Y0205290D01*
X0241575Y0206288D02*
X0231902Y0206288D01*
X0231902Y0207287D02*
X0241575Y0207287D01*
X0241575Y0208285D02*
X0231902Y0208285D01*
X0231902Y0209284D02*
X0241575Y0209284D01*
X0241575Y0210282D02*
X0231630Y0210282D01*
X0230632Y0211281D02*
X0241575Y0211281D01*
X0241575Y0212279D02*
X0229633Y0212279D01*
X0228635Y0213278D02*
X0241575Y0213278D01*
X0241575Y0214276D02*
X0227636Y0214276D01*
X0226638Y0215275D02*
X0241575Y0215275D01*
X0241575Y0216273D02*
X0225639Y0216273D01*
X0224641Y0217272D02*
X0241575Y0217272D01*
X0241575Y0218270D02*
X0223642Y0218270D01*
X0222644Y0219269D02*
X0241575Y0219269D01*
X0241575Y0220267D02*
X0173564Y0220267D01*
X0174563Y0221266D02*
X0241575Y0221266D01*
X0241575Y0222264D02*
X0210061Y0222264D01*
X0211060Y0223263D02*
X0241575Y0223263D01*
X0241575Y0224261D02*
X0212058Y0224261D01*
X0213057Y0225260D02*
X0241575Y0225260D01*
X0241575Y0226259D02*
X0217081Y0226259D01*
X0218872Y0227257D02*
X0241575Y0227257D01*
X0241575Y0228256D02*
X0219853Y0228256D01*
X0220267Y0229254D02*
X0241575Y0229254D01*
X0241575Y0230253D02*
X0220602Y0230253D01*
X0220602Y0231251D02*
X0241575Y0231251D01*
X0241575Y0232250D02*
X0220520Y0232250D01*
X0220107Y0233248D02*
X0241575Y0233248D01*
X0241575Y0234247D02*
X0219484Y0234247D01*
X0218486Y0235245D02*
X0241575Y0235245D01*
X0241575Y0236244D02*
X0217902Y0236244D01*
X0217902Y0237242D02*
X0241575Y0237242D01*
X0241575Y0238241D02*
X0217902Y0238241D01*
X0217902Y0239239D02*
X0241575Y0239239D01*
X0241575Y0240238D02*
X0217902Y0240238D01*
X0217902Y0241236D02*
X0241575Y0241236D01*
X0241575Y0242235D02*
X0218598Y0242235D01*
X0218598Y0243233D02*
X0241575Y0243233D01*
X0241575Y0244232D02*
X0218598Y0244232D01*
X0218598Y0245230D02*
X0241575Y0245230D01*
X0241575Y0246229D02*
X0218598Y0246229D01*
X0218497Y0247227D02*
X0241575Y0247227D01*
X0241575Y0248226D02*
X0217498Y0248226D01*
X0211973Y0248226D02*
X0209050Y0248226D01*
X0208974Y0248269D02*
X0208413Y0248420D01*
X0206968Y0248420D01*
X0206968Y0245058D01*
X0205968Y0245058D01*
X0205968Y0248420D01*
X0204524Y0248420D01*
X0203962Y0248269D01*
X0203459Y0247979D01*
X0203047Y0247567D01*
X0202757Y0247064D01*
X0202606Y0246502D01*
X0202606Y0245058D01*
X0205968Y0245058D01*
X0205968Y0244058D01*
X0202606Y0244058D01*
X0202606Y0242613D01*
X0202757Y0242052D01*
X0203047Y0241548D01*
X0203459Y0241137D01*
X0203962Y0240846D01*
X0204524Y0240696D01*
X0205968Y0240696D01*
X0205968Y0244058D01*
X0206968Y0244058D01*
X0206968Y0245058D01*
X0210330Y0245058D01*
X0210330Y0246502D01*
X0210180Y0247064D01*
X0209889Y0247567D01*
X0209478Y0247979D01*
X0208974Y0248269D01*
X0210086Y0247227D02*
X0210975Y0247227D01*
X0210874Y0246229D02*
X0210330Y0246229D01*
X0210330Y0245230D02*
X0210874Y0245230D01*
X0210874Y0244232D02*
X0206968Y0244232D01*
X0206968Y0244058D02*
X0210330Y0244058D01*
X0210330Y0242613D01*
X0210180Y0242052D01*
X0209889Y0241548D01*
X0209478Y0241137D01*
X0208974Y0240846D01*
X0208413Y0240696D01*
X0206968Y0240696D01*
X0206968Y0244058D01*
X0206968Y0243233D02*
X0205968Y0243233D01*
X0205968Y0242235D02*
X0206968Y0242235D01*
X0206968Y0241236D02*
X0205968Y0241236D01*
X0203359Y0241236D02*
X0189347Y0241236D01*
X0189901Y0240238D02*
X0213302Y0240238D01*
X0213302Y0239239D02*
X0193673Y0239239D01*
X0194672Y0238241D02*
X0213302Y0238241D01*
X0213302Y0237242D02*
X0195670Y0237242D01*
X0196669Y0236244D02*
X0213302Y0236244D01*
X0212718Y0235245D02*
X0208345Y0235245D01*
X0208223Y0235334D02*
X0207521Y0235691D01*
X0206773Y0235935D01*
X0205996Y0236058D01*
X0205988Y0236058D01*
X0205988Y0231444D01*
X0210602Y0231444D01*
X0210602Y0231451D01*
X0210479Y0232229D01*
X0210236Y0232977D01*
X0209878Y0233678D01*
X0209416Y0234315D01*
X0208859Y0234872D01*
X0208223Y0235334D01*
X0209466Y0234247D02*
X0211720Y0234247D01*
X0211097Y0233248D02*
X0210098Y0233248D01*
X0210472Y0232250D02*
X0210684Y0232250D01*
X0210602Y0231251D02*
X0205988Y0231251D01*
X0205216Y0231251D02*
X0199402Y0231251D01*
X0199402Y0230253D02*
X0200667Y0230253D01*
X0200931Y0229254D02*
X0199402Y0229254D01*
X0200157Y0228256D02*
X0201458Y0228256D01*
X0201155Y0227257D02*
X0202332Y0227257D01*
X0199643Y0222264D02*
X0175561Y0222264D01*
X0176560Y0223263D02*
X0198644Y0223263D01*
X0197646Y0224261D02*
X0177559Y0224261D01*
X0177902Y0225260D02*
X0196647Y0225260D01*
X0195649Y0226259D02*
X0177902Y0226259D01*
X0177902Y0227257D02*
X0194802Y0227257D01*
X0194802Y0228256D02*
X0177902Y0228256D01*
X0177902Y0229254D02*
X0194802Y0229254D01*
X0194802Y0230253D02*
X0177902Y0230253D01*
X0177902Y0231251D02*
X0194802Y0231251D01*
X0194158Y0232250D02*
X0177902Y0232250D01*
X0181236Y0233248D02*
X0182968Y0233248D01*
X0188716Y0233248D02*
X0193159Y0233248D01*
X0192161Y0234247D02*
X0189714Y0234247D01*
X0189901Y0235245D02*
X0191162Y0235245D01*
X0197667Y0235245D02*
X0202859Y0235245D01*
X0201739Y0234247D02*
X0198666Y0234247D01*
X0199402Y0233248D02*
X0201106Y0233248D01*
X0200732Y0232250D02*
X0199402Y0232250D01*
X0205216Y0232250D02*
X0205988Y0232250D01*
X0205988Y0233248D02*
X0205216Y0233248D01*
X0205216Y0234247D02*
X0205988Y0234247D01*
X0205988Y0235245D02*
X0205216Y0235245D01*
X0210537Y0230253D02*
X0210602Y0230253D01*
X0210546Y0229254D02*
X0210273Y0229254D01*
X0214056Y0226259D02*
X0214123Y0226259D01*
X0219353Y0214276D02*
X0221131Y0214276D01*
X0220352Y0213278D02*
X0222129Y0213278D01*
X0221350Y0212279D02*
X0223128Y0212279D01*
X0222349Y0211281D02*
X0224126Y0211281D01*
X0223347Y0210282D02*
X0225125Y0210282D01*
X0224346Y0209284D02*
X0226123Y0209284D01*
X0225344Y0208285D02*
X0227122Y0208285D01*
X0227302Y0207287D02*
X0226202Y0207287D01*
X0226202Y0206288D02*
X0227302Y0206288D01*
X0227302Y0205290D02*
X0226202Y0205290D01*
X0226202Y0204291D02*
X0227302Y0204291D01*
X0227302Y0203293D02*
X0226202Y0203293D01*
X0226202Y0202294D02*
X0227302Y0202294D01*
X0227302Y0201296D02*
X0226202Y0201296D01*
X0226202Y0200297D02*
X0227302Y0200297D01*
X0227302Y0199299D02*
X0226202Y0199299D01*
X0226202Y0198300D02*
X0227302Y0198300D01*
X0227302Y0197302D02*
X0226202Y0197302D01*
X0226202Y0196303D02*
X0227302Y0196303D01*
X0227302Y0195305D02*
X0226202Y0195305D01*
X0226202Y0194306D02*
X0227302Y0194306D01*
X0227302Y0193308D02*
X0226202Y0193308D01*
X0226202Y0192309D02*
X0227101Y0192309D01*
X0226102Y0191311D02*
X0225325Y0191311D01*
X0225104Y0190312D02*
X0224326Y0190312D01*
X0224105Y0189314D02*
X0223328Y0189314D01*
X0223107Y0188315D02*
X0222329Y0188315D01*
X0222108Y0187317D02*
X0221331Y0187317D01*
X0221110Y0186318D02*
X0220332Y0186318D01*
X0220111Y0185320D02*
X0219334Y0185320D01*
X0219113Y0184321D02*
X0218335Y0184321D01*
X0218114Y0183323D02*
X0217337Y0183323D01*
X0217116Y0182324D02*
X0216338Y0182324D01*
X0216117Y0181326D02*
X0215340Y0181326D01*
X0215119Y0180327D02*
X0214341Y0180327D01*
X0214120Y0179328D02*
X0213343Y0179328D01*
X0213122Y0178330D02*
X0212344Y0178330D01*
X0212123Y0177331D02*
X0211346Y0177331D01*
X0211125Y0176333D02*
X0210347Y0176333D01*
X0210302Y0175334D02*
X0209702Y0175334D01*
X0209702Y0174336D02*
X0210302Y0174336D01*
X0210302Y0173337D02*
X0209702Y0173337D01*
X0209702Y0172339D02*
X0210302Y0172339D01*
X0210302Y0171340D02*
X0209702Y0171340D01*
X0209702Y0170342D02*
X0210302Y0170342D01*
X0210302Y0169343D02*
X0209702Y0169343D01*
X0209702Y0168345D02*
X0210302Y0168345D01*
X0210302Y0167346D02*
X0209702Y0167346D01*
X0209811Y0166348D02*
X0210302Y0166348D01*
X0210302Y0165349D02*
X0209811Y0165349D01*
X0209811Y0164351D02*
X0210302Y0164351D01*
X0210302Y0163352D02*
X0209811Y0163352D01*
X0209811Y0162354D02*
X0210302Y0162354D01*
X0210302Y0161355D02*
X0209811Y0161355D01*
X0209810Y0160357D02*
X0210302Y0160357D01*
X0210302Y0159358D02*
X0208812Y0159358D01*
X0210302Y0158360D02*
X0205469Y0158360D01*
X0206071Y0157361D02*
X0210546Y0157361D01*
X0211544Y0156363D02*
X0206071Y0156363D01*
X0203873Y0159358D02*
X0201191Y0159358D01*
X0199735Y0158360D02*
X0194202Y0158360D01*
X0194202Y0159358D02*
X0196533Y0159358D01*
X0196677Y0159275D02*
X0197209Y0159133D01*
X0198378Y0159133D01*
X0198378Y0162904D01*
X0199346Y0162904D01*
X0199346Y0163873D01*
X0198378Y0163873D01*
X0198378Y0162904D01*
X0195393Y0162904D01*
X0195393Y0160948D01*
X0195536Y0160416D01*
X0195811Y0159939D01*
X0196200Y0159550D01*
X0196677Y0159275D01*
X0195570Y0160357D02*
X0194202Y0160357D01*
X0194202Y0161355D02*
X0195393Y0161355D01*
X0195393Y0162354D02*
X0194202Y0162354D01*
X0194202Y0163352D02*
X0198378Y0163352D01*
X0199346Y0163352D02*
X0202874Y0163352D01*
X0202330Y0163873D02*
X0202330Y0165829D01*
X0202188Y0166361D01*
X0201913Y0166837D01*
X0201523Y0167227D01*
X0201047Y0167502D01*
X0200515Y0167644D01*
X0199346Y0167644D01*
X0199346Y0163873D01*
X0202330Y0163873D01*
X0202330Y0164351D02*
X0202874Y0164351D01*
X0202874Y0165349D02*
X0202330Y0165349D01*
X0202191Y0166348D02*
X0202874Y0166348D01*
X0203800Y0167346D02*
X0201316Y0167346D01*
X0199346Y0167346D02*
X0198378Y0167346D01*
X0198378Y0166348D02*
X0199346Y0166348D01*
X0199346Y0165349D02*
X0198378Y0165349D01*
X0198378Y0164351D02*
X0199346Y0164351D01*
X0199346Y0162354D02*
X0198378Y0162354D01*
X0198378Y0161355D02*
X0199346Y0161355D01*
X0199346Y0160357D02*
X0198378Y0160357D01*
X0198378Y0159358D02*
X0199346Y0159358D01*
X0199134Y0157361D02*
X0193875Y0157361D01*
X0192877Y0156363D02*
X0199134Y0156363D01*
X0202330Y0161355D02*
X0202874Y0161355D01*
X0202874Y0162354D02*
X0202330Y0162354D01*
X0205502Y0168345D02*
X0198859Y0168345D01*
X0199858Y0169343D02*
X0205502Y0169343D01*
X0205502Y0170342D02*
X0200856Y0170342D01*
X0201855Y0171340D02*
X0205502Y0171340D01*
X0205502Y0172339D02*
X0202853Y0172339D01*
X0203852Y0173337D02*
X0205502Y0173337D01*
X0205502Y0174336D02*
X0204850Y0174336D01*
X0201906Y0177331D02*
X0199655Y0177331D01*
X0199416Y0177057D02*
X0202678Y0180821D01*
X0204748Y0185352D01*
X0205456Y0190282D01*
X0205456Y0190282D01*
X0204748Y0195212D01*
X0204748Y0195212D01*
X0202678Y0199743D01*
X0199416Y0203508D01*
X0195226Y0206201D01*
X0190447Y0207604D01*
X0185466Y0207604D01*
X0180687Y0206201D01*
X0180687Y0206201D01*
X0176496Y0203508D01*
X0176496Y0203508D01*
X0176496Y0203508D01*
X0173234Y0199743D01*
X0171165Y0195212D01*
X0170456Y0190282D01*
X0171165Y0185352D01*
X0173234Y0180821D01*
X0176496Y0177057D01*
X0176496Y0177057D01*
X0180687Y0174364D01*
X0185466Y0172960D01*
X0190447Y0172960D01*
X0195226Y0174364D01*
X0199416Y0177057D01*
X0199416Y0177057D01*
X0198291Y0176333D02*
X0200907Y0176333D01*
X0199909Y0175334D02*
X0196737Y0175334D01*
X0195226Y0174364D02*
X0195226Y0174364D01*
X0195132Y0174336D02*
X0198910Y0174336D01*
X0197912Y0173337D02*
X0191731Y0173337D01*
X0194916Y0170342D02*
X0177202Y0170342D01*
X0177202Y0171340D02*
X0195915Y0171340D01*
X0196913Y0172339D02*
X0176791Y0172339D01*
X0177202Y0171928D02*
X0177202Y0169266D01*
X0179803Y0169266D01*
X0181027Y0168042D01*
X0181027Y0163554D01*
X0179803Y0162329D01*
X0173740Y0162329D01*
X0172515Y0163554D01*
X0172515Y0168042D01*
X0173002Y0168528D01*
X0173002Y0170188D01*
X0169732Y0173458D01*
X0168502Y0174688D01*
X0168502Y0178188D01*
X0165346Y0181344D01*
X0164116Y0182574D01*
X0164116Y0199180D01*
X0161802Y0199180D01*
X0160681Y0200301D01*
X0160681Y0203815D01*
X0161424Y0204558D01*
X0160681Y0205301D01*
X0160681Y0208815D01*
X0161424Y0209558D01*
X0160681Y0210301D01*
X0160681Y0213815D01*
X0161424Y0214558D01*
X0160681Y0215301D01*
X0160681Y0218815D01*
X0161424Y0219558D01*
X0160681Y0220301D01*
X0160681Y0223815D01*
X0161424Y0224558D01*
X0161024Y0224958D01*
X0159972Y0224958D01*
X0159702Y0224688D01*
X0159702Y0182428D01*
X0161452Y0180678D01*
X0162127Y0180958D01*
X0164077Y0180958D01*
X0165878Y0180212D01*
X0167256Y0178833D01*
X0168002Y0177032D01*
X0168002Y0175083D01*
X0167805Y0174607D01*
X0171902Y0170510D01*
X0171902Y0158365D01*
X0170555Y0157018D01*
X0167401Y0153864D01*
X0167401Y0149933D01*
X0166073Y0148605D01*
X0160612Y0148605D01*
X0159602Y0149614D01*
X0158593Y0148605D01*
X0153131Y0148605D01*
X0151803Y0149933D01*
X0151803Y0149958D01*
X0149901Y0149958D01*
X0149901Y0149933D01*
X0148942Y0148974D01*
X0148942Y0146681D01*
X0148470Y0145542D01*
X0147598Y0144670D01*
X0147598Y0144670D01*
X0146730Y0143802D01*
X0146730Y0143802D01*
X0145858Y0142930D01*
X0144719Y0142458D01*
X0127090Y0142458D01*
X0127090Y0137766D01*
X0127180Y0137729D01*
X0127868Y0137041D01*
X0128240Y0136142D01*
X0128240Y0129973D01*
X0127868Y0129074D01*
X0127180Y0128387D01*
X0126281Y0128014D01*
X0120899Y0128014D01*
X0120001Y0128387D01*
X0119930Y0128458D01*
X0119386Y0128458D01*
X0114854Y0123926D01*
X0114854Y0123715D01*
X0114139Y0123001D01*
X0114421Y0122719D01*
X0114696Y0122243D01*
X0114838Y0121711D01*
X0114838Y0120542D01*
X0109886Y0120542D01*
X0109886Y0119573D01*
X0114838Y0119573D01*
X0114838Y0118405D01*
X0114696Y0117873D01*
X0114421Y0117396D01*
X0114139Y0117115D01*
X0114854Y0116400D01*
X0114854Y0114653D01*
X0115461Y0114046D01*
X0118394Y0114046D01*
X0118431Y0114136D01*
X0119119Y0114823D01*
X0120017Y0115196D01*
X0126187Y0115196D01*
X0127085Y0114823D01*
X0127773Y0114136D01*
X0128145Y0113237D01*
X0128145Y0111964D01*
X0128292Y0111818D01*
X0130919Y0111818D01*
X0131159Y0112058D01*
X0130149Y0113067D01*
X0130149Y0118529D01*
X0131478Y0119857D01*
X0136431Y0119857D01*
X0139232Y0122658D01*
X0145732Y0122658D01*
X0151502Y0128428D01*
X0151502Y0134928D01*
X0152732Y0136158D01*
X0152732Y0136158D01*
X0160732Y0144158D01*
X0161002Y0144158D01*
X0161002Y0144251D01*
X0162109Y0145358D01*
X0170895Y0145358D01*
X0171595Y0144658D01*
X0171732Y0144658D01*
X0172002Y0144928D01*
X0172002Y0148928D01*
X0177924Y0154849D01*
X0177256Y0154849D01*
X0177256Y0157833D01*
X0177256Y0158802D01*
X0181027Y0158802D01*
X0181027Y0159971D01*
X0180885Y0160502D01*
X0180610Y0160979D01*
X0180220Y0161368D01*
X0179744Y0161644D01*
X0179212Y0161786D01*
X0177256Y0161786D01*
X0177256Y0158802D01*
X0176287Y0158802D01*
X0176287Y0161786D01*
X0174331Y0161786D01*
X0173799Y0161644D01*
X0173322Y0161368D01*
X0172933Y0160979D01*
X0172658Y0160502D01*
X0172515Y0159971D01*
X0172515Y0158802D01*
X0176287Y0158802D01*
X0176287Y0157833D01*
X0177256Y0157833D01*
X0180908Y0157833D01*
X0182002Y0158928D01*
X0182002Y0158989D01*
X0181177Y0159814D01*
X0181177Y0164302D01*
X0182401Y0165526D01*
X0188464Y0165526D01*
X0189689Y0164302D01*
X0189689Y0159814D01*
X0188533Y0158658D01*
X0189232Y0158658D01*
X0190002Y0159428D01*
X0190002Y0165428D01*
X0191232Y0166658D01*
X0213502Y0188928D01*
X0213502Y0190471D01*
X0213358Y0190471D01*
X0212134Y0191696D01*
X0212134Y0197758D01*
X0213358Y0198983D01*
X0217846Y0198983D01*
X0219071Y0197758D01*
X0219071Y0191696D01*
X0217846Y0190471D01*
X0217702Y0190471D01*
X0217702Y0189628D01*
X0222002Y0193928D01*
X0222002Y0199549D01*
X0221586Y0199133D01*
X0217098Y0199133D01*
X0215874Y0200357D01*
X0215874Y0206420D01*
X0216822Y0207368D01*
X0216232Y0207958D01*
X0174972Y0207958D01*
X0172472Y0205458D01*
X0171752Y0205458D01*
X0171752Y0205301D01*
X0171009Y0204558D01*
X0171752Y0203815D01*
X0171752Y0200301D01*
X0170631Y0199180D01*
X0168316Y0199180D01*
X0168316Y0184313D01*
X0172702Y0179928D01*
X0172702Y0176428D01*
X0177202Y0171928D01*
X0175792Y0173337D02*
X0184181Y0173337D01*
X0180781Y0174336D02*
X0174794Y0174336D01*
X0173795Y0175334D02*
X0179176Y0175334D01*
X0180687Y0174364D02*
X0180687Y0174364D01*
X0177622Y0176333D02*
X0172797Y0176333D01*
X0172702Y0177331D02*
X0176258Y0177331D01*
X0175393Y0178330D02*
X0172702Y0178330D01*
X0172702Y0179328D02*
X0174528Y0179328D01*
X0173662Y0180327D02*
X0172303Y0180327D01*
X0173234Y0180821D02*
X0173234Y0180821D01*
X0173004Y0181326D02*
X0171304Y0181326D01*
X0170306Y0182324D02*
X0172548Y0182324D01*
X0172092Y0183323D02*
X0169307Y0183323D01*
X0168316Y0184321D02*
X0171636Y0184321D01*
X0171180Y0185320D02*
X0168316Y0185320D01*
X0168316Y0186318D02*
X0171026Y0186318D01*
X0171165Y0185352D02*
X0171165Y0185352D01*
X0170883Y0187317D02*
X0168316Y0187317D01*
X0168316Y0188315D02*
X0170739Y0188315D01*
X0170596Y0189314D02*
X0168316Y0189314D01*
X0168316Y0190312D02*
X0170461Y0190312D01*
X0170456Y0190282D02*
X0170456Y0190282D01*
X0170604Y0191311D02*
X0168316Y0191311D01*
X0168316Y0192309D02*
X0170748Y0192309D01*
X0170891Y0193308D02*
X0168316Y0193308D01*
X0168316Y0194306D02*
X0171035Y0194306D01*
X0171165Y0195212D02*
X0171165Y0195212D01*
X0171207Y0195305D02*
X0168316Y0195305D01*
X0168316Y0196303D02*
X0171663Y0196303D01*
X0172119Y0197302D02*
X0168316Y0197302D01*
X0168316Y0198300D02*
X0172575Y0198300D01*
X0173031Y0199299D02*
X0170750Y0199299D01*
X0171748Y0200297D02*
X0173714Y0200297D01*
X0173234Y0199743D02*
X0173234Y0199743D01*
X0174580Y0201296D02*
X0171752Y0201296D01*
X0171752Y0202294D02*
X0175445Y0202294D01*
X0176310Y0203293D02*
X0171752Y0203293D01*
X0171275Y0204291D02*
X0177716Y0204291D01*
X0179269Y0205290D02*
X0171741Y0205290D01*
X0173302Y0206288D02*
X0180985Y0206288D01*
X0184386Y0207287D02*
X0174301Y0207287D01*
X0164116Y0198300D02*
X0159702Y0198300D01*
X0159702Y0197302D02*
X0164116Y0197302D01*
X0164116Y0196303D02*
X0159702Y0196303D01*
X0159702Y0195305D02*
X0164116Y0195305D01*
X0164116Y0194306D02*
X0159702Y0194306D01*
X0159702Y0193308D02*
X0164116Y0193308D01*
X0164116Y0192309D02*
X0159702Y0192309D01*
X0159702Y0191311D02*
X0164116Y0191311D01*
X0164116Y0190312D02*
X0159702Y0190312D01*
X0159702Y0189314D02*
X0164116Y0189314D01*
X0164116Y0188315D02*
X0159702Y0188315D01*
X0159702Y0187317D02*
X0164116Y0187317D01*
X0164116Y0186318D02*
X0159702Y0186318D01*
X0159702Y0185320D02*
X0164116Y0185320D01*
X0164116Y0184321D02*
X0159702Y0184321D01*
X0159702Y0183323D02*
X0164116Y0183323D01*
X0164366Y0182324D02*
X0159806Y0182324D01*
X0160804Y0181326D02*
X0165364Y0181326D01*
X0165599Y0180327D02*
X0166363Y0180327D01*
X0166761Y0179328D02*
X0167361Y0179328D01*
X0167465Y0178330D02*
X0168360Y0178330D01*
X0168502Y0177331D02*
X0167878Y0177331D01*
X0168002Y0176333D02*
X0168502Y0176333D01*
X0168502Y0175334D02*
X0168002Y0175334D01*
X0168077Y0174336D02*
X0168854Y0174336D01*
X0169075Y0173337D02*
X0169853Y0173337D01*
X0170074Y0172339D02*
X0170851Y0172339D01*
X0171072Y0171340D02*
X0171850Y0171340D01*
X0171902Y0170342D02*
X0172848Y0170342D01*
X0173002Y0169343D02*
X0171902Y0169343D01*
X0171902Y0168345D02*
X0172819Y0168345D01*
X0172515Y0167346D02*
X0171902Y0167346D01*
X0171902Y0166348D02*
X0172515Y0166348D01*
X0172515Y0165349D02*
X0171902Y0165349D01*
X0171902Y0164351D02*
X0172515Y0164351D01*
X0172717Y0163352D02*
X0171902Y0163352D01*
X0171902Y0162354D02*
X0173716Y0162354D01*
X0173309Y0161355D02*
X0171902Y0161355D01*
X0171902Y0160357D02*
X0172619Y0160357D01*
X0172515Y0159358D02*
X0171902Y0159358D01*
X0171897Y0158360D02*
X0176287Y0158360D01*
X0176287Y0157833D02*
X0172515Y0157833D01*
X0172515Y0156664D01*
X0172658Y0156133D01*
X0172933Y0155656D01*
X0173322Y0155267D01*
X0173799Y0154992D01*
X0174331Y0154849D01*
X0176287Y0154849D01*
X0176287Y0157833D01*
X0176287Y0157361D02*
X0177256Y0157361D01*
X0177256Y0156363D02*
X0176287Y0156363D01*
X0176287Y0155364D02*
X0177256Y0155364D01*
X0177440Y0154366D02*
X0167903Y0154366D01*
X0167401Y0153367D02*
X0176442Y0153367D01*
X0175443Y0152369D02*
X0167401Y0152369D01*
X0167401Y0151370D02*
X0174445Y0151370D01*
X0173446Y0150372D02*
X0167401Y0150372D01*
X0166841Y0149373D02*
X0172448Y0149373D01*
X0172002Y0148375D02*
X0148942Y0148375D01*
X0148942Y0147376D02*
X0172002Y0147376D01*
X0172002Y0146378D02*
X0148816Y0146378D01*
X0148307Y0145379D02*
X0172002Y0145379D01*
X0173225Y0155364D02*
X0168901Y0155364D01*
X0169900Y0156363D02*
X0172596Y0156363D01*
X0172515Y0157361D02*
X0170898Y0157361D01*
X0176287Y0159358D02*
X0177256Y0159358D01*
X0177256Y0158360D02*
X0181434Y0158360D01*
X0181632Y0159358D02*
X0181027Y0159358D01*
X0180924Y0160357D02*
X0181177Y0160357D01*
X0181177Y0161355D02*
X0180233Y0161355D01*
X0179827Y0162354D02*
X0181177Y0162354D01*
X0181177Y0163352D02*
X0180826Y0163352D01*
X0181027Y0164351D02*
X0181226Y0164351D01*
X0181027Y0165349D02*
X0182225Y0165349D01*
X0181027Y0166348D02*
X0190922Y0166348D01*
X0190002Y0165349D02*
X0188641Y0165349D01*
X0189639Y0164351D02*
X0190002Y0164351D01*
X0190002Y0163352D02*
X0189689Y0163352D01*
X0189689Y0162354D02*
X0190002Y0162354D01*
X0190002Y0161355D02*
X0189689Y0161355D01*
X0189689Y0160357D02*
X0190002Y0160357D01*
X0189933Y0159358D02*
X0189233Y0159358D01*
X0191921Y0167346D02*
X0181027Y0167346D01*
X0180724Y0168345D02*
X0192919Y0168345D01*
X0193918Y0169343D02*
X0177202Y0169343D01*
X0177256Y0161355D02*
X0176287Y0161355D01*
X0176287Y0160357D02*
X0177256Y0160357D01*
X0165566Y0170341D02*
X0164077Y0170958D01*
X0162127Y0170958D01*
X0160326Y0170212D01*
X0158948Y0168833D01*
X0158202Y0167032D01*
X0158202Y0165542D01*
X0158002Y0165342D01*
X0158002Y0167032D01*
X0157256Y0168833D01*
X0155878Y0170212D01*
X0154077Y0170958D01*
X0152127Y0170958D01*
X0150326Y0170212D01*
X0148948Y0168833D01*
X0148202Y0167032D01*
X0148202Y0165083D01*
X0148482Y0164407D01*
X0145232Y0161158D01*
X0138472Y0161158D01*
X0137202Y0162428D01*
X0137202Y0209188D01*
X0137472Y0209458D01*
X0138095Y0209458D01*
X0137452Y0208815D01*
X0137452Y0205301D01*
X0138195Y0204558D01*
X0137452Y0203815D01*
X0137452Y0200301D01*
X0138573Y0199180D01*
X0147402Y0199180D01*
X0148002Y0199779D01*
X0148002Y0198428D01*
X0147732Y0198158D01*
X0144232Y0198158D01*
X0143002Y0196928D01*
X0141002Y0194928D01*
X0141002Y0194010D01*
X0139131Y0194010D01*
X0137803Y0192682D01*
X0137803Y0186433D01*
X0139131Y0185105D01*
X0140802Y0185105D01*
X0140802Y0180409D01*
X0140326Y0180212D01*
X0138948Y0178833D01*
X0138202Y0177032D01*
X0138202Y0175083D01*
X0138948Y0173282D01*
X0140326Y0171904D01*
X0142127Y0171158D01*
X0144077Y0171158D01*
X0145878Y0171904D01*
X0147256Y0173282D01*
X0148002Y0175083D01*
X0148002Y0177032D01*
X0147256Y0178833D01*
X0145878Y0180212D01*
X0145402Y0180409D01*
X0145402Y0185914D01*
X0145602Y0186114D01*
X0146612Y0185105D01*
X0152073Y0185105D01*
X0153002Y0186034D01*
X0153002Y0185428D01*
X0151002Y0183428D01*
X0151002Y0180492D01*
X0150326Y0180212D01*
X0148948Y0178833D01*
X0148202Y0177032D01*
X0148202Y0175083D01*
X0148948Y0173282D01*
X0150326Y0171904D01*
X0152127Y0171158D01*
X0154077Y0171158D01*
X0155878Y0171904D01*
X0157256Y0173282D01*
X0158002Y0175083D01*
X0158002Y0177032D01*
X0157256Y0178833D01*
X0155878Y0180212D01*
X0155202Y0180492D01*
X0155202Y0181688D01*
X0155502Y0181988D01*
X0155502Y0180688D01*
X0158482Y0177708D01*
X0158202Y0177032D01*
X0158202Y0175083D01*
X0158948Y0173282D01*
X0160326Y0171904D01*
X0162127Y0171158D01*
X0164077Y0171158D01*
X0164552Y0171355D01*
X0165566Y0170341D01*
X0165565Y0170342D02*
X0165564Y0170342D01*
X0164567Y0171340D02*
X0164518Y0171340D01*
X0161686Y0171340D02*
X0154518Y0171340D01*
X0155564Y0170342D02*
X0160641Y0170342D01*
X0159458Y0169343D02*
X0156746Y0169343D01*
X0157458Y0168345D02*
X0158746Y0168345D01*
X0158332Y0167346D02*
X0157872Y0167346D01*
X0158002Y0166348D02*
X0158202Y0166348D01*
X0158010Y0165349D02*
X0158002Y0165349D01*
X0156313Y0172339D02*
X0159891Y0172339D01*
X0158925Y0173337D02*
X0157279Y0173337D01*
X0157693Y0174336D02*
X0158512Y0174336D01*
X0158202Y0175334D02*
X0158002Y0175334D01*
X0158002Y0176333D02*
X0158202Y0176333D01*
X0158326Y0177331D02*
X0157878Y0177331D01*
X0157860Y0178330D02*
X0157465Y0178330D01*
X0156861Y0179328D02*
X0156761Y0179328D01*
X0155863Y0180327D02*
X0155599Y0180327D01*
X0155502Y0181326D02*
X0155202Y0181326D01*
X0151002Y0181326D02*
X0145402Y0181326D01*
X0145402Y0182324D02*
X0151002Y0182324D01*
X0151002Y0183323D02*
X0145402Y0183323D01*
X0145402Y0184321D02*
X0151896Y0184321D01*
X0152287Y0185320D02*
X0152894Y0185320D01*
X0150605Y0180327D02*
X0145599Y0180327D01*
X0146761Y0179328D02*
X0149443Y0179328D01*
X0148740Y0178330D02*
X0147465Y0178330D01*
X0147878Y0177331D02*
X0148326Y0177331D01*
X0148202Y0176333D02*
X0148002Y0176333D01*
X0148002Y0175334D02*
X0148202Y0175334D01*
X0148512Y0174336D02*
X0147693Y0174336D01*
X0147279Y0173337D02*
X0148925Y0173337D01*
X0149891Y0172339D02*
X0146313Y0172339D01*
X0144518Y0171340D02*
X0151686Y0171340D01*
X0150641Y0170342D02*
X0145487Y0170342D01*
X0145670Y0170249D02*
X0144983Y0170599D01*
X0144249Y0170837D01*
X0143602Y0170940D01*
X0143602Y0166558D01*
X0142602Y0166558D01*
X0142602Y0170940D01*
X0141955Y0170837D01*
X0141221Y0170599D01*
X0140534Y0170249D01*
X0139910Y0169795D01*
X0139365Y0169250D01*
X0138911Y0168626D01*
X0138561Y0167939D01*
X0138323Y0167205D01*
X0138220Y0166558D01*
X0142602Y0166558D01*
X0142602Y0165558D01*
X0138220Y0165558D01*
X0138323Y0164910D01*
X0138561Y0164177D01*
X0138911Y0163490D01*
X0139365Y0162866D01*
X0139910Y0162320D01*
X0140534Y0161867D01*
X0141221Y0161517D01*
X0141955Y0161278D01*
X0142602Y0161176D01*
X0142602Y0165558D01*
X0143602Y0165558D01*
X0143602Y0166558D01*
X0147984Y0166558D01*
X0147881Y0167205D01*
X0147643Y0167939D01*
X0147293Y0168626D01*
X0146840Y0169250D01*
X0146294Y0169795D01*
X0145670Y0170249D01*
X0146746Y0169343D02*
X0149458Y0169343D01*
X0148746Y0168345D02*
X0147436Y0168345D01*
X0147836Y0167346D02*
X0148332Y0167346D01*
X0148202Y0166348D02*
X0143602Y0166348D01*
X0143602Y0165558D02*
X0147984Y0165558D01*
X0147881Y0164910D01*
X0147643Y0164177D01*
X0147293Y0163490D01*
X0146840Y0162866D01*
X0146294Y0162320D01*
X0145670Y0161867D01*
X0144983Y0161517D01*
X0144249Y0161278D01*
X0143602Y0161176D01*
X0143602Y0165558D01*
X0143602Y0165349D02*
X0142602Y0165349D01*
X0142602Y0164351D02*
X0143602Y0164351D01*
X0143602Y0163352D02*
X0142602Y0163352D01*
X0142602Y0162354D02*
X0143602Y0162354D01*
X0143602Y0161355D02*
X0142602Y0161355D01*
X0141718Y0161355D02*
X0138274Y0161355D01*
X0137276Y0162354D02*
X0139876Y0162354D01*
X0139011Y0163352D02*
X0137202Y0163352D01*
X0137202Y0164351D02*
X0138505Y0164351D01*
X0138253Y0165349D02*
X0137202Y0165349D01*
X0137202Y0166348D02*
X0142602Y0166348D01*
X0142602Y0167346D02*
X0143602Y0167346D01*
X0143602Y0168345D02*
X0142602Y0168345D01*
X0142602Y0169343D02*
X0143602Y0169343D01*
X0143602Y0170342D02*
X0142602Y0170342D01*
X0141686Y0171340D02*
X0137202Y0171340D01*
X0137202Y0170342D02*
X0140717Y0170342D01*
X0139458Y0169343D02*
X0137202Y0169343D01*
X0137202Y0168345D02*
X0138768Y0168345D01*
X0138369Y0167346D02*
X0137202Y0167346D01*
X0137202Y0172339D02*
X0139891Y0172339D01*
X0138925Y0173337D02*
X0137202Y0173337D01*
X0137202Y0174336D02*
X0138512Y0174336D01*
X0138202Y0175334D02*
X0137202Y0175334D01*
X0137202Y0176333D02*
X0138202Y0176333D01*
X0138326Y0177331D02*
X0137202Y0177331D01*
X0137202Y0178330D02*
X0138740Y0178330D01*
X0139443Y0179328D02*
X0137202Y0179328D01*
X0137202Y0180327D02*
X0140605Y0180327D01*
X0140802Y0181326D02*
X0137202Y0181326D01*
X0137202Y0182324D02*
X0140802Y0182324D01*
X0140802Y0183323D02*
X0137202Y0183323D01*
X0137202Y0184321D02*
X0140802Y0184321D01*
X0138917Y0185320D02*
X0137202Y0185320D01*
X0137202Y0186318D02*
X0137918Y0186318D01*
X0137803Y0187317D02*
X0137202Y0187317D01*
X0137202Y0188315D02*
X0137803Y0188315D01*
X0137803Y0189314D02*
X0137202Y0189314D01*
X0137202Y0190312D02*
X0137803Y0190312D01*
X0137803Y0191311D02*
X0137202Y0191311D01*
X0137202Y0192309D02*
X0137803Y0192309D01*
X0137202Y0193308D02*
X0138428Y0193308D01*
X0137202Y0194306D02*
X0141002Y0194306D01*
X0141379Y0195305D02*
X0137202Y0195305D01*
X0137202Y0196303D02*
X0142378Y0196303D01*
X0143376Y0197302D02*
X0137202Y0197302D01*
X0137202Y0198300D02*
X0147875Y0198300D01*
X0148002Y0199299D02*
X0147521Y0199299D01*
X0138454Y0199299D02*
X0137202Y0199299D01*
X0137202Y0200297D02*
X0137456Y0200297D01*
X0137452Y0201296D02*
X0137202Y0201296D01*
X0137202Y0202294D02*
X0137452Y0202294D01*
X0137452Y0203293D02*
X0137202Y0203293D01*
X0137202Y0204291D02*
X0137929Y0204291D01*
X0137463Y0205290D02*
X0137202Y0205290D01*
X0137202Y0206288D02*
X0137452Y0206288D01*
X0137452Y0207287D02*
X0137202Y0207287D01*
X0137202Y0208285D02*
X0137452Y0208285D01*
X0137298Y0209284D02*
X0137921Y0209284D01*
X0137995Y0219758D02*
X0136345Y0219758D01*
X0136009Y0220094D01*
X0136180Y0220192D01*
X0136602Y0220614D01*
X0136900Y0221131D01*
X0137055Y0221708D01*
X0137055Y0223298D01*
X0133102Y0223298D01*
X0133102Y0224298D01*
X0132102Y0224298D01*
X0132102Y0227857D01*
X0130118Y0227857D01*
X0129542Y0227702D01*
X0129202Y0227506D01*
X0129202Y0235188D01*
X0132972Y0238958D01*
X0137595Y0238958D01*
X0137452Y0238815D01*
X0137452Y0235301D01*
X0138195Y0234558D01*
X0137452Y0233815D01*
X0137452Y0230301D01*
X0138195Y0229558D01*
X0137452Y0228815D01*
X0137452Y0225301D01*
X0138197Y0224557D01*
X0138191Y0224553D01*
X0137835Y0224197D01*
X0137583Y0223761D01*
X0137452Y0223274D01*
X0137452Y0222247D01*
X0142799Y0222247D01*
X0142799Y0221869D01*
X0137452Y0221869D01*
X0137452Y0220841D01*
X0137583Y0220355D01*
X0137835Y0219918D01*
X0137995Y0219758D01*
X0137633Y0220267D02*
X0136255Y0220267D01*
X0136936Y0221266D02*
X0137452Y0221266D01*
X0137452Y0222264D02*
X0137055Y0222264D01*
X0137055Y0223263D02*
X0137452Y0223263D01*
X0137899Y0224261D02*
X0133102Y0224261D01*
X0133102Y0224298D02*
X0137055Y0224298D01*
X0137055Y0225888D01*
X0136900Y0226465D01*
X0136602Y0226982D01*
X0136180Y0227404D01*
X0135662Y0227702D01*
X0135086Y0227857D01*
X0133102Y0227857D01*
X0133102Y0224298D01*
X0133102Y0225260D02*
X0132102Y0225260D01*
X0132102Y0226259D02*
X0133102Y0226259D01*
X0133102Y0227257D02*
X0132102Y0227257D01*
X0129202Y0228256D02*
X0137452Y0228256D01*
X0137452Y0227257D02*
X0136326Y0227257D01*
X0136955Y0226259D02*
X0137452Y0226259D01*
X0137493Y0225260D02*
X0137055Y0225260D01*
X0137892Y0229254D02*
X0129202Y0229254D01*
X0129202Y0230253D02*
X0137501Y0230253D01*
X0137452Y0231251D02*
X0129202Y0231251D01*
X0129202Y0232250D02*
X0137452Y0232250D01*
X0137452Y0233248D02*
X0129202Y0233248D01*
X0129202Y0234247D02*
X0137884Y0234247D01*
X0137508Y0235245D02*
X0129259Y0235245D01*
X0130258Y0236244D02*
X0137452Y0236244D01*
X0137452Y0237242D02*
X0131256Y0237242D01*
X0132255Y0238241D02*
X0137452Y0238241D01*
X0129805Y0245230D02*
X0120102Y0245230D01*
X0120102Y0244232D02*
X0128806Y0244232D01*
X0127808Y0243233D02*
X0120102Y0243233D01*
X0120102Y0242235D02*
X0126809Y0242235D01*
X0125811Y0241236D02*
X0120102Y0241236D01*
X0120102Y0240238D02*
X0124812Y0240238D01*
X0123814Y0239239D02*
X0120102Y0239239D01*
X0120102Y0238241D02*
X0122815Y0238241D01*
X0122502Y0237242D02*
X0120102Y0237242D01*
X0120102Y0236244D02*
X0122502Y0236244D01*
X0122502Y0235245D02*
X0120102Y0235245D01*
X0120102Y0234247D02*
X0122502Y0234247D01*
X0122502Y0233248D02*
X0120102Y0233248D01*
X0120102Y0232250D02*
X0122502Y0232250D01*
X0122502Y0231251D02*
X0120102Y0231251D01*
X0120102Y0230253D02*
X0122502Y0230253D01*
X0122502Y0229254D02*
X0120102Y0229254D01*
X0120102Y0228256D02*
X0122502Y0228256D01*
X0122502Y0227257D02*
X0120102Y0227257D01*
X0120102Y0226259D02*
X0122502Y0226259D01*
X0122502Y0225260D02*
X0120102Y0225260D01*
X0120102Y0224261D02*
X0122502Y0224261D01*
X0122502Y0223263D02*
X0120102Y0223263D01*
X0120102Y0222264D02*
X0122502Y0222264D01*
X0122502Y0221266D02*
X0120102Y0221266D01*
X0120102Y0220267D02*
X0122502Y0220267D01*
X0122502Y0219269D02*
X0120102Y0219269D01*
X0120102Y0218270D02*
X0122502Y0218270D01*
X0122502Y0217272D02*
X0120102Y0217272D01*
X0120102Y0216273D02*
X0122502Y0216273D01*
X0122502Y0215275D02*
X0120102Y0215275D01*
X0120102Y0214276D02*
X0122502Y0214276D01*
X0122502Y0213278D02*
X0120102Y0213278D01*
X0120102Y0212279D02*
X0122502Y0212279D01*
X0122502Y0211281D02*
X0120102Y0211281D01*
X0120102Y0210282D02*
X0122502Y0210282D01*
X0122502Y0209284D02*
X0120102Y0209284D01*
X0120102Y0208285D02*
X0122502Y0208285D01*
X0122502Y0207287D02*
X0120102Y0207287D01*
X0120102Y0206288D02*
X0122502Y0206288D01*
X0122502Y0205290D02*
X0120102Y0205290D01*
X0120102Y0204291D02*
X0122502Y0204291D01*
X0122502Y0203293D02*
X0120102Y0203293D01*
X0120102Y0202294D02*
X0122502Y0202294D01*
X0122502Y0201296D02*
X0120102Y0201296D01*
X0120102Y0200297D02*
X0122502Y0200297D01*
X0122502Y0199299D02*
X0120102Y0199299D01*
X0120102Y0198300D02*
X0122502Y0198300D01*
X0122502Y0197302D02*
X0120102Y0197302D01*
X0120102Y0196303D02*
X0122502Y0196303D01*
X0122502Y0195305D02*
X0120102Y0195305D01*
X0120102Y0194306D02*
X0122502Y0194306D01*
X0122502Y0193308D02*
X0120102Y0193308D01*
X0120102Y0192309D02*
X0122502Y0192309D01*
X0122502Y0191311D02*
X0120102Y0191311D01*
X0120102Y0190312D02*
X0122502Y0190312D01*
X0122502Y0189314D02*
X0120102Y0189314D01*
X0120102Y0188315D02*
X0122502Y0188315D01*
X0122502Y0187317D02*
X0120102Y0187317D01*
X0120102Y0186318D02*
X0122502Y0186318D01*
X0122502Y0185320D02*
X0120102Y0185320D01*
X0120102Y0184321D02*
X0122502Y0184321D01*
X0122502Y0183323D02*
X0120102Y0183323D01*
X0120102Y0182324D02*
X0122502Y0182324D01*
X0122502Y0181326D02*
X0120102Y0181326D01*
X0120102Y0180327D02*
X0122502Y0180327D01*
X0122502Y0179328D02*
X0120102Y0179328D01*
X0120102Y0178330D02*
X0122502Y0178330D01*
X0122502Y0177331D02*
X0120102Y0177331D01*
X0120102Y0176333D02*
X0122502Y0176333D01*
X0122502Y0175334D02*
X0120102Y0175334D01*
X0120102Y0174336D02*
X0122502Y0174336D01*
X0122502Y0173337D02*
X0120102Y0173337D01*
X0120102Y0172339D02*
X0122502Y0172339D01*
X0122502Y0171340D02*
X0120102Y0171340D01*
X0120102Y0170342D02*
X0122502Y0170342D01*
X0122502Y0169343D02*
X0120102Y0169343D01*
X0120102Y0168345D02*
X0122502Y0168345D01*
X0122502Y0167346D02*
X0120102Y0167346D01*
X0120102Y0166348D02*
X0122502Y0166348D01*
X0122502Y0165349D02*
X0120102Y0165349D01*
X0120102Y0164351D02*
X0122502Y0164351D01*
X0122502Y0163352D02*
X0119897Y0163352D01*
X0118898Y0162354D02*
X0122428Y0162354D01*
X0121430Y0161355D02*
X0117900Y0161355D01*
X0116901Y0160357D02*
X0120431Y0160357D01*
X0119433Y0159358D02*
X0115903Y0159358D01*
X0114904Y0158360D02*
X0118434Y0158360D01*
X0117436Y0157361D02*
X0113906Y0157361D01*
X0112907Y0156363D02*
X0116437Y0156363D01*
X0115439Y0155364D02*
X0111909Y0155364D01*
X0110910Y0154366D02*
X0114440Y0154366D01*
X0113442Y0153367D02*
X0109912Y0153367D01*
X0108913Y0152369D02*
X0112443Y0152369D01*
X0111445Y0151370D02*
X0107914Y0151370D01*
X0106916Y0150372D02*
X0110446Y0150372D01*
X0109448Y0149373D02*
X0105917Y0149373D01*
X0104919Y0148375D02*
X0108449Y0148375D01*
X0107451Y0147376D02*
X0103920Y0147376D01*
X0105454Y0145379D02*
X0089627Y0145379D01*
X0090220Y0144381D02*
X0104455Y0144381D01*
X0103457Y0143382D02*
X0090220Y0143382D01*
X0090220Y0142384D02*
X0102458Y0142384D01*
X0106452Y0146378D02*
X0024102Y0146378D01*
X0024102Y0145379D02*
X0033500Y0145379D01*
X0032803Y0144381D02*
X0024102Y0144381D01*
X0024102Y0143382D02*
X0032803Y0143382D01*
X0032803Y0142384D02*
X0024102Y0142384D01*
X0024102Y0141385D02*
X0032803Y0141385D01*
X0032803Y0140387D02*
X0024102Y0140387D01*
X0024102Y0139388D02*
X0032803Y0139388D01*
X0032847Y0138390D02*
X0024102Y0138390D01*
X0024102Y0137391D02*
X0033845Y0137391D01*
X0035802Y0136392D02*
X0024102Y0136392D01*
X0024102Y0135394D02*
X0036013Y0135394D01*
X0037012Y0134395D02*
X0024102Y0134395D01*
X0024102Y0133397D02*
X0038010Y0133397D01*
X0038802Y0132605D02*
X0038802Y0132605D01*
X0039009Y0132398D02*
X0024102Y0132398D01*
X0024102Y0131400D02*
X0040007Y0131400D01*
X0040224Y0145379D02*
X0040980Y0145379D01*
X0047704Y0145379D02*
X0051577Y0145379D01*
X0050984Y0144381D02*
X0048401Y0144381D01*
X0057328Y0145379D02*
X0057876Y0145379D01*
X0063627Y0145379D02*
X0077577Y0145379D01*
X0077402Y0145204D02*
X0077126Y0144727D01*
X0076984Y0144195D01*
X0076984Y0142042D01*
X0079968Y0142042D01*
X0079968Y0146010D01*
X0078799Y0146010D01*
X0078268Y0145868D01*
X0077791Y0145593D01*
X0077402Y0145204D01*
X0077034Y0144381D02*
X0064220Y0144381D01*
X0064220Y0143382D02*
X0076984Y0143382D01*
X0076984Y0142384D02*
X0064220Y0142384D01*
X0064220Y0141385D02*
X0079968Y0141385D01*
X0079968Y0142384D02*
X0080937Y0142384D01*
X0080937Y0143382D02*
X0079968Y0143382D01*
X0079968Y0144381D02*
X0080937Y0144381D01*
X0080937Y0145379D02*
X0079968Y0145379D01*
X0083328Y0145379D02*
X0083876Y0145379D01*
X0076984Y0140387D02*
X0064220Y0140387D01*
X0064742Y0139388D02*
X0076984Y0139388D01*
X0077126Y0138389D02*
X0077260Y0138158D01*
X0065972Y0138158D01*
X0066102Y0127944D02*
X0062624Y0127944D01*
X0062143Y0127848D01*
X0061689Y0127660D01*
X0061281Y0127387D01*
X0060934Y0127040D01*
X0060661Y0126632D01*
X0060473Y0126178D01*
X0060378Y0125697D01*
X0060378Y0122219D01*
X0066102Y0122219D01*
X0066102Y0121219D01*
X0067102Y0121219D01*
X0067102Y0115495D01*
X0070580Y0115495D01*
X0071061Y0115591D01*
X0071515Y0115778D01*
X0071923Y0116051D01*
X0072270Y0116398D01*
X0072543Y0116806D01*
X0072731Y0117260D01*
X0072826Y0117741D01*
X0072826Y0121219D01*
X0067102Y0121219D01*
X0067102Y0122219D01*
X0072826Y0122219D01*
X0072826Y0125697D01*
X0072731Y0126178D01*
X0072543Y0126632D01*
X0072270Y0127040D01*
X0071923Y0127387D01*
X0071515Y0127660D01*
X0071061Y0127848D01*
X0070580Y0127944D01*
X0067102Y0127944D01*
X0067102Y0122219D01*
X0066102Y0122219D01*
X0066102Y0127944D01*
X0066102Y0127406D02*
X0067102Y0127406D01*
X0067102Y0126407D02*
X0066102Y0126407D01*
X0066102Y0125409D02*
X0067102Y0125409D01*
X0067102Y0124410D02*
X0066102Y0124410D01*
X0066102Y0123412D02*
X0067102Y0123412D01*
X0067102Y0122413D02*
X0066102Y0122413D01*
X0066102Y0121415D02*
X0024102Y0121415D01*
X0024102Y0122413D02*
X0060378Y0122413D01*
X0060378Y0123412D02*
X0024102Y0123412D01*
X0024102Y0124410D02*
X0060378Y0124410D01*
X0060378Y0125409D02*
X0024102Y0125409D01*
X0024102Y0126407D02*
X0060568Y0126407D01*
X0061309Y0127406D02*
X0024102Y0127406D01*
X0024102Y0128404D02*
X0106150Y0128404D01*
X0105949Y0127406D02*
X0071895Y0127406D01*
X0072636Y0126407D02*
X0105949Y0126407D01*
X0105949Y0125409D02*
X0104195Y0125409D01*
X0105747Y0124410D02*
X0105949Y0124410D01*
X0107148Y0129403D02*
X0024102Y0129403D01*
X0024102Y0130401D02*
X0112562Y0130401D01*
X0113560Y0131400D02*
X0105697Y0131400D01*
X0106695Y0132398D02*
X0114559Y0132398D01*
X0115557Y0133397D02*
X0107694Y0133397D01*
X0108692Y0134395D02*
X0116852Y0134395D01*
X0118941Y0135394D02*
X0109691Y0135394D01*
X0110690Y0136392D02*
X0119044Y0136392D01*
X0119663Y0137391D02*
X0111688Y0137391D01*
X0112687Y0138390D02*
X0120090Y0138390D01*
X0120090Y0139388D02*
X0113685Y0139388D01*
X0114684Y0140387D02*
X0120090Y0140387D01*
X0120090Y0141385D02*
X0115682Y0141385D01*
X0116681Y0142384D02*
X0120090Y0142384D01*
X0127090Y0142384D02*
X0158958Y0142384D01*
X0159957Y0143382D02*
X0146310Y0143382D01*
X0147309Y0144381D02*
X0161132Y0144381D01*
X0159843Y0149373D02*
X0159361Y0149373D01*
X0152363Y0149373D02*
X0149341Y0149373D01*
X0156961Y0140387D02*
X0127090Y0140387D01*
X0127090Y0141385D02*
X0157960Y0141385D01*
X0155963Y0139388D02*
X0127090Y0139388D01*
X0127090Y0138390D02*
X0154964Y0138390D01*
X0153966Y0137391D02*
X0138541Y0137391D01*
X0138377Y0137555D02*
X0137977Y0137823D01*
X0137532Y0138007D01*
X0137059Y0138101D01*
X0135114Y0138101D01*
X0135114Y0133558D01*
X0134114Y0133558D01*
X0134114Y0138101D01*
X0132168Y0138101D01*
X0131696Y0138007D01*
X0131251Y0137823D01*
X0130851Y0137555D01*
X0130510Y0137215D01*
X0130243Y0136814D01*
X0130058Y0136369D01*
X0129964Y0135897D01*
X0129964Y0133558D01*
X0134114Y0133558D01*
X0134114Y0132558D01*
X0129964Y0132558D01*
X0129964Y0130219D01*
X0130058Y0129746D01*
X0130243Y0129301D01*
X0130510Y0128901D01*
X0130851Y0128560D01*
X0131251Y0128293D01*
X0131696Y0128108D01*
X0132168Y0128014D01*
X0134114Y0128014D01*
X0134114Y0132558D01*
X0135114Y0132558D01*
X0135114Y0133558D01*
X0139263Y0133558D01*
X0139263Y0135897D01*
X0139170Y0136369D01*
X0138985Y0136814D01*
X0138718Y0137215D01*
X0138377Y0137555D01*
X0139160Y0136392D02*
X0152967Y0136392D01*
X0151968Y0135394D02*
X0139263Y0135394D01*
X0139263Y0134395D02*
X0151502Y0134395D01*
X0151502Y0133397D02*
X0135114Y0133397D01*
X0135114Y0132558D02*
X0139263Y0132558D01*
X0139263Y0130219D01*
X0139170Y0129746D01*
X0138985Y0129301D01*
X0138718Y0128901D01*
X0138377Y0128560D01*
X0137977Y0128293D01*
X0137532Y0128108D01*
X0137059Y0128014D01*
X0135114Y0128014D01*
X0135114Y0132558D01*
X0135114Y0132398D02*
X0134114Y0132398D01*
X0134114Y0131400D02*
X0135114Y0131400D01*
X0135114Y0130401D02*
X0134114Y0130401D01*
X0134114Y0129403D02*
X0135114Y0129403D01*
X0135114Y0128404D02*
X0134114Y0128404D01*
X0131084Y0128404D02*
X0127198Y0128404D01*
X0128004Y0129403D02*
X0130200Y0129403D01*
X0129964Y0130401D02*
X0128240Y0130401D01*
X0128240Y0131400D02*
X0129964Y0131400D01*
X0129964Y0132398D02*
X0128240Y0132398D01*
X0128240Y0133397D02*
X0134114Y0133397D01*
X0134114Y0134395D02*
X0135114Y0134395D01*
X0135114Y0135394D02*
X0134114Y0135394D01*
X0134114Y0136392D02*
X0135114Y0136392D01*
X0135114Y0137391D02*
X0134114Y0137391D01*
X0130686Y0137391D02*
X0127518Y0137391D01*
X0128136Y0136392D02*
X0130068Y0136392D01*
X0129964Y0135394D02*
X0128240Y0135394D01*
X0128240Y0134395D02*
X0129964Y0134395D01*
X0126414Y0126125D02*
X0125941Y0126219D01*
X0123602Y0126219D01*
X0123602Y0122070D01*
X0122602Y0122070D01*
X0122602Y0126219D01*
X0120263Y0126219D01*
X0119790Y0126125D01*
X0119346Y0125941D01*
X0118945Y0125673D01*
X0118605Y0125333D01*
X0118337Y0124932D01*
X0118153Y0124487D01*
X0118059Y0124015D01*
X0118059Y0122070D01*
X0122602Y0122070D01*
X0122602Y0121070D01*
X0118059Y0121070D01*
X0118059Y0119124D01*
X0118153Y0118652D01*
X0118337Y0118207D01*
X0118605Y0117806D01*
X0118945Y0117466D01*
X0119346Y0117198D01*
X0119790Y0117014D01*
X0120263Y0116920D01*
X0122602Y0116920D01*
X0122602Y0121070D01*
X0123602Y0121070D01*
X0123602Y0122070D01*
X0128145Y0122070D01*
X0128145Y0124015D01*
X0128051Y0124487D01*
X0127867Y0124932D01*
X0127600Y0125333D01*
X0127259Y0125673D01*
X0126859Y0125941D01*
X0126414Y0126125D01*
X0127523Y0125409D02*
X0148483Y0125409D01*
X0147485Y0124410D02*
X0128067Y0124410D01*
X0128145Y0123412D02*
X0146486Y0123412D01*
X0149482Y0126407D02*
X0117336Y0126407D01*
X0116337Y0125409D02*
X0118681Y0125409D01*
X0118137Y0124410D02*
X0115339Y0124410D01*
X0114550Y0123412D02*
X0118059Y0123412D01*
X0118059Y0122413D02*
X0114597Y0122413D01*
X0114838Y0121415D02*
X0122602Y0121415D01*
X0122602Y0122413D02*
X0123602Y0122413D01*
X0123602Y0121415D02*
X0137989Y0121415D01*
X0136991Y0120416D02*
X0128145Y0120416D01*
X0128145Y0121070D02*
X0123602Y0121070D01*
X0123602Y0116920D01*
X0125941Y0116920D01*
X0126414Y0117014D01*
X0126859Y0117198D01*
X0127259Y0117466D01*
X0127600Y0117806D01*
X0127867Y0118207D01*
X0128051Y0118652D01*
X0128145Y0119124D01*
X0128145Y0121070D01*
X0128145Y0122413D02*
X0138988Y0122413D01*
X0138144Y0128404D02*
X0151479Y0128404D01*
X0151502Y0129403D02*
X0139027Y0129403D01*
X0139263Y0130401D02*
X0151502Y0130401D01*
X0151502Y0131400D02*
X0139263Y0131400D01*
X0139263Y0132398D02*
X0151502Y0132398D01*
X0150480Y0127406D02*
X0118334Y0127406D01*
X0119333Y0128404D02*
X0119983Y0128404D01*
X0122602Y0125409D02*
X0123602Y0125409D01*
X0123602Y0124410D02*
X0122602Y0124410D01*
X0122602Y0123412D02*
X0123602Y0123412D01*
X0123602Y0120416D02*
X0122602Y0120416D01*
X0122602Y0119418D02*
X0123602Y0119418D01*
X0123602Y0118419D02*
X0122602Y0118419D01*
X0122602Y0117421D02*
X0123602Y0117421D01*
X0127192Y0117421D02*
X0130149Y0117421D01*
X0130149Y0118419D02*
X0127955Y0118419D01*
X0128145Y0119418D02*
X0131039Y0119418D01*
X0130149Y0116422D02*
X0114832Y0116422D01*
X0114854Y0115424D02*
X0130149Y0115424D01*
X0130149Y0114425D02*
X0127483Y0114425D01*
X0128067Y0113427D02*
X0130149Y0113427D01*
X0130788Y0112428D02*
X0128145Y0112428D01*
X0118721Y0114425D02*
X0115082Y0114425D01*
X0114435Y0117421D02*
X0119012Y0117421D01*
X0118249Y0118419D02*
X0114838Y0118419D01*
X0114838Y0119418D02*
X0118059Y0119418D01*
X0118059Y0120416D02*
X0109886Y0120416D01*
X0108917Y0120416D02*
X0099401Y0120416D01*
X0099401Y0119418D02*
X0098401Y0119418D01*
X0098401Y0120416D02*
X0072826Y0120416D01*
X0073602Y0120416D02*
X0059102Y0120416D01*
X0059102Y0119418D02*
X0073602Y0119418D01*
X0072826Y0119418D02*
X0090146Y0119418D01*
X0090350Y0118419D02*
X0072826Y0118419D01*
X0073602Y0118419D02*
X0059102Y0118419D01*
X0059102Y0117421D02*
X0073602Y0117421D01*
X0072763Y0117421D02*
X0090748Y0117421D01*
X0091383Y0116422D02*
X0072286Y0116422D01*
X0073602Y0116422D02*
X0059102Y0116422D01*
X0059102Y0115424D02*
X0073602Y0115424D01*
X0073602Y0114558D02*
X0059102Y0114558D01*
X0059102Y0129558D01*
X0073602Y0129558D01*
X0073602Y0114558D01*
X0071288Y0110431D02*
X0109176Y0110431D01*
X0110175Y0109433D02*
X0072492Y0109433D01*
X0072826Y0108434D02*
X0111174Y0108434D01*
X0106431Y0111430D02*
X0024102Y0111430D01*
X0024102Y0112428D02*
X0105949Y0112428D01*
X0105949Y0113427D02*
X0024102Y0113427D01*
X0024102Y0114425D02*
X0094415Y0114425D01*
X0092407Y0115424D02*
X0024102Y0115424D01*
X0024102Y0116422D02*
X0060918Y0116422D01*
X0060934Y0116398D02*
X0061281Y0116051D01*
X0061689Y0115778D01*
X0062143Y0115591D01*
X0062624Y0115495D01*
X0066102Y0115495D01*
X0066102Y0121219D01*
X0060378Y0121219D01*
X0060378Y0117741D01*
X0060473Y0117260D01*
X0060661Y0116806D01*
X0060934Y0116398D01*
X0060441Y0117421D02*
X0024102Y0117421D01*
X0024102Y0118419D02*
X0060378Y0118419D01*
X0060378Y0119418D02*
X0024102Y0119418D01*
X0024102Y0120416D02*
X0060378Y0120416D01*
X0059102Y0121415D02*
X0073602Y0121415D01*
X0073602Y0122413D02*
X0059102Y0122413D01*
X0059102Y0123412D02*
X0073602Y0123412D01*
X0072826Y0123412D02*
X0091178Y0123412D01*
X0090962Y0123114D02*
X0091501Y0123856D01*
X0092150Y0124505D01*
X0092893Y0125045D01*
X0093710Y0125461D01*
X0094583Y0125745D01*
X0095490Y0125888D01*
X0098401Y0125888D01*
X0098401Y0120558D01*
X0090124Y0120558D01*
X0090261Y0121423D01*
X0090545Y0122296D01*
X0090962Y0123114D01*
X0090605Y0122413D02*
X0072826Y0122413D01*
X0072826Y0124410D02*
X0092055Y0124410D01*
X0093607Y0125409D02*
X0072826Y0125409D01*
X0073602Y0125409D02*
X0059102Y0125409D01*
X0059102Y0126407D02*
X0073602Y0126407D01*
X0073602Y0127406D02*
X0059102Y0127406D01*
X0059102Y0128404D02*
X0073602Y0128404D01*
X0073602Y0129403D02*
X0059102Y0129403D01*
X0059102Y0124410D02*
X0073602Y0124410D01*
X0067102Y0121415D02*
X0090260Y0121415D01*
X0087102Y0121415D02*
X0101602Y0121415D01*
X0101602Y0122413D02*
X0087102Y0122413D01*
X0087102Y0123412D02*
X0101602Y0123412D01*
X0101602Y0124410D02*
X0087102Y0124410D01*
X0087102Y0125409D02*
X0101602Y0125409D01*
X0101602Y0126407D02*
X0087102Y0126407D01*
X0087102Y0127406D02*
X0101602Y0127406D01*
X0101602Y0127558D02*
X0087102Y0127558D01*
X0087102Y0112558D01*
X0101602Y0112558D01*
X0101602Y0127558D01*
X0099401Y0125409D02*
X0098401Y0125409D01*
X0098401Y0124410D02*
X0099401Y0124410D01*
X0099401Y0123412D02*
X0098401Y0123412D01*
X0098401Y0122413D02*
X0099401Y0122413D01*
X0099401Y0121415D02*
X0098401Y0121415D01*
X0098401Y0118419D02*
X0099401Y0118419D01*
X0099401Y0117421D02*
X0098401Y0117421D01*
X0098401Y0116422D02*
X0099401Y0116422D01*
X0099401Y0115424D02*
X0098401Y0115424D01*
X0098401Y0114425D02*
X0099401Y0114425D01*
X0101602Y0114425D02*
X0087102Y0114425D01*
X0087102Y0113427D02*
X0101602Y0113427D01*
X0101602Y0115424D02*
X0087102Y0115424D01*
X0087102Y0116422D02*
X0101602Y0116422D01*
X0101602Y0117421D02*
X0087102Y0117421D01*
X0087102Y0118419D02*
X0101602Y0118419D01*
X0101602Y0119418D02*
X0087102Y0119418D01*
X0087102Y0120416D02*
X0101602Y0120416D01*
X0103388Y0114425D02*
X0105949Y0114425D01*
X0105949Y0115424D02*
X0105396Y0115424D01*
X0067102Y0116422D02*
X0066102Y0116422D01*
X0066102Y0117421D02*
X0067102Y0117421D01*
X0067102Y0118419D02*
X0066102Y0118419D01*
X0066102Y0119418D02*
X0067102Y0119418D01*
X0067102Y0120416D02*
X0066102Y0120416D01*
X0061917Y0110431D02*
X0024102Y0110431D01*
X0024102Y0109433D02*
X0060713Y0109433D01*
X0060378Y0108434D02*
X0024102Y0108434D01*
X0024102Y0107436D02*
X0060378Y0107436D01*
X0060378Y0106437D02*
X0024102Y0106437D01*
X0024102Y0105439D02*
X0060378Y0105439D01*
X0060378Y0104440D02*
X0024102Y0104440D01*
X0024102Y0103442D02*
X0060378Y0103442D01*
X0060378Y0102443D02*
X0024102Y0102443D01*
X0024102Y0101445D02*
X0060378Y0101445D01*
X0060378Y0100446D02*
X0024102Y0100446D01*
X0024102Y0099448D02*
X0060602Y0099448D01*
X0060044Y0098449D02*
X0024102Y0098449D01*
X0024102Y0097451D02*
X0059045Y0097451D01*
X0058047Y0096452D02*
X0024102Y0096452D01*
X0024102Y0095454D02*
X0057048Y0095454D01*
X0056050Y0094455D02*
X0024102Y0094455D01*
X0024102Y0093457D02*
X0055051Y0093457D01*
X0054053Y0092458D02*
X0024102Y0092458D01*
X0024102Y0091459D02*
X0053054Y0091459D01*
X0052056Y0090461D02*
X0024102Y0090461D01*
X0024102Y0089462D02*
X0051057Y0089462D01*
X0050059Y0088464D02*
X0024102Y0088464D01*
X0024102Y0087465D02*
X0049060Y0087465D01*
X0048062Y0086467D02*
X0024102Y0086467D01*
X0024102Y0085468D02*
X0047063Y0085468D01*
X0046064Y0084470D02*
X0024102Y0084470D01*
X0024102Y0083471D02*
X0045066Y0083471D01*
X0050971Y0079477D02*
X0053602Y0079477D01*
X0053602Y0078479D02*
X0050326Y0078479D01*
X0050326Y0077480D02*
X0053602Y0077480D01*
X0053602Y0076482D02*
X0050326Y0076482D01*
X0050326Y0075483D02*
X0053602Y0075483D01*
X0053602Y0074485D02*
X0050326Y0074485D01*
X0050326Y0073486D02*
X0053602Y0073486D01*
X0053602Y0072488D02*
X0050118Y0072488D01*
X0049361Y0071489D02*
X0053602Y0071489D01*
X0053602Y0070491D02*
X0024102Y0070491D01*
X0024102Y0071489D02*
X0038843Y0071489D01*
X0038086Y0072488D02*
X0024102Y0072488D01*
X0024102Y0073486D02*
X0037878Y0073486D01*
X0037878Y0074485D02*
X0024102Y0074485D01*
X0024102Y0075483D02*
X0037878Y0075483D01*
X0037878Y0076482D02*
X0024102Y0076482D01*
X0024102Y0077480D02*
X0037878Y0077480D01*
X0037878Y0078479D02*
X0024102Y0078479D01*
X0024102Y0079477D02*
X0037878Y0079477D01*
X0037878Y0080476D02*
X0024102Y0080476D01*
X0024102Y0081474D02*
X0037889Y0081474D01*
X0038367Y0082473D02*
X0024102Y0082473D01*
X0024102Y0069492D02*
X0053602Y0069492D01*
X0053602Y0068494D02*
X0024102Y0068494D01*
X0024102Y0067495D02*
X0053602Y0067495D01*
X0053602Y0066497D02*
X0024102Y0066497D01*
X0024102Y0065498D02*
X0038715Y0065498D01*
X0038033Y0064500D02*
X0024102Y0064500D01*
X0024102Y0063501D02*
X0037878Y0063501D01*
X0037878Y0062503D02*
X0024102Y0062503D01*
X0024102Y0061504D02*
X0037878Y0061504D01*
X0037878Y0060506D02*
X0024102Y0060506D01*
X0024102Y0059507D02*
X0037878Y0059507D01*
X0037878Y0058509D02*
X0024102Y0058509D01*
X0024102Y0057510D02*
X0037878Y0057510D01*
X0037878Y0056512D02*
X0024102Y0056512D01*
X0024102Y0055513D02*
X0037942Y0055513D01*
X0038495Y0054515D02*
X0024102Y0054515D01*
X0024102Y0053516D02*
X0040602Y0053516D01*
X0040602Y0052518D02*
X0024102Y0052518D01*
X0024102Y0051519D02*
X0040602Y0051519D01*
X0040602Y0050521D02*
X0024102Y0050521D01*
X0024102Y0049522D02*
X0040989Y0049522D01*
X0041781Y0048523D02*
X0024102Y0048523D01*
X0024102Y0047525D02*
X0042780Y0047525D01*
X0043778Y0046526D02*
X0024102Y0046526D01*
X0024102Y0045528D02*
X0044777Y0045528D01*
X0045775Y0044529D02*
X0024102Y0044529D01*
X0024102Y0043531D02*
X0046744Y0043531D01*
X0046744Y0042532D02*
X0024102Y0042532D01*
X0024102Y0041534D02*
X0046744Y0041534D01*
X0046744Y0040535D02*
X0024102Y0040535D01*
X0024102Y0039537D02*
X0047225Y0039537D01*
X0053602Y0038538D02*
X0024102Y0038538D01*
X0024102Y0037540D02*
X0053602Y0037540D01*
X0053602Y0036541D02*
X0024102Y0036541D01*
X0024102Y0035543D02*
X0053602Y0035543D01*
X0053602Y0034544D02*
X0024102Y0034544D01*
X0024102Y0033546D02*
X0053602Y0033546D01*
X0053602Y0032547D02*
X0024102Y0032547D01*
X0024102Y0031549D02*
X0053602Y0031549D01*
X0053602Y0030550D02*
X0024102Y0030550D01*
X0024102Y0029552D02*
X0053602Y0029552D01*
X0053602Y0028553D02*
X0024102Y0028553D01*
X0024102Y0027555D02*
X0053602Y0027555D01*
X0053602Y0049522D02*
X0050682Y0049522D01*
X0049684Y0050521D02*
X0053602Y0050521D01*
X0053602Y0051519D02*
X0048685Y0051519D01*
X0047686Y0052518D02*
X0053602Y0052518D01*
X0053602Y0053516D02*
X0047602Y0053516D01*
X0049709Y0054515D02*
X0053602Y0054515D01*
X0053602Y0055513D02*
X0050262Y0055513D01*
X0050326Y0056512D02*
X0053602Y0056512D01*
X0053602Y0057510D02*
X0050326Y0057510D01*
X0050326Y0058509D02*
X0053602Y0058509D01*
X0053602Y0059507D02*
X0050326Y0059507D01*
X0050326Y0060506D02*
X0053602Y0060506D01*
X0053602Y0061504D02*
X0050326Y0061504D01*
X0050326Y0062503D02*
X0053602Y0062503D01*
X0053602Y0063501D02*
X0050326Y0063501D01*
X0050171Y0064500D02*
X0053602Y0064500D01*
X0053602Y0065498D02*
X0049489Y0065498D01*
X0051970Y0080476D02*
X0053602Y0080476D01*
X0053602Y0081474D02*
X0052968Y0081474D01*
X0144486Y0161355D02*
X0145430Y0161355D01*
X0146328Y0162354D02*
X0146428Y0162354D01*
X0147193Y0163352D02*
X0147427Y0163352D01*
X0147700Y0164351D02*
X0148425Y0164351D01*
X0148202Y0165349D02*
X0147951Y0165349D01*
X0146397Y0185320D02*
X0145402Y0185320D01*
X0159702Y0199299D02*
X0161683Y0199299D01*
X0160684Y0200297D02*
X0159702Y0200297D01*
X0159702Y0201296D02*
X0160681Y0201296D01*
X0160681Y0202294D02*
X0159702Y0202294D01*
X0159702Y0203293D02*
X0160681Y0203293D01*
X0161157Y0204291D02*
X0159702Y0204291D01*
X0159702Y0205290D02*
X0160692Y0205290D01*
X0160681Y0206288D02*
X0159702Y0206288D01*
X0159702Y0207287D02*
X0160681Y0207287D01*
X0160681Y0208285D02*
X0159702Y0208285D01*
X0159702Y0209284D02*
X0161150Y0209284D01*
X0160699Y0210282D02*
X0159702Y0210282D01*
X0159702Y0211281D02*
X0160681Y0211281D01*
X0160681Y0212279D02*
X0159702Y0212279D01*
X0159702Y0213278D02*
X0160681Y0213278D01*
X0161142Y0214276D02*
X0159702Y0214276D01*
X0159702Y0215275D02*
X0160707Y0215275D01*
X0160681Y0216273D02*
X0159702Y0216273D01*
X0159702Y0217272D02*
X0160681Y0217272D01*
X0160681Y0218270D02*
X0159702Y0218270D01*
X0159702Y0219269D02*
X0161135Y0219269D01*
X0160714Y0220267D02*
X0159702Y0220267D01*
X0159702Y0221266D02*
X0160681Y0221266D01*
X0160681Y0222264D02*
X0159702Y0222264D01*
X0159702Y0223263D02*
X0160681Y0223263D01*
X0161127Y0224261D02*
X0159702Y0224261D01*
X0153002Y0224261D02*
X0148077Y0224261D01*
X0148141Y0224197D02*
X0147785Y0224553D01*
X0147779Y0224557D01*
X0148523Y0225301D01*
X0148523Y0228815D01*
X0147780Y0229558D01*
X0148523Y0230301D01*
X0148523Y0233815D01*
X0147780Y0234558D01*
X0148523Y0235301D01*
X0148523Y0238815D01*
X0148380Y0238958D01*
X0148732Y0238958D01*
X0153002Y0234688D01*
X0153002Y0217410D01*
X0152402Y0218010D01*
X0151055Y0219358D01*
X0147980Y0219358D01*
X0147779Y0219559D01*
X0147785Y0219562D01*
X0148141Y0219918D01*
X0148393Y0220355D01*
X0148523Y0220841D01*
X0148523Y0221869D01*
X0143177Y0221869D01*
X0143177Y0222247D01*
X0148523Y0222247D01*
X0148523Y0223274D01*
X0148393Y0223761D01*
X0148141Y0224197D01*
X0148523Y0223263D02*
X0153002Y0223263D01*
X0153002Y0222264D02*
X0148523Y0222264D01*
X0148523Y0221266D02*
X0153002Y0221266D01*
X0153002Y0220267D02*
X0148343Y0220267D01*
X0151144Y0219269D02*
X0153002Y0219269D01*
X0153002Y0218270D02*
X0152142Y0218270D01*
X0153002Y0225260D02*
X0148483Y0225260D01*
X0148523Y0226259D02*
X0153002Y0226259D01*
X0153002Y0227257D02*
X0148523Y0227257D01*
X0148523Y0228256D02*
X0153002Y0228256D01*
X0153002Y0229254D02*
X0148084Y0229254D01*
X0148475Y0230253D02*
X0153002Y0230253D01*
X0153002Y0231251D02*
X0148523Y0231251D01*
X0148523Y0232250D02*
X0153002Y0232250D01*
X0153002Y0233248D02*
X0148523Y0233248D01*
X0148092Y0234247D02*
X0153002Y0234247D01*
X0152445Y0235245D02*
X0148468Y0235245D01*
X0148523Y0236244D02*
X0151446Y0236244D01*
X0150448Y0237242D02*
X0148523Y0237242D01*
X0148523Y0238241D02*
X0149449Y0238241D01*
X0169399Y0245230D02*
X0202606Y0245230D01*
X0202606Y0246229D02*
X0120102Y0246229D01*
X0120102Y0247227D02*
X0202851Y0247227D01*
X0203887Y0248226D02*
X0120102Y0248226D01*
X0123732Y0239158D02*
X0123732Y0239158D01*
X0170398Y0244232D02*
X0205968Y0244232D01*
X0205968Y0245230D02*
X0206968Y0245230D01*
X0206968Y0246229D02*
X0205968Y0246229D01*
X0205968Y0247227D02*
X0206968Y0247227D01*
X0206968Y0248226D02*
X0205968Y0248226D01*
X0202606Y0243233D02*
X0171396Y0243233D01*
X0172395Y0242235D02*
X0202707Y0242235D01*
X0209577Y0241236D02*
X0211627Y0241236D01*
X0210874Y0242235D02*
X0210229Y0242235D01*
X0210330Y0243233D02*
X0210874Y0243233D01*
X0182337Y0241236D02*
X0181867Y0241236D01*
X0174857Y0241236D02*
X0173393Y0241236D01*
X0191527Y0207287D02*
X0209305Y0207287D01*
X0209200Y0207227D02*
X0208811Y0206837D01*
X0208536Y0206361D01*
X0208393Y0205829D01*
X0208393Y0203873D01*
X0211378Y0203873D01*
X0211378Y0207644D01*
X0210209Y0207644D01*
X0209677Y0207502D01*
X0209200Y0207227D01*
X0208516Y0206288D02*
X0194928Y0206288D01*
X0195226Y0206201D02*
X0195226Y0206201D01*
X0196644Y0205290D02*
X0208393Y0205290D01*
X0208393Y0204291D02*
X0198197Y0204291D01*
X0199416Y0203508D02*
X0199416Y0203508D01*
X0199603Y0203293D02*
X0211378Y0203293D01*
X0211378Y0202904D02*
X0208393Y0202904D01*
X0208393Y0200948D01*
X0208536Y0200416D01*
X0208811Y0199939D01*
X0209200Y0199550D01*
X0209677Y0199275D01*
X0210209Y0199133D01*
X0211378Y0199133D01*
X0211378Y0202904D01*
X0212346Y0202904D01*
X0212346Y0199133D01*
X0213515Y0199133D01*
X0214047Y0199275D01*
X0214523Y0199550D01*
X0214913Y0199939D01*
X0215188Y0200416D01*
X0215330Y0200948D01*
X0215330Y0202904D01*
X0212346Y0202904D01*
X0212346Y0203873D01*
X0211378Y0203873D01*
X0211378Y0202904D01*
X0211378Y0202294D02*
X0212346Y0202294D01*
X0212346Y0201296D02*
X0211378Y0201296D01*
X0211378Y0200297D02*
X0212346Y0200297D01*
X0212346Y0199299D02*
X0211378Y0199299D01*
X0212675Y0198300D02*
X0203337Y0198300D01*
X0203793Y0197302D02*
X0212134Y0197302D01*
X0212134Y0196303D02*
X0204249Y0196303D01*
X0204705Y0195305D02*
X0212134Y0195305D01*
X0212134Y0194306D02*
X0204878Y0194306D01*
X0205021Y0193308D02*
X0212134Y0193308D01*
X0212134Y0192309D02*
X0205165Y0192309D01*
X0205309Y0191311D02*
X0212519Y0191311D01*
X0213502Y0190312D02*
X0205452Y0190312D01*
X0205317Y0189314D02*
X0213502Y0189314D01*
X0212890Y0188315D02*
X0205174Y0188315D01*
X0205030Y0187317D02*
X0211891Y0187317D01*
X0210893Y0186318D02*
X0204886Y0186318D01*
X0204733Y0185320D02*
X0209894Y0185320D01*
X0208896Y0184321D02*
X0204277Y0184321D01*
X0203821Y0183323D02*
X0207897Y0183323D01*
X0206898Y0182324D02*
X0203365Y0182324D01*
X0202909Y0181326D02*
X0205900Y0181326D01*
X0204901Y0180327D02*
X0202250Y0180327D01*
X0201385Y0179328D02*
X0203903Y0179328D01*
X0202904Y0178330D02*
X0200520Y0178330D01*
X0195393Y0164351D02*
X0194865Y0164351D01*
X0200539Y0149373D02*
X0208402Y0149373D01*
X0208402Y0148375D02*
X0206209Y0148375D01*
X0207055Y0147376D02*
X0208402Y0147376D01*
X0208768Y0146378D02*
X0207055Y0146378D01*
X0209033Y0145379D02*
X0209702Y0145379D01*
X0210032Y0144381D02*
X0210701Y0144381D01*
X0211030Y0143382D02*
X0211700Y0143382D01*
X0212029Y0142384D02*
X0212698Y0142384D01*
X0207521Y0140387D02*
X0206668Y0140387D01*
X0207055Y0139388D02*
X0207802Y0139388D01*
X0207802Y0138390D02*
X0207055Y0138390D01*
X0197002Y0125409D02*
X0195746Y0125409D01*
X0195950Y0124410D02*
X0197002Y0124410D01*
X0197002Y0123412D02*
X0196202Y0123412D01*
X0185651Y0120416D02*
X0185496Y0120416D01*
X0185202Y0121415D02*
X0184498Y0121415D01*
X0213904Y0120416D02*
X0215300Y0120416D01*
X0230910Y0116422D02*
X0232394Y0116422D01*
X0234842Y0116422D02*
X0235842Y0116422D01*
X0235842Y0117421D02*
X0234842Y0117421D01*
X0234842Y0118419D02*
X0235842Y0118419D01*
X0235842Y0119418D02*
X0234842Y0119418D01*
X0232011Y0124410D02*
X0231193Y0124410D01*
X0231193Y0127406D02*
X0231011Y0127406D01*
X0231011Y0128404D02*
X0231193Y0128404D01*
X0231193Y0129403D02*
X0231011Y0129403D01*
X0231011Y0131400D02*
X0231193Y0131400D01*
X0231193Y0132398D02*
X0231011Y0132398D01*
X0231011Y0133397D02*
X0231193Y0133397D01*
X0225213Y0137391D02*
X0221879Y0137391D01*
X0222555Y0138390D02*
X0224681Y0138390D01*
X0224041Y0150372D02*
X0241575Y0150372D01*
X0241575Y0151370D02*
X0223042Y0151370D01*
X0218387Y0190312D02*
X0217702Y0190312D01*
X0218685Y0191311D02*
X0219385Y0191311D01*
X0219071Y0192309D02*
X0220384Y0192309D01*
X0221382Y0193308D02*
X0219071Y0193308D01*
X0219071Y0194306D02*
X0222002Y0194306D01*
X0222002Y0195305D02*
X0219071Y0195305D01*
X0219071Y0196303D02*
X0222002Y0196303D01*
X0222002Y0197302D02*
X0219071Y0197302D01*
X0218529Y0198300D02*
X0222002Y0198300D01*
X0222002Y0199299D02*
X0221752Y0199299D01*
X0216932Y0199299D02*
X0214088Y0199299D01*
X0215119Y0200297D02*
X0215934Y0200297D01*
X0215874Y0201296D02*
X0215330Y0201296D01*
X0215330Y0202294D02*
X0215874Y0202294D01*
X0215874Y0203293D02*
X0212346Y0203293D01*
X0212346Y0203873D02*
X0215330Y0203873D01*
X0215330Y0205829D01*
X0215188Y0206361D01*
X0214913Y0206837D01*
X0214523Y0207227D01*
X0214047Y0207502D01*
X0213515Y0207644D01*
X0212346Y0207644D01*
X0212346Y0203873D01*
X0212346Y0204291D02*
X0211378Y0204291D01*
X0211378Y0205290D02*
X0212346Y0205290D01*
X0212346Y0206288D02*
X0211378Y0206288D01*
X0211378Y0207287D02*
X0212346Y0207287D01*
X0214419Y0207287D02*
X0216741Y0207287D01*
X0215874Y0206288D02*
X0215207Y0206288D01*
X0215330Y0205290D02*
X0215874Y0205290D01*
X0215874Y0204291D02*
X0215330Y0204291D01*
X0209636Y0199299D02*
X0202881Y0199299D01*
X0202678Y0199743D02*
X0202678Y0199743D01*
X0202198Y0200297D02*
X0208605Y0200297D01*
X0208393Y0201296D02*
X0201333Y0201296D01*
X0200468Y0202294D02*
X0208393Y0202294D01*
X0044102Y0203058D02*
X0044102Y0195058D01*
X0044102Y0203058D02*
X0043102Y0204058D01*
X0034102Y0204058D01*
D25*
X0067602Y0141558D03*
X0073602Y0141558D03*
X0082102Y0129058D03*
X0088102Y0129058D03*
X0088102Y0123058D03*
X0082102Y0123058D03*
X0082102Y0117058D03*
X0088102Y0117058D03*
X0088102Y0111058D03*
X0082102Y0111058D03*
X0117602Y0094558D03*
X0134602Y0094558D03*
X0142602Y0094558D03*
X0159602Y0094558D03*
X0167602Y0094558D03*
X0143102Y0126058D03*
X0143102Y0131558D03*
X0143102Y0137058D03*
X0137602Y0124558D03*
X0132102Y0124558D03*
X0200602Y0104558D03*
X0200602Y0099058D03*
X0203602Y0123558D03*
X0203602Y0129558D03*
X0211102Y0151558D03*
X0203102Y0170058D03*
X0204102Y0205558D03*
X0191602Y0223558D03*
X0191602Y0229558D03*
X0133602Y0231058D03*
X0133602Y0236558D03*
X0230602Y0112558D03*
X0236602Y0112558D03*
X0234602Y0055058D03*
X0226602Y0055058D03*
D26*
X0226602Y0048648D01*
X0226862Y0048388D01*
X0234342Y0048388D02*
X0234602Y0048648D01*
X0234602Y0055058D01*
X0230342Y0074388D02*
X0230602Y0074648D01*
X0230602Y0082058D01*
X0222602Y0082058D02*
X0222602Y0074648D01*
X0222862Y0074388D01*
X0207771Y0097318D02*
X0202342Y0097318D01*
X0200602Y0099058D01*
X0200602Y0104558D02*
X0207531Y0104558D01*
X0207771Y0104798D01*
X0167602Y0094558D02*
X0167602Y0088148D01*
X0167342Y0087888D01*
X0159862Y0087888D02*
X0159602Y0088148D01*
X0159602Y0094558D01*
X0142602Y0094558D02*
X0142602Y0088148D01*
X0142342Y0087888D01*
X0134862Y0087888D02*
X0134602Y0088148D01*
X0134602Y0094558D01*
X0117602Y0094558D02*
X0117602Y0088148D01*
X0117342Y0087888D01*
X0109862Y0087888D02*
X0109862Y0092298D01*
X0108102Y0094058D01*
X0108102Y0098058D01*
X0110401Y0125959D02*
X0112504Y0125959D01*
X0118102Y0131558D01*
X0123590Y0131558D01*
X0123590Y0133058D01*
X0123590Y0145558D02*
X0144102Y0145558D01*
X0145842Y0147298D01*
X0145842Y0153058D01*
X0155862Y0153058D01*
X0155862Y0158818D01*
X0163102Y0166058D01*
X0073602Y0232058D02*
X0063102Y0221558D01*
X0052602Y0221558D01*
X0047102Y0227058D01*
X0040342Y0227058D01*
X0040342Y0226388D01*
X0032862Y0226388D02*
X0032862Y0231818D01*
X0035602Y0234558D01*
X0049102Y0234558D01*
X0051602Y0232058D01*
X0058602Y0232058D01*
D27*
X0108102Y0098058D03*
X0222602Y0082058D03*
X0230602Y0082058D03*
D28*
X0230102Y0082558D01*
X0230102Y0090798D01*
X0229842Y0091058D01*
X0222362Y0091058D02*
X0222362Y0082298D01*
X0222602Y0082058D01*
X0154602Y0108318D02*
X0144602Y0108318D01*
X0134602Y0108318D01*
X0126842Y0108318D01*
X0124614Y0110546D01*
X0123102Y0110546D01*
X0121602Y0109046D01*
X0121602Y0106558D01*
X0119862Y0104818D01*
X0108102Y0104818D01*
X0067023Y0104818D01*
X0066602Y0104396D01*
X0064102Y0104396D01*
X0064102Y0097558D01*
X0044102Y0077558D01*
X0044102Y0077219D01*
X0044102Y0059896D02*
X0044102Y0051152D01*
X0051197Y0044058D01*
X0063008Y0044058D02*
X0063508Y0043558D01*
X0084602Y0043558D01*
X0108102Y0098058D02*
X0108102Y0104818D01*
X0114012Y0110546D02*
X0110401Y0114156D01*
X0114012Y0110546D02*
X0123102Y0110546D01*
X0123590Y0133058D02*
X0123590Y0145558D01*
X0123590Y0150546D01*
X0131102Y0158058D01*
X0131102Y0214818D01*
X0132602Y0216318D01*
D29*
X0101602Y0120058D03*
D30*
X0102602Y0136058D02*
X0065102Y0136058D01*
X0060752Y0140408D01*
X0060752Y0141558D01*
X0086752Y0141558D02*
X0086752Y0139558D01*
X0102602Y0139558D01*
X0124602Y0161558D01*
X0124602Y0237058D01*
X0131102Y0243558D01*
X0168102Y0243558D01*
X0172602Y0239058D01*
X0172602Y0228058D01*
X0171602Y0227058D01*
X0166216Y0227058D01*
X0159102Y0227058D01*
X0157602Y0225558D01*
X0157602Y0181558D01*
X0163102Y0176058D01*
X0166216Y0183444D02*
X0166216Y0202058D01*
X0166216Y0207058D02*
X0166716Y0207558D01*
X0171602Y0207558D01*
X0174102Y0210058D01*
X0217102Y0210058D01*
X0219102Y0208058D01*
X0219102Y0203629D01*
X0219342Y0203388D01*
X0224102Y0206558D02*
X0218102Y0212558D01*
X0166716Y0212558D01*
X0166216Y0212058D01*
X0150102Y0206058D02*
X0150102Y0197558D01*
X0148602Y0196058D01*
X0145102Y0196058D01*
X0143102Y0194058D01*
X0143102Y0190798D01*
X0141862Y0189558D01*
X0153102Y0182558D02*
X0153102Y0176058D01*
X0153102Y0182558D02*
X0155102Y0184558D01*
X0155102Y0232058D01*
X0166216Y0232058D01*
X0155102Y0232058D02*
X0155102Y0235558D01*
X0149602Y0241058D01*
X0132102Y0241058D01*
X0127102Y0236058D01*
X0127102Y0160558D01*
X0102602Y0136058D01*
X0134602Y0115798D02*
X0135342Y0115798D01*
X0140102Y0120558D01*
X0146602Y0120558D01*
X0153602Y0127558D01*
X0153602Y0134058D01*
X0161602Y0142058D01*
X0164102Y0142058D01*
X0164602Y0142558D01*
X0166502Y0142558D01*
X0172602Y0142558D01*
X0174102Y0144058D01*
X0174102Y0148058D01*
X0184102Y0158058D01*
X0184102Y0161058D01*
X0185102Y0162058D01*
X0185433Y0162058D01*
X0186102Y0156558D02*
X0190102Y0156558D01*
X0192102Y0158558D01*
X0192102Y0164558D01*
X0215602Y0188058D01*
X0215602Y0194727D01*
X0224102Y0193058D02*
X0224102Y0206558D01*
X0224102Y0193058D02*
X0207602Y0176558D01*
X0207602Y0164648D01*
X0206342Y0163388D01*
X0202602Y0154727D02*
X0201933Y0154058D01*
X0187102Y0154058D01*
X0179102Y0146058D01*
X0179102Y0137058D01*
X0174602Y0132558D01*
X0166502Y0132558D01*
X0166002Y0132058D01*
X0161102Y0132058D01*
X0158602Y0129558D01*
X0158602Y0125058D01*
X0154602Y0121058D01*
X0154602Y0115798D01*
X0154842Y0115798D01*
X0145342Y0115798D02*
X0156102Y0126558D01*
X0156102Y0131558D01*
X0161602Y0137058D01*
X0166002Y0137058D01*
X0166502Y0137558D01*
X0173602Y0137558D01*
X0176602Y0140558D01*
X0176602Y0147058D01*
X0186102Y0156558D01*
X0176771Y0165798D02*
X0175102Y0165798D01*
X0175102Y0171058D01*
X0170602Y0175558D01*
X0170602Y0179058D01*
X0166216Y0183444D01*
X0153102Y0166058D02*
X0146102Y0159058D01*
X0137602Y0159058D01*
X0137602Y0153818D01*
X0138362Y0153058D01*
X0137602Y0159058D02*
X0135102Y0161558D01*
X0135102Y0210058D01*
X0136602Y0211558D01*
X0142488Y0211558D01*
X0142988Y0212058D01*
X0142988Y0207058D02*
X0149102Y0207058D01*
X0150102Y0206058D01*
X0166502Y0127558D02*
X0173102Y0127558D01*
X0175602Y0125058D01*
X0175602Y0118058D01*
X0180102Y0113558D01*
X0180102Y0103558D01*
X0175102Y0098558D01*
X0165102Y0098558D01*
X0163602Y0097058D01*
X0163602Y0079227D01*
X0162602Y0100058D02*
X0163602Y0101058D01*
X0173602Y0101058D01*
X0177102Y0104558D01*
X0177102Y0112558D01*
X0172102Y0117558D01*
X0166502Y0117558D01*
X0166502Y0112558D02*
X0172102Y0112558D01*
X0173602Y0111058D01*
X0173602Y0105558D01*
X0171602Y0103558D01*
X0162102Y0103558D01*
X0161102Y0102558D01*
X0138102Y0102558D01*
X0135102Y0099558D01*
X0116102Y0099558D01*
X0113602Y0097058D01*
X0113602Y0079227D01*
X0138602Y0079227D02*
X0138602Y0099058D01*
X0139602Y0100058D01*
X0162602Y0100058D01*
X0145342Y0115798D02*
X0144602Y0115798D01*
X0190702Y0112558D02*
X0191202Y0113058D01*
X0217602Y0113058D01*
X0235602Y0095058D01*
X0235602Y0069058D01*
X0232602Y0066058D01*
X0226933Y0066058D01*
X0226602Y0065727D01*
X0230602Y0059558D02*
X0230602Y0039727D01*
X0230602Y0059558D02*
X0238602Y0067558D01*
X0238602Y0096058D01*
X0218602Y0116058D01*
X0204602Y0116058D01*
X0199102Y0121558D01*
X0199102Y0126558D01*
X0198102Y0127558D01*
X0190702Y0127558D01*
X0190702Y0107558D02*
X0197602Y0107558D01*
X0199602Y0109558D01*
X0213102Y0109558D01*
X0215102Y0107558D01*
X0215102Y0102388D01*
X0216433Y0101058D01*
D31*
X0214602Y0101058D01*
X0214602Y0088656D01*
X0212102Y0086156D01*
X0212102Y0076656D01*
X0212102Y0065459D02*
X0211504Y0065459D01*
X0206602Y0060558D01*
X0161602Y0060558D01*
X0144602Y0043558D01*
X0140102Y0033058D02*
X0194602Y0033058D01*
X0198102Y0036558D01*
X0204504Y0036558D01*
X0215700Y0036558D02*
X0228102Y0036558D01*
X0230602Y0039058D01*
X0230602Y0039727D01*
X0215700Y0050558D02*
X0215700Y0051156D01*
X0225602Y0061058D01*
X0225602Y0064727D01*
X0226602Y0065727D01*
X0204504Y0050558D02*
X0198102Y0050558D01*
X0193602Y0055058D01*
X0171102Y0055058D01*
X0159602Y0043558D01*
X0143102Y0060558D02*
X0149102Y0066558D01*
X0149102Y0069959D01*
X0151102Y0071959D01*
X0153200Y0081058D02*
X0151102Y0083156D01*
X0153200Y0081058D02*
X0163602Y0081058D01*
X0163602Y0079227D01*
X0143102Y0060558D02*
X0131602Y0060558D01*
X0114602Y0043558D01*
X0099602Y0043558D02*
X0123602Y0067558D01*
X0123602Y0070058D01*
X0125504Y0071959D01*
X0126102Y0071959D01*
X0128200Y0081058D02*
X0126102Y0083156D01*
X0128200Y0081058D02*
X0138602Y0081058D01*
X0138602Y0079227D01*
X0113602Y0079227D02*
X0113602Y0081058D01*
X0103200Y0081058D01*
X0101102Y0083156D01*
X0101102Y0071959D02*
X0099102Y0071959D01*
X0099102Y0066558D01*
X0084602Y0052058D01*
X0084602Y0043558D01*
X0129602Y0043558D02*
X0140102Y0033058D01*
X0155362Y0107558D02*
X0154602Y0108318D01*
X0155362Y0107558D02*
X0166502Y0107558D01*
X0182102Y0120558D02*
X0185102Y0117558D01*
X0190702Y0117558D01*
X0182102Y0120558D02*
X0182102Y0144558D01*
X0186602Y0149058D01*
X0197602Y0149058D01*
X0201862Y0144798D01*
X0202602Y0144798D01*
X0203842Y0143558D01*
X0207602Y0143558D01*
X0210102Y0141058D01*
X0210102Y0124558D01*
X0210862Y0124558D01*
X0218342Y0124558D02*
X0218342Y0122558D01*
X0227862Y0122558D01*
X0227862Y0120558D01*
X0227362Y0121058D01*
X0227362Y0130416D01*
X0234842Y0130416D02*
X0234842Y0140699D01*
X0234842Y0145818D01*
X0232602Y0148058D01*
X0223102Y0148058D01*
X0212602Y0158558D01*
X0212602Y0174558D01*
X0229602Y0191558D01*
X0229602Y0209058D01*
X0221602Y0217058D01*
X0166216Y0217058D01*
X0166216Y0222058D02*
X0172102Y0222058D01*
X0175602Y0225558D01*
X0175602Y0234558D01*
X0178362Y0237318D01*
X0178362Y0237558D01*
X0185842Y0237558D02*
X0192102Y0237558D01*
X0197102Y0232558D01*
X0197102Y0228058D01*
X0201102Y0224058D01*
X0208602Y0224058D01*
X0215602Y0231058D01*
X0215602Y0244558D01*
X0214736Y0244558D01*
X0163102Y0176058D02*
X0169602Y0169558D01*
X0169602Y0159318D01*
X0163342Y0153058D01*
X0143102Y0176058D02*
X0143102Y0188318D01*
X0141862Y0189558D01*
X0149342Y0189558D02*
X0152602Y0192818D01*
X0152602Y0214558D01*
X0150102Y0217058D01*
X0142988Y0217058D01*
X0098602Y0209558D02*
X0098602Y0179558D01*
X0086752Y0167707D01*
X0086752Y0166558D01*
X0080452Y0166558D02*
X0071102Y0166558D01*
X0044102Y0193558D01*
X0044102Y0195058D01*
X0040362Y0191798D02*
X0040362Y0199727D01*
X0047842Y0199727D02*
X0047842Y0200798D01*
X0061602Y0214558D01*
X0086862Y0214558D01*
X0086862Y0224318D01*
X0088602Y0226058D01*
X0092842Y0226058D01*
X0094102Y0227318D01*
X0094102Y0234798D02*
X0087842Y0241058D01*
X0033602Y0241058D01*
X0027102Y0234558D01*
X0027102Y0226388D01*
X0027102Y0211058D01*
X0034102Y0204058D01*
X0034102Y0192558D01*
X0053602Y0173058D01*
X0053602Y0166558D01*
X0054452Y0166558D01*
X0060102Y0166558D02*
X0060102Y0172058D01*
X0040362Y0191798D01*
X0044102Y0208388D02*
X0044102Y0221558D01*
X0040342Y0225318D01*
X0040342Y0226388D01*
X0032862Y0226388D02*
X0027102Y0226388D01*
X0060102Y0166558D02*
X0060752Y0166558D01*
X0054452Y0141558D02*
X0044342Y0141558D01*
X0038102Y0140318D02*
X0038102Y0136558D01*
X0041102Y0133558D01*
X0104602Y0133558D01*
X0116602Y0145558D01*
X0123590Y0145558D01*
X0098602Y0209558D02*
X0094342Y0213818D01*
X0094342Y0214558D01*
X0036862Y0141558D02*
X0038102Y0140318D01*
X0218102Y0140798D02*
X0227263Y0140798D01*
X0227362Y0140699D01*
D32*
X0218102Y0140798D02*
X0211102Y0147798D01*
X0211102Y0151558D01*
X0142988Y0217058D02*
X0133342Y0217058D01*
X0132602Y0216318D01*
X0101244Y0083298D02*
X0101102Y0083156D01*
M02*
