%
M48
M72
T01C0.0197
T02C0.0315
T03C0.0354
T04C0.0394
T05C0.0400
T06C0.0551
T07C0.1260
%
T01
X8210Y11106
X8210Y11706
X8210Y12306
X8210Y12906
X8810Y12906
X8810Y12306
X8810Y11706
X8810Y11106
X7360Y14156
X6760Y14156
X11760Y9456
X13460Y9456
X14260Y9456
X15960Y9456
X16760Y9456
X14310Y12606
X14310Y13156
X14310Y13706
X13760Y12456
X13210Y12456
X20060Y10456
X20060Y9906
X20360Y12356
X20360Y12956
X21110Y15156
X20310Y17006
X20410Y20556
X19160Y22356
X19160Y22956
X13360Y23106
X13360Y23656
X23060Y11256
X23660Y11256
X23460Y5506
X22660Y5506
T02
X22260Y8206
X23060Y8206
X10810Y9806
T03
X20560Y23106
X21560Y23106
T04
X10160Y12006
T05
X14310Y16606
X14310Y17606
X15310Y17606
X16310Y17606
X16310Y16606
X15310Y16606
T06
X7360Y23206
X5860Y23206
X8460Y4356
X9960Y4356
X11460Y4356
X12960Y4356
X14460Y4356
X15960Y4356
X17460Y4356
T07
X7772Y8005
X7772Y19028
X18796Y19028
X18796Y8005
M30
