G75*
%MOIN*%
%OFA0B0*%
%FSLAX25Y25*%
%IPPOS*%
%LPD*%
%AMOC8*
5,1,8,0,0,1.08239X$1,22.5*
%
%ADD10C,0.00000*%
%ADD11C,0.00947*%
%ADD12C,0.00900*%
%ADD13C,0.01655*%
%ADD14C,0.01301*%
%ADD15C,0.02010*%
%ADD16C,0.02068*%
%ADD17C,0.09061*%
%ADD18R,0.06201X0.04134*%
%ADD19C,0.01892*%
%ADD20C,0.07200*%
%ADD21C,0.07400*%
%ADD22C,0.01537*%
%ADD23C,0.10636*%
%ADD24C,0.12998*%
%ADD25C,0.00829*%
%ADD26C,0.03969*%
%ADD27C,0.06000*%
%ADD28C,0.06306*%
D10*
X0022602Y0025558D02*
X0022602Y0153589D01*
X0034413Y0153589D01*
X0034731Y0153593D01*
X0035048Y0153604D01*
X0035366Y0153624D01*
X0035682Y0153651D01*
X0035998Y0153686D01*
X0036313Y0153728D01*
X0036627Y0153778D01*
X0036940Y0153836D01*
X0037251Y0153901D01*
X0037560Y0153974D01*
X0037868Y0154055D01*
X0038173Y0154142D01*
X0038476Y0154238D01*
X0038777Y0154340D01*
X0039075Y0154450D01*
X0039371Y0154567D01*
X0039663Y0154692D01*
X0039953Y0154823D01*
X0040239Y0154961D01*
X0040521Y0155107D01*
X0040800Y0155259D01*
X0041076Y0155418D01*
X0041347Y0155583D01*
X0041614Y0155755D01*
X0041877Y0155934D01*
X0042136Y0156119D01*
X0042389Y0156310D01*
X0042639Y0156507D01*
X0042883Y0156711D01*
X0043122Y0156920D01*
X0043356Y0157135D01*
X0043585Y0157356D01*
X0043808Y0157582D01*
X0044026Y0157813D01*
X0044238Y0158050D01*
X0044445Y0158292D01*
X0044645Y0158538D01*
X0044839Y0158790D01*
X0045027Y0159046D01*
X0045209Y0159307D01*
X0045384Y0159572D01*
X0045553Y0159841D01*
X0045715Y0160115D01*
X0045871Y0160392D01*
X0046020Y0160673D01*
X0046162Y0160957D01*
X0046297Y0161245D01*
X0046424Y0161536D01*
X0046545Y0161830D01*
X0046659Y0162127D01*
X0046765Y0162426D01*
X0046864Y0162728D01*
X0046956Y0163032D01*
X0047040Y0163339D01*
X0047116Y0163647D01*
X0047185Y0163958D01*
X0047247Y0164269D01*
X0047301Y0164583D01*
X0047347Y0164897D01*
X0047386Y0165213D01*
X0047417Y0165529D01*
X0047440Y0165846D01*
X0047455Y0166163D01*
X0047463Y0166481D01*
X0047463Y0166799D01*
X0047455Y0167117D01*
X0047440Y0167434D01*
X0047417Y0167751D01*
X0047386Y0168067D01*
X0047347Y0168383D01*
X0047301Y0168697D01*
X0047247Y0169011D01*
X0047185Y0169322D01*
X0047116Y0169633D01*
X0047040Y0169941D01*
X0046956Y0170248D01*
X0046864Y0170552D01*
X0046765Y0170854D01*
X0046659Y0171153D01*
X0046545Y0171450D01*
X0046424Y0171744D01*
X0046297Y0172035D01*
X0046162Y0172323D01*
X0046020Y0172607D01*
X0045871Y0172888D01*
X0045715Y0173166D01*
X0045553Y0173439D01*
X0045384Y0173708D01*
X0045209Y0173973D01*
X0045027Y0174234D01*
X0044839Y0174490D01*
X0044645Y0174742D01*
X0044445Y0174988D01*
X0044238Y0175230D01*
X0044026Y0175467D01*
X0043808Y0175698D01*
X0043585Y0175924D01*
X0043356Y0176145D01*
X0043122Y0176360D01*
X0042883Y0176569D01*
X0042639Y0176773D01*
X0042389Y0176970D01*
X0042136Y0177161D01*
X0041877Y0177346D01*
X0041614Y0177525D01*
X0041347Y0177697D01*
X0041076Y0177862D01*
X0040800Y0178021D01*
X0040521Y0178173D01*
X0040239Y0178319D01*
X0039953Y0178457D01*
X0039663Y0178588D01*
X0039371Y0178713D01*
X0039075Y0178830D01*
X0038777Y0178940D01*
X0038476Y0179042D01*
X0038173Y0179138D01*
X0037868Y0179225D01*
X0037560Y0179306D01*
X0037251Y0179379D01*
X0036940Y0179444D01*
X0036627Y0179502D01*
X0036313Y0179552D01*
X0035998Y0179594D01*
X0035682Y0179629D01*
X0035366Y0179656D01*
X0035048Y0179676D01*
X0034731Y0179687D01*
X0034413Y0179691D01*
X0034413Y0179692D02*
X0022602Y0179692D01*
X0022602Y0249967D01*
X0243075Y0249967D01*
X0243075Y0179692D01*
X0231263Y0179692D01*
X0231263Y0179691D02*
X0230945Y0179687D01*
X0230628Y0179676D01*
X0230310Y0179656D01*
X0229994Y0179629D01*
X0229678Y0179594D01*
X0229363Y0179552D01*
X0229049Y0179502D01*
X0228736Y0179444D01*
X0228425Y0179379D01*
X0228116Y0179306D01*
X0227808Y0179225D01*
X0227503Y0179138D01*
X0227200Y0179042D01*
X0226899Y0178940D01*
X0226601Y0178830D01*
X0226305Y0178713D01*
X0226013Y0178588D01*
X0225723Y0178457D01*
X0225437Y0178319D01*
X0225155Y0178173D01*
X0224876Y0178021D01*
X0224600Y0177862D01*
X0224329Y0177697D01*
X0224062Y0177525D01*
X0223799Y0177346D01*
X0223540Y0177161D01*
X0223287Y0176970D01*
X0223037Y0176773D01*
X0222793Y0176569D01*
X0222554Y0176360D01*
X0222320Y0176145D01*
X0222091Y0175924D01*
X0221868Y0175698D01*
X0221650Y0175467D01*
X0221438Y0175230D01*
X0221231Y0174988D01*
X0221031Y0174742D01*
X0220837Y0174490D01*
X0220649Y0174234D01*
X0220467Y0173973D01*
X0220292Y0173708D01*
X0220123Y0173439D01*
X0219961Y0173166D01*
X0219805Y0172888D01*
X0219656Y0172607D01*
X0219514Y0172323D01*
X0219379Y0172035D01*
X0219252Y0171744D01*
X0219131Y0171450D01*
X0219017Y0171153D01*
X0218911Y0170854D01*
X0218812Y0170552D01*
X0218720Y0170248D01*
X0218636Y0169941D01*
X0218560Y0169633D01*
X0218491Y0169322D01*
X0218429Y0169011D01*
X0218375Y0168697D01*
X0218329Y0168383D01*
X0218290Y0168067D01*
X0218259Y0167751D01*
X0218236Y0167434D01*
X0218221Y0167117D01*
X0218213Y0166799D01*
X0218213Y0166481D01*
X0218221Y0166163D01*
X0218236Y0165846D01*
X0218259Y0165529D01*
X0218290Y0165213D01*
X0218329Y0164897D01*
X0218375Y0164583D01*
X0218429Y0164269D01*
X0218491Y0163958D01*
X0218560Y0163647D01*
X0218636Y0163339D01*
X0218720Y0163032D01*
X0218812Y0162728D01*
X0218911Y0162426D01*
X0219017Y0162127D01*
X0219131Y0161830D01*
X0219252Y0161536D01*
X0219379Y0161245D01*
X0219514Y0160957D01*
X0219656Y0160673D01*
X0219805Y0160392D01*
X0219961Y0160114D01*
X0220123Y0159841D01*
X0220292Y0159572D01*
X0220467Y0159307D01*
X0220649Y0159046D01*
X0220837Y0158790D01*
X0221031Y0158538D01*
X0221231Y0158292D01*
X0221438Y0158050D01*
X0221650Y0157813D01*
X0221868Y0157582D01*
X0222091Y0157356D01*
X0222320Y0157135D01*
X0222554Y0156920D01*
X0222793Y0156711D01*
X0223037Y0156507D01*
X0223287Y0156310D01*
X0223540Y0156119D01*
X0223799Y0155934D01*
X0224062Y0155755D01*
X0224329Y0155583D01*
X0224600Y0155418D01*
X0224876Y0155259D01*
X0225155Y0155107D01*
X0225437Y0154961D01*
X0225723Y0154823D01*
X0226013Y0154692D01*
X0226305Y0154567D01*
X0226601Y0154450D01*
X0226899Y0154340D01*
X0227200Y0154238D01*
X0227503Y0154142D01*
X0227808Y0154055D01*
X0228116Y0153974D01*
X0228425Y0153901D01*
X0228736Y0153836D01*
X0229049Y0153778D01*
X0229363Y0153728D01*
X0229678Y0153686D01*
X0229994Y0153651D01*
X0230310Y0153624D01*
X0230628Y0153604D01*
X0230945Y0153593D01*
X0231263Y0153589D01*
X0243075Y0153589D01*
X0243075Y0025558D01*
X0022602Y0025558D01*
X0071421Y0080046D02*
X0071423Y0080204D01*
X0071429Y0080362D01*
X0071439Y0080520D01*
X0071453Y0080678D01*
X0071471Y0080835D01*
X0071492Y0080992D01*
X0071518Y0081148D01*
X0071548Y0081304D01*
X0071581Y0081459D01*
X0071619Y0081612D01*
X0071660Y0081765D01*
X0071705Y0081917D01*
X0071754Y0082068D01*
X0071807Y0082217D01*
X0071863Y0082365D01*
X0071923Y0082511D01*
X0071987Y0082656D01*
X0072055Y0082799D01*
X0072126Y0082941D01*
X0072200Y0083081D01*
X0072278Y0083218D01*
X0072360Y0083354D01*
X0072444Y0083488D01*
X0072533Y0083619D01*
X0072624Y0083748D01*
X0072719Y0083875D01*
X0072816Y0084000D01*
X0072917Y0084122D01*
X0073021Y0084241D01*
X0073128Y0084358D01*
X0073238Y0084472D01*
X0073351Y0084583D01*
X0073466Y0084692D01*
X0073584Y0084797D01*
X0073705Y0084899D01*
X0073828Y0084999D01*
X0073954Y0085095D01*
X0074082Y0085188D01*
X0074212Y0085278D01*
X0074345Y0085364D01*
X0074480Y0085448D01*
X0074616Y0085527D01*
X0074755Y0085604D01*
X0074896Y0085676D01*
X0075038Y0085746D01*
X0075182Y0085811D01*
X0075328Y0085873D01*
X0075475Y0085931D01*
X0075624Y0085986D01*
X0075774Y0086037D01*
X0075925Y0086084D01*
X0076077Y0086127D01*
X0076230Y0086166D01*
X0076385Y0086202D01*
X0076540Y0086233D01*
X0076696Y0086261D01*
X0076852Y0086285D01*
X0077009Y0086305D01*
X0077167Y0086321D01*
X0077324Y0086333D01*
X0077483Y0086341D01*
X0077641Y0086345D01*
X0077799Y0086345D01*
X0077957Y0086341D01*
X0078116Y0086333D01*
X0078273Y0086321D01*
X0078431Y0086305D01*
X0078588Y0086285D01*
X0078744Y0086261D01*
X0078900Y0086233D01*
X0079055Y0086202D01*
X0079210Y0086166D01*
X0079363Y0086127D01*
X0079515Y0086084D01*
X0079666Y0086037D01*
X0079816Y0085986D01*
X0079965Y0085931D01*
X0080112Y0085873D01*
X0080258Y0085811D01*
X0080402Y0085746D01*
X0080544Y0085676D01*
X0080685Y0085604D01*
X0080824Y0085527D01*
X0080960Y0085448D01*
X0081095Y0085364D01*
X0081228Y0085278D01*
X0081358Y0085188D01*
X0081486Y0085095D01*
X0081612Y0084999D01*
X0081735Y0084899D01*
X0081856Y0084797D01*
X0081974Y0084692D01*
X0082089Y0084583D01*
X0082202Y0084472D01*
X0082312Y0084358D01*
X0082419Y0084241D01*
X0082523Y0084122D01*
X0082624Y0084000D01*
X0082721Y0083875D01*
X0082816Y0083748D01*
X0082907Y0083619D01*
X0082996Y0083488D01*
X0083080Y0083354D01*
X0083162Y0083218D01*
X0083240Y0083081D01*
X0083314Y0082941D01*
X0083385Y0082799D01*
X0083453Y0082656D01*
X0083517Y0082511D01*
X0083577Y0082365D01*
X0083633Y0082217D01*
X0083686Y0082068D01*
X0083735Y0081917D01*
X0083780Y0081765D01*
X0083821Y0081612D01*
X0083859Y0081459D01*
X0083892Y0081304D01*
X0083922Y0081148D01*
X0083948Y0080992D01*
X0083969Y0080835D01*
X0083987Y0080678D01*
X0084001Y0080520D01*
X0084011Y0080362D01*
X0084017Y0080204D01*
X0084019Y0080046D01*
X0084017Y0079888D01*
X0084011Y0079730D01*
X0084001Y0079572D01*
X0083987Y0079414D01*
X0083969Y0079257D01*
X0083948Y0079100D01*
X0083922Y0078944D01*
X0083892Y0078788D01*
X0083859Y0078633D01*
X0083821Y0078480D01*
X0083780Y0078327D01*
X0083735Y0078175D01*
X0083686Y0078024D01*
X0083633Y0077875D01*
X0083577Y0077727D01*
X0083517Y0077581D01*
X0083453Y0077436D01*
X0083385Y0077293D01*
X0083314Y0077151D01*
X0083240Y0077011D01*
X0083162Y0076874D01*
X0083080Y0076738D01*
X0082996Y0076604D01*
X0082907Y0076473D01*
X0082816Y0076344D01*
X0082721Y0076217D01*
X0082624Y0076092D01*
X0082523Y0075970D01*
X0082419Y0075851D01*
X0082312Y0075734D01*
X0082202Y0075620D01*
X0082089Y0075509D01*
X0081974Y0075400D01*
X0081856Y0075295D01*
X0081735Y0075193D01*
X0081612Y0075093D01*
X0081486Y0074997D01*
X0081358Y0074904D01*
X0081228Y0074814D01*
X0081095Y0074728D01*
X0080960Y0074644D01*
X0080824Y0074565D01*
X0080685Y0074488D01*
X0080544Y0074416D01*
X0080402Y0074346D01*
X0080258Y0074281D01*
X0080112Y0074219D01*
X0079965Y0074161D01*
X0079816Y0074106D01*
X0079666Y0074055D01*
X0079515Y0074008D01*
X0079363Y0073965D01*
X0079210Y0073926D01*
X0079055Y0073890D01*
X0078900Y0073859D01*
X0078744Y0073831D01*
X0078588Y0073807D01*
X0078431Y0073787D01*
X0078273Y0073771D01*
X0078116Y0073759D01*
X0077957Y0073751D01*
X0077799Y0073747D01*
X0077641Y0073747D01*
X0077483Y0073751D01*
X0077324Y0073759D01*
X0077167Y0073771D01*
X0077009Y0073787D01*
X0076852Y0073807D01*
X0076696Y0073831D01*
X0076540Y0073859D01*
X0076385Y0073890D01*
X0076230Y0073926D01*
X0076077Y0073965D01*
X0075925Y0074008D01*
X0075774Y0074055D01*
X0075624Y0074106D01*
X0075475Y0074161D01*
X0075328Y0074219D01*
X0075182Y0074281D01*
X0075038Y0074346D01*
X0074896Y0074416D01*
X0074755Y0074488D01*
X0074616Y0074565D01*
X0074480Y0074644D01*
X0074345Y0074728D01*
X0074212Y0074814D01*
X0074082Y0074904D01*
X0073954Y0074997D01*
X0073828Y0075093D01*
X0073705Y0075193D01*
X0073584Y0075295D01*
X0073466Y0075400D01*
X0073351Y0075509D01*
X0073238Y0075620D01*
X0073128Y0075734D01*
X0073021Y0075851D01*
X0072917Y0075970D01*
X0072816Y0076092D01*
X0072719Y0076217D01*
X0072624Y0076344D01*
X0072533Y0076473D01*
X0072444Y0076604D01*
X0072360Y0076738D01*
X0072278Y0076874D01*
X0072200Y0077011D01*
X0072126Y0077151D01*
X0072055Y0077293D01*
X0071987Y0077436D01*
X0071923Y0077581D01*
X0071863Y0077727D01*
X0071807Y0077875D01*
X0071754Y0078024D01*
X0071705Y0078175D01*
X0071660Y0078327D01*
X0071619Y0078480D01*
X0071581Y0078633D01*
X0071548Y0078788D01*
X0071518Y0078944D01*
X0071492Y0079100D01*
X0071471Y0079257D01*
X0071453Y0079414D01*
X0071439Y0079572D01*
X0071429Y0079730D01*
X0071423Y0079888D01*
X0071421Y0080046D01*
X0071421Y0190282D02*
X0071423Y0190440D01*
X0071429Y0190598D01*
X0071439Y0190756D01*
X0071453Y0190914D01*
X0071471Y0191071D01*
X0071492Y0191228D01*
X0071518Y0191384D01*
X0071548Y0191540D01*
X0071581Y0191695D01*
X0071619Y0191848D01*
X0071660Y0192001D01*
X0071705Y0192153D01*
X0071754Y0192304D01*
X0071807Y0192453D01*
X0071863Y0192601D01*
X0071923Y0192747D01*
X0071987Y0192892D01*
X0072055Y0193035D01*
X0072126Y0193177D01*
X0072200Y0193317D01*
X0072278Y0193454D01*
X0072360Y0193590D01*
X0072444Y0193724D01*
X0072533Y0193855D01*
X0072624Y0193984D01*
X0072719Y0194111D01*
X0072816Y0194236D01*
X0072917Y0194358D01*
X0073021Y0194477D01*
X0073128Y0194594D01*
X0073238Y0194708D01*
X0073351Y0194819D01*
X0073466Y0194928D01*
X0073584Y0195033D01*
X0073705Y0195135D01*
X0073828Y0195235D01*
X0073954Y0195331D01*
X0074082Y0195424D01*
X0074212Y0195514D01*
X0074345Y0195600D01*
X0074480Y0195684D01*
X0074616Y0195763D01*
X0074755Y0195840D01*
X0074896Y0195912D01*
X0075038Y0195982D01*
X0075182Y0196047D01*
X0075328Y0196109D01*
X0075475Y0196167D01*
X0075624Y0196222D01*
X0075774Y0196273D01*
X0075925Y0196320D01*
X0076077Y0196363D01*
X0076230Y0196402D01*
X0076385Y0196438D01*
X0076540Y0196469D01*
X0076696Y0196497D01*
X0076852Y0196521D01*
X0077009Y0196541D01*
X0077167Y0196557D01*
X0077324Y0196569D01*
X0077483Y0196577D01*
X0077641Y0196581D01*
X0077799Y0196581D01*
X0077957Y0196577D01*
X0078116Y0196569D01*
X0078273Y0196557D01*
X0078431Y0196541D01*
X0078588Y0196521D01*
X0078744Y0196497D01*
X0078900Y0196469D01*
X0079055Y0196438D01*
X0079210Y0196402D01*
X0079363Y0196363D01*
X0079515Y0196320D01*
X0079666Y0196273D01*
X0079816Y0196222D01*
X0079965Y0196167D01*
X0080112Y0196109D01*
X0080258Y0196047D01*
X0080402Y0195982D01*
X0080544Y0195912D01*
X0080685Y0195840D01*
X0080824Y0195763D01*
X0080960Y0195684D01*
X0081095Y0195600D01*
X0081228Y0195514D01*
X0081358Y0195424D01*
X0081486Y0195331D01*
X0081612Y0195235D01*
X0081735Y0195135D01*
X0081856Y0195033D01*
X0081974Y0194928D01*
X0082089Y0194819D01*
X0082202Y0194708D01*
X0082312Y0194594D01*
X0082419Y0194477D01*
X0082523Y0194358D01*
X0082624Y0194236D01*
X0082721Y0194111D01*
X0082816Y0193984D01*
X0082907Y0193855D01*
X0082996Y0193724D01*
X0083080Y0193590D01*
X0083162Y0193454D01*
X0083240Y0193317D01*
X0083314Y0193177D01*
X0083385Y0193035D01*
X0083453Y0192892D01*
X0083517Y0192747D01*
X0083577Y0192601D01*
X0083633Y0192453D01*
X0083686Y0192304D01*
X0083735Y0192153D01*
X0083780Y0192001D01*
X0083821Y0191848D01*
X0083859Y0191695D01*
X0083892Y0191540D01*
X0083922Y0191384D01*
X0083948Y0191228D01*
X0083969Y0191071D01*
X0083987Y0190914D01*
X0084001Y0190756D01*
X0084011Y0190598D01*
X0084017Y0190440D01*
X0084019Y0190282D01*
X0084017Y0190124D01*
X0084011Y0189966D01*
X0084001Y0189808D01*
X0083987Y0189650D01*
X0083969Y0189493D01*
X0083948Y0189336D01*
X0083922Y0189180D01*
X0083892Y0189024D01*
X0083859Y0188869D01*
X0083821Y0188716D01*
X0083780Y0188563D01*
X0083735Y0188411D01*
X0083686Y0188260D01*
X0083633Y0188111D01*
X0083577Y0187963D01*
X0083517Y0187817D01*
X0083453Y0187672D01*
X0083385Y0187529D01*
X0083314Y0187387D01*
X0083240Y0187247D01*
X0083162Y0187110D01*
X0083080Y0186974D01*
X0082996Y0186840D01*
X0082907Y0186709D01*
X0082816Y0186580D01*
X0082721Y0186453D01*
X0082624Y0186328D01*
X0082523Y0186206D01*
X0082419Y0186087D01*
X0082312Y0185970D01*
X0082202Y0185856D01*
X0082089Y0185745D01*
X0081974Y0185636D01*
X0081856Y0185531D01*
X0081735Y0185429D01*
X0081612Y0185329D01*
X0081486Y0185233D01*
X0081358Y0185140D01*
X0081228Y0185050D01*
X0081095Y0184964D01*
X0080960Y0184880D01*
X0080824Y0184801D01*
X0080685Y0184724D01*
X0080544Y0184652D01*
X0080402Y0184582D01*
X0080258Y0184517D01*
X0080112Y0184455D01*
X0079965Y0184397D01*
X0079816Y0184342D01*
X0079666Y0184291D01*
X0079515Y0184244D01*
X0079363Y0184201D01*
X0079210Y0184162D01*
X0079055Y0184126D01*
X0078900Y0184095D01*
X0078744Y0184067D01*
X0078588Y0184043D01*
X0078431Y0184023D01*
X0078273Y0184007D01*
X0078116Y0183995D01*
X0077957Y0183987D01*
X0077799Y0183983D01*
X0077641Y0183983D01*
X0077483Y0183987D01*
X0077324Y0183995D01*
X0077167Y0184007D01*
X0077009Y0184023D01*
X0076852Y0184043D01*
X0076696Y0184067D01*
X0076540Y0184095D01*
X0076385Y0184126D01*
X0076230Y0184162D01*
X0076077Y0184201D01*
X0075925Y0184244D01*
X0075774Y0184291D01*
X0075624Y0184342D01*
X0075475Y0184397D01*
X0075328Y0184455D01*
X0075182Y0184517D01*
X0075038Y0184582D01*
X0074896Y0184652D01*
X0074755Y0184724D01*
X0074616Y0184801D01*
X0074480Y0184880D01*
X0074345Y0184964D01*
X0074212Y0185050D01*
X0074082Y0185140D01*
X0073954Y0185233D01*
X0073828Y0185329D01*
X0073705Y0185429D01*
X0073584Y0185531D01*
X0073466Y0185636D01*
X0073351Y0185745D01*
X0073238Y0185856D01*
X0073128Y0185970D01*
X0073021Y0186087D01*
X0072917Y0186206D01*
X0072816Y0186328D01*
X0072719Y0186453D01*
X0072624Y0186580D01*
X0072533Y0186709D01*
X0072444Y0186840D01*
X0072360Y0186974D01*
X0072278Y0187110D01*
X0072200Y0187247D01*
X0072126Y0187387D01*
X0072055Y0187529D01*
X0071987Y0187672D01*
X0071923Y0187817D01*
X0071863Y0187963D01*
X0071807Y0188111D01*
X0071754Y0188260D01*
X0071705Y0188411D01*
X0071660Y0188563D01*
X0071619Y0188716D01*
X0071581Y0188869D01*
X0071548Y0189024D01*
X0071518Y0189180D01*
X0071492Y0189336D01*
X0071471Y0189493D01*
X0071453Y0189650D01*
X0071439Y0189808D01*
X0071429Y0189966D01*
X0071423Y0190124D01*
X0071421Y0190282D01*
X0181657Y0190282D02*
X0181659Y0190440D01*
X0181665Y0190598D01*
X0181675Y0190756D01*
X0181689Y0190914D01*
X0181707Y0191071D01*
X0181728Y0191228D01*
X0181754Y0191384D01*
X0181784Y0191540D01*
X0181817Y0191695D01*
X0181855Y0191848D01*
X0181896Y0192001D01*
X0181941Y0192153D01*
X0181990Y0192304D01*
X0182043Y0192453D01*
X0182099Y0192601D01*
X0182159Y0192747D01*
X0182223Y0192892D01*
X0182291Y0193035D01*
X0182362Y0193177D01*
X0182436Y0193317D01*
X0182514Y0193454D01*
X0182596Y0193590D01*
X0182680Y0193724D01*
X0182769Y0193855D01*
X0182860Y0193984D01*
X0182955Y0194111D01*
X0183052Y0194236D01*
X0183153Y0194358D01*
X0183257Y0194477D01*
X0183364Y0194594D01*
X0183474Y0194708D01*
X0183587Y0194819D01*
X0183702Y0194928D01*
X0183820Y0195033D01*
X0183941Y0195135D01*
X0184064Y0195235D01*
X0184190Y0195331D01*
X0184318Y0195424D01*
X0184448Y0195514D01*
X0184581Y0195600D01*
X0184716Y0195684D01*
X0184852Y0195763D01*
X0184991Y0195840D01*
X0185132Y0195912D01*
X0185274Y0195982D01*
X0185418Y0196047D01*
X0185564Y0196109D01*
X0185711Y0196167D01*
X0185860Y0196222D01*
X0186010Y0196273D01*
X0186161Y0196320D01*
X0186313Y0196363D01*
X0186466Y0196402D01*
X0186621Y0196438D01*
X0186776Y0196469D01*
X0186932Y0196497D01*
X0187088Y0196521D01*
X0187245Y0196541D01*
X0187403Y0196557D01*
X0187560Y0196569D01*
X0187719Y0196577D01*
X0187877Y0196581D01*
X0188035Y0196581D01*
X0188193Y0196577D01*
X0188352Y0196569D01*
X0188509Y0196557D01*
X0188667Y0196541D01*
X0188824Y0196521D01*
X0188980Y0196497D01*
X0189136Y0196469D01*
X0189291Y0196438D01*
X0189446Y0196402D01*
X0189599Y0196363D01*
X0189751Y0196320D01*
X0189902Y0196273D01*
X0190052Y0196222D01*
X0190201Y0196167D01*
X0190348Y0196109D01*
X0190494Y0196047D01*
X0190638Y0195982D01*
X0190780Y0195912D01*
X0190921Y0195840D01*
X0191060Y0195763D01*
X0191196Y0195684D01*
X0191331Y0195600D01*
X0191464Y0195514D01*
X0191594Y0195424D01*
X0191722Y0195331D01*
X0191848Y0195235D01*
X0191971Y0195135D01*
X0192092Y0195033D01*
X0192210Y0194928D01*
X0192325Y0194819D01*
X0192438Y0194708D01*
X0192548Y0194594D01*
X0192655Y0194477D01*
X0192759Y0194358D01*
X0192860Y0194236D01*
X0192957Y0194111D01*
X0193052Y0193984D01*
X0193143Y0193855D01*
X0193232Y0193724D01*
X0193316Y0193590D01*
X0193398Y0193454D01*
X0193476Y0193317D01*
X0193550Y0193177D01*
X0193621Y0193035D01*
X0193689Y0192892D01*
X0193753Y0192747D01*
X0193813Y0192601D01*
X0193869Y0192453D01*
X0193922Y0192304D01*
X0193971Y0192153D01*
X0194016Y0192001D01*
X0194057Y0191848D01*
X0194095Y0191695D01*
X0194128Y0191540D01*
X0194158Y0191384D01*
X0194184Y0191228D01*
X0194205Y0191071D01*
X0194223Y0190914D01*
X0194237Y0190756D01*
X0194247Y0190598D01*
X0194253Y0190440D01*
X0194255Y0190282D01*
X0194253Y0190124D01*
X0194247Y0189966D01*
X0194237Y0189808D01*
X0194223Y0189650D01*
X0194205Y0189493D01*
X0194184Y0189336D01*
X0194158Y0189180D01*
X0194128Y0189024D01*
X0194095Y0188869D01*
X0194057Y0188716D01*
X0194016Y0188563D01*
X0193971Y0188411D01*
X0193922Y0188260D01*
X0193869Y0188111D01*
X0193813Y0187963D01*
X0193753Y0187817D01*
X0193689Y0187672D01*
X0193621Y0187529D01*
X0193550Y0187387D01*
X0193476Y0187247D01*
X0193398Y0187110D01*
X0193316Y0186974D01*
X0193232Y0186840D01*
X0193143Y0186709D01*
X0193052Y0186580D01*
X0192957Y0186453D01*
X0192860Y0186328D01*
X0192759Y0186206D01*
X0192655Y0186087D01*
X0192548Y0185970D01*
X0192438Y0185856D01*
X0192325Y0185745D01*
X0192210Y0185636D01*
X0192092Y0185531D01*
X0191971Y0185429D01*
X0191848Y0185329D01*
X0191722Y0185233D01*
X0191594Y0185140D01*
X0191464Y0185050D01*
X0191331Y0184964D01*
X0191196Y0184880D01*
X0191060Y0184801D01*
X0190921Y0184724D01*
X0190780Y0184652D01*
X0190638Y0184582D01*
X0190494Y0184517D01*
X0190348Y0184455D01*
X0190201Y0184397D01*
X0190052Y0184342D01*
X0189902Y0184291D01*
X0189751Y0184244D01*
X0189599Y0184201D01*
X0189446Y0184162D01*
X0189291Y0184126D01*
X0189136Y0184095D01*
X0188980Y0184067D01*
X0188824Y0184043D01*
X0188667Y0184023D01*
X0188509Y0184007D01*
X0188352Y0183995D01*
X0188193Y0183987D01*
X0188035Y0183983D01*
X0187877Y0183983D01*
X0187719Y0183987D01*
X0187560Y0183995D01*
X0187403Y0184007D01*
X0187245Y0184023D01*
X0187088Y0184043D01*
X0186932Y0184067D01*
X0186776Y0184095D01*
X0186621Y0184126D01*
X0186466Y0184162D01*
X0186313Y0184201D01*
X0186161Y0184244D01*
X0186010Y0184291D01*
X0185860Y0184342D01*
X0185711Y0184397D01*
X0185564Y0184455D01*
X0185418Y0184517D01*
X0185274Y0184582D01*
X0185132Y0184652D01*
X0184991Y0184724D01*
X0184852Y0184801D01*
X0184716Y0184880D01*
X0184581Y0184964D01*
X0184448Y0185050D01*
X0184318Y0185140D01*
X0184190Y0185233D01*
X0184064Y0185329D01*
X0183941Y0185429D01*
X0183820Y0185531D01*
X0183702Y0185636D01*
X0183587Y0185745D01*
X0183474Y0185856D01*
X0183364Y0185970D01*
X0183257Y0186087D01*
X0183153Y0186206D01*
X0183052Y0186328D01*
X0182955Y0186453D01*
X0182860Y0186580D01*
X0182769Y0186709D01*
X0182680Y0186840D01*
X0182596Y0186974D01*
X0182514Y0187110D01*
X0182436Y0187247D01*
X0182362Y0187387D01*
X0182291Y0187529D01*
X0182223Y0187672D01*
X0182159Y0187817D01*
X0182099Y0187963D01*
X0182043Y0188111D01*
X0181990Y0188260D01*
X0181941Y0188411D01*
X0181896Y0188563D01*
X0181855Y0188716D01*
X0181817Y0188869D01*
X0181784Y0189024D01*
X0181754Y0189180D01*
X0181728Y0189336D01*
X0181707Y0189493D01*
X0181689Y0189650D01*
X0181675Y0189808D01*
X0181665Y0189966D01*
X0181659Y0190124D01*
X0181657Y0190282D01*
X0181657Y0080046D02*
X0181659Y0080204D01*
X0181665Y0080362D01*
X0181675Y0080520D01*
X0181689Y0080678D01*
X0181707Y0080835D01*
X0181728Y0080992D01*
X0181754Y0081148D01*
X0181784Y0081304D01*
X0181817Y0081459D01*
X0181855Y0081612D01*
X0181896Y0081765D01*
X0181941Y0081917D01*
X0181990Y0082068D01*
X0182043Y0082217D01*
X0182099Y0082365D01*
X0182159Y0082511D01*
X0182223Y0082656D01*
X0182291Y0082799D01*
X0182362Y0082941D01*
X0182436Y0083081D01*
X0182514Y0083218D01*
X0182596Y0083354D01*
X0182680Y0083488D01*
X0182769Y0083619D01*
X0182860Y0083748D01*
X0182955Y0083875D01*
X0183052Y0084000D01*
X0183153Y0084122D01*
X0183257Y0084241D01*
X0183364Y0084358D01*
X0183474Y0084472D01*
X0183587Y0084583D01*
X0183702Y0084692D01*
X0183820Y0084797D01*
X0183941Y0084899D01*
X0184064Y0084999D01*
X0184190Y0085095D01*
X0184318Y0085188D01*
X0184448Y0085278D01*
X0184581Y0085364D01*
X0184716Y0085448D01*
X0184852Y0085527D01*
X0184991Y0085604D01*
X0185132Y0085676D01*
X0185274Y0085746D01*
X0185418Y0085811D01*
X0185564Y0085873D01*
X0185711Y0085931D01*
X0185860Y0085986D01*
X0186010Y0086037D01*
X0186161Y0086084D01*
X0186313Y0086127D01*
X0186466Y0086166D01*
X0186621Y0086202D01*
X0186776Y0086233D01*
X0186932Y0086261D01*
X0187088Y0086285D01*
X0187245Y0086305D01*
X0187403Y0086321D01*
X0187560Y0086333D01*
X0187719Y0086341D01*
X0187877Y0086345D01*
X0188035Y0086345D01*
X0188193Y0086341D01*
X0188352Y0086333D01*
X0188509Y0086321D01*
X0188667Y0086305D01*
X0188824Y0086285D01*
X0188980Y0086261D01*
X0189136Y0086233D01*
X0189291Y0086202D01*
X0189446Y0086166D01*
X0189599Y0086127D01*
X0189751Y0086084D01*
X0189902Y0086037D01*
X0190052Y0085986D01*
X0190201Y0085931D01*
X0190348Y0085873D01*
X0190494Y0085811D01*
X0190638Y0085746D01*
X0190780Y0085676D01*
X0190921Y0085604D01*
X0191060Y0085527D01*
X0191196Y0085448D01*
X0191331Y0085364D01*
X0191464Y0085278D01*
X0191594Y0085188D01*
X0191722Y0085095D01*
X0191848Y0084999D01*
X0191971Y0084899D01*
X0192092Y0084797D01*
X0192210Y0084692D01*
X0192325Y0084583D01*
X0192438Y0084472D01*
X0192548Y0084358D01*
X0192655Y0084241D01*
X0192759Y0084122D01*
X0192860Y0084000D01*
X0192957Y0083875D01*
X0193052Y0083748D01*
X0193143Y0083619D01*
X0193232Y0083488D01*
X0193316Y0083354D01*
X0193398Y0083218D01*
X0193476Y0083081D01*
X0193550Y0082941D01*
X0193621Y0082799D01*
X0193689Y0082656D01*
X0193753Y0082511D01*
X0193813Y0082365D01*
X0193869Y0082217D01*
X0193922Y0082068D01*
X0193971Y0081917D01*
X0194016Y0081765D01*
X0194057Y0081612D01*
X0194095Y0081459D01*
X0194128Y0081304D01*
X0194158Y0081148D01*
X0194184Y0080992D01*
X0194205Y0080835D01*
X0194223Y0080678D01*
X0194237Y0080520D01*
X0194247Y0080362D01*
X0194253Y0080204D01*
X0194255Y0080046D01*
X0194253Y0079888D01*
X0194247Y0079730D01*
X0194237Y0079572D01*
X0194223Y0079414D01*
X0194205Y0079257D01*
X0194184Y0079100D01*
X0194158Y0078944D01*
X0194128Y0078788D01*
X0194095Y0078633D01*
X0194057Y0078480D01*
X0194016Y0078327D01*
X0193971Y0078175D01*
X0193922Y0078024D01*
X0193869Y0077875D01*
X0193813Y0077727D01*
X0193753Y0077581D01*
X0193689Y0077436D01*
X0193621Y0077293D01*
X0193550Y0077151D01*
X0193476Y0077011D01*
X0193398Y0076874D01*
X0193316Y0076738D01*
X0193232Y0076604D01*
X0193143Y0076473D01*
X0193052Y0076344D01*
X0192957Y0076217D01*
X0192860Y0076092D01*
X0192759Y0075970D01*
X0192655Y0075851D01*
X0192548Y0075734D01*
X0192438Y0075620D01*
X0192325Y0075509D01*
X0192210Y0075400D01*
X0192092Y0075295D01*
X0191971Y0075193D01*
X0191848Y0075093D01*
X0191722Y0074997D01*
X0191594Y0074904D01*
X0191464Y0074814D01*
X0191331Y0074728D01*
X0191196Y0074644D01*
X0191060Y0074565D01*
X0190921Y0074488D01*
X0190780Y0074416D01*
X0190638Y0074346D01*
X0190494Y0074281D01*
X0190348Y0074219D01*
X0190201Y0074161D01*
X0190052Y0074106D01*
X0189902Y0074055D01*
X0189751Y0074008D01*
X0189599Y0073965D01*
X0189446Y0073926D01*
X0189291Y0073890D01*
X0189136Y0073859D01*
X0188980Y0073831D01*
X0188824Y0073807D01*
X0188667Y0073787D01*
X0188509Y0073771D01*
X0188352Y0073759D01*
X0188193Y0073751D01*
X0188035Y0073747D01*
X0187877Y0073747D01*
X0187719Y0073751D01*
X0187560Y0073759D01*
X0187403Y0073771D01*
X0187245Y0073787D01*
X0187088Y0073807D01*
X0186932Y0073831D01*
X0186776Y0073859D01*
X0186621Y0073890D01*
X0186466Y0073926D01*
X0186313Y0073965D01*
X0186161Y0074008D01*
X0186010Y0074055D01*
X0185860Y0074106D01*
X0185711Y0074161D01*
X0185564Y0074219D01*
X0185418Y0074281D01*
X0185274Y0074346D01*
X0185132Y0074416D01*
X0184991Y0074488D01*
X0184852Y0074565D01*
X0184716Y0074644D01*
X0184581Y0074728D01*
X0184448Y0074814D01*
X0184318Y0074904D01*
X0184190Y0074997D01*
X0184064Y0075093D01*
X0183941Y0075193D01*
X0183820Y0075295D01*
X0183702Y0075400D01*
X0183587Y0075509D01*
X0183474Y0075620D01*
X0183364Y0075734D01*
X0183257Y0075851D01*
X0183153Y0075970D01*
X0183052Y0076092D01*
X0182955Y0076217D01*
X0182860Y0076344D01*
X0182769Y0076473D01*
X0182680Y0076604D01*
X0182596Y0076738D01*
X0182514Y0076874D01*
X0182436Y0077011D01*
X0182362Y0077151D01*
X0182291Y0077293D01*
X0182223Y0077436D01*
X0182159Y0077581D01*
X0182099Y0077727D01*
X0182043Y0077875D01*
X0181990Y0078024D01*
X0181941Y0078175D01*
X0181896Y0078327D01*
X0181855Y0078480D01*
X0181817Y0078633D01*
X0181784Y0078788D01*
X0181754Y0078944D01*
X0181728Y0079100D01*
X0181707Y0079257D01*
X0181689Y0079414D01*
X0181675Y0079572D01*
X0181665Y0079730D01*
X0181659Y0079888D01*
X0181657Y0080046D01*
D11*
X0162454Y0200953D02*
X0162454Y0203163D01*
X0169978Y0203163D01*
X0169978Y0200953D01*
X0162454Y0200953D01*
X0162454Y0201899D02*
X0169978Y0201899D01*
X0169978Y0202845D02*
X0162454Y0202845D01*
X0162454Y0205953D02*
X0162454Y0208163D01*
X0169978Y0208163D01*
X0169978Y0205953D01*
X0162454Y0205953D01*
X0162454Y0206899D02*
X0169978Y0206899D01*
X0169978Y0207845D02*
X0162454Y0207845D01*
X0162454Y0210953D02*
X0162454Y0213163D01*
X0169978Y0213163D01*
X0169978Y0210953D01*
X0162454Y0210953D01*
X0162454Y0211899D02*
X0169978Y0211899D01*
X0169978Y0212845D02*
X0162454Y0212845D01*
X0162454Y0215953D02*
X0162454Y0218163D01*
X0169978Y0218163D01*
X0169978Y0215953D01*
X0162454Y0215953D01*
X0162454Y0216899D02*
X0169978Y0216899D01*
X0169978Y0217845D02*
X0162454Y0217845D01*
X0162454Y0220953D02*
X0162454Y0223163D01*
X0169978Y0223163D01*
X0169978Y0220953D01*
X0162454Y0220953D01*
X0162454Y0221899D02*
X0169978Y0221899D01*
X0169978Y0222845D02*
X0162454Y0222845D01*
X0162454Y0225953D02*
X0162454Y0228163D01*
X0169978Y0228163D01*
X0169978Y0225953D01*
X0162454Y0225953D01*
X0162454Y0226899D02*
X0169978Y0226899D01*
X0169978Y0227845D02*
X0162454Y0227845D01*
X0162454Y0230953D02*
X0162454Y0233163D01*
X0169978Y0233163D01*
X0169978Y0230953D01*
X0162454Y0230953D01*
X0162454Y0231899D02*
X0169978Y0231899D01*
X0169978Y0232845D02*
X0162454Y0232845D01*
X0162454Y0235953D02*
X0162454Y0238163D01*
X0169978Y0238163D01*
X0169978Y0235953D01*
X0162454Y0235953D01*
X0162454Y0236899D02*
X0169978Y0236899D01*
X0169978Y0237845D02*
X0162454Y0237845D01*
X0139226Y0238163D02*
X0139226Y0235953D01*
X0139226Y0238163D02*
X0146750Y0238163D01*
X0146750Y0235953D01*
X0139226Y0235953D01*
X0139226Y0236899D02*
X0146750Y0236899D01*
X0146750Y0237845D02*
X0139226Y0237845D01*
X0139226Y0233163D02*
X0139226Y0230953D01*
X0139226Y0233163D02*
X0146750Y0233163D01*
X0146750Y0230953D01*
X0139226Y0230953D01*
X0139226Y0231899D02*
X0146750Y0231899D01*
X0146750Y0232845D02*
X0139226Y0232845D01*
X0139226Y0228163D02*
X0139226Y0225953D01*
X0139226Y0228163D02*
X0146750Y0228163D01*
X0146750Y0225953D01*
X0139226Y0225953D01*
X0139226Y0226899D02*
X0146750Y0226899D01*
X0146750Y0227845D02*
X0139226Y0227845D01*
X0139226Y0223163D02*
X0139226Y0220953D01*
X0139226Y0223163D02*
X0146750Y0223163D01*
X0146750Y0220953D01*
X0139226Y0220953D01*
X0139226Y0221899D02*
X0146750Y0221899D01*
X0146750Y0222845D02*
X0139226Y0222845D01*
X0139226Y0218163D02*
X0139226Y0215953D01*
X0139226Y0218163D02*
X0146750Y0218163D01*
X0146750Y0215953D01*
X0139226Y0215953D01*
X0139226Y0216899D02*
X0146750Y0216899D01*
X0146750Y0217845D02*
X0139226Y0217845D01*
X0139226Y0213163D02*
X0139226Y0210953D01*
X0139226Y0213163D02*
X0146750Y0213163D01*
X0146750Y0210953D01*
X0139226Y0210953D01*
X0139226Y0211899D02*
X0146750Y0211899D01*
X0146750Y0212845D02*
X0139226Y0212845D01*
X0139226Y0208163D02*
X0139226Y0205953D01*
X0139226Y0208163D02*
X0146750Y0208163D01*
X0146750Y0205953D01*
X0139226Y0205953D01*
X0139226Y0206899D02*
X0146750Y0206899D01*
X0146750Y0207845D02*
X0139226Y0207845D01*
X0139226Y0203163D02*
X0139226Y0200953D01*
X0139226Y0203163D02*
X0146750Y0203163D01*
X0146750Y0200953D01*
X0139226Y0200953D01*
X0139226Y0201899D02*
X0146750Y0201899D01*
X0146750Y0202845D02*
X0139226Y0202845D01*
D12*
X0170252Y0143608D02*
X0170252Y0141508D01*
X0162752Y0141508D01*
X0162752Y0143608D01*
X0170252Y0143608D01*
X0170252Y0142407D02*
X0162752Y0142407D01*
X0162752Y0143306D02*
X0170252Y0143306D01*
X0170252Y0138608D02*
X0170252Y0136508D01*
X0162752Y0136508D01*
X0162752Y0138608D01*
X0170252Y0138608D01*
X0170252Y0137407D02*
X0162752Y0137407D01*
X0162752Y0138306D02*
X0170252Y0138306D01*
X0170252Y0133608D02*
X0170252Y0131508D01*
X0162752Y0131508D01*
X0162752Y0133608D01*
X0170252Y0133608D01*
X0170252Y0132407D02*
X0162752Y0132407D01*
X0162752Y0133306D02*
X0170252Y0133306D01*
X0170252Y0128608D02*
X0170252Y0126508D01*
X0162752Y0126508D01*
X0162752Y0128608D01*
X0170252Y0128608D01*
X0170252Y0127407D02*
X0162752Y0127407D01*
X0162752Y0128306D02*
X0170252Y0128306D01*
X0170252Y0123608D02*
X0170252Y0121508D01*
X0162752Y0121508D01*
X0162752Y0123608D01*
X0170252Y0123608D01*
X0170252Y0122407D02*
X0162752Y0122407D01*
X0162752Y0123306D02*
X0170252Y0123306D01*
X0170252Y0118608D02*
X0170252Y0116508D01*
X0162752Y0116508D01*
X0162752Y0118608D01*
X0170252Y0118608D01*
X0170252Y0117407D02*
X0162752Y0117407D01*
X0162752Y0118306D02*
X0170252Y0118306D01*
X0170252Y0113608D02*
X0170252Y0111508D01*
X0162752Y0111508D01*
X0162752Y0113608D01*
X0170252Y0113608D01*
X0170252Y0112407D02*
X0162752Y0112407D01*
X0162752Y0113306D02*
X0170252Y0113306D01*
X0170252Y0108608D02*
X0170252Y0106508D01*
X0162752Y0106508D01*
X0162752Y0108608D01*
X0170252Y0108608D01*
X0170252Y0107407D02*
X0162752Y0107407D01*
X0162752Y0108306D02*
X0170252Y0108306D01*
X0194452Y0108608D02*
X0194452Y0106508D01*
X0186952Y0106508D01*
X0186952Y0108608D01*
X0194452Y0108608D01*
X0194452Y0107407D02*
X0186952Y0107407D01*
X0186952Y0108306D02*
X0194452Y0108306D01*
X0194452Y0111508D02*
X0194452Y0113608D01*
X0194452Y0111508D02*
X0186952Y0111508D01*
X0186952Y0113608D01*
X0194452Y0113608D01*
X0194452Y0112407D02*
X0186952Y0112407D01*
X0186952Y0113306D02*
X0194452Y0113306D01*
X0194452Y0116508D02*
X0194452Y0118608D01*
X0194452Y0116508D02*
X0186952Y0116508D01*
X0186952Y0118608D01*
X0194452Y0118608D01*
X0194452Y0117407D02*
X0186952Y0117407D01*
X0186952Y0118306D02*
X0194452Y0118306D01*
X0194452Y0121508D02*
X0194452Y0123608D01*
X0194452Y0121508D02*
X0186952Y0121508D01*
X0186952Y0123608D01*
X0194452Y0123608D01*
X0194452Y0122407D02*
X0186952Y0122407D01*
X0186952Y0123306D02*
X0194452Y0123306D01*
X0194452Y0126508D02*
X0194452Y0128608D01*
X0194452Y0126508D02*
X0186952Y0126508D01*
X0186952Y0128608D01*
X0194452Y0128608D01*
X0194452Y0127407D02*
X0186952Y0127407D01*
X0186952Y0128306D02*
X0194452Y0128306D01*
X0194452Y0131508D02*
X0194452Y0133608D01*
X0194452Y0131508D02*
X0186952Y0131508D01*
X0186952Y0133608D01*
X0194452Y0133608D01*
X0194452Y0132407D02*
X0186952Y0132407D01*
X0186952Y0133306D02*
X0194452Y0133306D01*
X0194452Y0136508D02*
X0194452Y0138608D01*
X0194452Y0136508D02*
X0186952Y0136508D01*
X0186952Y0138608D01*
X0194452Y0138608D01*
X0194452Y0137407D02*
X0186952Y0137407D01*
X0186952Y0138306D02*
X0194452Y0138306D01*
X0194452Y0141508D02*
X0194452Y0143608D01*
X0194452Y0141508D02*
X0186952Y0141508D01*
X0186952Y0143608D01*
X0194452Y0143608D01*
X0194452Y0142407D02*
X0186952Y0142407D01*
X0186952Y0143306D02*
X0194452Y0143306D01*
D13*
X0204928Y0142866D02*
X0204928Y0146730D01*
X0204928Y0142866D02*
X0200276Y0142866D01*
X0200276Y0146730D01*
X0204928Y0146730D01*
X0204928Y0144520D02*
X0200276Y0144520D01*
X0200276Y0146174D02*
X0204928Y0146174D01*
X0204928Y0139250D02*
X0204928Y0135386D01*
X0200276Y0135386D01*
X0200276Y0139250D01*
X0204928Y0139250D01*
X0204928Y0137040D02*
X0200276Y0137040D01*
X0200276Y0138694D02*
X0204928Y0138694D01*
X0215776Y0138866D02*
X0215776Y0142730D01*
X0220428Y0142730D01*
X0220428Y0138866D01*
X0215776Y0138866D01*
X0215776Y0140520D02*
X0220428Y0140520D01*
X0220428Y0142174D02*
X0215776Y0142174D01*
X0215776Y0135250D02*
X0215776Y0131386D01*
X0215776Y0135250D02*
X0220428Y0135250D01*
X0220428Y0131386D01*
X0215776Y0131386D01*
X0215776Y0133040D02*
X0220428Y0133040D01*
X0220428Y0134694D02*
X0215776Y0134694D01*
X0216410Y0126884D02*
X0220274Y0126884D01*
X0220274Y0122232D01*
X0216410Y0122232D01*
X0216410Y0126884D01*
X0216410Y0123886D02*
X0220274Y0123886D01*
X0220274Y0125540D02*
X0216410Y0125540D01*
X0212794Y0126884D02*
X0208930Y0126884D01*
X0212794Y0126884D02*
X0212794Y0122232D01*
X0208930Y0122232D01*
X0208930Y0126884D01*
X0208930Y0123886D02*
X0212794Y0123886D01*
X0212794Y0125540D02*
X0208930Y0125540D01*
X0225930Y0118232D02*
X0229794Y0118232D01*
X0225930Y0118232D02*
X0225930Y0122884D01*
X0229794Y0122884D01*
X0229794Y0118232D01*
X0229794Y0119886D02*
X0225930Y0119886D01*
X0225930Y0121540D02*
X0229794Y0121540D01*
X0233410Y0118232D02*
X0237274Y0118232D01*
X0233410Y0118232D02*
X0233410Y0122884D01*
X0237274Y0122884D01*
X0237274Y0118232D01*
X0237274Y0119886D02*
X0233410Y0119886D01*
X0233410Y0121540D02*
X0237274Y0121540D01*
X0231774Y0088732D02*
X0227910Y0088732D01*
X0227910Y0093384D01*
X0231774Y0093384D01*
X0231774Y0088732D01*
X0231774Y0090386D02*
X0227910Y0090386D01*
X0227910Y0092040D02*
X0231774Y0092040D01*
X0224294Y0088732D02*
X0220430Y0088732D01*
X0220430Y0093384D01*
X0224294Y0093384D01*
X0224294Y0088732D01*
X0224294Y0090386D02*
X0220430Y0090386D01*
X0220430Y0092040D02*
X0224294Y0092040D01*
X0165274Y0155384D02*
X0161410Y0155384D01*
X0165274Y0155384D02*
X0165274Y0150732D01*
X0161410Y0150732D01*
X0161410Y0155384D01*
X0161410Y0152386D02*
X0165274Y0152386D01*
X0165274Y0154040D02*
X0161410Y0154040D01*
X0157794Y0155384D02*
X0153930Y0155384D01*
X0157794Y0155384D02*
X0157794Y0150732D01*
X0153930Y0150732D01*
X0153930Y0155384D01*
X0153930Y0152386D02*
X0157794Y0152386D01*
X0157794Y0154040D02*
X0153930Y0154040D01*
X0147774Y0150732D02*
X0143910Y0150732D01*
X0143910Y0155384D01*
X0147774Y0155384D01*
X0147774Y0150732D01*
X0147774Y0152386D02*
X0143910Y0152386D01*
X0143910Y0154040D02*
X0147774Y0154040D01*
X0140294Y0150732D02*
X0136430Y0150732D01*
X0136430Y0155384D01*
X0140294Y0155384D01*
X0140294Y0150732D01*
X0140294Y0152386D02*
X0136430Y0152386D01*
X0136430Y0154040D02*
X0140294Y0154040D01*
X0139930Y0187232D02*
X0143794Y0187232D01*
X0139930Y0187232D02*
X0139930Y0191884D01*
X0143794Y0191884D01*
X0143794Y0187232D01*
X0143794Y0188886D02*
X0139930Y0188886D01*
X0139930Y0190540D02*
X0143794Y0190540D01*
X0147410Y0187232D02*
X0151274Y0187232D01*
X0147410Y0187232D02*
X0147410Y0191884D01*
X0151274Y0191884D01*
X0151274Y0187232D01*
X0151274Y0188886D02*
X0147410Y0188886D01*
X0147410Y0190540D02*
X0151274Y0190540D01*
X0134928Y0214386D02*
X0134928Y0218250D01*
X0134928Y0214386D02*
X0130276Y0214386D01*
X0130276Y0218250D01*
X0134928Y0218250D01*
X0134928Y0216040D02*
X0130276Y0216040D01*
X0130276Y0217694D02*
X0134928Y0217694D01*
X0134928Y0221866D02*
X0134928Y0225730D01*
X0134928Y0221866D02*
X0130276Y0221866D01*
X0130276Y0225730D01*
X0134928Y0225730D01*
X0134928Y0223520D02*
X0130276Y0223520D01*
X0130276Y0225174D02*
X0134928Y0225174D01*
X0091776Y0225386D02*
X0091776Y0229250D01*
X0096428Y0229250D01*
X0096428Y0225386D01*
X0091776Y0225386D01*
X0091776Y0227040D02*
X0096428Y0227040D01*
X0096428Y0228694D02*
X0091776Y0228694D01*
X0091776Y0232866D02*
X0091776Y0236730D01*
X0096428Y0236730D01*
X0096428Y0232866D01*
X0091776Y0232866D01*
X0091776Y0234520D02*
X0096428Y0234520D01*
X0096428Y0236174D02*
X0091776Y0236174D01*
X0092410Y0212232D02*
X0096274Y0212232D01*
X0092410Y0212232D02*
X0092410Y0216884D01*
X0096274Y0216884D01*
X0096274Y0212232D01*
X0096274Y0213886D02*
X0092410Y0213886D01*
X0092410Y0215540D02*
X0096274Y0215540D01*
X0088794Y0212232D02*
X0084930Y0212232D01*
X0084930Y0216884D01*
X0088794Y0216884D01*
X0088794Y0212232D01*
X0088794Y0213886D02*
X0084930Y0213886D01*
X0084930Y0215540D02*
X0088794Y0215540D01*
X0046274Y0143884D02*
X0042410Y0143884D01*
X0046274Y0143884D02*
X0046274Y0139232D01*
X0042410Y0139232D01*
X0042410Y0143884D01*
X0042410Y0140886D02*
X0046274Y0140886D01*
X0046274Y0142540D02*
X0042410Y0142540D01*
X0038794Y0143884D02*
X0034930Y0143884D01*
X0038794Y0143884D02*
X0038794Y0139232D01*
X0034930Y0139232D01*
X0034930Y0143884D01*
X0034930Y0140886D02*
X0038794Y0140886D01*
X0038794Y0142540D02*
X0034930Y0142540D01*
X0136928Y0117730D02*
X0136928Y0113866D01*
X0132276Y0113866D01*
X0132276Y0117730D01*
X0136928Y0117730D01*
X0136928Y0115520D02*
X0132276Y0115520D01*
X0132276Y0117174D02*
X0136928Y0117174D01*
X0146928Y0117730D02*
X0146928Y0113866D01*
X0142276Y0113866D01*
X0142276Y0117730D01*
X0146928Y0117730D01*
X0146928Y0115520D02*
X0142276Y0115520D01*
X0142276Y0117174D02*
X0146928Y0117174D01*
X0156928Y0117730D02*
X0156928Y0113866D01*
X0152276Y0113866D01*
X0152276Y0117730D01*
X0156928Y0117730D01*
X0156928Y0115520D02*
X0152276Y0115520D01*
X0152276Y0117174D02*
X0156928Y0117174D01*
X0156928Y0110250D02*
X0156928Y0106386D01*
X0152276Y0106386D01*
X0152276Y0110250D01*
X0156928Y0110250D01*
X0156928Y0108040D02*
X0152276Y0108040D01*
X0152276Y0109694D02*
X0156928Y0109694D01*
X0146928Y0110250D02*
X0146928Y0106386D01*
X0142276Y0106386D01*
X0142276Y0110250D01*
X0146928Y0110250D01*
X0146928Y0108040D02*
X0142276Y0108040D01*
X0142276Y0109694D02*
X0146928Y0109694D01*
X0136928Y0110250D02*
X0136928Y0106386D01*
X0132276Y0106386D01*
X0132276Y0110250D01*
X0136928Y0110250D01*
X0136928Y0108040D02*
X0132276Y0108040D01*
X0132276Y0109694D02*
X0136928Y0109694D01*
X0176430Y0235232D02*
X0180294Y0235232D01*
X0176430Y0235232D02*
X0176430Y0239884D01*
X0180294Y0239884D01*
X0180294Y0235232D01*
X0180294Y0236886D02*
X0176430Y0236886D01*
X0176430Y0238540D02*
X0180294Y0238540D01*
X0183910Y0235232D02*
X0187774Y0235232D01*
X0183910Y0235232D02*
X0183910Y0239884D01*
X0187774Y0239884D01*
X0187774Y0235232D01*
X0187774Y0236886D02*
X0183910Y0236886D01*
X0183910Y0238540D02*
X0187774Y0238540D01*
D14*
X0210344Y0205694D02*
X0213380Y0205694D01*
X0213380Y0201082D01*
X0210344Y0201082D01*
X0210344Y0205694D01*
X0210344Y0202382D02*
X0213380Y0202382D01*
X0213380Y0203682D02*
X0210344Y0203682D01*
X0210344Y0204982D02*
X0213380Y0204982D01*
X0217824Y0205694D02*
X0220860Y0205694D01*
X0220860Y0201082D01*
X0217824Y0201082D01*
X0217824Y0205694D01*
X0217824Y0202382D02*
X0220860Y0202382D01*
X0220860Y0203682D02*
X0217824Y0203682D01*
X0217824Y0204982D02*
X0220860Y0204982D01*
X0217120Y0197033D02*
X0214084Y0197033D01*
X0217120Y0197033D02*
X0217120Y0192421D01*
X0214084Y0192421D01*
X0214084Y0197033D01*
X0214084Y0193721D02*
X0217120Y0193721D01*
X0217120Y0195021D02*
X0214084Y0195021D01*
X0214084Y0196321D02*
X0217120Y0196321D01*
X0207860Y0165694D02*
X0204824Y0165694D01*
X0207860Y0165694D02*
X0207860Y0161082D01*
X0204824Y0161082D01*
X0204824Y0165694D01*
X0204824Y0162382D02*
X0207860Y0162382D01*
X0207860Y0163682D02*
X0204824Y0163682D01*
X0204824Y0164982D02*
X0207860Y0164982D01*
X0200380Y0165694D02*
X0197344Y0165694D01*
X0200380Y0165694D02*
X0200380Y0161082D01*
X0197344Y0161082D01*
X0197344Y0165694D01*
X0197344Y0162382D02*
X0200380Y0162382D01*
X0200380Y0163682D02*
X0197344Y0163682D01*
X0197344Y0164982D02*
X0200380Y0164982D01*
X0201084Y0157033D02*
X0204120Y0157033D01*
X0204120Y0152421D01*
X0201084Y0152421D01*
X0201084Y0157033D01*
X0201084Y0153721D02*
X0204120Y0153721D01*
X0204120Y0155021D02*
X0201084Y0155021D01*
X0201084Y0156321D02*
X0204120Y0156321D01*
X0183127Y0160540D02*
X0183127Y0163576D01*
X0187739Y0163576D01*
X0187739Y0160540D01*
X0183127Y0160540D01*
X0183127Y0161840D02*
X0187739Y0161840D01*
X0187739Y0163140D02*
X0183127Y0163140D01*
X0174465Y0164280D02*
X0174465Y0167316D01*
X0179077Y0167316D01*
X0179077Y0164280D01*
X0174465Y0164280D01*
X0174465Y0165580D02*
X0179077Y0165580D01*
X0179077Y0166880D02*
X0174465Y0166880D01*
X0174465Y0159836D02*
X0174465Y0156800D01*
X0174465Y0159836D02*
X0179077Y0159836D01*
X0179077Y0156800D01*
X0174465Y0156800D01*
X0174465Y0158100D02*
X0179077Y0158100D01*
X0179077Y0159400D02*
X0174465Y0159400D01*
X0205465Y0106316D02*
X0205465Y0103280D01*
X0205465Y0106316D02*
X0210077Y0106316D01*
X0210077Y0103280D01*
X0205465Y0103280D01*
X0205465Y0104580D02*
X0210077Y0104580D01*
X0210077Y0105880D02*
X0205465Y0105880D01*
X0205465Y0098836D02*
X0205465Y0095800D01*
X0205465Y0098836D02*
X0210077Y0098836D01*
X0210077Y0095800D01*
X0205465Y0095800D01*
X0205465Y0097100D02*
X0210077Y0097100D01*
X0210077Y0098400D02*
X0205465Y0098400D01*
X0214127Y0099540D02*
X0214127Y0102576D01*
X0218739Y0102576D01*
X0218739Y0099540D01*
X0214127Y0099540D01*
X0214127Y0100840D02*
X0218739Y0100840D01*
X0218739Y0102140D02*
X0214127Y0102140D01*
X0221344Y0076694D02*
X0224380Y0076694D01*
X0224380Y0072082D01*
X0221344Y0072082D01*
X0221344Y0076694D01*
X0221344Y0073382D02*
X0224380Y0073382D01*
X0224380Y0074682D02*
X0221344Y0074682D01*
X0221344Y0075982D02*
X0224380Y0075982D01*
X0228824Y0076694D02*
X0231860Y0076694D01*
X0231860Y0072082D01*
X0228824Y0072082D01*
X0228824Y0076694D01*
X0228824Y0073382D02*
X0231860Y0073382D01*
X0231860Y0074682D02*
X0228824Y0074682D01*
X0228824Y0075982D02*
X0231860Y0075982D01*
X0228120Y0068033D02*
X0225084Y0068033D01*
X0228120Y0068033D02*
X0228120Y0063421D01*
X0225084Y0063421D01*
X0225084Y0068033D01*
X0225084Y0064721D02*
X0228120Y0064721D01*
X0228120Y0066021D02*
X0225084Y0066021D01*
X0225084Y0067321D02*
X0228120Y0067321D01*
X0228380Y0050694D02*
X0225344Y0050694D01*
X0228380Y0050694D02*
X0228380Y0046082D01*
X0225344Y0046082D01*
X0225344Y0050694D01*
X0225344Y0047382D02*
X0228380Y0047382D01*
X0228380Y0048682D02*
X0225344Y0048682D01*
X0225344Y0049982D02*
X0228380Y0049982D01*
X0232824Y0050694D02*
X0235860Y0050694D01*
X0235860Y0046082D01*
X0232824Y0046082D01*
X0232824Y0050694D01*
X0232824Y0047382D02*
X0235860Y0047382D01*
X0235860Y0048682D02*
X0232824Y0048682D01*
X0232824Y0049982D02*
X0235860Y0049982D01*
X0232120Y0042033D02*
X0229084Y0042033D01*
X0232120Y0042033D02*
X0232120Y0037421D01*
X0229084Y0037421D01*
X0229084Y0042033D01*
X0229084Y0038721D02*
X0232120Y0038721D01*
X0232120Y0040021D02*
X0229084Y0040021D01*
X0229084Y0041321D02*
X0232120Y0041321D01*
X0168860Y0090194D02*
X0165824Y0090194D01*
X0168860Y0090194D02*
X0168860Y0085582D01*
X0165824Y0085582D01*
X0165824Y0090194D01*
X0165824Y0086882D02*
X0168860Y0086882D01*
X0168860Y0088182D02*
X0165824Y0088182D01*
X0165824Y0089482D02*
X0168860Y0089482D01*
X0161380Y0090194D02*
X0158344Y0090194D01*
X0161380Y0090194D02*
X0161380Y0085582D01*
X0158344Y0085582D01*
X0158344Y0090194D01*
X0158344Y0086882D02*
X0161380Y0086882D01*
X0161380Y0088182D02*
X0158344Y0088182D01*
X0158344Y0089482D02*
X0161380Y0089482D01*
X0162084Y0081533D02*
X0165120Y0081533D01*
X0165120Y0076921D01*
X0162084Y0076921D01*
X0162084Y0081533D01*
X0162084Y0078221D02*
X0165120Y0078221D01*
X0165120Y0079521D02*
X0162084Y0079521D01*
X0162084Y0080821D02*
X0165120Y0080821D01*
X0143860Y0090194D02*
X0140824Y0090194D01*
X0143860Y0090194D02*
X0143860Y0085582D01*
X0140824Y0085582D01*
X0140824Y0090194D01*
X0140824Y0086882D02*
X0143860Y0086882D01*
X0143860Y0088182D02*
X0140824Y0088182D01*
X0140824Y0089482D02*
X0143860Y0089482D01*
X0136380Y0090194D02*
X0133344Y0090194D01*
X0136380Y0090194D02*
X0136380Y0085582D01*
X0133344Y0085582D01*
X0133344Y0090194D01*
X0133344Y0086882D02*
X0136380Y0086882D01*
X0136380Y0088182D02*
X0133344Y0088182D01*
X0133344Y0089482D02*
X0136380Y0089482D01*
X0137084Y0081533D02*
X0140120Y0081533D01*
X0140120Y0076921D01*
X0137084Y0076921D01*
X0137084Y0081533D01*
X0137084Y0078221D02*
X0140120Y0078221D01*
X0140120Y0079521D02*
X0137084Y0079521D01*
X0137084Y0080821D02*
X0140120Y0080821D01*
X0118860Y0090194D02*
X0115824Y0090194D01*
X0118860Y0090194D02*
X0118860Y0085582D01*
X0115824Y0085582D01*
X0115824Y0090194D01*
X0115824Y0086882D02*
X0118860Y0086882D01*
X0118860Y0088182D02*
X0115824Y0088182D01*
X0115824Y0089482D02*
X0118860Y0089482D01*
X0111380Y0090194D02*
X0108344Y0090194D01*
X0111380Y0090194D02*
X0111380Y0085582D01*
X0108344Y0085582D01*
X0108344Y0090194D01*
X0108344Y0086882D02*
X0111380Y0086882D01*
X0111380Y0088182D02*
X0108344Y0088182D01*
X0108344Y0089482D02*
X0111380Y0089482D01*
X0112084Y0081533D02*
X0115120Y0081533D01*
X0115120Y0076921D01*
X0112084Y0076921D01*
X0112084Y0081533D01*
X0112084Y0078221D02*
X0115120Y0078221D01*
X0115120Y0079521D02*
X0112084Y0079521D01*
X0112084Y0080821D02*
X0115120Y0080821D01*
X0088270Y0139055D02*
X0088270Y0144061D01*
X0088270Y0139055D02*
X0085234Y0139055D01*
X0085234Y0144061D01*
X0088270Y0144061D01*
X0088270Y0140355D02*
X0085234Y0140355D01*
X0085234Y0141655D02*
X0088270Y0141655D01*
X0088270Y0142955D02*
X0085234Y0142955D01*
X0081970Y0144061D02*
X0081970Y0139055D01*
X0078934Y0139055D01*
X0078934Y0144061D01*
X0081970Y0144061D01*
X0081970Y0140355D02*
X0078934Y0140355D01*
X0078934Y0141655D02*
X0081970Y0141655D01*
X0081970Y0142955D02*
X0078934Y0142955D01*
X0062270Y0144061D02*
X0062270Y0139055D01*
X0059234Y0139055D01*
X0059234Y0144061D01*
X0062270Y0144061D01*
X0062270Y0140355D02*
X0059234Y0140355D01*
X0059234Y0141655D02*
X0062270Y0141655D01*
X0062270Y0142955D02*
X0059234Y0142955D01*
X0055970Y0144061D02*
X0055970Y0139055D01*
X0052934Y0139055D01*
X0052934Y0144061D01*
X0055970Y0144061D01*
X0055970Y0140355D02*
X0052934Y0140355D01*
X0052934Y0141655D02*
X0055970Y0141655D01*
X0055970Y0142955D02*
X0052934Y0142955D01*
X0052934Y0164055D02*
X0052934Y0169061D01*
X0055970Y0169061D01*
X0055970Y0164055D01*
X0052934Y0164055D01*
X0052934Y0165355D02*
X0055970Y0165355D01*
X0055970Y0166655D02*
X0052934Y0166655D01*
X0052934Y0167955D02*
X0055970Y0167955D01*
X0059234Y0169061D02*
X0059234Y0164055D01*
X0059234Y0169061D02*
X0062270Y0169061D01*
X0062270Y0164055D01*
X0059234Y0164055D01*
X0059234Y0165355D02*
X0062270Y0165355D01*
X0062270Y0166655D02*
X0059234Y0166655D01*
X0059234Y0167955D02*
X0062270Y0167955D01*
X0078934Y0169061D02*
X0078934Y0164055D01*
X0078934Y0169061D02*
X0081970Y0169061D01*
X0081970Y0164055D01*
X0078934Y0164055D01*
X0078934Y0165355D02*
X0081970Y0165355D01*
X0081970Y0166655D02*
X0078934Y0166655D01*
X0078934Y0167955D02*
X0081970Y0167955D01*
X0085234Y0169061D02*
X0085234Y0164055D01*
X0085234Y0169061D02*
X0088270Y0169061D01*
X0088270Y0164055D01*
X0085234Y0164055D01*
X0085234Y0165355D02*
X0088270Y0165355D01*
X0088270Y0166655D02*
X0085234Y0166655D01*
X0085234Y0167955D02*
X0088270Y0167955D01*
X0049360Y0197421D02*
X0046324Y0197421D01*
X0046324Y0202033D01*
X0049360Y0202033D01*
X0049360Y0197421D01*
X0049360Y0198721D02*
X0046324Y0198721D01*
X0046324Y0200021D02*
X0049360Y0200021D01*
X0049360Y0201321D02*
X0046324Y0201321D01*
X0041880Y0197421D02*
X0038844Y0197421D01*
X0038844Y0202033D01*
X0041880Y0202033D01*
X0041880Y0197421D01*
X0041880Y0198721D02*
X0038844Y0198721D01*
X0038844Y0200021D02*
X0041880Y0200021D01*
X0041880Y0201321D02*
X0038844Y0201321D01*
X0042584Y0206082D02*
X0045620Y0206082D01*
X0042584Y0206082D02*
X0042584Y0210694D01*
X0045620Y0210694D01*
X0045620Y0206082D01*
X0045620Y0207382D02*
X0042584Y0207382D01*
X0042584Y0208682D02*
X0045620Y0208682D01*
X0045620Y0209982D02*
X0042584Y0209982D01*
X0038120Y0220033D02*
X0035084Y0220033D01*
X0038120Y0220033D02*
X0038120Y0215421D01*
X0035084Y0215421D01*
X0035084Y0220033D01*
X0035084Y0216721D02*
X0038120Y0216721D01*
X0038120Y0218021D02*
X0035084Y0218021D01*
X0035084Y0219321D02*
X0038120Y0219321D01*
X0038824Y0228694D02*
X0041860Y0228694D01*
X0041860Y0224082D01*
X0038824Y0224082D01*
X0038824Y0228694D01*
X0038824Y0225382D02*
X0041860Y0225382D01*
X0041860Y0226682D02*
X0038824Y0226682D01*
X0038824Y0227982D02*
X0041860Y0227982D01*
X0034380Y0228694D02*
X0031344Y0228694D01*
X0034380Y0228694D02*
X0034380Y0224082D01*
X0031344Y0224082D01*
X0031344Y0228694D01*
X0031344Y0225382D02*
X0034380Y0225382D01*
X0034380Y0226682D02*
X0031344Y0226682D01*
X0031344Y0227982D02*
X0034380Y0227982D01*
D15*
X0121246Y0130320D02*
X0125934Y0130320D01*
X0121246Y0130320D02*
X0121246Y0135796D01*
X0125934Y0135796D01*
X0125934Y0130320D01*
X0125934Y0132329D02*
X0121246Y0132329D01*
X0121246Y0134338D02*
X0125934Y0134338D01*
X0132270Y0130320D02*
X0136958Y0130320D01*
X0132270Y0130320D02*
X0132270Y0135796D01*
X0136958Y0135796D01*
X0136958Y0130320D01*
X0136958Y0132329D02*
X0132270Y0132329D01*
X0132270Y0134338D02*
X0136958Y0134338D01*
X0125840Y0123914D02*
X0125840Y0119226D01*
X0120364Y0119226D01*
X0120364Y0123914D01*
X0125840Y0123914D01*
X0125840Y0121235D02*
X0120364Y0121235D01*
X0120364Y0123244D02*
X0125840Y0123244D01*
X0125840Y0112890D02*
X0125840Y0108202D01*
X0120364Y0108202D01*
X0120364Y0112890D01*
X0125840Y0112890D01*
X0125840Y0110211D02*
X0120364Y0110211D01*
X0120364Y0112220D02*
X0125840Y0112220D01*
X0128846Y0085500D02*
X0128846Y0080812D01*
X0123358Y0080812D01*
X0123358Y0085500D01*
X0128846Y0085500D01*
X0128846Y0082821D02*
X0123358Y0082821D01*
X0123358Y0084830D02*
X0128846Y0084830D01*
X0128846Y0074303D02*
X0128846Y0069615D01*
X0123358Y0069615D01*
X0123358Y0074303D01*
X0128846Y0074303D01*
X0128846Y0071624D02*
X0123358Y0071624D01*
X0123358Y0073633D02*
X0128846Y0073633D01*
X0153846Y0074303D02*
X0153846Y0069615D01*
X0148358Y0069615D01*
X0148358Y0074303D01*
X0153846Y0074303D01*
X0153846Y0071624D02*
X0148358Y0071624D01*
X0148358Y0073633D02*
X0153846Y0073633D01*
X0153846Y0080812D02*
X0153846Y0085500D01*
X0153846Y0080812D02*
X0148358Y0080812D01*
X0148358Y0085500D01*
X0153846Y0085500D01*
X0153846Y0082821D02*
X0148358Y0082821D01*
X0148358Y0084830D02*
X0153846Y0084830D01*
X0103846Y0085500D02*
X0103846Y0080812D01*
X0098358Y0080812D01*
X0098358Y0085500D01*
X0103846Y0085500D01*
X0103846Y0082821D02*
X0098358Y0082821D01*
X0098358Y0084830D02*
X0103846Y0084830D01*
X0103846Y0074303D02*
X0103846Y0069615D01*
X0098358Y0069615D01*
X0098358Y0074303D01*
X0103846Y0074303D01*
X0103846Y0071624D02*
X0098358Y0071624D01*
X0098358Y0073633D02*
X0103846Y0073633D01*
X0202160Y0047814D02*
X0206848Y0047814D01*
X0202160Y0047814D02*
X0202160Y0053302D01*
X0206848Y0053302D01*
X0206848Y0047814D01*
X0206848Y0049823D02*
X0202160Y0049823D01*
X0202160Y0051832D02*
X0206848Y0051832D01*
X0213356Y0047814D02*
X0218044Y0047814D01*
X0213356Y0047814D02*
X0213356Y0053302D01*
X0218044Y0053302D01*
X0218044Y0047814D01*
X0218044Y0049823D02*
X0213356Y0049823D01*
X0213356Y0051832D02*
X0218044Y0051832D01*
X0214846Y0063115D02*
X0214846Y0067803D01*
X0214846Y0063115D02*
X0209358Y0063115D01*
X0209358Y0067803D01*
X0214846Y0067803D01*
X0214846Y0065124D02*
X0209358Y0065124D01*
X0209358Y0067133D02*
X0214846Y0067133D01*
X0214846Y0074312D02*
X0214846Y0079000D01*
X0214846Y0074312D02*
X0209358Y0074312D01*
X0209358Y0079000D01*
X0214846Y0079000D01*
X0214846Y0076321D02*
X0209358Y0076321D01*
X0209358Y0078330D02*
X0214846Y0078330D01*
X0213356Y0033814D02*
X0218044Y0033814D01*
X0213356Y0033814D02*
X0213356Y0039302D01*
X0218044Y0039302D01*
X0218044Y0033814D01*
X0218044Y0035823D02*
X0213356Y0035823D01*
X0213356Y0037832D02*
X0218044Y0037832D01*
X0206848Y0033814D02*
X0202160Y0033814D01*
X0202160Y0039302D01*
X0206848Y0039302D01*
X0206848Y0033814D01*
X0206848Y0035823D02*
X0202160Y0035823D01*
X0202160Y0037832D02*
X0206848Y0037832D01*
D16*
X0070492Y0100506D02*
X0070492Y0108286D01*
X0070492Y0100506D02*
X0062712Y0100506D01*
X0062712Y0108286D01*
X0070492Y0108286D01*
X0070492Y0102573D02*
X0062712Y0102573D01*
X0062712Y0104640D02*
X0070492Y0104640D01*
X0070492Y0106707D02*
X0062712Y0106707D01*
X0070492Y0117829D02*
X0070492Y0125609D01*
X0070492Y0117829D02*
X0062712Y0117829D01*
X0062712Y0125609D01*
X0070492Y0125609D01*
X0070492Y0119896D02*
X0062712Y0119896D01*
X0062712Y0121963D02*
X0070492Y0121963D01*
X0070492Y0124030D02*
X0062712Y0124030D01*
X0040212Y0081109D02*
X0040212Y0073329D01*
X0040212Y0081109D02*
X0047992Y0081109D01*
X0047992Y0073329D01*
X0040212Y0073329D01*
X0040212Y0075396D02*
X0047992Y0075396D01*
X0047992Y0077463D02*
X0040212Y0077463D01*
X0040212Y0079530D02*
X0047992Y0079530D01*
X0040212Y0063786D02*
X0040212Y0056006D01*
X0040212Y0063786D02*
X0047992Y0063786D01*
X0047992Y0056006D01*
X0040212Y0056006D01*
X0040212Y0058073D02*
X0047992Y0058073D01*
X0047992Y0060140D02*
X0040212Y0060140D01*
X0040212Y0062207D02*
X0047992Y0062207D01*
D17*
X0101854Y0120058D02*
X0101854Y0120058D01*
X0095948Y0120058D01*
X0095948Y0120058D01*
X0101854Y0120058D01*
D18*
X0110427Y0120058D03*
X0110427Y0125963D03*
X0110427Y0114152D03*
D19*
X0065215Y0047249D02*
X0060801Y0047249D01*
X0065215Y0047249D02*
X0065215Y0040867D01*
X0060801Y0040867D01*
X0060801Y0047249D01*
X0060801Y0042758D02*
X0065215Y0042758D01*
X0065215Y0044649D02*
X0060801Y0044649D01*
X0060801Y0046540D02*
X0065215Y0046540D01*
X0053404Y0047249D02*
X0048990Y0047249D01*
X0053404Y0047249D02*
X0053404Y0040867D01*
X0048990Y0040867D01*
X0048990Y0047249D01*
X0048990Y0042758D02*
X0053404Y0042758D01*
X0053404Y0044649D02*
X0048990Y0044649D01*
X0048990Y0046540D02*
X0053404Y0046540D01*
D20*
X0143102Y0166058D03*
X0143102Y0176058D03*
X0153102Y0176058D03*
X0163102Y0176058D03*
X0163102Y0166058D03*
X0153102Y0166058D03*
D21*
X0205602Y0231058D03*
X0215602Y0231058D03*
D22*
X0216530Y0242764D02*
X0216530Y0246352D01*
X0216530Y0242764D02*
X0212942Y0242764D01*
X0212942Y0246352D01*
X0216530Y0246352D01*
X0216530Y0244300D02*
X0212942Y0244300D01*
X0212942Y0245836D02*
X0216530Y0245836D01*
X0208262Y0246352D02*
X0208262Y0242764D01*
X0204674Y0242764D01*
X0204674Y0246352D01*
X0208262Y0246352D01*
X0208262Y0244300D02*
X0204674Y0244300D01*
X0204674Y0245836D02*
X0208262Y0245836D01*
D23*
X0073602Y0232058D03*
X0058602Y0232058D03*
X0084602Y0043558D03*
X0099602Y0043558D03*
X0114602Y0043558D03*
X0129602Y0043558D03*
X0144602Y0043558D03*
X0159602Y0043558D03*
X0174602Y0043558D03*
D24*
X0187956Y0080046D03*
X0187956Y0190282D03*
X0077720Y0190282D03*
X0077720Y0080046D03*
D25*
X0226395Y0128268D02*
X0228329Y0128268D01*
X0226395Y0128268D02*
X0226395Y0132564D01*
X0228329Y0132564D01*
X0228329Y0128268D01*
X0228329Y0129096D02*
X0226395Y0129096D01*
X0226395Y0129924D02*
X0228329Y0129924D01*
X0228329Y0130752D02*
X0226395Y0130752D01*
X0226395Y0131580D02*
X0228329Y0131580D01*
X0228329Y0132408D02*
X0226395Y0132408D01*
X0230135Y0128268D02*
X0232069Y0128268D01*
X0230135Y0128268D02*
X0230135Y0132564D01*
X0232069Y0132564D01*
X0232069Y0128268D01*
X0232069Y0129096D02*
X0230135Y0129096D01*
X0230135Y0129924D02*
X0232069Y0129924D01*
X0232069Y0130752D02*
X0230135Y0130752D01*
X0230135Y0131580D02*
X0232069Y0131580D01*
X0232069Y0132408D02*
X0230135Y0132408D01*
X0233875Y0128268D02*
X0235809Y0128268D01*
X0233875Y0128268D02*
X0233875Y0132564D01*
X0235809Y0132564D01*
X0235809Y0128268D01*
X0235809Y0129096D02*
X0233875Y0129096D01*
X0233875Y0129924D02*
X0235809Y0129924D01*
X0235809Y0130752D02*
X0233875Y0130752D01*
X0233875Y0131580D02*
X0235809Y0131580D01*
X0235809Y0132408D02*
X0233875Y0132408D01*
X0233875Y0138551D02*
X0235809Y0138551D01*
X0233875Y0138551D02*
X0233875Y0142847D01*
X0235809Y0142847D01*
X0235809Y0138551D01*
X0235809Y0139379D02*
X0233875Y0139379D01*
X0233875Y0140207D02*
X0235809Y0140207D01*
X0235809Y0141035D02*
X0233875Y0141035D01*
X0233875Y0141863D02*
X0235809Y0141863D01*
X0235809Y0142691D02*
X0233875Y0142691D01*
X0228329Y0138551D02*
X0226395Y0138551D01*
X0226395Y0142847D01*
X0228329Y0142847D01*
X0228329Y0138551D01*
X0228329Y0139379D02*
X0226395Y0139379D01*
X0226395Y0140207D02*
X0228329Y0140207D01*
X0228329Y0141035D02*
X0226395Y0141035D01*
X0226395Y0141863D02*
X0228329Y0141863D01*
X0228329Y0142691D02*
X0226395Y0142691D01*
D26*
X0211102Y0151558D03*
X0203102Y0170058D03*
X0204102Y0205558D03*
X0191602Y0223558D03*
X0191602Y0229558D03*
X0133602Y0231058D03*
X0133602Y0236558D03*
X0073602Y0141558D03*
X0067602Y0141558D03*
X0082102Y0129058D03*
X0088102Y0129058D03*
X0088102Y0123058D03*
X0082102Y0123058D03*
X0082102Y0117058D03*
X0088102Y0117058D03*
X0088102Y0111058D03*
X0082102Y0111058D03*
X0117602Y0094558D03*
X0134602Y0094558D03*
X0142602Y0094558D03*
X0159602Y0094558D03*
X0167602Y0094558D03*
X0143102Y0126058D03*
X0143102Y0131558D03*
X0143102Y0137058D03*
X0137602Y0124558D03*
X0132102Y0124558D03*
X0200602Y0104558D03*
X0200602Y0099058D03*
X0203602Y0123558D03*
X0203602Y0129558D03*
X0230602Y0112558D03*
X0236602Y0112558D03*
X0234602Y0055058D03*
X0226602Y0055058D03*
D27*
X0222602Y0082058D03*
X0230602Y0082058D03*
X0108102Y0098058D03*
D28*
X0101602Y0120058D03*
M02*
