G75*
%MOIN*%
%OFA0B0*%
%FSLAX25Y25*%
%IPPOS*%
%LPD*%
%AMOC8*
5,1,8,0,0,1.08239X$1,22.5*
%
%ADD10C,0.00000*%
D10*
X0001400Y0025558D02*
X0001400Y0093471D01*
X0013231Y0093471D01*
X0013549Y0093475D01*
X0013867Y0093487D01*
X0014185Y0093506D01*
X0014502Y0093533D01*
X0014819Y0093568D01*
X0015134Y0093610D01*
X0015448Y0093660D01*
X0015762Y0093718D01*
X0016073Y0093784D01*
X0016383Y0093857D01*
X0016691Y0093937D01*
X0016997Y0094025D01*
X0017300Y0094121D01*
X0017602Y0094223D01*
X0017900Y0094333D01*
X0018196Y0094451D01*
X0018489Y0094575D01*
X0018779Y0094707D01*
X0019066Y0094845D01*
X0019349Y0094991D01*
X0019628Y0095143D01*
X0019904Y0095303D01*
X0020176Y0095468D01*
X0020443Y0095641D01*
X0020706Y0095820D01*
X0020965Y0096005D01*
X0021220Y0096196D01*
X0021469Y0096394D01*
X0021714Y0096598D01*
X0021954Y0096807D01*
X0022188Y0097022D01*
X0022417Y0097243D01*
X0022641Y0097470D01*
X0022859Y0097702D01*
X0023071Y0097939D01*
X0023278Y0098181D01*
X0023479Y0098428D01*
X0023673Y0098680D01*
X0023862Y0098937D01*
X0024044Y0099198D01*
X0024219Y0099463D01*
X0024388Y0099733D01*
X0024551Y0100007D01*
X0024707Y0100284D01*
X0024856Y0100565D01*
X0024998Y0100850D01*
X0025133Y0101138D01*
X0025261Y0101430D01*
X0025382Y0101724D01*
X0025495Y0102022D01*
X0025602Y0102322D01*
X0025701Y0102624D01*
X0025793Y0102929D01*
X0025877Y0103236D01*
X0025954Y0103545D01*
X0026023Y0103856D01*
X0026085Y0104168D01*
X0026139Y0104482D01*
X0026185Y0104796D01*
X0026224Y0105112D01*
X0026255Y0105429D01*
X0026278Y0105747D01*
X0026293Y0106065D01*
X0026301Y0106383D01*
X0026301Y0106701D01*
X0026293Y0107019D01*
X0026278Y0107337D01*
X0026255Y0107655D01*
X0026224Y0107972D01*
X0026185Y0108288D01*
X0026139Y0108602D01*
X0026085Y0108916D01*
X0026023Y0109228D01*
X0025954Y0109539D01*
X0025877Y0109848D01*
X0025793Y0110155D01*
X0025701Y0110460D01*
X0025602Y0110762D01*
X0025495Y0111062D01*
X0025382Y0111360D01*
X0025261Y0111654D01*
X0025133Y0111946D01*
X0024998Y0112234D01*
X0024856Y0112519D01*
X0024707Y0112800D01*
X0024551Y0113078D01*
X0024388Y0113351D01*
X0024219Y0113621D01*
X0024044Y0113886D01*
X0023862Y0114147D01*
X0023673Y0114404D01*
X0023479Y0114656D01*
X0023278Y0114903D01*
X0023071Y0115145D01*
X0022859Y0115382D01*
X0022641Y0115614D01*
X0022417Y0115841D01*
X0022188Y0116062D01*
X0021954Y0116277D01*
X0021714Y0116486D01*
X0021469Y0116690D01*
X0021220Y0116888D01*
X0020965Y0117079D01*
X0020706Y0117264D01*
X0020443Y0117443D01*
X0020176Y0117616D01*
X0019904Y0117781D01*
X0019628Y0117941D01*
X0019349Y0118093D01*
X0019066Y0118239D01*
X0018779Y0118377D01*
X0018489Y0118509D01*
X0018196Y0118633D01*
X0017900Y0118751D01*
X0017602Y0118861D01*
X0017300Y0118963D01*
X0016997Y0119059D01*
X0016691Y0119147D01*
X0016383Y0119227D01*
X0016073Y0119300D01*
X0015762Y0119366D01*
X0015448Y0119424D01*
X0015134Y0119474D01*
X0014819Y0119516D01*
X0014502Y0119551D01*
X0014185Y0119578D01*
X0013867Y0119597D01*
X0013549Y0119609D01*
X0013231Y0119613D01*
X0001400Y0119613D01*
X0001400Y0254337D01*
X0013231Y0254337D01*
X0013549Y0254341D01*
X0013867Y0254353D01*
X0014185Y0254372D01*
X0014502Y0254399D01*
X0014819Y0254434D01*
X0015134Y0254476D01*
X0015448Y0254526D01*
X0015762Y0254584D01*
X0016073Y0254650D01*
X0016383Y0254723D01*
X0016691Y0254803D01*
X0016997Y0254891D01*
X0017300Y0254987D01*
X0017602Y0255089D01*
X0017900Y0255199D01*
X0018196Y0255317D01*
X0018489Y0255441D01*
X0018779Y0255573D01*
X0019066Y0255711D01*
X0019349Y0255857D01*
X0019628Y0256009D01*
X0019904Y0256169D01*
X0020176Y0256334D01*
X0020443Y0256507D01*
X0020706Y0256686D01*
X0020965Y0256871D01*
X0021220Y0257062D01*
X0021469Y0257260D01*
X0021714Y0257464D01*
X0021954Y0257673D01*
X0022188Y0257888D01*
X0022417Y0258109D01*
X0022641Y0258336D01*
X0022859Y0258568D01*
X0023071Y0258805D01*
X0023278Y0259047D01*
X0023479Y0259294D01*
X0023673Y0259546D01*
X0023862Y0259803D01*
X0024044Y0260064D01*
X0024219Y0260329D01*
X0024388Y0260599D01*
X0024551Y0260873D01*
X0024707Y0261150D01*
X0024856Y0261431D01*
X0024998Y0261716D01*
X0025133Y0262004D01*
X0025261Y0262296D01*
X0025382Y0262590D01*
X0025495Y0262888D01*
X0025602Y0263188D01*
X0025701Y0263490D01*
X0025793Y0263795D01*
X0025877Y0264102D01*
X0025954Y0264411D01*
X0026023Y0264722D01*
X0026085Y0265034D01*
X0026139Y0265348D01*
X0026185Y0265662D01*
X0026224Y0265978D01*
X0026255Y0266295D01*
X0026278Y0266613D01*
X0026293Y0266931D01*
X0026301Y0267249D01*
X0026301Y0267567D01*
X0026293Y0267885D01*
X0026278Y0268203D01*
X0026255Y0268521D01*
X0026224Y0268838D01*
X0026185Y0269154D01*
X0026139Y0269468D01*
X0026085Y0269782D01*
X0026023Y0270094D01*
X0025954Y0270405D01*
X0025877Y0270714D01*
X0025793Y0271021D01*
X0025701Y0271326D01*
X0025602Y0271628D01*
X0025495Y0271928D01*
X0025382Y0272226D01*
X0025261Y0272520D01*
X0025133Y0272812D01*
X0024998Y0273100D01*
X0024856Y0273385D01*
X0024707Y0273666D01*
X0024551Y0273944D01*
X0024388Y0274217D01*
X0024219Y0274487D01*
X0024044Y0274752D01*
X0023862Y0275013D01*
X0023673Y0275270D01*
X0023479Y0275522D01*
X0023278Y0275769D01*
X0023071Y0276011D01*
X0022859Y0276248D01*
X0022641Y0276480D01*
X0022417Y0276707D01*
X0022188Y0276928D01*
X0021954Y0277143D01*
X0021714Y0277352D01*
X0021469Y0277556D01*
X0021220Y0277754D01*
X0020965Y0277945D01*
X0020706Y0278130D01*
X0020443Y0278309D01*
X0020176Y0278482D01*
X0019904Y0278647D01*
X0019628Y0278807D01*
X0019349Y0278959D01*
X0019066Y0279105D01*
X0018779Y0279243D01*
X0018489Y0279375D01*
X0018196Y0279499D01*
X0017900Y0279617D01*
X0017602Y0279727D01*
X0017300Y0279829D01*
X0016997Y0279925D01*
X0016691Y0280013D01*
X0016383Y0280093D01*
X0016073Y0280166D01*
X0015762Y0280232D01*
X0015448Y0280290D01*
X0015134Y0280340D01*
X0014819Y0280382D01*
X0014502Y0280417D01*
X0014185Y0280444D01*
X0013867Y0280463D01*
X0013549Y0280475D01*
X0013231Y0280479D01*
X0001400Y0280479D01*
X0001400Y0348392D01*
X0221872Y0348392D01*
X0221872Y0280479D01*
X0210042Y0280479D01*
X0209724Y0280475D01*
X0209406Y0280463D01*
X0209088Y0280444D01*
X0208771Y0280417D01*
X0208454Y0280382D01*
X0208139Y0280340D01*
X0207825Y0280290D01*
X0207511Y0280232D01*
X0207200Y0280166D01*
X0206890Y0280093D01*
X0206582Y0280013D01*
X0206276Y0279925D01*
X0205973Y0279829D01*
X0205671Y0279727D01*
X0205373Y0279617D01*
X0205077Y0279499D01*
X0204784Y0279375D01*
X0204494Y0279243D01*
X0204207Y0279105D01*
X0203924Y0278959D01*
X0203645Y0278807D01*
X0203369Y0278647D01*
X0203097Y0278482D01*
X0202830Y0278309D01*
X0202567Y0278130D01*
X0202308Y0277945D01*
X0202053Y0277754D01*
X0201804Y0277556D01*
X0201559Y0277352D01*
X0201319Y0277143D01*
X0201085Y0276928D01*
X0200856Y0276707D01*
X0200632Y0276480D01*
X0200414Y0276248D01*
X0200202Y0276011D01*
X0199995Y0275769D01*
X0199794Y0275522D01*
X0199600Y0275270D01*
X0199411Y0275013D01*
X0199229Y0274752D01*
X0199054Y0274487D01*
X0198885Y0274217D01*
X0198722Y0273944D01*
X0198566Y0273666D01*
X0198417Y0273385D01*
X0198275Y0273100D01*
X0198140Y0272812D01*
X0198012Y0272520D01*
X0197891Y0272226D01*
X0197778Y0271928D01*
X0197671Y0271628D01*
X0197572Y0271326D01*
X0197480Y0271021D01*
X0197396Y0270714D01*
X0197319Y0270405D01*
X0197250Y0270094D01*
X0197188Y0269782D01*
X0197134Y0269468D01*
X0197088Y0269154D01*
X0197049Y0268838D01*
X0197018Y0268521D01*
X0196995Y0268203D01*
X0196980Y0267885D01*
X0196972Y0267567D01*
X0196972Y0267249D01*
X0196980Y0266931D01*
X0196995Y0266613D01*
X0197018Y0266295D01*
X0197049Y0265978D01*
X0197088Y0265662D01*
X0197134Y0265348D01*
X0197188Y0265034D01*
X0197250Y0264722D01*
X0197319Y0264411D01*
X0197396Y0264102D01*
X0197480Y0263795D01*
X0197572Y0263490D01*
X0197671Y0263188D01*
X0197778Y0262888D01*
X0197891Y0262590D01*
X0198012Y0262296D01*
X0198140Y0262004D01*
X0198275Y0261716D01*
X0198417Y0261431D01*
X0198566Y0261150D01*
X0198722Y0260872D01*
X0198885Y0260599D01*
X0199054Y0260329D01*
X0199229Y0260064D01*
X0199411Y0259803D01*
X0199600Y0259546D01*
X0199794Y0259294D01*
X0199995Y0259047D01*
X0200202Y0258805D01*
X0200414Y0258568D01*
X0200632Y0258336D01*
X0200856Y0258109D01*
X0201085Y0257888D01*
X0201319Y0257673D01*
X0201559Y0257464D01*
X0201804Y0257260D01*
X0202053Y0257062D01*
X0202308Y0256871D01*
X0202567Y0256686D01*
X0202830Y0256507D01*
X0203097Y0256334D01*
X0203369Y0256169D01*
X0203645Y0256009D01*
X0203924Y0255857D01*
X0204207Y0255711D01*
X0204494Y0255573D01*
X0204784Y0255441D01*
X0205077Y0255317D01*
X0205373Y0255199D01*
X0205671Y0255089D01*
X0205973Y0254987D01*
X0206276Y0254891D01*
X0206582Y0254803D01*
X0206890Y0254723D01*
X0207200Y0254650D01*
X0207511Y0254584D01*
X0207825Y0254526D01*
X0208139Y0254476D01*
X0208454Y0254434D01*
X0208771Y0254399D01*
X0209088Y0254372D01*
X0209406Y0254353D01*
X0209724Y0254341D01*
X0210042Y0254337D01*
X0221872Y0254337D01*
X0221872Y0119613D01*
X0210042Y0119613D01*
X0209724Y0119609D01*
X0209406Y0119597D01*
X0209088Y0119578D01*
X0208771Y0119551D01*
X0208454Y0119516D01*
X0208139Y0119474D01*
X0207825Y0119424D01*
X0207511Y0119366D01*
X0207200Y0119300D01*
X0206890Y0119227D01*
X0206582Y0119147D01*
X0206276Y0119059D01*
X0205973Y0118963D01*
X0205671Y0118861D01*
X0205373Y0118751D01*
X0205077Y0118633D01*
X0204784Y0118509D01*
X0204494Y0118377D01*
X0204207Y0118239D01*
X0203924Y0118093D01*
X0203645Y0117941D01*
X0203369Y0117781D01*
X0203097Y0117616D01*
X0202830Y0117443D01*
X0202567Y0117264D01*
X0202308Y0117079D01*
X0202053Y0116888D01*
X0201804Y0116690D01*
X0201559Y0116486D01*
X0201319Y0116277D01*
X0201085Y0116062D01*
X0200856Y0115841D01*
X0200632Y0115614D01*
X0200414Y0115382D01*
X0200202Y0115145D01*
X0199995Y0114903D01*
X0199794Y0114656D01*
X0199600Y0114404D01*
X0199411Y0114147D01*
X0199229Y0113886D01*
X0199054Y0113621D01*
X0198885Y0113351D01*
X0198722Y0113077D01*
X0198566Y0112800D01*
X0198417Y0112519D01*
X0198275Y0112234D01*
X0198140Y0111946D01*
X0198012Y0111654D01*
X0197891Y0111360D01*
X0197778Y0111062D01*
X0197671Y0110762D01*
X0197572Y0110460D01*
X0197480Y0110155D01*
X0197396Y0109848D01*
X0197319Y0109539D01*
X0197250Y0109228D01*
X0197188Y0108916D01*
X0197134Y0108602D01*
X0197088Y0108288D01*
X0197049Y0107972D01*
X0197018Y0107655D01*
X0196995Y0107337D01*
X0196980Y0107019D01*
X0196972Y0106701D01*
X0196972Y0106383D01*
X0196980Y0106065D01*
X0196995Y0105747D01*
X0197018Y0105429D01*
X0197049Y0105112D01*
X0197088Y0104796D01*
X0197134Y0104482D01*
X0197188Y0104168D01*
X0197250Y0103856D01*
X0197319Y0103545D01*
X0197396Y0103236D01*
X0197480Y0102929D01*
X0197572Y0102624D01*
X0197671Y0102322D01*
X0197778Y0102022D01*
X0197891Y0101724D01*
X0198012Y0101430D01*
X0198140Y0101138D01*
X0198275Y0100850D01*
X0198417Y0100565D01*
X0198566Y0100284D01*
X0198722Y0100006D01*
X0198885Y0099733D01*
X0199054Y0099463D01*
X0199229Y0099198D01*
X0199411Y0098937D01*
X0199600Y0098680D01*
X0199794Y0098428D01*
X0199995Y0098181D01*
X0200202Y0097939D01*
X0200414Y0097702D01*
X0200632Y0097470D01*
X0200856Y0097243D01*
X0201085Y0097022D01*
X0201319Y0096807D01*
X0201559Y0096598D01*
X0201804Y0096394D01*
X0202053Y0096196D01*
X0202308Y0096005D01*
X0202567Y0095820D01*
X0202830Y0095641D01*
X0203097Y0095468D01*
X0203369Y0095303D01*
X0203645Y0095143D01*
X0203924Y0094991D01*
X0204207Y0094845D01*
X0204494Y0094707D01*
X0204784Y0094575D01*
X0205077Y0094451D01*
X0205373Y0094333D01*
X0205671Y0094223D01*
X0205973Y0094121D01*
X0206276Y0094025D01*
X0206582Y0093937D01*
X0206890Y0093857D01*
X0207200Y0093784D01*
X0207511Y0093718D01*
X0207825Y0093660D01*
X0208139Y0093610D01*
X0208454Y0093568D01*
X0208771Y0093533D01*
X0209088Y0093506D01*
X0209406Y0093487D01*
X0209724Y0093475D01*
X0210042Y0093471D01*
X0221872Y0093471D01*
X0221872Y0025558D01*
X0001400Y0025558D01*
M02*
