%
M48
M72
T01C0.0197
T02C0.0315
T03C0.0354
T04C0.0362
T05C0.0400
T06C0.0551
T07C0.0590
T08C0.0591
T09C0.0669
T10C0.0906
T11C0.1102
T12C0.1260
%
T01
X740Y5656
X740Y6306
X5240Y5656
X5890Y5656
X6540Y5656
X8140Y11406
X8740Y11406
X9290Y11756
X9290Y12356
X9290Y12956
X9290Y13556
X8740Y13906
X8140Y13906
X7140Y13556
X7140Y12956
X7140Y12356
X7140Y11756
X6540Y11756
X6540Y12356
X6540Y12956
X6540Y13556
X8490Y16356
X8490Y16956
X8490Y17556
X8340Y20806
X8940Y20806
X9290Y21506
X9290Y22056
X9290Y22606
X9290Y23156
X7990Y24806
X7940Y25806
X7590Y26756
X6840Y27406
X5840Y27656
X5340Y26306
X6290Y26056
X6590Y25056
X4790Y27906
X4090Y28706
X3940Y29756
X3940Y30756
X2640Y28706
X2990Y27806
X3590Y27106
X4440Y26556
X2540Y29756
X2540Y30756
X2190Y15656
X2590Y15256
X2990Y14856
X11590Y14056
X11940Y13556
X12290Y14056
X12640Y13556
X13840Y11006
X14290Y11456
X14690Y10606
X15240Y10606
X14640Y14056
X14040Y14056
X17790Y12106
X18590Y12106
X18390Y9306
X18840Y8856
X21690Y8556
X21690Y7906
X18240Y15906
X18890Y16556
X18940Y18406
X18390Y18406
X18240Y19306
X18240Y23156
X18240Y23706
X19590Y29306
X18840Y29606
X18390Y30206
X18240Y31006
X19640Y30756
T02
X20890Y16256
X15890Y13806
X8440Y23756
X5690Y25006
X4090Y14856
T03
X10390Y32956
X11390Y32956
X12390Y32956
X13390Y32956
X14390Y32956
X15390Y32956
T04
X11682Y7260
X11682Y6473
X10698Y6473
X10698Y7260
T05
X19340Y20406
X19340Y21406
X19340Y22406
X20340Y22406
X20340Y21406
X20340Y20406
X8780Y33096
X7000Y33096
T06
X1890Y4356
X3390Y4356
X4890Y4356
X6390Y4356
X16740Y4356
X18240Y4356
X19740Y4356
T07
X9270Y32116
X6510Y32116
T08
X3240Y32956
X18940Y32956
T09
X17936Y33960
X17936Y31952
X19944Y31952
X19944Y33960
X4244Y33960
X4244Y31952
X2236Y31952
X2236Y33960
T10
X8820Y5406
X13560Y5406
T11
X13290Y21156
T12
X16675Y29327
X5652Y29327
X5652Y8068
X16675Y8068
M30
