G75*
%MOIN*%
%OFA0B0*%
%FSLAX25Y25*%
%IPPOS*%
%LPD*%
%AMOC8*
5,1,8,0,0,1.08239X$1,22.5*
%
%ADD10C,0.00000*%
%ADD11C,0.01121*%
%ADD12C,0.01475*%
%ADD13C,0.01357*%
%ADD14C,0.01830*%
%ADD15C,0.01380*%
%ADD16C,0.01974*%
%ADD17C,0.01948*%
%ADD18C,0.01712*%
%ADD19C,0.00590*%
%ADD20C,0.01594*%
D10*
X0001400Y0025558D02*
X0001400Y0093471D01*
X0013231Y0093471D01*
X0013549Y0093475D01*
X0013867Y0093487D01*
X0014185Y0093506D01*
X0014502Y0093533D01*
X0014819Y0093568D01*
X0015134Y0093610D01*
X0015448Y0093660D01*
X0015762Y0093718D01*
X0016073Y0093784D01*
X0016383Y0093857D01*
X0016691Y0093937D01*
X0016997Y0094025D01*
X0017300Y0094121D01*
X0017602Y0094223D01*
X0017900Y0094333D01*
X0018196Y0094451D01*
X0018489Y0094575D01*
X0018779Y0094707D01*
X0019066Y0094845D01*
X0019349Y0094991D01*
X0019628Y0095143D01*
X0019904Y0095303D01*
X0020176Y0095468D01*
X0020443Y0095641D01*
X0020706Y0095820D01*
X0020965Y0096005D01*
X0021220Y0096196D01*
X0021469Y0096394D01*
X0021714Y0096598D01*
X0021954Y0096807D01*
X0022188Y0097022D01*
X0022417Y0097243D01*
X0022641Y0097470D01*
X0022859Y0097702D01*
X0023071Y0097939D01*
X0023278Y0098181D01*
X0023479Y0098428D01*
X0023673Y0098680D01*
X0023862Y0098937D01*
X0024044Y0099198D01*
X0024219Y0099463D01*
X0024388Y0099733D01*
X0024551Y0100007D01*
X0024707Y0100284D01*
X0024856Y0100565D01*
X0024998Y0100850D01*
X0025133Y0101138D01*
X0025261Y0101430D01*
X0025382Y0101724D01*
X0025495Y0102022D01*
X0025602Y0102322D01*
X0025701Y0102624D01*
X0025793Y0102929D01*
X0025877Y0103236D01*
X0025954Y0103545D01*
X0026023Y0103856D01*
X0026085Y0104168D01*
X0026139Y0104482D01*
X0026185Y0104796D01*
X0026224Y0105112D01*
X0026255Y0105429D01*
X0026278Y0105747D01*
X0026293Y0106065D01*
X0026301Y0106383D01*
X0026301Y0106701D01*
X0026293Y0107019D01*
X0026278Y0107337D01*
X0026255Y0107655D01*
X0026224Y0107972D01*
X0026185Y0108288D01*
X0026139Y0108602D01*
X0026085Y0108916D01*
X0026023Y0109228D01*
X0025954Y0109539D01*
X0025877Y0109848D01*
X0025793Y0110155D01*
X0025701Y0110460D01*
X0025602Y0110762D01*
X0025495Y0111062D01*
X0025382Y0111360D01*
X0025261Y0111654D01*
X0025133Y0111946D01*
X0024998Y0112234D01*
X0024856Y0112519D01*
X0024707Y0112800D01*
X0024551Y0113078D01*
X0024388Y0113351D01*
X0024219Y0113621D01*
X0024044Y0113886D01*
X0023862Y0114147D01*
X0023673Y0114404D01*
X0023479Y0114656D01*
X0023278Y0114903D01*
X0023071Y0115145D01*
X0022859Y0115382D01*
X0022641Y0115614D01*
X0022417Y0115841D01*
X0022188Y0116062D01*
X0021954Y0116277D01*
X0021714Y0116486D01*
X0021469Y0116690D01*
X0021220Y0116888D01*
X0020965Y0117079D01*
X0020706Y0117264D01*
X0020443Y0117443D01*
X0020176Y0117616D01*
X0019904Y0117781D01*
X0019628Y0117941D01*
X0019349Y0118093D01*
X0019066Y0118239D01*
X0018779Y0118377D01*
X0018489Y0118509D01*
X0018196Y0118633D01*
X0017900Y0118751D01*
X0017602Y0118861D01*
X0017300Y0118963D01*
X0016997Y0119059D01*
X0016691Y0119147D01*
X0016383Y0119227D01*
X0016073Y0119300D01*
X0015762Y0119366D01*
X0015448Y0119424D01*
X0015134Y0119474D01*
X0014819Y0119516D01*
X0014502Y0119551D01*
X0014185Y0119578D01*
X0013867Y0119597D01*
X0013549Y0119609D01*
X0013231Y0119613D01*
X0001400Y0119613D01*
X0001400Y0254337D01*
X0013231Y0254337D01*
X0013549Y0254341D01*
X0013867Y0254353D01*
X0014185Y0254372D01*
X0014502Y0254399D01*
X0014819Y0254434D01*
X0015134Y0254476D01*
X0015448Y0254526D01*
X0015762Y0254584D01*
X0016073Y0254650D01*
X0016383Y0254723D01*
X0016691Y0254803D01*
X0016997Y0254891D01*
X0017300Y0254987D01*
X0017602Y0255089D01*
X0017900Y0255199D01*
X0018196Y0255317D01*
X0018489Y0255441D01*
X0018779Y0255573D01*
X0019066Y0255711D01*
X0019349Y0255857D01*
X0019628Y0256009D01*
X0019904Y0256169D01*
X0020176Y0256334D01*
X0020443Y0256507D01*
X0020706Y0256686D01*
X0020965Y0256871D01*
X0021220Y0257062D01*
X0021469Y0257260D01*
X0021714Y0257464D01*
X0021954Y0257673D01*
X0022188Y0257888D01*
X0022417Y0258109D01*
X0022641Y0258336D01*
X0022859Y0258568D01*
X0023071Y0258805D01*
X0023278Y0259047D01*
X0023479Y0259294D01*
X0023673Y0259546D01*
X0023862Y0259803D01*
X0024044Y0260064D01*
X0024219Y0260329D01*
X0024388Y0260599D01*
X0024551Y0260873D01*
X0024707Y0261150D01*
X0024856Y0261431D01*
X0024998Y0261716D01*
X0025133Y0262004D01*
X0025261Y0262296D01*
X0025382Y0262590D01*
X0025495Y0262888D01*
X0025602Y0263188D01*
X0025701Y0263490D01*
X0025793Y0263795D01*
X0025877Y0264102D01*
X0025954Y0264411D01*
X0026023Y0264722D01*
X0026085Y0265034D01*
X0026139Y0265348D01*
X0026185Y0265662D01*
X0026224Y0265978D01*
X0026255Y0266295D01*
X0026278Y0266613D01*
X0026293Y0266931D01*
X0026301Y0267249D01*
X0026301Y0267567D01*
X0026293Y0267885D01*
X0026278Y0268203D01*
X0026255Y0268521D01*
X0026224Y0268838D01*
X0026185Y0269154D01*
X0026139Y0269468D01*
X0026085Y0269782D01*
X0026023Y0270094D01*
X0025954Y0270405D01*
X0025877Y0270714D01*
X0025793Y0271021D01*
X0025701Y0271326D01*
X0025602Y0271628D01*
X0025495Y0271928D01*
X0025382Y0272226D01*
X0025261Y0272520D01*
X0025133Y0272812D01*
X0024998Y0273100D01*
X0024856Y0273385D01*
X0024707Y0273666D01*
X0024551Y0273944D01*
X0024388Y0274217D01*
X0024219Y0274487D01*
X0024044Y0274752D01*
X0023862Y0275013D01*
X0023673Y0275270D01*
X0023479Y0275522D01*
X0023278Y0275769D01*
X0023071Y0276011D01*
X0022859Y0276248D01*
X0022641Y0276480D01*
X0022417Y0276707D01*
X0022188Y0276928D01*
X0021954Y0277143D01*
X0021714Y0277352D01*
X0021469Y0277556D01*
X0021220Y0277754D01*
X0020965Y0277945D01*
X0020706Y0278130D01*
X0020443Y0278309D01*
X0020176Y0278482D01*
X0019904Y0278647D01*
X0019628Y0278807D01*
X0019349Y0278959D01*
X0019066Y0279105D01*
X0018779Y0279243D01*
X0018489Y0279375D01*
X0018196Y0279499D01*
X0017900Y0279617D01*
X0017602Y0279727D01*
X0017300Y0279829D01*
X0016997Y0279925D01*
X0016691Y0280013D01*
X0016383Y0280093D01*
X0016073Y0280166D01*
X0015762Y0280232D01*
X0015448Y0280290D01*
X0015134Y0280340D01*
X0014819Y0280382D01*
X0014502Y0280417D01*
X0014185Y0280444D01*
X0013867Y0280463D01*
X0013549Y0280475D01*
X0013231Y0280479D01*
X0001400Y0280479D01*
X0001400Y0348392D01*
X0221872Y0348392D01*
X0221872Y0280479D01*
X0210042Y0280479D01*
X0209724Y0280475D01*
X0209406Y0280463D01*
X0209088Y0280444D01*
X0208771Y0280417D01*
X0208454Y0280382D01*
X0208139Y0280340D01*
X0207825Y0280290D01*
X0207511Y0280232D01*
X0207200Y0280166D01*
X0206890Y0280093D01*
X0206582Y0280013D01*
X0206276Y0279925D01*
X0205973Y0279829D01*
X0205671Y0279727D01*
X0205373Y0279617D01*
X0205077Y0279499D01*
X0204784Y0279375D01*
X0204494Y0279243D01*
X0204207Y0279105D01*
X0203924Y0278959D01*
X0203645Y0278807D01*
X0203369Y0278647D01*
X0203097Y0278482D01*
X0202830Y0278309D01*
X0202567Y0278130D01*
X0202308Y0277945D01*
X0202053Y0277754D01*
X0201804Y0277556D01*
X0201559Y0277352D01*
X0201319Y0277143D01*
X0201085Y0276928D01*
X0200856Y0276707D01*
X0200632Y0276480D01*
X0200414Y0276248D01*
X0200202Y0276011D01*
X0199995Y0275769D01*
X0199794Y0275522D01*
X0199600Y0275270D01*
X0199411Y0275013D01*
X0199229Y0274752D01*
X0199054Y0274487D01*
X0198885Y0274217D01*
X0198722Y0273944D01*
X0198566Y0273666D01*
X0198417Y0273385D01*
X0198275Y0273100D01*
X0198140Y0272812D01*
X0198012Y0272520D01*
X0197891Y0272226D01*
X0197778Y0271928D01*
X0197671Y0271628D01*
X0197572Y0271326D01*
X0197480Y0271021D01*
X0197396Y0270714D01*
X0197319Y0270405D01*
X0197250Y0270094D01*
X0197188Y0269782D01*
X0197134Y0269468D01*
X0197088Y0269154D01*
X0197049Y0268838D01*
X0197018Y0268521D01*
X0196995Y0268203D01*
X0196980Y0267885D01*
X0196972Y0267567D01*
X0196972Y0267249D01*
X0196980Y0266931D01*
X0196995Y0266613D01*
X0197018Y0266295D01*
X0197049Y0265978D01*
X0197088Y0265662D01*
X0197134Y0265348D01*
X0197188Y0265034D01*
X0197250Y0264722D01*
X0197319Y0264411D01*
X0197396Y0264102D01*
X0197480Y0263795D01*
X0197572Y0263490D01*
X0197671Y0263188D01*
X0197778Y0262888D01*
X0197891Y0262590D01*
X0198012Y0262296D01*
X0198140Y0262004D01*
X0198275Y0261716D01*
X0198417Y0261431D01*
X0198566Y0261150D01*
X0198722Y0260872D01*
X0198885Y0260599D01*
X0199054Y0260329D01*
X0199229Y0260064D01*
X0199411Y0259803D01*
X0199600Y0259546D01*
X0199794Y0259294D01*
X0199995Y0259047D01*
X0200202Y0258805D01*
X0200414Y0258568D01*
X0200632Y0258336D01*
X0200856Y0258109D01*
X0201085Y0257888D01*
X0201319Y0257673D01*
X0201559Y0257464D01*
X0201804Y0257260D01*
X0202053Y0257062D01*
X0202308Y0256871D01*
X0202567Y0256686D01*
X0202830Y0256507D01*
X0203097Y0256334D01*
X0203369Y0256169D01*
X0203645Y0256009D01*
X0203924Y0255857D01*
X0204207Y0255711D01*
X0204494Y0255573D01*
X0204784Y0255441D01*
X0205077Y0255317D01*
X0205373Y0255199D01*
X0205671Y0255089D01*
X0205973Y0254987D01*
X0206276Y0254891D01*
X0206582Y0254803D01*
X0206890Y0254723D01*
X0207200Y0254650D01*
X0207511Y0254584D01*
X0207825Y0254526D01*
X0208139Y0254476D01*
X0208454Y0254434D01*
X0208771Y0254399D01*
X0209088Y0254372D01*
X0209406Y0254353D01*
X0209724Y0254341D01*
X0210042Y0254337D01*
X0221872Y0254337D01*
X0221872Y0119613D01*
X0210042Y0119613D01*
X0209724Y0119609D01*
X0209406Y0119597D01*
X0209088Y0119578D01*
X0208771Y0119551D01*
X0208454Y0119516D01*
X0208139Y0119474D01*
X0207825Y0119424D01*
X0207511Y0119366D01*
X0207200Y0119300D01*
X0206890Y0119227D01*
X0206582Y0119147D01*
X0206276Y0119059D01*
X0205973Y0118963D01*
X0205671Y0118861D01*
X0205373Y0118751D01*
X0205077Y0118633D01*
X0204784Y0118509D01*
X0204494Y0118377D01*
X0204207Y0118239D01*
X0203924Y0118093D01*
X0203645Y0117941D01*
X0203369Y0117781D01*
X0203097Y0117616D01*
X0202830Y0117443D01*
X0202567Y0117264D01*
X0202308Y0117079D01*
X0202053Y0116888D01*
X0201804Y0116690D01*
X0201559Y0116486D01*
X0201319Y0116277D01*
X0201085Y0116062D01*
X0200856Y0115841D01*
X0200632Y0115614D01*
X0200414Y0115382D01*
X0200202Y0115145D01*
X0199995Y0114903D01*
X0199794Y0114656D01*
X0199600Y0114404D01*
X0199411Y0114147D01*
X0199229Y0113886D01*
X0199054Y0113621D01*
X0198885Y0113351D01*
X0198722Y0113077D01*
X0198566Y0112800D01*
X0198417Y0112519D01*
X0198275Y0112234D01*
X0198140Y0111946D01*
X0198012Y0111654D01*
X0197891Y0111360D01*
X0197778Y0111062D01*
X0197671Y0110762D01*
X0197572Y0110460D01*
X0197480Y0110155D01*
X0197396Y0109848D01*
X0197319Y0109539D01*
X0197250Y0109228D01*
X0197188Y0108916D01*
X0197134Y0108602D01*
X0197088Y0108288D01*
X0197049Y0107972D01*
X0197018Y0107655D01*
X0196995Y0107337D01*
X0196980Y0107019D01*
X0196972Y0106701D01*
X0196972Y0106383D01*
X0196980Y0106065D01*
X0196995Y0105747D01*
X0197018Y0105429D01*
X0197049Y0105112D01*
X0197088Y0104796D01*
X0197134Y0104482D01*
X0197188Y0104168D01*
X0197250Y0103856D01*
X0197319Y0103545D01*
X0197396Y0103236D01*
X0197480Y0102929D01*
X0197572Y0102624D01*
X0197671Y0102322D01*
X0197778Y0102022D01*
X0197891Y0101724D01*
X0198012Y0101430D01*
X0198140Y0101138D01*
X0198275Y0100850D01*
X0198417Y0100565D01*
X0198566Y0100284D01*
X0198722Y0100006D01*
X0198885Y0099733D01*
X0199054Y0099463D01*
X0199229Y0099198D01*
X0199411Y0098937D01*
X0199600Y0098680D01*
X0199794Y0098428D01*
X0199995Y0098181D01*
X0200202Y0097939D01*
X0200414Y0097702D01*
X0200632Y0097470D01*
X0200856Y0097243D01*
X0201085Y0097022D01*
X0201319Y0096807D01*
X0201559Y0096598D01*
X0201804Y0096394D01*
X0202053Y0096196D01*
X0202308Y0096005D01*
X0202567Y0095820D01*
X0202830Y0095641D01*
X0203097Y0095468D01*
X0203369Y0095303D01*
X0203645Y0095143D01*
X0203924Y0094991D01*
X0204207Y0094845D01*
X0204494Y0094707D01*
X0204784Y0094575D01*
X0205077Y0094451D01*
X0205373Y0094333D01*
X0205671Y0094223D01*
X0205973Y0094121D01*
X0206276Y0094025D01*
X0206582Y0093937D01*
X0206890Y0093857D01*
X0207200Y0093784D01*
X0207511Y0093718D01*
X0207825Y0093660D01*
X0208139Y0093610D01*
X0208454Y0093568D01*
X0208771Y0093533D01*
X0209088Y0093506D01*
X0209406Y0093487D01*
X0209724Y0093475D01*
X0210042Y0093471D01*
X0221872Y0093471D01*
X0221872Y0025558D01*
X0001400Y0025558D01*
D11*
X0104852Y0101631D02*
X0107468Y0101631D01*
X0104852Y0101631D02*
X0104852Y0105823D01*
X0107468Y0105823D01*
X0107468Y0101631D01*
X0107468Y0102751D02*
X0104852Y0102751D01*
X0104852Y0103871D02*
X0107468Y0103871D01*
X0107468Y0104991D02*
X0104852Y0104991D01*
X0112332Y0101631D02*
X0114948Y0101631D01*
X0112332Y0101631D02*
X0112332Y0105823D01*
X0114948Y0105823D01*
X0114948Y0101631D01*
X0114948Y0102751D02*
X0112332Y0102751D01*
X0112332Y0103871D02*
X0114948Y0103871D01*
X0114948Y0104991D02*
X0112332Y0104991D01*
X0112332Y0110292D02*
X0114948Y0110292D01*
X0112332Y0110292D02*
X0112332Y0114484D01*
X0114948Y0114484D01*
X0114948Y0110292D01*
X0114948Y0111412D02*
X0112332Y0111412D01*
X0112332Y0112532D02*
X0114948Y0112532D01*
X0114948Y0113652D02*
X0112332Y0113652D01*
X0198352Y0179292D02*
X0200968Y0179292D01*
X0198352Y0179292D02*
X0198352Y0183484D01*
X0200968Y0183484D01*
X0200968Y0179292D01*
X0200968Y0180412D02*
X0198352Y0180412D01*
X0198352Y0181532D02*
X0200968Y0181532D01*
X0200968Y0182652D02*
X0198352Y0182652D01*
X0202092Y0170631D02*
X0204708Y0170631D01*
X0202092Y0170631D02*
X0202092Y0174823D01*
X0204708Y0174823D01*
X0204708Y0170631D01*
X0204708Y0171751D02*
X0202092Y0171751D01*
X0202092Y0172871D02*
X0204708Y0172871D01*
X0204708Y0173991D02*
X0202092Y0173991D01*
X0205832Y0179292D02*
X0208448Y0179292D01*
X0205832Y0179292D02*
X0205832Y0183484D01*
X0208448Y0183484D01*
X0208448Y0179292D01*
X0208448Y0180412D02*
X0205832Y0180412D01*
X0205832Y0181532D02*
X0208448Y0181532D01*
X0208448Y0182652D02*
X0205832Y0182652D01*
D12*
X0199862Y0194674D02*
X0196418Y0194674D01*
X0199862Y0194674D02*
X0199862Y0190442D01*
X0196418Y0190442D01*
X0196418Y0194674D01*
X0196418Y0191916D02*
X0199862Y0191916D01*
X0199862Y0193390D02*
X0196418Y0193390D01*
X0192382Y0194674D02*
X0188938Y0194674D01*
X0192382Y0194674D02*
X0192382Y0190442D01*
X0188938Y0190442D01*
X0188938Y0194674D01*
X0188938Y0191916D02*
X0192382Y0191916D01*
X0192382Y0193390D02*
X0188938Y0193390D01*
X0184862Y0202442D02*
X0181418Y0202442D01*
X0181418Y0206674D01*
X0184862Y0206674D01*
X0184862Y0202442D01*
X0184862Y0203916D02*
X0181418Y0203916D01*
X0181418Y0205390D02*
X0184862Y0205390D01*
X0180784Y0213596D02*
X0180784Y0217040D01*
X0185016Y0217040D01*
X0185016Y0213596D01*
X0180784Y0213596D01*
X0180784Y0215070D02*
X0185016Y0215070D01*
X0185016Y0216544D02*
X0180784Y0216544D01*
X0180784Y0221076D02*
X0180784Y0224520D01*
X0185016Y0224520D01*
X0185016Y0221076D01*
X0180784Y0221076D01*
X0180784Y0222550D02*
X0185016Y0222550D01*
X0185016Y0224024D02*
X0180784Y0224024D01*
X0177382Y0202442D02*
X0173938Y0202442D01*
X0173938Y0206674D01*
X0177382Y0206674D01*
X0177382Y0202442D01*
X0177382Y0203916D02*
X0173938Y0203916D01*
X0173938Y0205390D02*
X0177382Y0205390D01*
X0193438Y0239174D02*
X0196882Y0239174D01*
X0196882Y0234942D01*
X0193438Y0234942D01*
X0193438Y0239174D01*
X0193438Y0236416D02*
X0196882Y0236416D01*
X0196882Y0237890D02*
X0193438Y0237890D01*
X0200918Y0239174D02*
X0204362Y0239174D01*
X0204362Y0234942D01*
X0200918Y0234942D01*
X0200918Y0239174D01*
X0200918Y0236416D02*
X0204362Y0236416D01*
X0204362Y0237890D02*
X0200918Y0237890D01*
X0200362Y0159674D02*
X0196918Y0159674D01*
X0200362Y0159674D02*
X0200362Y0155442D01*
X0196918Y0155442D01*
X0196918Y0159674D01*
X0196918Y0156916D02*
X0200362Y0156916D01*
X0200362Y0158390D02*
X0196918Y0158390D01*
X0192882Y0159674D02*
X0189438Y0159674D01*
X0192882Y0159674D02*
X0192882Y0155442D01*
X0189438Y0155442D01*
X0189438Y0159674D01*
X0189438Y0156916D02*
X0192882Y0156916D01*
X0192882Y0158390D02*
X0189438Y0158390D01*
X0189438Y0144942D02*
X0192882Y0144942D01*
X0189438Y0144942D02*
X0189438Y0149174D01*
X0192882Y0149174D01*
X0192882Y0144942D01*
X0192882Y0146416D02*
X0189438Y0146416D01*
X0189438Y0147890D02*
X0192882Y0147890D01*
X0196918Y0144942D02*
X0200362Y0144942D01*
X0196918Y0144942D02*
X0196918Y0149174D01*
X0200362Y0149174D01*
X0200362Y0144942D01*
X0200362Y0146416D02*
X0196918Y0146416D01*
X0196918Y0147890D02*
X0200362Y0147890D01*
X0195862Y0126942D02*
X0192418Y0126942D01*
X0192418Y0131174D01*
X0195862Y0131174D01*
X0195862Y0126942D01*
X0195862Y0128416D02*
X0192418Y0128416D01*
X0192418Y0129890D02*
X0195862Y0129890D01*
X0188382Y0126942D02*
X0184938Y0126942D01*
X0184938Y0131174D01*
X0188382Y0131174D01*
X0188382Y0126942D01*
X0188382Y0128416D02*
X0184938Y0128416D01*
X0184938Y0129890D02*
X0188382Y0129890D01*
X0179516Y0115520D02*
X0179516Y0112076D01*
X0175284Y0112076D01*
X0175284Y0115520D01*
X0179516Y0115520D01*
X0179516Y0113550D02*
X0175284Y0113550D01*
X0175284Y0115024D02*
X0179516Y0115024D01*
X0179516Y0108040D02*
X0179516Y0104596D01*
X0175284Y0104596D01*
X0175284Y0108040D01*
X0179516Y0108040D01*
X0179516Y0106070D02*
X0175284Y0106070D01*
X0175284Y0107544D02*
X0179516Y0107544D01*
X0169362Y0108174D02*
X0165918Y0108174D01*
X0169362Y0108174D02*
X0169362Y0103942D01*
X0165918Y0103942D01*
X0165918Y0108174D01*
X0165918Y0105416D02*
X0169362Y0105416D01*
X0169362Y0106890D02*
X0165918Y0106890D01*
X0161882Y0108174D02*
X0158438Y0108174D01*
X0161882Y0108174D02*
X0161882Y0103942D01*
X0158438Y0103942D01*
X0158438Y0108174D01*
X0158438Y0105416D02*
X0161882Y0105416D01*
X0161882Y0106890D02*
X0158438Y0106890D01*
X0148284Y0114096D02*
X0148284Y0117540D01*
X0152516Y0117540D01*
X0152516Y0114096D01*
X0148284Y0114096D01*
X0148284Y0115570D02*
X0152516Y0115570D01*
X0152516Y0117044D02*
X0148284Y0117044D01*
X0148284Y0121576D02*
X0148284Y0125020D01*
X0152516Y0125020D01*
X0152516Y0121576D01*
X0148284Y0121576D01*
X0148284Y0123050D02*
X0152516Y0123050D01*
X0152516Y0124524D02*
X0148284Y0124524D01*
X0147862Y0095442D02*
X0144418Y0095442D01*
X0144418Y0099674D01*
X0147862Y0099674D01*
X0147862Y0095442D01*
X0147862Y0096916D02*
X0144418Y0096916D01*
X0144418Y0098390D02*
X0147862Y0098390D01*
X0137784Y0083520D02*
X0137784Y0080076D01*
X0137784Y0083520D02*
X0142016Y0083520D01*
X0142016Y0080076D01*
X0137784Y0080076D01*
X0137784Y0081550D02*
X0142016Y0081550D01*
X0142016Y0083024D02*
X0137784Y0083024D01*
X0137784Y0076040D02*
X0137784Y0072596D01*
X0137784Y0076040D02*
X0142016Y0076040D01*
X0142016Y0072596D01*
X0137784Y0072596D01*
X0137784Y0074070D02*
X0142016Y0074070D01*
X0142016Y0075544D02*
X0137784Y0075544D01*
X0136938Y0095442D02*
X0140382Y0095442D01*
X0136938Y0095442D02*
X0136938Y0099674D01*
X0140382Y0099674D01*
X0140382Y0095442D01*
X0140382Y0096916D02*
X0136938Y0096916D01*
X0136938Y0098390D02*
X0140382Y0098390D01*
X0172284Y0126596D02*
X0172284Y0130040D01*
X0176516Y0130040D01*
X0176516Y0126596D01*
X0172284Y0126596D01*
X0172284Y0128070D02*
X0176516Y0128070D01*
X0176516Y0129544D02*
X0172284Y0129544D01*
X0172284Y0134076D02*
X0172284Y0137520D01*
X0176516Y0137520D01*
X0176516Y0134076D01*
X0172284Y0134076D01*
X0172284Y0135550D02*
X0176516Y0135550D01*
X0176516Y0137024D02*
X0172284Y0137024D01*
X0211516Y0085020D02*
X0211516Y0081576D01*
X0207284Y0081576D01*
X0207284Y0085020D01*
X0211516Y0085020D01*
X0211516Y0083050D02*
X0207284Y0083050D01*
X0207284Y0084524D02*
X0211516Y0084524D01*
X0211516Y0077540D02*
X0211516Y0074096D01*
X0207284Y0074096D01*
X0207284Y0077540D01*
X0211516Y0077540D01*
X0211516Y0075570D02*
X0207284Y0075570D01*
X0207284Y0077044D02*
X0211516Y0077044D01*
X0195784Y0065520D02*
X0195784Y0062076D01*
X0195784Y0065520D02*
X0200016Y0065520D01*
X0200016Y0062076D01*
X0195784Y0062076D01*
X0195784Y0063550D02*
X0200016Y0063550D01*
X0200016Y0065024D02*
X0195784Y0065024D01*
X0195784Y0058040D02*
X0195784Y0054596D01*
X0195784Y0058040D02*
X0200016Y0058040D01*
X0200016Y0054596D01*
X0195784Y0054596D01*
X0195784Y0056070D02*
X0200016Y0056070D01*
X0200016Y0057544D02*
X0195784Y0057544D01*
X0087284Y0245096D02*
X0087284Y0248540D01*
X0091516Y0248540D01*
X0091516Y0245096D01*
X0087284Y0245096D01*
X0087284Y0246570D02*
X0091516Y0246570D01*
X0091516Y0248044D02*
X0087284Y0248044D01*
X0087284Y0252576D02*
X0087284Y0256020D01*
X0091516Y0256020D01*
X0091516Y0252576D01*
X0087284Y0252576D01*
X0087284Y0254050D02*
X0091516Y0254050D01*
X0091516Y0255524D02*
X0087284Y0255524D01*
X0098284Y0300596D02*
X0098284Y0304040D01*
X0102516Y0304040D01*
X0102516Y0300596D01*
X0098284Y0300596D01*
X0098284Y0302070D02*
X0102516Y0302070D01*
X0102516Y0303544D02*
X0098284Y0303544D01*
X0098284Y0308076D02*
X0098284Y0311520D01*
X0102516Y0311520D01*
X0102516Y0308076D01*
X0098284Y0308076D01*
X0098284Y0309550D02*
X0102516Y0309550D01*
X0102516Y0311024D02*
X0098284Y0311024D01*
X0108284Y0311520D02*
X0108284Y0308076D01*
X0108284Y0311520D02*
X0112516Y0311520D01*
X0112516Y0308076D01*
X0108284Y0308076D01*
X0108284Y0309550D02*
X0112516Y0309550D01*
X0112516Y0311024D02*
X0108284Y0311024D01*
X0108284Y0304040D02*
X0108284Y0300596D01*
X0108284Y0304040D02*
X0112516Y0304040D01*
X0112516Y0300596D01*
X0108284Y0300596D01*
X0108284Y0302070D02*
X0112516Y0302070D01*
X0112516Y0303544D02*
X0108284Y0303544D01*
X0118284Y0304040D02*
X0118284Y0300596D01*
X0118284Y0304040D02*
X0122516Y0304040D01*
X0122516Y0300596D01*
X0118284Y0300596D01*
X0118284Y0302070D02*
X0122516Y0302070D01*
X0122516Y0303544D02*
X0118284Y0303544D01*
X0118284Y0308076D02*
X0118284Y0311520D01*
X0122516Y0311520D01*
X0122516Y0308076D01*
X0118284Y0308076D01*
X0118284Y0309550D02*
X0122516Y0309550D01*
X0122516Y0311024D02*
X0118284Y0311024D01*
X0022284Y0142020D02*
X0022284Y0138576D01*
X0022284Y0142020D02*
X0026516Y0142020D01*
X0026516Y0138576D01*
X0022284Y0138576D01*
X0022284Y0140050D02*
X0026516Y0140050D01*
X0026516Y0141524D02*
X0022284Y0141524D01*
X0022284Y0134540D02*
X0022284Y0131096D01*
X0022284Y0134540D02*
X0026516Y0134540D01*
X0026516Y0131096D01*
X0022284Y0131096D01*
X0022284Y0132570D02*
X0026516Y0132570D01*
X0026516Y0134044D02*
X0022284Y0134044D01*
X0011784Y0134540D02*
X0011784Y0131096D01*
X0011784Y0134540D02*
X0016016Y0134540D01*
X0016016Y0131096D01*
X0011784Y0131096D01*
X0011784Y0132570D02*
X0016016Y0132570D01*
X0016016Y0134044D02*
X0011784Y0134044D01*
X0011784Y0138576D02*
X0011784Y0142020D01*
X0016016Y0142020D01*
X0016016Y0138576D01*
X0011784Y0138576D01*
X0011784Y0140050D02*
X0016016Y0140050D01*
X0016016Y0141524D02*
X0011784Y0141524D01*
X0016016Y0153096D02*
X0016016Y0156540D01*
X0016016Y0153096D02*
X0011784Y0153096D01*
X0011784Y0156540D01*
X0016016Y0156540D01*
X0016016Y0154570D02*
X0011784Y0154570D01*
X0011784Y0156044D02*
X0016016Y0156044D01*
X0016016Y0160576D02*
X0016016Y0164020D01*
X0016016Y0160576D02*
X0011784Y0160576D01*
X0011784Y0164020D01*
X0016016Y0164020D01*
X0016016Y0162050D02*
X0011784Y0162050D01*
X0011784Y0163524D02*
X0016016Y0163524D01*
X0034938Y0055942D02*
X0038382Y0055942D01*
X0034938Y0055942D02*
X0034938Y0060174D01*
X0038382Y0060174D01*
X0038382Y0055942D01*
X0038382Y0057416D02*
X0034938Y0057416D01*
X0034938Y0058890D02*
X0038382Y0058890D01*
X0042418Y0055942D02*
X0045862Y0055942D01*
X0042418Y0055942D02*
X0042418Y0060174D01*
X0045862Y0060174D01*
X0045862Y0055942D01*
X0045862Y0057416D02*
X0042418Y0057416D01*
X0042418Y0058890D02*
X0045862Y0058890D01*
X0087016Y0069596D02*
X0087016Y0073040D01*
X0087016Y0069596D02*
X0082784Y0069596D01*
X0082784Y0073040D01*
X0087016Y0073040D01*
X0087016Y0071070D02*
X0082784Y0071070D01*
X0082784Y0072544D02*
X0087016Y0072544D01*
X0087016Y0077076D02*
X0087016Y0080520D01*
X0087016Y0077076D02*
X0082784Y0077076D01*
X0082784Y0080520D01*
X0087016Y0080520D01*
X0087016Y0078550D02*
X0082784Y0078550D01*
X0082784Y0080024D02*
X0087016Y0080024D01*
D13*
X0105363Y0110410D02*
X0108531Y0110410D01*
X0105363Y0110410D02*
X0105363Y0114366D01*
X0108531Y0114366D01*
X0108531Y0110410D01*
X0108531Y0111766D02*
X0105363Y0111766D01*
X0105363Y0113122D02*
X0108531Y0113122D01*
D14*
X0069546Y0146030D02*
X0065278Y0146030D01*
X0065278Y0151086D01*
X0069546Y0151086D01*
X0069546Y0146030D01*
X0069546Y0147859D02*
X0065278Y0147859D01*
X0065278Y0149688D02*
X0069546Y0149688D01*
X0058522Y0146030D02*
X0054254Y0146030D01*
X0054254Y0151086D01*
X0058522Y0151086D01*
X0058522Y0146030D01*
X0058522Y0147859D02*
X0054254Y0147859D01*
X0054254Y0149688D02*
X0058522Y0149688D01*
X0044928Y0131204D02*
X0044928Y0126936D01*
X0039872Y0126936D01*
X0039872Y0131204D01*
X0044928Y0131204D01*
X0044928Y0128765D02*
X0039872Y0128765D01*
X0039872Y0130594D02*
X0044928Y0130594D01*
X0044928Y0120180D02*
X0044928Y0115912D01*
X0039872Y0115912D01*
X0039872Y0120180D01*
X0044928Y0120180D01*
X0044928Y0117741D02*
X0039872Y0117741D01*
X0039872Y0119570D02*
X0044928Y0119570D01*
X0034046Y0074030D02*
X0029778Y0074030D01*
X0029778Y0079086D01*
X0034046Y0079086D01*
X0034046Y0074030D01*
X0034046Y0075859D02*
X0029778Y0075859D01*
X0029778Y0077688D02*
X0034046Y0077688D01*
X0023022Y0074030D02*
X0018754Y0074030D01*
X0018754Y0079086D01*
X0023022Y0079086D01*
X0023022Y0074030D01*
X0023022Y0075859D02*
X0018754Y0075859D01*
X0018754Y0077688D02*
X0023022Y0077688D01*
X0081872Y0215412D02*
X0081872Y0219680D01*
X0086928Y0219680D01*
X0086928Y0215412D01*
X0081872Y0215412D01*
X0081872Y0217241D02*
X0086928Y0217241D01*
X0086928Y0219070D02*
X0081872Y0219070D01*
X0081872Y0226436D02*
X0081872Y0230704D01*
X0086928Y0230704D01*
X0086928Y0226436D01*
X0081872Y0226436D01*
X0081872Y0228265D02*
X0086928Y0228265D01*
X0086928Y0230094D02*
X0081872Y0230094D01*
X0154928Y0050204D02*
X0154928Y0045936D01*
X0149872Y0045936D01*
X0149872Y0050204D01*
X0154928Y0050204D01*
X0154928Y0047765D02*
X0149872Y0047765D01*
X0149872Y0049594D02*
X0154928Y0049594D01*
X0154928Y0039180D02*
X0154928Y0034912D01*
X0149872Y0034912D01*
X0149872Y0039180D01*
X0154928Y0039180D01*
X0154928Y0036741D02*
X0149872Y0036741D01*
X0149872Y0038570D02*
X0154928Y0038570D01*
X0206372Y0140412D02*
X0206372Y0144680D01*
X0211428Y0144680D01*
X0211428Y0140412D01*
X0206372Y0140412D01*
X0206372Y0142241D02*
X0211428Y0142241D01*
X0211428Y0144070D02*
X0206372Y0144070D01*
X0206372Y0151436D02*
X0206372Y0155704D01*
X0211428Y0155704D01*
X0211428Y0151436D01*
X0206372Y0151436D01*
X0206372Y0153265D02*
X0211428Y0153265D01*
X0211428Y0155094D02*
X0206372Y0155094D01*
D15*
X0059810Y0137268D02*
X0059810Y0134048D01*
X0052590Y0134048D01*
X0052590Y0137268D01*
X0059810Y0137268D01*
X0059810Y0135427D02*
X0052590Y0135427D01*
X0052590Y0136806D02*
X0059810Y0136806D01*
X0059810Y0128168D02*
X0059810Y0124948D01*
X0052590Y0124948D01*
X0052590Y0128168D01*
X0059810Y0128168D01*
X0059810Y0126327D02*
X0052590Y0126327D01*
X0052590Y0127706D02*
X0059810Y0127706D01*
X0059810Y0119068D02*
X0059810Y0115848D01*
X0052590Y0115848D01*
X0052590Y0119068D01*
X0059810Y0119068D01*
X0059810Y0117227D02*
X0052590Y0117227D01*
X0052590Y0118606D02*
X0059810Y0118606D01*
D16*
X0086998Y0119771D02*
X0086998Y0133345D01*
X0086998Y0119771D02*
X0077362Y0119771D01*
X0077362Y0133345D01*
X0086998Y0133345D01*
X0086998Y0121744D02*
X0077362Y0121744D01*
X0077362Y0123717D02*
X0086998Y0123717D01*
X0086998Y0125690D02*
X0077362Y0125690D01*
X0077362Y0127663D02*
X0086998Y0127663D01*
X0086998Y0129636D02*
X0077362Y0129636D01*
X0077362Y0131609D02*
X0086998Y0131609D01*
D17*
X0105318Y0093480D02*
X0105318Y0082636D01*
X0099474Y0082636D01*
X0099474Y0093480D01*
X0105318Y0093480D01*
X0105318Y0084583D02*
X0099474Y0084583D01*
X0099474Y0086530D02*
X0105318Y0086530D01*
X0105318Y0088477D02*
X0099474Y0088477D01*
X0099474Y0090424D02*
X0105318Y0090424D01*
X0105318Y0092371D02*
X0099474Y0092371D01*
X0122326Y0093480D02*
X0122326Y0082636D01*
X0116482Y0082636D01*
X0116482Y0093480D01*
X0122326Y0093480D01*
X0122326Y0084583D02*
X0116482Y0084583D01*
X0116482Y0086530D02*
X0122326Y0086530D01*
X0122326Y0088477D02*
X0116482Y0088477D01*
X0116482Y0090424D02*
X0122326Y0090424D01*
X0122326Y0092371D02*
X0116482Y0092371D01*
D18*
X0114881Y0054460D02*
X0114881Y0050466D01*
X0108919Y0050466D01*
X0108919Y0054460D01*
X0114881Y0054460D01*
X0114881Y0052177D02*
X0108919Y0052177D01*
X0108919Y0053888D02*
X0114881Y0053888D01*
X0114881Y0042649D02*
X0114881Y0038655D01*
X0108919Y0038655D01*
X0108919Y0042649D01*
X0114881Y0042649D01*
X0114881Y0040366D02*
X0108919Y0040366D01*
X0108919Y0042077D02*
X0114881Y0042077D01*
X0055803Y0102077D02*
X0051809Y0102077D01*
X0051809Y0108039D01*
X0055803Y0108039D01*
X0055803Y0102077D01*
X0055803Y0103788D02*
X0051809Y0103788D01*
X0051809Y0105499D02*
X0055803Y0105499D01*
X0055803Y0107210D02*
X0051809Y0107210D01*
X0043991Y0102077D02*
X0039997Y0102077D01*
X0039997Y0108039D01*
X0043991Y0108039D01*
X0043991Y0102077D01*
X0043991Y0103788D02*
X0039997Y0103788D01*
X0039997Y0105499D02*
X0043991Y0105499D01*
X0043991Y0107210D02*
X0039997Y0107210D01*
D19*
X0028485Y0063985D02*
X0028485Y0062611D01*
X0024551Y0062611D01*
X0024551Y0063985D01*
X0028485Y0063985D01*
X0028485Y0063200D02*
X0024551Y0063200D01*
X0024551Y0063789D02*
X0028485Y0063789D01*
X0028485Y0060245D02*
X0028485Y0058871D01*
X0024551Y0058871D01*
X0024551Y0060245D01*
X0028485Y0060245D01*
X0028485Y0059460D02*
X0024551Y0059460D01*
X0024551Y0060049D02*
X0028485Y0060049D01*
X0028485Y0056505D02*
X0028485Y0055131D01*
X0024551Y0055131D01*
X0024551Y0056505D01*
X0028485Y0056505D01*
X0028485Y0055720D02*
X0024551Y0055720D01*
X0024551Y0056309D02*
X0028485Y0056309D01*
X0018249Y0056505D02*
X0018249Y0055131D01*
X0014315Y0055131D01*
X0014315Y0056505D01*
X0018249Y0056505D01*
X0018249Y0055720D02*
X0014315Y0055720D01*
X0014315Y0056309D02*
X0018249Y0056309D01*
X0018249Y0058871D02*
X0018249Y0060245D01*
X0018249Y0058871D02*
X0014315Y0058871D01*
X0014315Y0060245D01*
X0018249Y0060245D01*
X0018249Y0059460D02*
X0014315Y0059460D01*
X0014315Y0060049D02*
X0018249Y0060049D01*
X0018249Y0062611D02*
X0018249Y0063985D01*
X0018249Y0062611D02*
X0014315Y0062611D01*
X0014315Y0063985D01*
X0018249Y0063985D01*
X0018249Y0063200D02*
X0014315Y0063200D01*
X0014315Y0063789D02*
X0018249Y0063789D01*
X0157973Y0117907D02*
X0159347Y0117907D01*
X0159347Y0113973D01*
X0157973Y0113973D01*
X0157973Y0117907D01*
X0157973Y0114562D02*
X0159347Y0114562D01*
X0159347Y0115151D02*
X0157973Y0115151D01*
X0157973Y0115740D02*
X0159347Y0115740D01*
X0159347Y0116329D02*
X0157973Y0116329D01*
X0157973Y0116918D02*
X0159347Y0116918D01*
X0159347Y0117507D02*
X0157973Y0117507D01*
X0157973Y0128143D02*
X0159347Y0128143D01*
X0159347Y0124209D01*
X0157973Y0124209D01*
X0157973Y0128143D01*
X0157973Y0124798D02*
X0159347Y0124798D01*
X0159347Y0125387D02*
X0157973Y0125387D01*
X0157973Y0125976D02*
X0159347Y0125976D01*
X0159347Y0126565D02*
X0157973Y0126565D01*
X0157973Y0127154D02*
X0159347Y0127154D01*
X0159347Y0127743D02*
X0157973Y0127743D01*
X0161713Y0128143D02*
X0163087Y0128143D01*
X0163087Y0124209D01*
X0161713Y0124209D01*
X0161713Y0128143D01*
X0161713Y0124798D02*
X0163087Y0124798D01*
X0163087Y0125387D02*
X0161713Y0125387D01*
X0161713Y0125976D02*
X0163087Y0125976D01*
X0163087Y0126565D02*
X0161713Y0126565D01*
X0161713Y0127154D02*
X0163087Y0127154D01*
X0163087Y0127743D02*
X0161713Y0127743D01*
X0165453Y0128143D02*
X0166827Y0128143D01*
X0166827Y0124209D01*
X0165453Y0124209D01*
X0165453Y0128143D01*
X0165453Y0124798D02*
X0166827Y0124798D01*
X0166827Y0125387D02*
X0165453Y0125387D01*
X0165453Y0125976D02*
X0166827Y0125976D01*
X0166827Y0126565D02*
X0165453Y0126565D01*
X0165453Y0127154D02*
X0166827Y0127154D01*
X0166827Y0127743D02*
X0165453Y0127743D01*
X0165453Y0117907D02*
X0166827Y0117907D01*
X0166827Y0113973D01*
X0165453Y0113973D01*
X0165453Y0117907D01*
X0165453Y0114562D02*
X0166827Y0114562D01*
X0166827Y0115151D02*
X0165453Y0115151D01*
X0165453Y0115740D02*
X0166827Y0115740D01*
X0166827Y0116329D02*
X0165453Y0116329D01*
X0165453Y0116918D02*
X0166827Y0116918D01*
X0166827Y0117507D02*
X0165453Y0117507D01*
X0163087Y0117907D02*
X0161713Y0117907D01*
X0163087Y0117907D02*
X0163087Y0113973D01*
X0161713Y0113973D01*
X0161713Y0117907D01*
X0161713Y0114562D02*
X0163087Y0114562D01*
X0163087Y0115151D02*
X0161713Y0115151D01*
X0161713Y0115740D02*
X0163087Y0115740D01*
X0163087Y0116329D02*
X0161713Y0116329D01*
X0161713Y0116918D02*
X0163087Y0116918D01*
X0163087Y0117507D02*
X0161713Y0117507D01*
X0191749Y0081485D02*
X0191749Y0080111D01*
X0187815Y0080111D01*
X0187815Y0081485D01*
X0191749Y0081485D01*
X0191749Y0080700D02*
X0187815Y0080700D01*
X0187815Y0081289D02*
X0191749Y0081289D01*
X0191749Y0077745D02*
X0191749Y0076371D01*
X0187815Y0076371D01*
X0187815Y0077745D01*
X0191749Y0077745D01*
X0191749Y0076960D02*
X0187815Y0076960D01*
X0187815Y0077549D02*
X0191749Y0077549D01*
X0191749Y0074005D02*
X0191749Y0072631D01*
X0187815Y0072631D01*
X0187815Y0074005D01*
X0191749Y0074005D01*
X0191749Y0073220D02*
X0187815Y0073220D01*
X0187815Y0073809D02*
X0191749Y0073809D01*
X0201985Y0074005D02*
X0201985Y0072631D01*
X0198051Y0072631D01*
X0198051Y0074005D01*
X0201985Y0074005D01*
X0201985Y0073220D02*
X0198051Y0073220D01*
X0198051Y0073809D02*
X0201985Y0073809D01*
X0201985Y0076371D02*
X0201985Y0077745D01*
X0201985Y0076371D02*
X0198051Y0076371D01*
X0198051Y0077745D01*
X0201985Y0077745D01*
X0201985Y0076960D02*
X0198051Y0076960D01*
X0198051Y0077549D02*
X0201985Y0077549D01*
X0201985Y0080111D02*
X0201985Y0081485D01*
X0201985Y0080111D02*
X0198051Y0080111D01*
X0198051Y0081485D01*
X0201985Y0081485D01*
X0201985Y0080700D02*
X0198051Y0080700D01*
X0198051Y0081289D02*
X0201985Y0081289D01*
D20*
X0188239Y0054699D02*
X0184521Y0054699D01*
X0184521Y0058417D01*
X0188239Y0058417D01*
X0188239Y0054699D01*
X0188239Y0056292D02*
X0184521Y0056292D01*
X0184521Y0057885D02*
X0188239Y0057885D01*
X0173279Y0054699D02*
X0169561Y0054699D01*
X0169561Y0058417D01*
X0173279Y0058417D01*
X0173279Y0054699D01*
X0173279Y0056292D02*
X0169561Y0056292D01*
X0169561Y0057885D02*
X0173279Y0057885D01*
M02*
