G75*
%MOIN*%
%OFA0B0*%
%FSLAX25Y25*%
%IPPOS*%
%LPD*%
%AMOC8*
5,1,8,0,0,1.08239X$1,22.5*
%
%ADD10C,0.00000*%
%ADD11C,0.00591*%
%ADD12C,0.01000*%
%ADD13C,0.00600*%
%ADD14C,0.00800*%
%ADD15C,0.00500*%
%ADD16C,0.00787*%
D10*
X0001400Y0025558D02*
X0001400Y0093471D01*
X0013231Y0093471D01*
X0013549Y0093475D01*
X0013867Y0093487D01*
X0014185Y0093506D01*
X0014502Y0093533D01*
X0014819Y0093568D01*
X0015134Y0093610D01*
X0015448Y0093660D01*
X0015762Y0093718D01*
X0016073Y0093784D01*
X0016383Y0093857D01*
X0016691Y0093937D01*
X0016997Y0094025D01*
X0017300Y0094121D01*
X0017602Y0094223D01*
X0017900Y0094333D01*
X0018196Y0094451D01*
X0018489Y0094575D01*
X0018779Y0094707D01*
X0019066Y0094845D01*
X0019349Y0094991D01*
X0019628Y0095143D01*
X0019904Y0095303D01*
X0020176Y0095468D01*
X0020443Y0095641D01*
X0020706Y0095820D01*
X0020965Y0096005D01*
X0021220Y0096196D01*
X0021469Y0096394D01*
X0021714Y0096598D01*
X0021954Y0096807D01*
X0022188Y0097022D01*
X0022417Y0097243D01*
X0022641Y0097470D01*
X0022859Y0097702D01*
X0023071Y0097939D01*
X0023278Y0098181D01*
X0023479Y0098428D01*
X0023673Y0098680D01*
X0023862Y0098937D01*
X0024044Y0099198D01*
X0024219Y0099463D01*
X0024388Y0099733D01*
X0024551Y0100007D01*
X0024707Y0100284D01*
X0024856Y0100565D01*
X0024998Y0100850D01*
X0025133Y0101138D01*
X0025261Y0101430D01*
X0025382Y0101724D01*
X0025495Y0102022D01*
X0025602Y0102322D01*
X0025701Y0102624D01*
X0025793Y0102929D01*
X0025877Y0103236D01*
X0025954Y0103545D01*
X0026023Y0103856D01*
X0026085Y0104168D01*
X0026139Y0104482D01*
X0026185Y0104796D01*
X0026224Y0105112D01*
X0026255Y0105429D01*
X0026278Y0105747D01*
X0026293Y0106065D01*
X0026301Y0106383D01*
X0026301Y0106701D01*
X0026293Y0107019D01*
X0026278Y0107337D01*
X0026255Y0107655D01*
X0026224Y0107972D01*
X0026185Y0108288D01*
X0026139Y0108602D01*
X0026085Y0108916D01*
X0026023Y0109228D01*
X0025954Y0109539D01*
X0025877Y0109848D01*
X0025793Y0110155D01*
X0025701Y0110460D01*
X0025602Y0110762D01*
X0025495Y0111062D01*
X0025382Y0111360D01*
X0025261Y0111654D01*
X0025133Y0111946D01*
X0024998Y0112234D01*
X0024856Y0112519D01*
X0024707Y0112800D01*
X0024551Y0113078D01*
X0024388Y0113351D01*
X0024219Y0113621D01*
X0024044Y0113886D01*
X0023862Y0114147D01*
X0023673Y0114404D01*
X0023479Y0114656D01*
X0023278Y0114903D01*
X0023071Y0115145D01*
X0022859Y0115382D01*
X0022641Y0115614D01*
X0022417Y0115841D01*
X0022188Y0116062D01*
X0021954Y0116277D01*
X0021714Y0116486D01*
X0021469Y0116690D01*
X0021220Y0116888D01*
X0020965Y0117079D01*
X0020706Y0117264D01*
X0020443Y0117443D01*
X0020176Y0117616D01*
X0019904Y0117781D01*
X0019628Y0117941D01*
X0019349Y0118093D01*
X0019066Y0118239D01*
X0018779Y0118377D01*
X0018489Y0118509D01*
X0018196Y0118633D01*
X0017900Y0118751D01*
X0017602Y0118861D01*
X0017300Y0118963D01*
X0016997Y0119059D01*
X0016691Y0119147D01*
X0016383Y0119227D01*
X0016073Y0119300D01*
X0015762Y0119366D01*
X0015448Y0119424D01*
X0015134Y0119474D01*
X0014819Y0119516D01*
X0014502Y0119551D01*
X0014185Y0119578D01*
X0013867Y0119597D01*
X0013549Y0119609D01*
X0013231Y0119613D01*
X0001400Y0119613D01*
X0001400Y0254337D01*
X0013231Y0254337D01*
X0013549Y0254341D01*
X0013867Y0254353D01*
X0014185Y0254372D01*
X0014502Y0254399D01*
X0014819Y0254434D01*
X0015134Y0254476D01*
X0015448Y0254526D01*
X0015762Y0254584D01*
X0016073Y0254650D01*
X0016383Y0254723D01*
X0016691Y0254803D01*
X0016997Y0254891D01*
X0017300Y0254987D01*
X0017602Y0255089D01*
X0017900Y0255199D01*
X0018196Y0255317D01*
X0018489Y0255441D01*
X0018779Y0255573D01*
X0019066Y0255711D01*
X0019349Y0255857D01*
X0019628Y0256009D01*
X0019904Y0256169D01*
X0020176Y0256334D01*
X0020443Y0256507D01*
X0020706Y0256686D01*
X0020965Y0256871D01*
X0021220Y0257062D01*
X0021469Y0257260D01*
X0021714Y0257464D01*
X0021954Y0257673D01*
X0022188Y0257888D01*
X0022417Y0258109D01*
X0022641Y0258336D01*
X0022859Y0258568D01*
X0023071Y0258805D01*
X0023278Y0259047D01*
X0023479Y0259294D01*
X0023673Y0259546D01*
X0023862Y0259803D01*
X0024044Y0260064D01*
X0024219Y0260329D01*
X0024388Y0260599D01*
X0024551Y0260873D01*
X0024707Y0261150D01*
X0024856Y0261431D01*
X0024998Y0261716D01*
X0025133Y0262004D01*
X0025261Y0262296D01*
X0025382Y0262590D01*
X0025495Y0262888D01*
X0025602Y0263188D01*
X0025701Y0263490D01*
X0025793Y0263795D01*
X0025877Y0264102D01*
X0025954Y0264411D01*
X0026023Y0264722D01*
X0026085Y0265034D01*
X0026139Y0265348D01*
X0026185Y0265662D01*
X0026224Y0265978D01*
X0026255Y0266295D01*
X0026278Y0266613D01*
X0026293Y0266931D01*
X0026301Y0267249D01*
X0026301Y0267567D01*
X0026293Y0267885D01*
X0026278Y0268203D01*
X0026255Y0268521D01*
X0026224Y0268838D01*
X0026185Y0269154D01*
X0026139Y0269468D01*
X0026085Y0269782D01*
X0026023Y0270094D01*
X0025954Y0270405D01*
X0025877Y0270714D01*
X0025793Y0271021D01*
X0025701Y0271326D01*
X0025602Y0271628D01*
X0025495Y0271928D01*
X0025382Y0272226D01*
X0025261Y0272520D01*
X0025133Y0272812D01*
X0024998Y0273100D01*
X0024856Y0273385D01*
X0024707Y0273666D01*
X0024551Y0273944D01*
X0024388Y0274217D01*
X0024219Y0274487D01*
X0024044Y0274752D01*
X0023862Y0275013D01*
X0023673Y0275270D01*
X0023479Y0275522D01*
X0023278Y0275769D01*
X0023071Y0276011D01*
X0022859Y0276248D01*
X0022641Y0276480D01*
X0022417Y0276707D01*
X0022188Y0276928D01*
X0021954Y0277143D01*
X0021714Y0277352D01*
X0021469Y0277556D01*
X0021220Y0277754D01*
X0020965Y0277945D01*
X0020706Y0278130D01*
X0020443Y0278309D01*
X0020176Y0278482D01*
X0019904Y0278647D01*
X0019628Y0278807D01*
X0019349Y0278959D01*
X0019066Y0279105D01*
X0018779Y0279243D01*
X0018489Y0279375D01*
X0018196Y0279499D01*
X0017900Y0279617D01*
X0017602Y0279727D01*
X0017300Y0279829D01*
X0016997Y0279925D01*
X0016691Y0280013D01*
X0016383Y0280093D01*
X0016073Y0280166D01*
X0015762Y0280232D01*
X0015448Y0280290D01*
X0015134Y0280340D01*
X0014819Y0280382D01*
X0014502Y0280417D01*
X0014185Y0280444D01*
X0013867Y0280463D01*
X0013549Y0280475D01*
X0013231Y0280479D01*
X0001400Y0280479D01*
X0001400Y0348392D01*
X0221872Y0348392D01*
X0221872Y0280479D01*
X0210042Y0280479D01*
X0209724Y0280475D01*
X0209406Y0280463D01*
X0209088Y0280444D01*
X0208771Y0280417D01*
X0208454Y0280382D01*
X0208139Y0280340D01*
X0207825Y0280290D01*
X0207511Y0280232D01*
X0207200Y0280166D01*
X0206890Y0280093D01*
X0206582Y0280013D01*
X0206276Y0279925D01*
X0205973Y0279829D01*
X0205671Y0279727D01*
X0205373Y0279617D01*
X0205077Y0279499D01*
X0204784Y0279375D01*
X0204494Y0279243D01*
X0204207Y0279105D01*
X0203924Y0278959D01*
X0203645Y0278807D01*
X0203369Y0278647D01*
X0203097Y0278482D01*
X0202830Y0278309D01*
X0202567Y0278130D01*
X0202308Y0277945D01*
X0202053Y0277754D01*
X0201804Y0277556D01*
X0201559Y0277352D01*
X0201319Y0277143D01*
X0201085Y0276928D01*
X0200856Y0276707D01*
X0200632Y0276480D01*
X0200414Y0276248D01*
X0200202Y0276011D01*
X0199995Y0275769D01*
X0199794Y0275522D01*
X0199600Y0275270D01*
X0199411Y0275013D01*
X0199229Y0274752D01*
X0199054Y0274487D01*
X0198885Y0274217D01*
X0198722Y0273944D01*
X0198566Y0273666D01*
X0198417Y0273385D01*
X0198275Y0273100D01*
X0198140Y0272812D01*
X0198012Y0272520D01*
X0197891Y0272226D01*
X0197778Y0271928D01*
X0197671Y0271628D01*
X0197572Y0271326D01*
X0197480Y0271021D01*
X0197396Y0270714D01*
X0197319Y0270405D01*
X0197250Y0270094D01*
X0197188Y0269782D01*
X0197134Y0269468D01*
X0197088Y0269154D01*
X0197049Y0268838D01*
X0197018Y0268521D01*
X0196995Y0268203D01*
X0196980Y0267885D01*
X0196972Y0267567D01*
X0196972Y0267249D01*
X0196980Y0266931D01*
X0196995Y0266613D01*
X0197018Y0266295D01*
X0197049Y0265978D01*
X0197088Y0265662D01*
X0197134Y0265348D01*
X0197188Y0265034D01*
X0197250Y0264722D01*
X0197319Y0264411D01*
X0197396Y0264102D01*
X0197480Y0263795D01*
X0197572Y0263490D01*
X0197671Y0263188D01*
X0197778Y0262888D01*
X0197891Y0262590D01*
X0198012Y0262296D01*
X0198140Y0262004D01*
X0198275Y0261716D01*
X0198417Y0261431D01*
X0198566Y0261150D01*
X0198722Y0260872D01*
X0198885Y0260599D01*
X0199054Y0260329D01*
X0199229Y0260064D01*
X0199411Y0259803D01*
X0199600Y0259546D01*
X0199794Y0259294D01*
X0199995Y0259047D01*
X0200202Y0258805D01*
X0200414Y0258568D01*
X0200632Y0258336D01*
X0200856Y0258109D01*
X0201085Y0257888D01*
X0201319Y0257673D01*
X0201559Y0257464D01*
X0201804Y0257260D01*
X0202053Y0257062D01*
X0202308Y0256871D01*
X0202567Y0256686D01*
X0202830Y0256507D01*
X0203097Y0256334D01*
X0203369Y0256169D01*
X0203645Y0256009D01*
X0203924Y0255857D01*
X0204207Y0255711D01*
X0204494Y0255573D01*
X0204784Y0255441D01*
X0205077Y0255317D01*
X0205373Y0255199D01*
X0205671Y0255089D01*
X0205973Y0254987D01*
X0206276Y0254891D01*
X0206582Y0254803D01*
X0206890Y0254723D01*
X0207200Y0254650D01*
X0207511Y0254584D01*
X0207825Y0254526D01*
X0208139Y0254476D01*
X0208454Y0254434D01*
X0208771Y0254399D01*
X0209088Y0254372D01*
X0209406Y0254353D01*
X0209724Y0254341D01*
X0210042Y0254337D01*
X0221872Y0254337D01*
X0221872Y0119613D01*
X0210042Y0119613D01*
X0209724Y0119609D01*
X0209406Y0119597D01*
X0209088Y0119578D01*
X0208771Y0119551D01*
X0208454Y0119516D01*
X0208139Y0119474D01*
X0207825Y0119424D01*
X0207511Y0119366D01*
X0207200Y0119300D01*
X0206890Y0119227D01*
X0206582Y0119147D01*
X0206276Y0119059D01*
X0205973Y0118963D01*
X0205671Y0118861D01*
X0205373Y0118751D01*
X0205077Y0118633D01*
X0204784Y0118509D01*
X0204494Y0118377D01*
X0204207Y0118239D01*
X0203924Y0118093D01*
X0203645Y0117941D01*
X0203369Y0117781D01*
X0203097Y0117616D01*
X0202830Y0117443D01*
X0202567Y0117264D01*
X0202308Y0117079D01*
X0202053Y0116888D01*
X0201804Y0116690D01*
X0201559Y0116486D01*
X0201319Y0116277D01*
X0201085Y0116062D01*
X0200856Y0115841D01*
X0200632Y0115614D01*
X0200414Y0115382D01*
X0200202Y0115145D01*
X0199995Y0114903D01*
X0199794Y0114656D01*
X0199600Y0114404D01*
X0199411Y0114147D01*
X0199229Y0113886D01*
X0199054Y0113621D01*
X0198885Y0113351D01*
X0198722Y0113077D01*
X0198566Y0112800D01*
X0198417Y0112519D01*
X0198275Y0112234D01*
X0198140Y0111946D01*
X0198012Y0111654D01*
X0197891Y0111360D01*
X0197778Y0111062D01*
X0197671Y0110762D01*
X0197572Y0110460D01*
X0197480Y0110155D01*
X0197396Y0109848D01*
X0197319Y0109539D01*
X0197250Y0109228D01*
X0197188Y0108916D01*
X0197134Y0108602D01*
X0197088Y0108288D01*
X0197049Y0107972D01*
X0197018Y0107655D01*
X0196995Y0107337D01*
X0196980Y0107019D01*
X0196972Y0106701D01*
X0196972Y0106383D01*
X0196980Y0106065D01*
X0196995Y0105747D01*
X0197018Y0105429D01*
X0197049Y0105112D01*
X0197088Y0104796D01*
X0197134Y0104482D01*
X0197188Y0104168D01*
X0197250Y0103856D01*
X0197319Y0103545D01*
X0197396Y0103236D01*
X0197480Y0102929D01*
X0197572Y0102624D01*
X0197671Y0102322D01*
X0197778Y0102022D01*
X0197891Y0101724D01*
X0198012Y0101430D01*
X0198140Y0101138D01*
X0198275Y0100850D01*
X0198417Y0100565D01*
X0198566Y0100284D01*
X0198722Y0100006D01*
X0198885Y0099733D01*
X0199054Y0099463D01*
X0199229Y0099198D01*
X0199411Y0098937D01*
X0199600Y0098680D01*
X0199794Y0098428D01*
X0199995Y0098181D01*
X0200202Y0097939D01*
X0200414Y0097702D01*
X0200632Y0097470D01*
X0200856Y0097243D01*
X0201085Y0097022D01*
X0201319Y0096807D01*
X0201559Y0096598D01*
X0201804Y0096394D01*
X0202053Y0096196D01*
X0202308Y0096005D01*
X0202567Y0095820D01*
X0202830Y0095641D01*
X0203097Y0095468D01*
X0203369Y0095303D01*
X0203645Y0095143D01*
X0203924Y0094991D01*
X0204207Y0094845D01*
X0204494Y0094707D01*
X0204784Y0094575D01*
X0205077Y0094451D01*
X0205373Y0094333D01*
X0205671Y0094223D01*
X0205973Y0094121D01*
X0206276Y0094025D01*
X0206582Y0093937D01*
X0206890Y0093857D01*
X0207200Y0093784D01*
X0207511Y0093718D01*
X0207825Y0093660D01*
X0208139Y0093610D01*
X0208454Y0093568D01*
X0208771Y0093533D01*
X0209088Y0093506D01*
X0209406Y0093487D01*
X0209724Y0093475D01*
X0210042Y0093471D01*
X0221872Y0093471D01*
X0221872Y0025558D01*
X0001400Y0025558D01*
D11*
X0020400Y0054058D02*
X0020400Y0065058D01*
X0015900Y0071558D02*
X0015900Y0081558D01*
X0036900Y0081558D01*
X0036900Y0071558D01*
X0015900Y0071558D01*
X0032400Y0062558D02*
X0032400Y0053558D01*
X0048400Y0053558D01*
X0048400Y0062558D01*
X0032400Y0062558D01*
X0037400Y0113058D02*
X0047400Y0113058D01*
X0047400Y0134058D01*
X0037400Y0134058D01*
X0037400Y0113058D01*
X0028900Y0128558D02*
X0028900Y0144558D01*
X0019900Y0144558D01*
X0019900Y0128558D01*
X0028900Y0128558D01*
X0018400Y0128558D02*
X0018400Y0144558D01*
X0009400Y0144558D01*
X0009400Y0128558D01*
X0018400Y0128558D01*
X0018400Y0150558D02*
X0009400Y0150558D01*
X0009400Y0166558D01*
X0018400Y0166558D01*
X0018400Y0150558D01*
X0051400Y0153558D02*
X0051400Y0143558D01*
X0072400Y0143558D01*
X0072400Y0153558D01*
X0051400Y0153558D01*
X0079400Y0212558D02*
X0089400Y0212558D01*
X0089400Y0233558D01*
X0079400Y0233558D01*
X0079400Y0212558D01*
X0084900Y0242558D02*
X0084900Y0258558D01*
X0093900Y0258558D01*
X0093900Y0242558D01*
X0084900Y0242558D01*
X0095900Y0298058D02*
X0104900Y0298058D01*
X0104900Y0314058D01*
X0095900Y0314058D01*
X0095900Y0298058D01*
X0105900Y0298058D02*
X0105900Y0314058D01*
X0114900Y0314058D01*
X0114900Y0298058D01*
X0105900Y0298058D01*
X0115900Y0298058D02*
X0124900Y0298058D01*
X0124900Y0314058D01*
X0115900Y0314058D01*
X0115900Y0298058D01*
X0171400Y0209058D02*
X0171400Y0200058D01*
X0187400Y0200058D01*
X0187400Y0209058D01*
X0171400Y0209058D01*
X0178400Y0211058D02*
X0178400Y0227058D01*
X0187400Y0227058D01*
X0187400Y0211058D01*
X0178400Y0211058D01*
X0186400Y0197058D02*
X0202400Y0197058D01*
X0202400Y0188058D01*
X0186400Y0188058D01*
X0186400Y0197058D01*
X0198900Y0177058D02*
X0207900Y0177058D01*
X0202900Y0162058D02*
X0202900Y0153058D01*
X0186900Y0153058D01*
X0186900Y0162058D01*
X0202900Y0162058D01*
X0203900Y0158558D02*
X0203900Y0137558D01*
X0213900Y0137558D01*
X0213900Y0158558D01*
X0203900Y0158558D01*
X0202900Y0151558D02*
X0202900Y0142558D01*
X0186900Y0142558D01*
X0186900Y0151558D01*
X0202900Y0151558D01*
X0198400Y0133558D02*
X0182400Y0133558D01*
X0182400Y0124558D01*
X0198400Y0124558D01*
X0198400Y0133558D01*
X0181900Y0118058D02*
X0181900Y0102058D01*
X0172900Y0102058D01*
X0172900Y0118058D01*
X0181900Y0118058D01*
X0178900Y0124058D02*
X0178900Y0140058D01*
X0169900Y0140058D01*
X0169900Y0124058D01*
X0178900Y0124058D01*
X0171900Y0110558D02*
X0171900Y0101558D01*
X0155900Y0101558D01*
X0155900Y0110558D01*
X0171900Y0110558D01*
X0167900Y0120058D02*
X0156900Y0120058D01*
X0154900Y0127558D02*
X0154900Y0111558D01*
X0145900Y0111558D01*
X0145900Y0127558D01*
X0154900Y0127558D01*
X0150400Y0102058D02*
X0150400Y0093058D01*
X0134400Y0093058D01*
X0134400Y0102058D01*
X0150400Y0102058D01*
X0144400Y0086058D02*
X0144400Y0070058D01*
X0135400Y0070058D01*
X0135400Y0086058D01*
X0144400Y0086058D01*
X0147400Y0053058D02*
X0147400Y0032058D01*
X0157400Y0032058D01*
X0157400Y0053058D01*
X0147400Y0053058D01*
X0166400Y0051558D02*
X0166400Y0061558D01*
X0191400Y0061558D01*
X0191400Y0051558D01*
X0166400Y0051558D01*
X0193400Y0052058D02*
X0202400Y0052058D01*
X0202400Y0068058D01*
X0193400Y0068058D01*
X0193400Y0052058D01*
X0193900Y0071558D02*
X0193900Y0082558D01*
X0204900Y0087558D02*
X0204900Y0071558D01*
X0213900Y0071558D01*
X0213900Y0087558D01*
X0204900Y0087558D01*
X0206900Y0232558D02*
X0190900Y0232558D01*
X0190900Y0241558D01*
X0206900Y0241558D01*
X0206900Y0232558D01*
X0116400Y0108058D02*
X0103900Y0108058D01*
X0089400Y0083058D02*
X0089400Y0067058D01*
X0080400Y0067058D01*
X0080400Y0083058D01*
X0089400Y0083058D01*
D12*
X0175900Y0059558D02*
X0175900Y0053558D01*
X0176400Y0056558D02*
X0181900Y0053558D01*
X0181900Y0059558D01*
X0176400Y0056558D01*
D13*
X0164166Y0055608D02*
X0164166Y0053938D01*
X0160826Y0053938D01*
X0160826Y0055608D01*
X0161383Y0056165D01*
X0163609Y0056165D01*
X0164166Y0055608D01*
X0163053Y0057563D02*
X0164166Y0058677D01*
X0160826Y0058677D01*
X0160826Y0059790D02*
X0160826Y0057563D01*
X0145103Y0041846D02*
X0141763Y0041846D01*
X0141763Y0040733D02*
X0141763Y0042959D01*
X0143990Y0040733D02*
X0145103Y0041846D01*
X0144546Y0039334D02*
X0145103Y0038777D01*
X0145103Y0037664D01*
X0144546Y0037107D01*
X0142320Y0037107D01*
X0141763Y0037664D01*
X0141763Y0038777D01*
X0142320Y0039334D01*
X0133603Y0074607D02*
X0130263Y0074607D01*
X0131376Y0074607D02*
X0131376Y0076277D01*
X0131933Y0076834D01*
X0133046Y0076834D01*
X0133603Y0076277D01*
X0133603Y0074607D01*
X0131376Y0075721D02*
X0130263Y0076834D01*
X0130820Y0078233D02*
X0130263Y0078789D01*
X0130263Y0079903D01*
X0130820Y0080459D01*
X0131376Y0080459D01*
X0131933Y0079903D01*
X0131933Y0079346D01*
X0131933Y0079903D02*
X0132490Y0080459D01*
X0133046Y0080459D01*
X0133603Y0079903D01*
X0133603Y0078789D01*
X0133046Y0078233D01*
X0132046Y0094607D02*
X0129820Y0094607D01*
X0129263Y0095164D01*
X0129263Y0096277D01*
X0129820Y0096834D01*
X0129820Y0098233D02*
X0129263Y0098789D01*
X0129263Y0099903D01*
X0129820Y0100459D01*
X0130933Y0100459D01*
X0131490Y0099903D01*
X0131490Y0099346D01*
X0130933Y0098233D01*
X0132603Y0098233D01*
X0132603Y0100459D01*
X0132046Y0096834D02*
X0132603Y0096277D01*
X0132603Y0095164D01*
X0132046Y0094607D01*
X0140820Y0120107D02*
X0140263Y0120664D01*
X0140263Y0121777D01*
X0140820Y0122334D01*
X0140820Y0123733D02*
X0140263Y0123733D01*
X0140820Y0123733D02*
X0143046Y0125959D01*
X0143603Y0125959D01*
X0143603Y0123733D01*
X0143046Y0122334D02*
X0143603Y0121777D01*
X0143603Y0120664D01*
X0143046Y0120107D01*
X0140820Y0120107D01*
X0154499Y0100261D02*
X0155612Y0099704D01*
X0156725Y0098591D01*
X0155055Y0098591D01*
X0154499Y0098034D01*
X0154499Y0097477D01*
X0155055Y0096921D01*
X0156169Y0096921D01*
X0156725Y0097477D01*
X0156725Y0098591D01*
X0158124Y0099704D02*
X0158680Y0100261D01*
X0159794Y0100261D01*
X0160350Y0099704D01*
X0160350Y0097477D01*
X0159794Y0096921D01*
X0158680Y0096921D01*
X0158124Y0097477D01*
X0157172Y0117869D02*
X0156802Y0117869D01*
X0156802Y0124247D01*
X0157172Y0124247D01*
X0160345Y0124247D02*
X0160715Y0124247D01*
X0160715Y0117869D02*
X0160345Y0117869D01*
X0164085Y0117869D02*
X0164455Y0117869D01*
X0165943Y0119286D02*
X0165945Y0119325D01*
X0165951Y0119364D01*
X0165961Y0119402D01*
X0165974Y0119439D01*
X0165991Y0119474D01*
X0166011Y0119508D01*
X0166035Y0119539D01*
X0166062Y0119568D01*
X0166091Y0119594D01*
X0166123Y0119617D01*
X0166157Y0119637D01*
X0166193Y0119653D01*
X0166230Y0119665D01*
X0166269Y0119674D01*
X0166308Y0119679D01*
X0166347Y0119680D01*
X0166386Y0119677D01*
X0166425Y0119670D01*
X0166462Y0119659D01*
X0166499Y0119645D01*
X0166534Y0119627D01*
X0166567Y0119606D01*
X0166598Y0119581D01*
X0166626Y0119554D01*
X0166651Y0119524D01*
X0166673Y0119491D01*
X0166692Y0119457D01*
X0166707Y0119421D01*
X0166719Y0119383D01*
X0166727Y0119345D01*
X0166731Y0119306D01*
X0166731Y0119266D01*
X0166727Y0119227D01*
X0166719Y0119189D01*
X0166707Y0119151D01*
X0166692Y0119115D01*
X0166673Y0119081D01*
X0166651Y0119048D01*
X0166626Y0119018D01*
X0166598Y0118991D01*
X0166567Y0118966D01*
X0166534Y0118945D01*
X0166499Y0118927D01*
X0166462Y0118913D01*
X0166425Y0118902D01*
X0166386Y0118895D01*
X0166347Y0118892D01*
X0166308Y0118893D01*
X0166269Y0118898D01*
X0166230Y0118907D01*
X0166193Y0118919D01*
X0166157Y0118935D01*
X0166123Y0118955D01*
X0166091Y0118978D01*
X0166062Y0119004D01*
X0166035Y0119033D01*
X0166011Y0119064D01*
X0165991Y0119098D01*
X0165974Y0119133D01*
X0165961Y0119170D01*
X0165951Y0119208D01*
X0165945Y0119247D01*
X0165943Y0119286D01*
X0167628Y0117869D02*
X0167998Y0117869D01*
X0167998Y0124247D01*
X0167628Y0124247D01*
X0164455Y0124247D02*
X0164085Y0124247D01*
X0164930Y0131358D02*
X0164373Y0131914D01*
X0164373Y0134698D01*
X0162975Y0133028D02*
X0161305Y0133028D01*
X0160748Y0132471D01*
X0160748Y0131914D01*
X0161305Y0131358D01*
X0162418Y0131358D01*
X0162975Y0131914D01*
X0162975Y0133028D01*
X0161862Y0134141D01*
X0160748Y0134698D01*
X0164930Y0131358D02*
X0166043Y0131358D01*
X0166600Y0131914D01*
X0166600Y0134698D01*
X0170305Y0141858D02*
X0169748Y0142414D01*
X0169748Y0142971D01*
X0170305Y0143528D01*
X0171975Y0143528D01*
X0171975Y0142414D01*
X0171418Y0141858D01*
X0170305Y0141858D01*
X0171975Y0143528D02*
X0170862Y0144641D01*
X0169748Y0145198D01*
X0173373Y0144641D02*
X0173373Y0143528D01*
X0173930Y0142971D01*
X0175600Y0142971D01*
X0175600Y0141858D02*
X0175600Y0145198D01*
X0173930Y0145198D01*
X0173373Y0144641D01*
X0174487Y0142971D02*
X0173373Y0141858D01*
X0181263Y0144107D02*
X0184603Y0144107D01*
X0184603Y0145777D01*
X0184046Y0146334D01*
X0182933Y0146334D01*
X0182376Y0145777D01*
X0182376Y0144107D01*
X0182376Y0145221D02*
X0181263Y0146334D01*
X0181820Y0147733D02*
X0181263Y0148289D01*
X0181263Y0149403D01*
X0181820Y0149959D01*
X0184046Y0149959D01*
X0184603Y0149403D01*
X0184603Y0148289D01*
X0184046Y0147733D01*
X0183490Y0147733D01*
X0182933Y0148289D01*
X0182933Y0149959D01*
X0192623Y0163858D02*
X0194850Y0163858D01*
X0193736Y0163858D02*
X0193736Y0167198D01*
X0194850Y0166084D01*
X0196248Y0163858D02*
X0198475Y0163858D01*
X0197362Y0163858D02*
X0197362Y0167198D01*
X0198475Y0166084D01*
X0199873Y0166641D02*
X0200430Y0167198D01*
X0201543Y0167198D01*
X0202100Y0166641D01*
X0202100Y0164414D01*
X0201543Y0163858D01*
X0200430Y0163858D01*
X0199873Y0164414D01*
X0213200Y0174414D02*
X0213200Y0175528D01*
X0213757Y0176084D01*
X0216540Y0176084D01*
X0215983Y0177483D02*
X0216540Y0178040D01*
X0216540Y0179153D01*
X0215983Y0179709D01*
X0215427Y0179709D01*
X0214870Y0179153D01*
X0214870Y0178040D01*
X0215427Y0177483D01*
X0215983Y0177483D01*
X0214870Y0178040D02*
X0214313Y0177483D01*
X0213757Y0177483D01*
X0213200Y0178040D01*
X0213200Y0179153D01*
X0213757Y0179709D01*
X0214313Y0179709D01*
X0214870Y0179153D01*
X0213200Y0174414D02*
X0213757Y0173858D01*
X0216540Y0173858D01*
X0208040Y0188358D02*
X0208040Y0190028D01*
X0207483Y0190584D01*
X0206370Y0190584D01*
X0205813Y0190028D01*
X0205813Y0188358D01*
X0204700Y0188358D02*
X0208040Y0188358D01*
X0205813Y0189471D02*
X0204700Y0190584D01*
X0204700Y0191983D02*
X0204700Y0194209D01*
X0204700Y0193096D02*
X0208040Y0193096D01*
X0206927Y0191983D01*
X0206927Y0195608D02*
X0208040Y0196721D01*
X0204700Y0196721D01*
X0204700Y0195608D02*
X0204700Y0197835D01*
X0203100Y0243858D02*
X0203100Y0247198D01*
X0201430Y0247198D01*
X0200873Y0246641D01*
X0200873Y0245528D01*
X0201430Y0244971D01*
X0203100Y0244971D01*
X0201987Y0244971D02*
X0200873Y0243858D01*
X0199475Y0243858D02*
X0197248Y0243858D01*
X0198362Y0243858D02*
X0198362Y0247198D01*
X0199475Y0246084D01*
X0195850Y0245528D02*
X0193623Y0245528D01*
X0194180Y0247198D02*
X0195850Y0245528D01*
X0194180Y0243858D02*
X0194180Y0247198D01*
X0175546Y0225959D02*
X0174990Y0225959D01*
X0174433Y0225403D01*
X0173876Y0225959D01*
X0173320Y0225959D01*
X0172763Y0225403D01*
X0172763Y0224289D01*
X0173320Y0223733D01*
X0172763Y0222334D02*
X0172763Y0220107D01*
X0172763Y0221221D02*
X0176103Y0221221D01*
X0174990Y0220107D01*
X0175546Y0218709D02*
X0174433Y0218709D01*
X0173876Y0218152D01*
X0173876Y0216482D01*
X0172763Y0216482D02*
X0176103Y0216482D01*
X0176103Y0218152D01*
X0175546Y0218709D01*
X0173876Y0217596D02*
X0172763Y0218709D01*
X0175546Y0223733D02*
X0176103Y0224289D01*
X0176103Y0225403D01*
X0175546Y0225959D01*
X0174433Y0225403D02*
X0174433Y0224846D01*
X0169046Y0208959D02*
X0168490Y0208959D01*
X0166263Y0206733D01*
X0166263Y0208959D01*
X0169046Y0208959D02*
X0169603Y0208403D01*
X0169603Y0207289D01*
X0169046Y0206733D01*
X0169603Y0204221D02*
X0166263Y0204221D01*
X0166263Y0205334D02*
X0166263Y0203107D01*
X0166263Y0201709D02*
X0167376Y0200596D01*
X0167376Y0201152D02*
X0167376Y0199482D01*
X0166263Y0199482D02*
X0169603Y0199482D01*
X0169603Y0201152D01*
X0169046Y0201709D01*
X0167933Y0201709D01*
X0167376Y0201152D01*
X0168490Y0203107D02*
X0169603Y0204221D01*
X0206555Y0135261D02*
X0207669Y0135261D01*
X0208225Y0134704D01*
X0208225Y0134147D01*
X0207669Y0133591D01*
X0205999Y0133591D01*
X0205999Y0134704D02*
X0206555Y0135261D01*
X0205999Y0134704D02*
X0205999Y0132477D01*
X0206555Y0131921D01*
X0207669Y0131921D01*
X0208225Y0132477D01*
X0209624Y0132477D02*
X0210180Y0131921D01*
X0211294Y0131921D01*
X0211850Y0132477D01*
X0211850Y0134704D01*
X0211294Y0135261D01*
X0210180Y0135261D01*
X0209624Y0134704D01*
X0197850Y0122261D02*
X0197850Y0118921D01*
X0197850Y0120034D02*
X0196180Y0120034D01*
X0195624Y0120591D01*
X0195624Y0121704D01*
X0196180Y0122261D01*
X0197850Y0122261D01*
X0196737Y0120034D02*
X0195624Y0118921D01*
X0194225Y0119477D02*
X0193669Y0118921D01*
X0192555Y0118921D01*
X0191999Y0119477D01*
X0191999Y0120591D01*
X0192555Y0121147D01*
X0193112Y0121147D01*
X0194225Y0120591D01*
X0194225Y0122261D01*
X0191999Y0122261D01*
X0187040Y0108653D02*
X0183700Y0108653D01*
X0185370Y0109209D02*
X0185370Y0106983D01*
X0187040Y0108653D01*
X0186483Y0105584D02*
X0185370Y0105584D01*
X0184813Y0105028D01*
X0184813Y0103358D01*
X0183700Y0103358D02*
X0187040Y0103358D01*
X0187040Y0105028D01*
X0186483Y0105584D01*
X0184813Y0104471D02*
X0183700Y0105584D01*
X0193748Y0088698D02*
X0195975Y0088698D01*
X0195975Y0087028D01*
X0194862Y0087584D01*
X0194305Y0087584D01*
X0193748Y0087028D01*
X0193748Y0085914D01*
X0194305Y0085358D01*
X0195418Y0085358D01*
X0195975Y0085914D01*
X0197373Y0085914D02*
X0197373Y0088698D01*
X0199600Y0088698D02*
X0199600Y0085914D01*
X0199043Y0085358D01*
X0197930Y0085358D01*
X0197373Y0085914D01*
X0198089Y0082656D02*
X0198089Y0082286D01*
X0198089Y0082656D02*
X0191711Y0082656D01*
X0191711Y0082286D01*
X0191711Y0079113D02*
X0191711Y0078743D01*
X0191711Y0075373D02*
X0191711Y0075003D01*
X0192734Y0073121D02*
X0192736Y0073160D01*
X0192742Y0073199D01*
X0192752Y0073237D01*
X0192765Y0073274D01*
X0192782Y0073309D01*
X0192802Y0073343D01*
X0192826Y0073374D01*
X0192853Y0073403D01*
X0192882Y0073429D01*
X0192914Y0073452D01*
X0192948Y0073472D01*
X0192984Y0073488D01*
X0193021Y0073500D01*
X0193060Y0073509D01*
X0193099Y0073514D01*
X0193138Y0073515D01*
X0193177Y0073512D01*
X0193216Y0073505D01*
X0193253Y0073494D01*
X0193290Y0073480D01*
X0193325Y0073462D01*
X0193358Y0073441D01*
X0193389Y0073416D01*
X0193417Y0073389D01*
X0193442Y0073359D01*
X0193464Y0073326D01*
X0193483Y0073292D01*
X0193498Y0073256D01*
X0193510Y0073218D01*
X0193518Y0073180D01*
X0193522Y0073141D01*
X0193522Y0073101D01*
X0193518Y0073062D01*
X0193510Y0073024D01*
X0193498Y0072986D01*
X0193483Y0072950D01*
X0193464Y0072916D01*
X0193442Y0072883D01*
X0193417Y0072853D01*
X0193389Y0072826D01*
X0193358Y0072801D01*
X0193325Y0072780D01*
X0193290Y0072762D01*
X0193253Y0072748D01*
X0193216Y0072737D01*
X0193177Y0072730D01*
X0193138Y0072727D01*
X0193099Y0072728D01*
X0193060Y0072733D01*
X0193021Y0072742D01*
X0192984Y0072754D01*
X0192948Y0072770D01*
X0192914Y0072790D01*
X0192882Y0072813D01*
X0192853Y0072839D01*
X0192826Y0072868D01*
X0192802Y0072899D01*
X0192782Y0072933D01*
X0192765Y0072968D01*
X0192752Y0073005D01*
X0192742Y0073043D01*
X0192736Y0073082D01*
X0192734Y0073121D01*
X0191711Y0071829D02*
X0191711Y0071459D01*
X0198089Y0071459D01*
X0198089Y0071829D01*
X0198089Y0075003D02*
X0198089Y0075373D01*
X0198089Y0078743D02*
X0198089Y0079113D01*
X0205200Y0059209D02*
X0205200Y0056983D01*
X0205200Y0058096D02*
X0208540Y0058096D01*
X0207427Y0056983D01*
X0207983Y0055584D02*
X0206870Y0055584D01*
X0206313Y0055028D01*
X0206313Y0053358D01*
X0205200Y0053358D02*
X0208540Y0053358D01*
X0208540Y0055028D01*
X0207983Y0055584D01*
X0206313Y0054471D02*
X0205200Y0055584D01*
X0212555Y0065921D02*
X0212555Y0069261D01*
X0214225Y0067591D01*
X0211999Y0067591D01*
X0215624Y0068704D02*
X0216180Y0069261D01*
X0217294Y0069261D01*
X0217850Y0068704D01*
X0217850Y0066477D01*
X0217294Y0065921D01*
X0216180Y0065921D01*
X0215624Y0066477D01*
X0114476Y0033855D02*
X0114476Y0030515D01*
X0114476Y0032185D02*
X0113363Y0032185D01*
X0114476Y0033855D02*
X0112250Y0033855D01*
X0110851Y0032742D02*
X0109738Y0033855D01*
X0109738Y0030515D01*
X0110851Y0030515D02*
X0108625Y0030515D01*
X0095040Y0067858D02*
X0091700Y0067858D01*
X0092813Y0067858D02*
X0092813Y0069528D01*
X0093370Y0070084D01*
X0094483Y0070084D01*
X0095040Y0069528D01*
X0095040Y0067858D01*
X0092813Y0068971D02*
X0091700Y0070084D01*
X0091700Y0071483D02*
X0093927Y0073709D01*
X0094483Y0073709D01*
X0095040Y0073153D01*
X0095040Y0072040D01*
X0094483Y0071483D01*
X0091700Y0071483D02*
X0091700Y0073709D01*
X0092433Y0088107D02*
X0092433Y0089221D01*
X0094103Y0090334D02*
X0094103Y0088107D01*
X0090763Y0088107D01*
X0090763Y0091733D02*
X0092990Y0093959D01*
X0093546Y0093959D01*
X0094103Y0093403D01*
X0094103Y0092289D01*
X0093546Y0091733D01*
X0090763Y0091733D02*
X0090763Y0093959D01*
X0097263Y0104107D02*
X0097263Y0105777D01*
X0097820Y0106334D01*
X0100046Y0106334D01*
X0100603Y0105777D01*
X0100603Y0104107D01*
X0097263Y0104107D01*
X0097263Y0107733D02*
X0099490Y0109959D01*
X0100046Y0109959D01*
X0100603Y0109403D01*
X0100603Y0108289D01*
X0100046Y0107733D01*
X0097263Y0107733D02*
X0097263Y0109959D01*
X0070850Y0110061D02*
X0070850Y0107277D01*
X0070294Y0106721D01*
X0069180Y0106721D01*
X0068624Y0107277D01*
X0068624Y0110061D01*
X0067225Y0110061D02*
X0064999Y0110061D01*
X0064999Y0109504D01*
X0067225Y0107277D01*
X0067225Y0106721D01*
X0044043Y0136358D02*
X0042930Y0136358D01*
X0042373Y0136914D01*
X0040975Y0136914D02*
X0040975Y0137471D01*
X0040418Y0138028D01*
X0039305Y0138028D01*
X0038748Y0137471D01*
X0038748Y0136914D01*
X0039305Y0136358D01*
X0040418Y0136358D01*
X0040975Y0136914D01*
X0040418Y0138028D02*
X0040975Y0138584D01*
X0040975Y0139141D01*
X0040418Y0139698D01*
X0039305Y0139698D01*
X0038748Y0139141D01*
X0038748Y0138584D01*
X0039305Y0138028D01*
X0042373Y0139141D02*
X0042930Y0139698D01*
X0044043Y0139698D01*
X0044600Y0139141D01*
X0044600Y0136914D01*
X0044043Y0136358D01*
X0055680Y0156358D02*
X0055123Y0156914D01*
X0055123Y0159141D01*
X0057350Y0156914D01*
X0056793Y0156358D01*
X0055680Y0156358D01*
X0057350Y0156914D02*
X0057350Y0159141D01*
X0056793Y0159698D01*
X0055680Y0159698D01*
X0055123Y0159141D01*
X0058748Y0156358D02*
X0060975Y0156358D01*
X0059862Y0156358D02*
X0059862Y0159698D01*
X0060975Y0158584D01*
X0062373Y0159141D02*
X0062930Y0159698D01*
X0064043Y0159698D01*
X0064600Y0159141D01*
X0064600Y0156914D01*
X0064043Y0156358D01*
X0062930Y0156358D01*
X0062373Y0156914D01*
X0035641Y0107333D02*
X0035084Y0107333D01*
X0034527Y0106777D01*
X0033971Y0107333D01*
X0033414Y0107333D01*
X0032857Y0106777D01*
X0032857Y0105663D01*
X0033414Y0105107D01*
X0034527Y0106220D02*
X0034527Y0106777D01*
X0035641Y0107333D02*
X0036197Y0106777D01*
X0036197Y0105663D01*
X0035641Y0105107D01*
X0036197Y0103708D02*
X0036197Y0101481D01*
X0032857Y0101481D01*
X0034527Y0101481D02*
X0034527Y0102595D01*
X0030043Y0087198D02*
X0028930Y0087198D01*
X0028373Y0086641D01*
X0026975Y0086641D02*
X0026418Y0087198D01*
X0025305Y0087198D01*
X0024748Y0086641D01*
X0024748Y0086084D01*
X0025305Y0085528D01*
X0024748Y0084971D01*
X0024748Y0084414D01*
X0025305Y0083858D01*
X0026418Y0083858D01*
X0026975Y0084414D01*
X0028373Y0084414D02*
X0028930Y0083858D01*
X0030043Y0083858D01*
X0030600Y0084414D01*
X0030600Y0086641D01*
X0030043Y0087198D01*
X0025862Y0085528D02*
X0025305Y0085528D01*
X0036805Y0067698D02*
X0037918Y0067698D01*
X0038475Y0067141D01*
X0039873Y0067141D02*
X0040430Y0067698D01*
X0041543Y0067698D01*
X0042100Y0067141D01*
X0042100Y0064914D01*
X0041543Y0064358D01*
X0040430Y0064358D01*
X0039873Y0064914D01*
X0038475Y0064358D02*
X0036248Y0066584D01*
X0036248Y0067141D01*
X0036805Y0067698D01*
X0036248Y0064358D02*
X0038475Y0064358D01*
X0024589Y0064786D02*
X0024589Y0065156D01*
X0018211Y0065156D01*
X0018211Y0064786D01*
X0018211Y0061613D02*
X0018211Y0061243D01*
X0018211Y0057873D02*
X0018211Y0057503D01*
X0019234Y0055621D02*
X0019236Y0055660D01*
X0019242Y0055699D01*
X0019252Y0055737D01*
X0019265Y0055774D01*
X0019282Y0055809D01*
X0019302Y0055843D01*
X0019326Y0055874D01*
X0019353Y0055903D01*
X0019382Y0055929D01*
X0019414Y0055952D01*
X0019448Y0055972D01*
X0019484Y0055988D01*
X0019521Y0056000D01*
X0019560Y0056009D01*
X0019599Y0056014D01*
X0019638Y0056015D01*
X0019677Y0056012D01*
X0019716Y0056005D01*
X0019753Y0055994D01*
X0019790Y0055980D01*
X0019825Y0055962D01*
X0019858Y0055941D01*
X0019889Y0055916D01*
X0019917Y0055889D01*
X0019942Y0055859D01*
X0019964Y0055826D01*
X0019983Y0055792D01*
X0019998Y0055756D01*
X0020010Y0055718D01*
X0020018Y0055680D01*
X0020022Y0055641D01*
X0020022Y0055601D01*
X0020018Y0055562D01*
X0020010Y0055524D01*
X0019998Y0055486D01*
X0019983Y0055450D01*
X0019964Y0055416D01*
X0019942Y0055383D01*
X0019917Y0055353D01*
X0019889Y0055326D01*
X0019858Y0055301D01*
X0019825Y0055280D01*
X0019790Y0055262D01*
X0019753Y0055248D01*
X0019716Y0055237D01*
X0019677Y0055230D01*
X0019638Y0055227D01*
X0019599Y0055228D01*
X0019560Y0055233D01*
X0019521Y0055242D01*
X0019484Y0055254D01*
X0019448Y0055270D01*
X0019414Y0055290D01*
X0019382Y0055313D01*
X0019353Y0055339D01*
X0019326Y0055368D01*
X0019302Y0055399D01*
X0019282Y0055433D01*
X0019265Y0055468D01*
X0019252Y0055505D01*
X0019242Y0055543D01*
X0019236Y0055582D01*
X0019234Y0055621D01*
X0018211Y0054329D02*
X0018211Y0053959D01*
X0024589Y0053959D01*
X0024589Y0054329D01*
X0024589Y0057503D02*
X0024589Y0057873D01*
X0024589Y0061243D02*
X0024589Y0061613D01*
X0012600Y0067914D02*
X0012043Y0067358D01*
X0010930Y0067358D01*
X0010373Y0067914D01*
X0010373Y0070698D01*
X0008975Y0069028D02*
X0006748Y0069028D01*
X0007305Y0067358D02*
X0007305Y0070698D01*
X0008975Y0069028D01*
X0012600Y0067914D02*
X0012600Y0070698D01*
X0012624Y0123421D02*
X0013737Y0124534D01*
X0013180Y0124534D02*
X0014850Y0124534D01*
X0014850Y0123421D02*
X0014850Y0126761D01*
X0013180Y0126761D01*
X0012624Y0126204D01*
X0012624Y0125091D01*
X0013180Y0124534D01*
X0011225Y0124534D02*
X0010669Y0125091D01*
X0009555Y0125091D01*
X0008999Y0124534D01*
X0008999Y0123977D01*
X0009555Y0123421D01*
X0010669Y0123421D01*
X0011225Y0123977D01*
X0011225Y0124534D01*
X0010669Y0125091D02*
X0011225Y0125647D01*
X0011225Y0126204D01*
X0010669Y0126761D01*
X0009555Y0126761D01*
X0008999Y0126204D01*
X0008999Y0125647D01*
X0009555Y0125091D01*
X0021499Y0126204D02*
X0023725Y0123977D01*
X0023725Y0123421D01*
X0025124Y0123421D02*
X0026237Y0124534D01*
X0025680Y0124534D02*
X0027350Y0124534D01*
X0027350Y0123421D02*
X0027350Y0126761D01*
X0025680Y0126761D01*
X0025124Y0126204D01*
X0025124Y0125091D01*
X0025680Y0124534D01*
X0023725Y0126761D02*
X0021499Y0126761D01*
X0021499Y0126204D01*
X0018600Y0169358D02*
X0018600Y0172698D01*
X0016930Y0172698D01*
X0016373Y0172141D01*
X0016373Y0171028D01*
X0016930Y0170471D01*
X0018600Y0170471D01*
X0017487Y0170471D02*
X0016373Y0169358D01*
X0014975Y0169358D02*
X0012748Y0169358D01*
X0013862Y0169358D02*
X0013862Y0172698D01*
X0014975Y0171584D01*
X0011350Y0172141D02*
X0010793Y0172698D01*
X0009680Y0172698D01*
X0009123Y0172141D01*
X0011350Y0169914D01*
X0010793Y0169358D01*
X0009680Y0169358D01*
X0009123Y0169914D01*
X0009123Y0172141D01*
X0011350Y0172141D02*
X0011350Y0169914D01*
X0073763Y0212539D02*
X0073763Y0213652D01*
X0074320Y0214209D01*
X0073763Y0215607D02*
X0073763Y0217834D01*
X0073763Y0216721D02*
X0077103Y0216721D01*
X0075990Y0215607D01*
X0076546Y0214209D02*
X0077103Y0213652D01*
X0077103Y0212539D01*
X0076546Y0211982D01*
X0074320Y0211982D01*
X0073763Y0212539D01*
X0073763Y0219233D02*
X0075990Y0221459D01*
X0076546Y0221459D01*
X0077103Y0220903D01*
X0077103Y0219789D01*
X0076546Y0219233D01*
X0073763Y0219233D02*
X0073763Y0221459D01*
X0096700Y0248858D02*
X0100040Y0248858D01*
X0100040Y0250528D01*
X0099483Y0251084D01*
X0098370Y0251084D01*
X0097813Y0250528D01*
X0097813Y0248858D01*
X0097813Y0249971D02*
X0096700Y0251084D01*
X0096700Y0252483D02*
X0096700Y0254709D01*
X0096700Y0253596D02*
X0100040Y0253596D01*
X0098927Y0252483D01*
X0098370Y0256108D02*
X0098927Y0257221D01*
X0098927Y0257778D01*
X0098370Y0258335D01*
X0097257Y0258335D01*
X0096700Y0257778D01*
X0096700Y0256665D01*
X0097257Y0256108D01*
X0098370Y0256108D02*
X0100040Y0256108D01*
X0100040Y0258335D01*
X0099376Y0286482D02*
X0099376Y0288152D01*
X0099933Y0288709D01*
X0101046Y0288709D01*
X0101603Y0288152D01*
X0101603Y0286482D01*
X0098263Y0286482D01*
X0099376Y0287596D02*
X0098263Y0288709D01*
X0098263Y0290107D02*
X0098263Y0292334D01*
X0098263Y0291221D02*
X0101603Y0291221D01*
X0100490Y0290107D01*
X0100490Y0293733D02*
X0099933Y0294289D01*
X0099933Y0295403D01*
X0099376Y0295959D01*
X0098820Y0295959D01*
X0098263Y0295403D01*
X0098263Y0294289D01*
X0098820Y0293733D01*
X0099376Y0293733D01*
X0099933Y0294289D01*
X0100490Y0293733D02*
X0101046Y0293733D01*
X0101603Y0294289D01*
X0101603Y0295403D01*
X0101046Y0295959D01*
X0100490Y0295959D01*
X0099933Y0295403D01*
X0108763Y0293733D02*
X0109320Y0293733D01*
X0111546Y0295959D01*
X0112103Y0295959D01*
X0112103Y0293733D01*
X0112103Y0291221D02*
X0108763Y0291221D01*
X0108763Y0292334D02*
X0108763Y0290107D01*
X0108763Y0288709D02*
X0109876Y0287596D01*
X0109876Y0288152D02*
X0109876Y0286482D01*
X0108763Y0286482D02*
X0112103Y0286482D01*
X0112103Y0288152D01*
X0111546Y0288709D01*
X0110433Y0288709D01*
X0109876Y0288152D01*
X0110990Y0290107D02*
X0112103Y0291221D01*
X0118763Y0291221D02*
X0122103Y0291221D01*
X0120990Y0290107D01*
X0121546Y0288709D02*
X0120433Y0288709D01*
X0119876Y0288152D01*
X0119876Y0286482D01*
X0118763Y0286482D02*
X0122103Y0286482D01*
X0122103Y0288152D01*
X0121546Y0288709D01*
X0119876Y0287596D02*
X0118763Y0288709D01*
X0118763Y0290107D02*
X0118763Y0292334D01*
X0119320Y0293733D02*
X0118763Y0294289D01*
X0118763Y0295403D01*
X0119320Y0295959D01*
X0119876Y0295959D01*
X0120433Y0295403D01*
X0120433Y0293733D01*
X0119320Y0293733D01*
X0120433Y0293733D02*
X0121546Y0294846D01*
X0122103Y0295959D01*
D14*
X0075400Y0139458D02*
X0061400Y0139458D01*
X0061400Y0113658D01*
X0075400Y0113658D01*
X0075400Y0139458D01*
D15*
X0050262Y0108207D02*
X0045538Y0108207D01*
X0045538Y0101908D02*
X0050262Y0101908D01*
X0107494Y0094357D02*
X0114306Y0094357D01*
X0112150Y0090558D02*
X0109650Y0090558D01*
X0112150Y0090558D02*
X0112150Y0088058D01*
X0109650Y0088058D01*
X0112150Y0088058D02*
X0112150Y0085558D01*
X0114306Y0081759D02*
X0107494Y0081759D01*
X0108750Y0048920D02*
X0108750Y0044196D01*
X0115050Y0044196D02*
X0115050Y0048920D01*
D16*
X0113475Y0047739D02*
X0113475Y0045770D01*
X0111900Y0045770D01*
X0111900Y0046951D01*
X0111900Y0045770D02*
X0110325Y0045770D01*
X0049081Y0103483D02*
X0047113Y0103483D01*
X0047113Y0105058D01*
X0048294Y0105058D01*
X0047113Y0105058D02*
X0047113Y0106633D01*
M02*
