G75*
%MOIN*%
%OFA0B0*%
%FSLAX25Y25*%
%IPPOS*%
%LPD*%
%AMOC8*
5,1,8,0,0,1.08239X$1,22.5*
%
%ADD10C,0.00000*%
%ADD11C,0.01000*%
%ADD12C,0.01200*%
%ADD13C,0.01600*%
%ADD14R,0.20000X0.07500*%
%ADD15C,0.00800*%
%ADD16C,0.00600*%
%ADD17C,0.00400*%
%ADD18C,0.00900*%
%ADD19C,0.00500*%
%ADD20C,0.00787*%
%ADD21R,0.00787X0.00787*%
D10*
X0001400Y0025558D02*
X0001400Y0093471D01*
X0013231Y0093471D01*
X0013549Y0093475D01*
X0013867Y0093487D01*
X0014185Y0093506D01*
X0014502Y0093533D01*
X0014819Y0093568D01*
X0015134Y0093610D01*
X0015448Y0093660D01*
X0015762Y0093718D01*
X0016073Y0093784D01*
X0016383Y0093857D01*
X0016691Y0093937D01*
X0016997Y0094025D01*
X0017300Y0094121D01*
X0017602Y0094223D01*
X0017900Y0094333D01*
X0018196Y0094451D01*
X0018489Y0094575D01*
X0018779Y0094707D01*
X0019066Y0094845D01*
X0019349Y0094991D01*
X0019628Y0095143D01*
X0019904Y0095303D01*
X0020176Y0095468D01*
X0020443Y0095641D01*
X0020706Y0095820D01*
X0020965Y0096005D01*
X0021220Y0096196D01*
X0021469Y0096394D01*
X0021714Y0096598D01*
X0021954Y0096807D01*
X0022188Y0097022D01*
X0022417Y0097243D01*
X0022641Y0097470D01*
X0022859Y0097702D01*
X0023071Y0097939D01*
X0023278Y0098181D01*
X0023479Y0098428D01*
X0023673Y0098680D01*
X0023862Y0098937D01*
X0024044Y0099198D01*
X0024219Y0099463D01*
X0024388Y0099733D01*
X0024551Y0100007D01*
X0024707Y0100284D01*
X0024856Y0100565D01*
X0024998Y0100850D01*
X0025133Y0101138D01*
X0025261Y0101430D01*
X0025382Y0101724D01*
X0025495Y0102022D01*
X0025602Y0102322D01*
X0025701Y0102624D01*
X0025793Y0102929D01*
X0025877Y0103236D01*
X0025954Y0103545D01*
X0026023Y0103856D01*
X0026085Y0104168D01*
X0026139Y0104482D01*
X0026185Y0104796D01*
X0026224Y0105112D01*
X0026255Y0105429D01*
X0026278Y0105747D01*
X0026293Y0106065D01*
X0026301Y0106383D01*
X0026301Y0106701D01*
X0026293Y0107019D01*
X0026278Y0107337D01*
X0026255Y0107655D01*
X0026224Y0107972D01*
X0026185Y0108288D01*
X0026139Y0108602D01*
X0026085Y0108916D01*
X0026023Y0109228D01*
X0025954Y0109539D01*
X0025877Y0109848D01*
X0025793Y0110155D01*
X0025701Y0110460D01*
X0025602Y0110762D01*
X0025495Y0111062D01*
X0025382Y0111360D01*
X0025261Y0111654D01*
X0025133Y0111946D01*
X0024998Y0112234D01*
X0024856Y0112519D01*
X0024707Y0112800D01*
X0024551Y0113078D01*
X0024388Y0113351D01*
X0024219Y0113621D01*
X0024044Y0113886D01*
X0023862Y0114147D01*
X0023673Y0114404D01*
X0023479Y0114656D01*
X0023278Y0114903D01*
X0023071Y0115145D01*
X0022859Y0115382D01*
X0022641Y0115614D01*
X0022417Y0115841D01*
X0022188Y0116062D01*
X0021954Y0116277D01*
X0021714Y0116486D01*
X0021469Y0116690D01*
X0021220Y0116888D01*
X0020965Y0117079D01*
X0020706Y0117264D01*
X0020443Y0117443D01*
X0020176Y0117616D01*
X0019904Y0117781D01*
X0019628Y0117941D01*
X0019349Y0118093D01*
X0019066Y0118239D01*
X0018779Y0118377D01*
X0018489Y0118509D01*
X0018196Y0118633D01*
X0017900Y0118751D01*
X0017602Y0118861D01*
X0017300Y0118963D01*
X0016997Y0119059D01*
X0016691Y0119147D01*
X0016383Y0119227D01*
X0016073Y0119300D01*
X0015762Y0119366D01*
X0015448Y0119424D01*
X0015134Y0119474D01*
X0014819Y0119516D01*
X0014502Y0119551D01*
X0014185Y0119578D01*
X0013867Y0119597D01*
X0013549Y0119609D01*
X0013231Y0119613D01*
X0001400Y0119613D01*
X0001400Y0254337D01*
X0013231Y0254337D01*
X0013549Y0254341D01*
X0013867Y0254353D01*
X0014185Y0254372D01*
X0014502Y0254399D01*
X0014819Y0254434D01*
X0015134Y0254476D01*
X0015448Y0254526D01*
X0015762Y0254584D01*
X0016073Y0254650D01*
X0016383Y0254723D01*
X0016691Y0254803D01*
X0016997Y0254891D01*
X0017300Y0254987D01*
X0017602Y0255089D01*
X0017900Y0255199D01*
X0018196Y0255317D01*
X0018489Y0255441D01*
X0018779Y0255573D01*
X0019066Y0255711D01*
X0019349Y0255857D01*
X0019628Y0256009D01*
X0019904Y0256169D01*
X0020176Y0256334D01*
X0020443Y0256507D01*
X0020706Y0256686D01*
X0020965Y0256871D01*
X0021220Y0257062D01*
X0021469Y0257260D01*
X0021714Y0257464D01*
X0021954Y0257673D01*
X0022188Y0257888D01*
X0022417Y0258109D01*
X0022641Y0258336D01*
X0022859Y0258568D01*
X0023071Y0258805D01*
X0023278Y0259047D01*
X0023479Y0259294D01*
X0023673Y0259546D01*
X0023862Y0259803D01*
X0024044Y0260064D01*
X0024219Y0260329D01*
X0024388Y0260599D01*
X0024551Y0260873D01*
X0024707Y0261150D01*
X0024856Y0261431D01*
X0024998Y0261716D01*
X0025133Y0262004D01*
X0025261Y0262296D01*
X0025382Y0262590D01*
X0025495Y0262888D01*
X0025602Y0263188D01*
X0025701Y0263490D01*
X0025793Y0263795D01*
X0025877Y0264102D01*
X0025954Y0264411D01*
X0026023Y0264722D01*
X0026085Y0265034D01*
X0026139Y0265348D01*
X0026185Y0265662D01*
X0026224Y0265978D01*
X0026255Y0266295D01*
X0026278Y0266613D01*
X0026293Y0266931D01*
X0026301Y0267249D01*
X0026301Y0267567D01*
X0026293Y0267885D01*
X0026278Y0268203D01*
X0026255Y0268521D01*
X0026224Y0268838D01*
X0026185Y0269154D01*
X0026139Y0269468D01*
X0026085Y0269782D01*
X0026023Y0270094D01*
X0025954Y0270405D01*
X0025877Y0270714D01*
X0025793Y0271021D01*
X0025701Y0271326D01*
X0025602Y0271628D01*
X0025495Y0271928D01*
X0025382Y0272226D01*
X0025261Y0272520D01*
X0025133Y0272812D01*
X0024998Y0273100D01*
X0024856Y0273385D01*
X0024707Y0273666D01*
X0024551Y0273944D01*
X0024388Y0274217D01*
X0024219Y0274487D01*
X0024044Y0274752D01*
X0023862Y0275013D01*
X0023673Y0275270D01*
X0023479Y0275522D01*
X0023278Y0275769D01*
X0023071Y0276011D01*
X0022859Y0276248D01*
X0022641Y0276480D01*
X0022417Y0276707D01*
X0022188Y0276928D01*
X0021954Y0277143D01*
X0021714Y0277352D01*
X0021469Y0277556D01*
X0021220Y0277754D01*
X0020965Y0277945D01*
X0020706Y0278130D01*
X0020443Y0278309D01*
X0020176Y0278482D01*
X0019904Y0278647D01*
X0019628Y0278807D01*
X0019349Y0278959D01*
X0019066Y0279105D01*
X0018779Y0279243D01*
X0018489Y0279375D01*
X0018196Y0279499D01*
X0017900Y0279617D01*
X0017602Y0279727D01*
X0017300Y0279829D01*
X0016997Y0279925D01*
X0016691Y0280013D01*
X0016383Y0280093D01*
X0016073Y0280166D01*
X0015762Y0280232D01*
X0015448Y0280290D01*
X0015134Y0280340D01*
X0014819Y0280382D01*
X0014502Y0280417D01*
X0014185Y0280444D01*
X0013867Y0280463D01*
X0013549Y0280475D01*
X0013231Y0280479D01*
X0001400Y0280479D01*
X0001400Y0348392D01*
X0221872Y0348392D01*
X0221872Y0280479D01*
X0210042Y0280479D01*
X0209724Y0280475D01*
X0209406Y0280463D01*
X0209088Y0280444D01*
X0208771Y0280417D01*
X0208454Y0280382D01*
X0208139Y0280340D01*
X0207825Y0280290D01*
X0207511Y0280232D01*
X0207200Y0280166D01*
X0206890Y0280093D01*
X0206582Y0280013D01*
X0206276Y0279925D01*
X0205973Y0279829D01*
X0205671Y0279727D01*
X0205373Y0279617D01*
X0205077Y0279499D01*
X0204784Y0279375D01*
X0204494Y0279243D01*
X0204207Y0279105D01*
X0203924Y0278959D01*
X0203645Y0278807D01*
X0203369Y0278647D01*
X0203097Y0278482D01*
X0202830Y0278309D01*
X0202567Y0278130D01*
X0202308Y0277945D01*
X0202053Y0277754D01*
X0201804Y0277556D01*
X0201559Y0277352D01*
X0201319Y0277143D01*
X0201085Y0276928D01*
X0200856Y0276707D01*
X0200632Y0276480D01*
X0200414Y0276248D01*
X0200202Y0276011D01*
X0199995Y0275769D01*
X0199794Y0275522D01*
X0199600Y0275270D01*
X0199411Y0275013D01*
X0199229Y0274752D01*
X0199054Y0274487D01*
X0198885Y0274217D01*
X0198722Y0273944D01*
X0198566Y0273666D01*
X0198417Y0273385D01*
X0198275Y0273100D01*
X0198140Y0272812D01*
X0198012Y0272520D01*
X0197891Y0272226D01*
X0197778Y0271928D01*
X0197671Y0271628D01*
X0197572Y0271326D01*
X0197480Y0271021D01*
X0197396Y0270714D01*
X0197319Y0270405D01*
X0197250Y0270094D01*
X0197188Y0269782D01*
X0197134Y0269468D01*
X0197088Y0269154D01*
X0197049Y0268838D01*
X0197018Y0268521D01*
X0196995Y0268203D01*
X0196980Y0267885D01*
X0196972Y0267567D01*
X0196972Y0267249D01*
X0196980Y0266931D01*
X0196995Y0266613D01*
X0197018Y0266295D01*
X0197049Y0265978D01*
X0197088Y0265662D01*
X0197134Y0265348D01*
X0197188Y0265034D01*
X0197250Y0264722D01*
X0197319Y0264411D01*
X0197396Y0264102D01*
X0197480Y0263795D01*
X0197572Y0263490D01*
X0197671Y0263188D01*
X0197778Y0262888D01*
X0197891Y0262590D01*
X0198012Y0262296D01*
X0198140Y0262004D01*
X0198275Y0261716D01*
X0198417Y0261431D01*
X0198566Y0261150D01*
X0198722Y0260872D01*
X0198885Y0260599D01*
X0199054Y0260329D01*
X0199229Y0260064D01*
X0199411Y0259803D01*
X0199600Y0259546D01*
X0199794Y0259294D01*
X0199995Y0259047D01*
X0200202Y0258805D01*
X0200414Y0258568D01*
X0200632Y0258336D01*
X0200856Y0258109D01*
X0201085Y0257888D01*
X0201319Y0257673D01*
X0201559Y0257464D01*
X0201804Y0257260D01*
X0202053Y0257062D01*
X0202308Y0256871D01*
X0202567Y0256686D01*
X0202830Y0256507D01*
X0203097Y0256334D01*
X0203369Y0256169D01*
X0203645Y0256009D01*
X0203924Y0255857D01*
X0204207Y0255711D01*
X0204494Y0255573D01*
X0204784Y0255441D01*
X0205077Y0255317D01*
X0205373Y0255199D01*
X0205671Y0255089D01*
X0205973Y0254987D01*
X0206276Y0254891D01*
X0206582Y0254803D01*
X0206890Y0254723D01*
X0207200Y0254650D01*
X0207511Y0254584D01*
X0207825Y0254526D01*
X0208139Y0254476D01*
X0208454Y0254434D01*
X0208771Y0254399D01*
X0209088Y0254372D01*
X0209406Y0254353D01*
X0209724Y0254341D01*
X0210042Y0254337D01*
X0221872Y0254337D01*
X0221872Y0119613D01*
X0210042Y0119613D01*
X0209724Y0119609D01*
X0209406Y0119597D01*
X0209088Y0119578D01*
X0208771Y0119551D01*
X0208454Y0119516D01*
X0208139Y0119474D01*
X0207825Y0119424D01*
X0207511Y0119366D01*
X0207200Y0119300D01*
X0206890Y0119227D01*
X0206582Y0119147D01*
X0206276Y0119059D01*
X0205973Y0118963D01*
X0205671Y0118861D01*
X0205373Y0118751D01*
X0205077Y0118633D01*
X0204784Y0118509D01*
X0204494Y0118377D01*
X0204207Y0118239D01*
X0203924Y0118093D01*
X0203645Y0117941D01*
X0203369Y0117781D01*
X0203097Y0117616D01*
X0202830Y0117443D01*
X0202567Y0117264D01*
X0202308Y0117079D01*
X0202053Y0116888D01*
X0201804Y0116690D01*
X0201559Y0116486D01*
X0201319Y0116277D01*
X0201085Y0116062D01*
X0200856Y0115841D01*
X0200632Y0115614D01*
X0200414Y0115382D01*
X0200202Y0115145D01*
X0199995Y0114903D01*
X0199794Y0114656D01*
X0199600Y0114404D01*
X0199411Y0114147D01*
X0199229Y0113886D01*
X0199054Y0113621D01*
X0198885Y0113351D01*
X0198722Y0113077D01*
X0198566Y0112800D01*
X0198417Y0112519D01*
X0198275Y0112234D01*
X0198140Y0111946D01*
X0198012Y0111654D01*
X0197891Y0111360D01*
X0197778Y0111062D01*
X0197671Y0110762D01*
X0197572Y0110460D01*
X0197480Y0110155D01*
X0197396Y0109848D01*
X0197319Y0109539D01*
X0197250Y0109228D01*
X0197188Y0108916D01*
X0197134Y0108602D01*
X0197088Y0108288D01*
X0197049Y0107972D01*
X0197018Y0107655D01*
X0196995Y0107337D01*
X0196980Y0107019D01*
X0196972Y0106701D01*
X0196972Y0106383D01*
X0196980Y0106065D01*
X0196995Y0105747D01*
X0197018Y0105429D01*
X0197049Y0105112D01*
X0197088Y0104796D01*
X0197134Y0104482D01*
X0197188Y0104168D01*
X0197250Y0103856D01*
X0197319Y0103545D01*
X0197396Y0103236D01*
X0197480Y0102929D01*
X0197572Y0102624D01*
X0197671Y0102322D01*
X0197778Y0102022D01*
X0197891Y0101724D01*
X0198012Y0101430D01*
X0198140Y0101138D01*
X0198275Y0100850D01*
X0198417Y0100565D01*
X0198566Y0100284D01*
X0198722Y0100006D01*
X0198885Y0099733D01*
X0199054Y0099463D01*
X0199229Y0099198D01*
X0199411Y0098937D01*
X0199600Y0098680D01*
X0199794Y0098428D01*
X0199995Y0098181D01*
X0200202Y0097939D01*
X0200414Y0097702D01*
X0200632Y0097470D01*
X0200856Y0097243D01*
X0201085Y0097022D01*
X0201319Y0096807D01*
X0201559Y0096598D01*
X0201804Y0096394D01*
X0202053Y0096196D01*
X0202308Y0096005D01*
X0202567Y0095820D01*
X0202830Y0095641D01*
X0203097Y0095468D01*
X0203369Y0095303D01*
X0203645Y0095143D01*
X0203924Y0094991D01*
X0204207Y0094845D01*
X0204494Y0094707D01*
X0204784Y0094575D01*
X0205077Y0094451D01*
X0205373Y0094333D01*
X0205671Y0094223D01*
X0205973Y0094121D01*
X0206276Y0094025D01*
X0206582Y0093937D01*
X0206890Y0093857D01*
X0207200Y0093784D01*
X0207511Y0093718D01*
X0207825Y0093660D01*
X0208139Y0093610D01*
X0208454Y0093568D01*
X0208771Y0093533D01*
X0209088Y0093506D01*
X0209406Y0093487D01*
X0209724Y0093475D01*
X0210042Y0093471D01*
X0221872Y0093471D01*
X0221872Y0025558D01*
X0001400Y0025558D01*
D11*
X0086900Y0084558D02*
X0086900Y0104058D01*
X0136400Y0104058D01*
X0136400Y0084558D01*
X0086900Y0084558D01*
X0180900Y0072058D02*
X0180900Y0058558D01*
X0219400Y0058558D01*
X0219400Y0072058D01*
X0180900Y0072058D01*
X0146827Y0288558D02*
X0142897Y0288558D01*
X0144862Y0288558D02*
X0144862Y0294453D01*
X0142897Y0292488D01*
X0140708Y0289540D02*
X0140708Y0288558D01*
X0139725Y0288558D01*
X0139725Y0289540D01*
X0140708Y0289540D01*
X0137311Y0288558D02*
X0133381Y0288558D01*
X0135346Y0288558D02*
X0135346Y0294453D01*
X0133381Y0292488D01*
X0130967Y0292488D02*
X0129002Y0288558D01*
X0127037Y0292488D01*
X0128852Y0298892D02*
X0126888Y0300857D01*
X0127870Y0300857D02*
X0124923Y0300857D01*
X0124923Y0298892D02*
X0124923Y0304787D01*
X0127870Y0304787D01*
X0128852Y0303805D01*
X0128852Y0301840D01*
X0127870Y0300857D01*
X0131267Y0299875D02*
X0132249Y0300857D01*
X0135196Y0300857D01*
X0135196Y0301840D02*
X0135196Y0298892D01*
X0132249Y0298892D01*
X0131267Y0299875D01*
X0132249Y0302822D02*
X0134214Y0302822D01*
X0135196Y0301840D01*
X0122509Y0301840D02*
X0122509Y0299875D01*
X0121526Y0298892D01*
X0119561Y0298892D01*
X0118579Y0299875D01*
X0118579Y0301840D01*
X0119561Y0302822D01*
X0121526Y0302822D01*
X0122509Y0301840D01*
X0116165Y0298892D02*
X0112235Y0298892D01*
X0112235Y0304787D01*
X0109821Y0304787D02*
X0105891Y0298892D01*
X0103626Y0298892D02*
X0101661Y0298892D01*
X0102644Y0298892D02*
X0102644Y0302822D01*
X0101661Y0302822D01*
X0102644Y0304787D02*
X0102644Y0305770D01*
X0099247Y0304787D02*
X0095317Y0304787D01*
X0095317Y0298892D01*
X0095317Y0301840D02*
X0097282Y0301840D01*
X0092903Y0301840D02*
X0088973Y0301840D01*
X0085726Y0302822D02*
X0085726Y0298892D01*
X0084744Y0298892D02*
X0086709Y0298892D01*
X0085726Y0302822D02*
X0084744Y0302822D01*
X0085726Y0304787D02*
X0085726Y0305770D01*
X0082330Y0304787D02*
X0082330Y0298892D01*
X0080365Y0300857D01*
X0078400Y0298892D01*
X0078400Y0304787D01*
X0079382Y0292488D02*
X0078400Y0291505D01*
X0078400Y0289540D01*
X0079382Y0288558D01*
X0082330Y0288558D01*
X0082330Y0287575D02*
X0082330Y0292488D01*
X0079382Y0292488D01*
X0082330Y0287575D02*
X0081347Y0286593D01*
X0080365Y0286593D01*
X0084744Y0289540D02*
X0085726Y0290523D01*
X0088674Y0290523D01*
X0088674Y0291505D02*
X0088674Y0288558D01*
X0085726Y0288558D01*
X0084744Y0289540D01*
X0085726Y0292488D02*
X0087691Y0292488D01*
X0088674Y0291505D01*
X0091088Y0292488D02*
X0093053Y0292488D01*
X0092070Y0293470D02*
X0092070Y0289540D01*
X0093053Y0288558D01*
X0095317Y0289540D02*
X0095317Y0291505D01*
X0096300Y0292488D01*
X0098265Y0292488D01*
X0099247Y0291505D01*
X0099247Y0290523D01*
X0095317Y0290523D01*
X0095317Y0289540D02*
X0096300Y0288558D01*
X0098265Y0288558D01*
X0101661Y0289540D02*
X0101661Y0292488D01*
X0101661Y0289540D02*
X0102644Y0288558D01*
X0103626Y0289540D01*
X0104609Y0288558D01*
X0105591Y0289540D01*
X0105591Y0292488D01*
X0108988Y0292488D02*
X0110953Y0292488D01*
X0111935Y0291505D01*
X0111935Y0288558D01*
X0108988Y0288558D01*
X0108005Y0289540D01*
X0108988Y0290523D01*
X0111935Y0290523D01*
X0114349Y0289540D02*
X0115332Y0288558D01*
X0118279Y0288558D01*
X0118279Y0287575D02*
X0117297Y0286593D01*
X0116314Y0286593D01*
X0118279Y0287575D02*
X0118279Y0292488D01*
X0114349Y0292488D02*
X0114349Y0289540D01*
D12*
X0212557Y0226361D02*
X0212557Y0221907D01*
X0212557Y0224134D02*
X0219237Y0224134D01*
X0218124Y0219110D02*
X0219237Y0217997D01*
X0219237Y0215770D01*
X0218124Y0214657D01*
X0215897Y0215770D02*
X0215897Y0217997D01*
X0217010Y0219110D01*
X0218124Y0219110D01*
X0215897Y0215770D02*
X0214784Y0214657D01*
X0213671Y0214657D01*
X0212557Y0215770D01*
X0212557Y0217997D01*
X0213671Y0219110D01*
X0212557Y0211860D02*
X0212557Y0207407D01*
X0219237Y0207407D01*
X0219237Y0211860D01*
X0215897Y0209633D02*
X0215897Y0207407D01*
X0212557Y0204610D02*
X0212557Y0200157D01*
X0212557Y0202383D02*
X0219237Y0202383D01*
X0214187Y0067611D02*
X0213073Y0067611D01*
X0211960Y0066498D01*
X0211960Y0063158D01*
X0211960Y0066498D02*
X0210847Y0067611D01*
X0209734Y0067611D01*
X0208620Y0066498D01*
X0208620Y0063158D01*
X0215300Y0063158D01*
X0215300Y0066498D01*
X0214187Y0067611D01*
X0203489Y0067611D02*
X0199036Y0067611D01*
X0196809Y0065384D01*
X0199036Y0063158D01*
X0203489Y0063158D01*
X0200149Y0063158D02*
X0200149Y0067611D01*
X0191678Y0066498D02*
X0191678Y0064271D01*
X0190565Y0063158D01*
X0186112Y0063158D01*
X0184998Y0064271D01*
X0184998Y0066498D01*
X0186112Y0067611D01*
X0188338Y0067611D02*
X0188338Y0065384D01*
X0188338Y0067611D02*
X0190565Y0067611D01*
X0191678Y0066498D01*
X0132800Y0088658D02*
X0132800Y0090884D01*
X0132800Y0089771D02*
X0126120Y0089771D01*
X0126120Y0088658D02*
X0126120Y0090884D01*
X0126120Y0093491D02*
X0132800Y0097944D01*
X0126120Y0097944D01*
X0126120Y0093491D02*
X0132800Y0093491D01*
X0120989Y0091998D02*
X0119876Y0093111D01*
X0117649Y0093111D01*
X0117649Y0090884D01*
X0115423Y0088658D02*
X0119876Y0088658D01*
X0120989Y0089771D01*
X0120989Y0091998D01*
X0115423Y0093111D02*
X0114309Y0091998D01*
X0114309Y0089771D01*
X0115423Y0088658D01*
X0109178Y0089771D02*
X0109178Y0091998D01*
X0108065Y0093111D01*
X0103612Y0093111D01*
X0102498Y0091998D01*
X0102498Y0089771D01*
X0103612Y0088658D01*
X0108065Y0088658D01*
X0109178Y0089771D01*
X0109178Y0095908D02*
X0109178Y0100361D01*
X0109178Y0098135D02*
X0102498Y0098135D01*
X0104725Y0095908D01*
X0097367Y0095908D02*
X0092914Y0100361D01*
X0091800Y0100361D01*
X0090687Y0099248D01*
X0090687Y0097021D01*
X0091800Y0095908D01*
X0091800Y0093111D02*
X0090687Y0091998D01*
X0090687Y0089771D01*
X0091800Y0088658D01*
X0096254Y0088658D01*
X0097367Y0089771D01*
X0097367Y0091998D01*
X0096254Y0093111D01*
X0091800Y0093111D01*
X0097367Y0095908D02*
X0097367Y0100361D01*
D13*
X0083900Y0082058D02*
X0083900Y0072058D01*
X0069900Y0058058D01*
X0076400Y0058058D01*
X0069900Y0058058D02*
X0069900Y0064558D01*
X0069613Y0219558D02*
X0069615Y0219614D01*
X0069621Y0219669D01*
X0069631Y0219723D01*
X0069644Y0219777D01*
X0069662Y0219830D01*
X0069683Y0219881D01*
X0069707Y0219931D01*
X0069735Y0219979D01*
X0069767Y0220025D01*
X0069801Y0220069D01*
X0069839Y0220110D01*
X0069879Y0220148D01*
X0069922Y0220183D01*
X0069967Y0220215D01*
X0070015Y0220244D01*
X0070064Y0220270D01*
X0070115Y0220292D01*
X0070167Y0220310D01*
X0070221Y0220324D01*
X0070276Y0220335D01*
X0070331Y0220342D01*
X0070386Y0220345D01*
X0070442Y0220344D01*
X0070497Y0220339D01*
X0070552Y0220330D01*
X0070606Y0220318D01*
X0070659Y0220301D01*
X0070711Y0220281D01*
X0070761Y0220257D01*
X0070809Y0220230D01*
X0070856Y0220200D01*
X0070900Y0220166D01*
X0070942Y0220129D01*
X0070980Y0220089D01*
X0071017Y0220047D01*
X0071050Y0220002D01*
X0071079Y0219956D01*
X0071106Y0219907D01*
X0071128Y0219856D01*
X0071148Y0219804D01*
X0071163Y0219750D01*
X0071175Y0219696D01*
X0071183Y0219641D01*
X0071187Y0219586D01*
X0071187Y0219530D01*
X0071183Y0219475D01*
X0071175Y0219420D01*
X0071163Y0219366D01*
X0071148Y0219312D01*
X0071128Y0219260D01*
X0071106Y0219209D01*
X0071079Y0219160D01*
X0071050Y0219114D01*
X0071017Y0219069D01*
X0070980Y0219027D01*
X0070942Y0218987D01*
X0070900Y0218950D01*
X0070856Y0218916D01*
X0070809Y0218886D01*
X0070761Y0218859D01*
X0070711Y0218835D01*
X0070659Y0218815D01*
X0070606Y0218798D01*
X0070552Y0218786D01*
X0070497Y0218777D01*
X0070442Y0218772D01*
X0070386Y0218771D01*
X0070331Y0218774D01*
X0070276Y0218781D01*
X0070221Y0218792D01*
X0070167Y0218806D01*
X0070115Y0218824D01*
X0070064Y0218846D01*
X0070015Y0218872D01*
X0069967Y0218901D01*
X0069922Y0218933D01*
X0069879Y0218968D01*
X0069839Y0219006D01*
X0069801Y0219047D01*
X0069767Y0219091D01*
X0069735Y0219137D01*
X0069707Y0219185D01*
X0069683Y0219235D01*
X0069662Y0219286D01*
X0069644Y0219339D01*
X0069631Y0219393D01*
X0069621Y0219447D01*
X0069615Y0219502D01*
X0069613Y0219558D01*
D14*
X0198400Y0236808D03*
D15*
X0200888Y0294546D02*
X0200888Y0297007D01*
X0200888Y0303010D02*
X0200888Y0304585D01*
X0201331Y0305028D01*
X0193731Y0316959D02*
X0185069Y0316959D01*
X0176802Y0325227D02*
X0176802Y0333888D01*
X0185069Y0342156D02*
X0193731Y0342156D01*
X0201998Y0333888D02*
X0201998Y0325227D01*
X0211912Y0305570D02*
X0211912Y0302961D01*
X0211912Y0296957D02*
X0211912Y0294546D01*
X0182707Y0329558D02*
X0182709Y0329722D01*
X0182715Y0329886D01*
X0182725Y0330050D01*
X0182739Y0330214D01*
X0182757Y0330377D01*
X0182779Y0330540D01*
X0182806Y0330702D01*
X0182836Y0330864D01*
X0182870Y0331024D01*
X0182908Y0331184D01*
X0182949Y0331343D01*
X0182995Y0331501D01*
X0183045Y0331657D01*
X0183098Y0331813D01*
X0183155Y0331967D01*
X0183216Y0332119D01*
X0183281Y0332270D01*
X0183350Y0332420D01*
X0183422Y0332567D01*
X0183497Y0332713D01*
X0183577Y0332857D01*
X0183659Y0332999D01*
X0183745Y0333139D01*
X0183835Y0333276D01*
X0183928Y0333412D01*
X0184024Y0333545D01*
X0184124Y0333676D01*
X0184226Y0333804D01*
X0184332Y0333930D01*
X0184441Y0334053D01*
X0184553Y0334173D01*
X0184667Y0334291D01*
X0184785Y0334405D01*
X0184905Y0334517D01*
X0185028Y0334626D01*
X0185154Y0334732D01*
X0185282Y0334834D01*
X0185413Y0334934D01*
X0185546Y0335030D01*
X0185682Y0335123D01*
X0185819Y0335213D01*
X0185959Y0335299D01*
X0186101Y0335381D01*
X0186245Y0335461D01*
X0186391Y0335536D01*
X0186538Y0335608D01*
X0186688Y0335677D01*
X0186839Y0335742D01*
X0186991Y0335803D01*
X0187145Y0335860D01*
X0187301Y0335913D01*
X0187457Y0335963D01*
X0187615Y0336009D01*
X0187774Y0336050D01*
X0187934Y0336088D01*
X0188094Y0336122D01*
X0188256Y0336152D01*
X0188418Y0336179D01*
X0188581Y0336201D01*
X0188744Y0336219D01*
X0188908Y0336233D01*
X0189072Y0336243D01*
X0189236Y0336249D01*
X0189400Y0336251D01*
X0189564Y0336249D01*
X0189728Y0336243D01*
X0189892Y0336233D01*
X0190056Y0336219D01*
X0190219Y0336201D01*
X0190382Y0336179D01*
X0190544Y0336152D01*
X0190706Y0336122D01*
X0190866Y0336088D01*
X0191026Y0336050D01*
X0191185Y0336009D01*
X0191343Y0335963D01*
X0191499Y0335913D01*
X0191655Y0335860D01*
X0191809Y0335803D01*
X0191961Y0335742D01*
X0192112Y0335677D01*
X0192262Y0335608D01*
X0192409Y0335536D01*
X0192555Y0335461D01*
X0192699Y0335381D01*
X0192841Y0335299D01*
X0192981Y0335213D01*
X0193118Y0335123D01*
X0193254Y0335030D01*
X0193387Y0334934D01*
X0193518Y0334834D01*
X0193646Y0334732D01*
X0193772Y0334626D01*
X0193895Y0334517D01*
X0194015Y0334405D01*
X0194133Y0334291D01*
X0194247Y0334173D01*
X0194359Y0334053D01*
X0194468Y0333930D01*
X0194574Y0333804D01*
X0194676Y0333676D01*
X0194776Y0333545D01*
X0194872Y0333412D01*
X0194965Y0333276D01*
X0195055Y0333139D01*
X0195141Y0332999D01*
X0195223Y0332857D01*
X0195303Y0332713D01*
X0195378Y0332567D01*
X0195450Y0332420D01*
X0195519Y0332270D01*
X0195584Y0332119D01*
X0195645Y0331967D01*
X0195702Y0331813D01*
X0195755Y0331657D01*
X0195805Y0331501D01*
X0195851Y0331343D01*
X0195892Y0331184D01*
X0195930Y0331024D01*
X0195964Y0330864D01*
X0195994Y0330702D01*
X0196021Y0330540D01*
X0196043Y0330377D01*
X0196061Y0330214D01*
X0196075Y0330050D01*
X0196085Y0329886D01*
X0196091Y0329722D01*
X0196093Y0329558D01*
X0196091Y0329394D01*
X0196085Y0329230D01*
X0196075Y0329066D01*
X0196061Y0328902D01*
X0196043Y0328739D01*
X0196021Y0328576D01*
X0195994Y0328414D01*
X0195964Y0328252D01*
X0195930Y0328092D01*
X0195892Y0327932D01*
X0195851Y0327773D01*
X0195805Y0327615D01*
X0195755Y0327459D01*
X0195702Y0327303D01*
X0195645Y0327149D01*
X0195584Y0326997D01*
X0195519Y0326846D01*
X0195450Y0326696D01*
X0195378Y0326549D01*
X0195303Y0326403D01*
X0195223Y0326259D01*
X0195141Y0326117D01*
X0195055Y0325977D01*
X0194965Y0325840D01*
X0194872Y0325704D01*
X0194776Y0325571D01*
X0194676Y0325440D01*
X0194574Y0325312D01*
X0194468Y0325186D01*
X0194359Y0325063D01*
X0194247Y0324943D01*
X0194133Y0324825D01*
X0194015Y0324711D01*
X0193895Y0324599D01*
X0193772Y0324490D01*
X0193646Y0324384D01*
X0193518Y0324282D01*
X0193387Y0324182D01*
X0193254Y0324086D01*
X0193118Y0323993D01*
X0192981Y0323903D01*
X0192841Y0323817D01*
X0192699Y0323735D01*
X0192555Y0323655D01*
X0192409Y0323580D01*
X0192262Y0323508D01*
X0192112Y0323439D01*
X0191961Y0323374D01*
X0191809Y0323313D01*
X0191655Y0323256D01*
X0191499Y0323203D01*
X0191343Y0323153D01*
X0191185Y0323107D01*
X0191026Y0323066D01*
X0190866Y0323028D01*
X0190706Y0322994D01*
X0190544Y0322964D01*
X0190382Y0322937D01*
X0190219Y0322915D01*
X0190056Y0322897D01*
X0189892Y0322883D01*
X0189728Y0322873D01*
X0189564Y0322867D01*
X0189400Y0322865D01*
X0189236Y0322867D01*
X0189072Y0322873D01*
X0188908Y0322883D01*
X0188744Y0322897D01*
X0188581Y0322915D01*
X0188418Y0322937D01*
X0188256Y0322964D01*
X0188094Y0322994D01*
X0187934Y0323028D01*
X0187774Y0323066D01*
X0187615Y0323107D01*
X0187457Y0323153D01*
X0187301Y0323203D01*
X0187145Y0323256D01*
X0186991Y0323313D01*
X0186839Y0323374D01*
X0186688Y0323439D01*
X0186538Y0323508D01*
X0186391Y0323580D01*
X0186245Y0323655D01*
X0186101Y0323735D01*
X0185959Y0323817D01*
X0185819Y0323903D01*
X0185682Y0323993D01*
X0185546Y0324086D01*
X0185413Y0324182D01*
X0185282Y0324282D01*
X0185154Y0324384D01*
X0185028Y0324490D01*
X0184905Y0324599D01*
X0184785Y0324711D01*
X0184667Y0324825D01*
X0184553Y0324943D01*
X0184441Y0325063D01*
X0184332Y0325186D01*
X0184226Y0325312D01*
X0184124Y0325440D01*
X0184024Y0325571D01*
X0183928Y0325704D01*
X0183835Y0325840D01*
X0183745Y0325977D01*
X0183659Y0326117D01*
X0183577Y0326259D01*
X0183497Y0326403D01*
X0183422Y0326549D01*
X0183350Y0326696D01*
X0183281Y0326846D01*
X0183216Y0326997D01*
X0183155Y0327149D01*
X0183098Y0327303D01*
X0183045Y0327459D01*
X0182995Y0327615D01*
X0182949Y0327773D01*
X0182908Y0327932D01*
X0182870Y0328092D01*
X0182836Y0328252D01*
X0182806Y0328414D01*
X0182779Y0328576D01*
X0182757Y0328739D01*
X0182739Y0328902D01*
X0182725Y0329066D01*
X0182715Y0329230D01*
X0182709Y0329394D01*
X0182707Y0329558D01*
X0185951Y0172125D02*
X0185951Y0170156D01*
X0204849Y0170156D01*
X0204849Y0152991D01*
X0204849Y0170156D02*
X0204849Y0172125D01*
X0185951Y0170156D02*
X0185951Y0152991D01*
X0185228Y0130178D02*
X0182674Y0130178D01*
X0181822Y0129326D01*
X0182674Y0128475D01*
X0184377Y0128475D01*
X0185228Y0127623D01*
X0184377Y0126772D01*
X0181822Y0126772D01*
X0179791Y0126772D02*
X0177236Y0126772D01*
X0176384Y0127623D01*
X0177236Y0128475D01*
X0179791Y0128475D01*
X0179791Y0129326D02*
X0179791Y0126772D01*
X0179791Y0129326D02*
X0178939Y0130178D01*
X0177236Y0130178D01*
X0174462Y0126772D02*
X0172759Y0126772D01*
X0173611Y0126772D02*
X0173611Y0130178D01*
X0172759Y0130178D01*
X0173611Y0131881D02*
X0173611Y0132733D01*
X0170728Y0129326D02*
X0170728Y0126772D01*
X0170728Y0129326D02*
X0169876Y0130178D01*
X0168173Y0130178D01*
X0167321Y0129326D01*
X0165399Y0130178D02*
X0163696Y0130178D01*
X0164548Y0131030D02*
X0164548Y0127623D01*
X0165399Y0126772D01*
X0167321Y0126772D02*
X0167321Y0131881D01*
X0161665Y0129326D02*
X0161665Y0126772D01*
X0159110Y0126772D01*
X0158259Y0127623D01*
X0159110Y0128475D01*
X0161665Y0128475D01*
X0161665Y0129326D02*
X0160813Y0130178D01*
X0159110Y0130178D01*
X0156227Y0129326D02*
X0156227Y0126772D01*
X0154524Y0126772D02*
X0154524Y0129326D01*
X0155376Y0130178D01*
X0156227Y0129326D01*
X0154524Y0129326D02*
X0153672Y0130178D01*
X0152821Y0130178D01*
X0152821Y0126772D01*
X0147383Y0126772D02*
X0150790Y0131881D01*
X0145352Y0129326D02*
X0145352Y0126772D01*
X0143649Y0126772D02*
X0143649Y0129326D01*
X0144500Y0130178D01*
X0145352Y0129326D01*
X0143649Y0129326D02*
X0142797Y0130178D01*
X0141945Y0130178D01*
X0141945Y0126772D01*
X0139914Y0127623D02*
X0139914Y0129326D01*
X0139063Y0130178D01*
X0137359Y0130178D01*
X0136508Y0129326D01*
X0136508Y0127623D01*
X0137359Y0126772D01*
X0139063Y0126772D01*
X0139914Y0127623D01*
X0134477Y0126772D02*
X0131922Y0126772D01*
X0131070Y0127623D01*
X0131070Y0129326D01*
X0131922Y0130178D01*
X0134477Y0130178D01*
X0129203Y0127623D02*
X0129203Y0126772D01*
X0128351Y0126772D01*
X0128351Y0127623D01*
X0129203Y0127623D01*
X0126320Y0127623D02*
X0126320Y0129326D01*
X0125468Y0130178D01*
X0122913Y0130178D01*
X0122913Y0131881D02*
X0122913Y0126772D01*
X0125468Y0126772D01*
X0126320Y0127623D01*
X0120882Y0126772D02*
X0120882Y0130178D01*
X0117476Y0130178D02*
X0117476Y0127623D01*
X0118327Y0126772D01*
X0120882Y0126772D01*
X0115445Y0126772D02*
X0115445Y0129326D01*
X0114593Y0130178D01*
X0112890Y0130178D01*
X0112038Y0129326D01*
X0110116Y0130178D02*
X0108413Y0130178D01*
X0109264Y0131030D02*
X0109264Y0127623D01*
X0110116Y0126772D01*
X0112038Y0126772D02*
X0112038Y0131881D01*
X0105639Y0131881D02*
X0105639Y0132733D01*
X0105639Y0130178D02*
X0104788Y0130178D01*
X0105639Y0130178D02*
X0105639Y0126772D01*
X0104788Y0126772D02*
X0106491Y0126772D01*
X0102757Y0126772D02*
X0100202Y0126772D01*
X0099350Y0127623D01*
X0099350Y0129326D01*
X0100202Y0130178D01*
X0102757Y0130178D01*
X0102757Y0125920D01*
X0101905Y0125068D01*
X0101053Y0125068D01*
X0187260Y0129326D02*
X0190666Y0129326D01*
X0192697Y0127623D02*
X0193549Y0128475D01*
X0196104Y0128475D01*
X0196104Y0129326D02*
X0196104Y0126772D01*
X0193549Y0126772D01*
X0192697Y0127623D01*
X0193549Y0130178D02*
X0195252Y0130178D01*
X0196104Y0129326D01*
X0198135Y0126772D02*
X0199838Y0126772D01*
X0198987Y0126772D02*
X0198987Y0131881D01*
X0198135Y0131881D01*
X0202612Y0130178D02*
X0204315Y0130178D01*
X0205167Y0129326D01*
X0205167Y0126772D01*
X0202612Y0126772D01*
X0201760Y0127623D01*
X0202612Y0128475D01*
X0205167Y0128475D01*
X0207198Y0130178D02*
X0209753Y0130178D01*
X0210604Y0129326D01*
X0210604Y0126772D01*
X0212636Y0127623D02*
X0212636Y0129326D01*
X0213487Y0130178D01*
X0216042Y0130178D01*
X0216042Y0131881D02*
X0216042Y0126772D01*
X0213487Y0126772D01*
X0212636Y0127623D01*
X0207198Y0126772D02*
X0207198Y0130178D01*
X0044998Y0325227D02*
X0044998Y0333888D01*
X0036731Y0342156D02*
X0028069Y0342156D01*
X0019802Y0333888D02*
X0019802Y0325227D01*
X0028069Y0316959D02*
X0036731Y0316959D01*
X0025707Y0329558D02*
X0025709Y0329722D01*
X0025715Y0329886D01*
X0025725Y0330050D01*
X0025739Y0330214D01*
X0025757Y0330377D01*
X0025779Y0330540D01*
X0025806Y0330702D01*
X0025836Y0330864D01*
X0025870Y0331024D01*
X0025908Y0331184D01*
X0025949Y0331343D01*
X0025995Y0331501D01*
X0026045Y0331657D01*
X0026098Y0331813D01*
X0026155Y0331967D01*
X0026216Y0332119D01*
X0026281Y0332270D01*
X0026350Y0332420D01*
X0026422Y0332567D01*
X0026497Y0332713D01*
X0026577Y0332857D01*
X0026659Y0332999D01*
X0026745Y0333139D01*
X0026835Y0333276D01*
X0026928Y0333412D01*
X0027024Y0333545D01*
X0027124Y0333676D01*
X0027226Y0333804D01*
X0027332Y0333930D01*
X0027441Y0334053D01*
X0027553Y0334173D01*
X0027667Y0334291D01*
X0027785Y0334405D01*
X0027905Y0334517D01*
X0028028Y0334626D01*
X0028154Y0334732D01*
X0028282Y0334834D01*
X0028413Y0334934D01*
X0028546Y0335030D01*
X0028682Y0335123D01*
X0028819Y0335213D01*
X0028959Y0335299D01*
X0029101Y0335381D01*
X0029245Y0335461D01*
X0029391Y0335536D01*
X0029538Y0335608D01*
X0029688Y0335677D01*
X0029839Y0335742D01*
X0029991Y0335803D01*
X0030145Y0335860D01*
X0030301Y0335913D01*
X0030457Y0335963D01*
X0030615Y0336009D01*
X0030774Y0336050D01*
X0030934Y0336088D01*
X0031094Y0336122D01*
X0031256Y0336152D01*
X0031418Y0336179D01*
X0031581Y0336201D01*
X0031744Y0336219D01*
X0031908Y0336233D01*
X0032072Y0336243D01*
X0032236Y0336249D01*
X0032400Y0336251D01*
X0032564Y0336249D01*
X0032728Y0336243D01*
X0032892Y0336233D01*
X0033056Y0336219D01*
X0033219Y0336201D01*
X0033382Y0336179D01*
X0033544Y0336152D01*
X0033706Y0336122D01*
X0033866Y0336088D01*
X0034026Y0336050D01*
X0034185Y0336009D01*
X0034343Y0335963D01*
X0034499Y0335913D01*
X0034655Y0335860D01*
X0034809Y0335803D01*
X0034961Y0335742D01*
X0035112Y0335677D01*
X0035262Y0335608D01*
X0035409Y0335536D01*
X0035555Y0335461D01*
X0035699Y0335381D01*
X0035841Y0335299D01*
X0035981Y0335213D01*
X0036118Y0335123D01*
X0036254Y0335030D01*
X0036387Y0334934D01*
X0036518Y0334834D01*
X0036646Y0334732D01*
X0036772Y0334626D01*
X0036895Y0334517D01*
X0037015Y0334405D01*
X0037133Y0334291D01*
X0037247Y0334173D01*
X0037359Y0334053D01*
X0037468Y0333930D01*
X0037574Y0333804D01*
X0037676Y0333676D01*
X0037776Y0333545D01*
X0037872Y0333412D01*
X0037965Y0333276D01*
X0038055Y0333139D01*
X0038141Y0332999D01*
X0038223Y0332857D01*
X0038303Y0332713D01*
X0038378Y0332567D01*
X0038450Y0332420D01*
X0038519Y0332270D01*
X0038584Y0332119D01*
X0038645Y0331967D01*
X0038702Y0331813D01*
X0038755Y0331657D01*
X0038805Y0331501D01*
X0038851Y0331343D01*
X0038892Y0331184D01*
X0038930Y0331024D01*
X0038964Y0330864D01*
X0038994Y0330702D01*
X0039021Y0330540D01*
X0039043Y0330377D01*
X0039061Y0330214D01*
X0039075Y0330050D01*
X0039085Y0329886D01*
X0039091Y0329722D01*
X0039093Y0329558D01*
X0039091Y0329394D01*
X0039085Y0329230D01*
X0039075Y0329066D01*
X0039061Y0328902D01*
X0039043Y0328739D01*
X0039021Y0328576D01*
X0038994Y0328414D01*
X0038964Y0328252D01*
X0038930Y0328092D01*
X0038892Y0327932D01*
X0038851Y0327773D01*
X0038805Y0327615D01*
X0038755Y0327459D01*
X0038702Y0327303D01*
X0038645Y0327149D01*
X0038584Y0326997D01*
X0038519Y0326846D01*
X0038450Y0326696D01*
X0038378Y0326549D01*
X0038303Y0326403D01*
X0038223Y0326259D01*
X0038141Y0326117D01*
X0038055Y0325977D01*
X0037965Y0325840D01*
X0037872Y0325704D01*
X0037776Y0325571D01*
X0037676Y0325440D01*
X0037574Y0325312D01*
X0037468Y0325186D01*
X0037359Y0325063D01*
X0037247Y0324943D01*
X0037133Y0324825D01*
X0037015Y0324711D01*
X0036895Y0324599D01*
X0036772Y0324490D01*
X0036646Y0324384D01*
X0036518Y0324282D01*
X0036387Y0324182D01*
X0036254Y0324086D01*
X0036118Y0323993D01*
X0035981Y0323903D01*
X0035841Y0323817D01*
X0035699Y0323735D01*
X0035555Y0323655D01*
X0035409Y0323580D01*
X0035262Y0323508D01*
X0035112Y0323439D01*
X0034961Y0323374D01*
X0034809Y0323313D01*
X0034655Y0323256D01*
X0034499Y0323203D01*
X0034343Y0323153D01*
X0034185Y0323107D01*
X0034026Y0323066D01*
X0033866Y0323028D01*
X0033706Y0322994D01*
X0033544Y0322964D01*
X0033382Y0322937D01*
X0033219Y0322915D01*
X0033056Y0322897D01*
X0032892Y0322883D01*
X0032728Y0322873D01*
X0032564Y0322867D01*
X0032400Y0322865D01*
X0032236Y0322867D01*
X0032072Y0322873D01*
X0031908Y0322883D01*
X0031744Y0322897D01*
X0031581Y0322915D01*
X0031418Y0322937D01*
X0031256Y0322964D01*
X0031094Y0322994D01*
X0030934Y0323028D01*
X0030774Y0323066D01*
X0030615Y0323107D01*
X0030457Y0323153D01*
X0030301Y0323203D01*
X0030145Y0323256D01*
X0029991Y0323313D01*
X0029839Y0323374D01*
X0029688Y0323439D01*
X0029538Y0323508D01*
X0029391Y0323580D01*
X0029245Y0323655D01*
X0029101Y0323735D01*
X0028959Y0323817D01*
X0028819Y0323903D01*
X0028682Y0323993D01*
X0028546Y0324086D01*
X0028413Y0324182D01*
X0028282Y0324282D01*
X0028154Y0324384D01*
X0028028Y0324490D01*
X0027905Y0324599D01*
X0027785Y0324711D01*
X0027667Y0324825D01*
X0027553Y0324943D01*
X0027441Y0325063D01*
X0027332Y0325186D01*
X0027226Y0325312D01*
X0027124Y0325440D01*
X0027024Y0325571D01*
X0026928Y0325704D01*
X0026835Y0325840D01*
X0026745Y0325977D01*
X0026659Y0326117D01*
X0026577Y0326259D01*
X0026497Y0326403D01*
X0026422Y0326549D01*
X0026350Y0326696D01*
X0026281Y0326846D01*
X0026216Y0326997D01*
X0026155Y0327149D01*
X0026098Y0327303D01*
X0026045Y0327459D01*
X0025995Y0327615D01*
X0025949Y0327773D01*
X0025908Y0327932D01*
X0025870Y0328092D01*
X0025836Y0328252D01*
X0025806Y0328414D01*
X0025779Y0328576D01*
X0025757Y0328739D01*
X0025739Y0328902D01*
X0025725Y0329066D01*
X0025715Y0329230D01*
X0025709Y0329394D01*
X0025707Y0329558D01*
D16*
X0009668Y0025833D02*
X0009668Y0013833D01*
X0015400Y0013833D01*
X0022400Y0013833D01*
X0030400Y0013833D01*
X0037400Y0013833D01*
X0045400Y0013833D01*
X0046900Y0018833D01*
X0050900Y0018833D01*
X0052400Y0013833D01*
X0060400Y0013833D01*
X0061900Y0018833D01*
X0065900Y0018833D01*
X0067400Y0013833D01*
X0073132Y0013833D01*
X0073132Y0025833D01*
X0073132Y0049857D01*
X0073132Y0025833D02*
X0009668Y0025833D01*
X0009668Y0049857D01*
X0016900Y0018833D02*
X0015400Y0013833D01*
X0016900Y0018833D02*
X0020900Y0018833D01*
X0022400Y0013833D01*
X0030400Y0013833D02*
X0031900Y0018833D01*
X0035900Y0018833D01*
X0037400Y0013833D01*
X0045400Y0013833D02*
X0052400Y0013833D01*
X0060400Y0013833D02*
X0067400Y0013833D01*
X0049825Y0080676D02*
X0049827Y0080840D01*
X0049833Y0081004D01*
X0049843Y0081168D01*
X0049857Y0081332D01*
X0049875Y0081495D01*
X0049897Y0081658D01*
X0049924Y0081820D01*
X0049954Y0081982D01*
X0049988Y0082142D01*
X0050026Y0082302D01*
X0050067Y0082461D01*
X0050113Y0082619D01*
X0050163Y0082775D01*
X0050216Y0082931D01*
X0050273Y0083085D01*
X0050334Y0083237D01*
X0050399Y0083388D01*
X0050468Y0083538D01*
X0050540Y0083685D01*
X0050615Y0083831D01*
X0050695Y0083975D01*
X0050777Y0084117D01*
X0050863Y0084257D01*
X0050953Y0084394D01*
X0051046Y0084530D01*
X0051142Y0084663D01*
X0051242Y0084794D01*
X0051344Y0084922D01*
X0051450Y0085048D01*
X0051559Y0085171D01*
X0051671Y0085291D01*
X0051785Y0085409D01*
X0051903Y0085523D01*
X0052023Y0085635D01*
X0052146Y0085744D01*
X0052272Y0085850D01*
X0052400Y0085952D01*
X0052531Y0086052D01*
X0052664Y0086148D01*
X0052800Y0086241D01*
X0052937Y0086331D01*
X0053077Y0086417D01*
X0053219Y0086499D01*
X0053363Y0086579D01*
X0053509Y0086654D01*
X0053656Y0086726D01*
X0053806Y0086795D01*
X0053957Y0086860D01*
X0054109Y0086921D01*
X0054263Y0086978D01*
X0054419Y0087031D01*
X0054575Y0087081D01*
X0054733Y0087127D01*
X0054892Y0087168D01*
X0055052Y0087206D01*
X0055212Y0087240D01*
X0055374Y0087270D01*
X0055536Y0087297D01*
X0055699Y0087319D01*
X0055862Y0087337D01*
X0056026Y0087351D01*
X0056190Y0087361D01*
X0056354Y0087367D01*
X0056518Y0087369D01*
X0056682Y0087367D01*
X0056846Y0087361D01*
X0057010Y0087351D01*
X0057174Y0087337D01*
X0057337Y0087319D01*
X0057500Y0087297D01*
X0057662Y0087270D01*
X0057824Y0087240D01*
X0057984Y0087206D01*
X0058144Y0087168D01*
X0058303Y0087127D01*
X0058461Y0087081D01*
X0058617Y0087031D01*
X0058773Y0086978D01*
X0058927Y0086921D01*
X0059079Y0086860D01*
X0059230Y0086795D01*
X0059380Y0086726D01*
X0059527Y0086654D01*
X0059673Y0086579D01*
X0059817Y0086499D01*
X0059959Y0086417D01*
X0060099Y0086331D01*
X0060236Y0086241D01*
X0060372Y0086148D01*
X0060505Y0086052D01*
X0060636Y0085952D01*
X0060764Y0085850D01*
X0060890Y0085744D01*
X0061013Y0085635D01*
X0061133Y0085523D01*
X0061251Y0085409D01*
X0061365Y0085291D01*
X0061477Y0085171D01*
X0061586Y0085048D01*
X0061692Y0084922D01*
X0061794Y0084794D01*
X0061894Y0084663D01*
X0061990Y0084530D01*
X0062083Y0084394D01*
X0062173Y0084257D01*
X0062259Y0084117D01*
X0062341Y0083975D01*
X0062421Y0083831D01*
X0062496Y0083685D01*
X0062568Y0083538D01*
X0062637Y0083388D01*
X0062702Y0083237D01*
X0062763Y0083085D01*
X0062820Y0082931D01*
X0062873Y0082775D01*
X0062923Y0082619D01*
X0062969Y0082461D01*
X0063010Y0082302D01*
X0063048Y0082142D01*
X0063082Y0081982D01*
X0063112Y0081820D01*
X0063139Y0081658D01*
X0063161Y0081495D01*
X0063179Y0081332D01*
X0063193Y0081168D01*
X0063203Y0081004D01*
X0063209Y0080840D01*
X0063211Y0080676D01*
X0063209Y0080512D01*
X0063203Y0080348D01*
X0063193Y0080184D01*
X0063179Y0080020D01*
X0063161Y0079857D01*
X0063139Y0079694D01*
X0063112Y0079532D01*
X0063082Y0079370D01*
X0063048Y0079210D01*
X0063010Y0079050D01*
X0062969Y0078891D01*
X0062923Y0078733D01*
X0062873Y0078577D01*
X0062820Y0078421D01*
X0062763Y0078267D01*
X0062702Y0078115D01*
X0062637Y0077964D01*
X0062568Y0077814D01*
X0062496Y0077667D01*
X0062421Y0077521D01*
X0062341Y0077377D01*
X0062259Y0077235D01*
X0062173Y0077095D01*
X0062083Y0076958D01*
X0061990Y0076822D01*
X0061894Y0076689D01*
X0061794Y0076558D01*
X0061692Y0076430D01*
X0061586Y0076304D01*
X0061477Y0076181D01*
X0061365Y0076061D01*
X0061251Y0075943D01*
X0061133Y0075829D01*
X0061013Y0075717D01*
X0060890Y0075608D01*
X0060764Y0075502D01*
X0060636Y0075400D01*
X0060505Y0075300D01*
X0060372Y0075204D01*
X0060236Y0075111D01*
X0060099Y0075021D01*
X0059959Y0074935D01*
X0059817Y0074853D01*
X0059673Y0074773D01*
X0059527Y0074698D01*
X0059380Y0074626D01*
X0059230Y0074557D01*
X0059079Y0074492D01*
X0058927Y0074431D01*
X0058773Y0074374D01*
X0058617Y0074321D01*
X0058461Y0074271D01*
X0058303Y0074225D01*
X0058144Y0074184D01*
X0057984Y0074146D01*
X0057824Y0074112D01*
X0057662Y0074082D01*
X0057500Y0074055D01*
X0057337Y0074033D01*
X0057174Y0074015D01*
X0057010Y0074001D01*
X0056846Y0073991D01*
X0056682Y0073985D01*
X0056518Y0073983D01*
X0056354Y0073985D01*
X0056190Y0073991D01*
X0056026Y0074001D01*
X0055862Y0074015D01*
X0055699Y0074033D01*
X0055536Y0074055D01*
X0055374Y0074082D01*
X0055212Y0074112D01*
X0055052Y0074146D01*
X0054892Y0074184D01*
X0054733Y0074225D01*
X0054575Y0074271D01*
X0054419Y0074321D01*
X0054263Y0074374D01*
X0054109Y0074431D01*
X0053957Y0074492D01*
X0053806Y0074557D01*
X0053656Y0074626D01*
X0053509Y0074698D01*
X0053363Y0074773D01*
X0053219Y0074853D01*
X0053077Y0074935D01*
X0052937Y0075021D01*
X0052800Y0075111D01*
X0052664Y0075204D01*
X0052531Y0075300D01*
X0052400Y0075400D01*
X0052272Y0075502D01*
X0052146Y0075608D01*
X0052023Y0075717D01*
X0051903Y0075829D01*
X0051785Y0075943D01*
X0051671Y0076061D01*
X0051559Y0076181D01*
X0051450Y0076304D01*
X0051344Y0076430D01*
X0051242Y0076558D01*
X0051142Y0076689D01*
X0051046Y0076822D01*
X0050953Y0076958D01*
X0050863Y0077095D01*
X0050777Y0077235D01*
X0050695Y0077377D01*
X0050615Y0077521D01*
X0050540Y0077667D01*
X0050468Y0077814D01*
X0050399Y0077964D01*
X0050334Y0078115D01*
X0050273Y0078267D01*
X0050216Y0078421D01*
X0050163Y0078577D01*
X0050113Y0078733D01*
X0050067Y0078891D01*
X0050026Y0079050D01*
X0049988Y0079210D01*
X0049954Y0079370D01*
X0049924Y0079532D01*
X0049897Y0079694D01*
X0049875Y0079857D01*
X0049857Y0080020D01*
X0049843Y0080184D01*
X0049833Y0080348D01*
X0049827Y0080512D01*
X0049825Y0080676D01*
X0043018Y0080676D02*
X0043022Y0081007D01*
X0043034Y0081338D01*
X0043055Y0081669D01*
X0043083Y0081999D01*
X0043120Y0082329D01*
X0043164Y0082657D01*
X0043217Y0082984D01*
X0043277Y0083310D01*
X0043346Y0083634D01*
X0043423Y0083956D01*
X0043507Y0084277D01*
X0043599Y0084595D01*
X0043699Y0084911D01*
X0043807Y0085224D01*
X0043923Y0085535D01*
X0044046Y0085842D01*
X0044176Y0086147D01*
X0044314Y0086448D01*
X0044459Y0086746D01*
X0044612Y0087040D01*
X0044772Y0087330D01*
X0044939Y0087616D01*
X0045112Y0087898D01*
X0045293Y0088176D01*
X0045481Y0088449D01*
X0045675Y0088718D01*
X0045875Y0088982D01*
X0046082Y0089240D01*
X0046296Y0089494D01*
X0046515Y0089742D01*
X0046741Y0089985D01*
X0046972Y0090222D01*
X0047209Y0090453D01*
X0047452Y0090679D01*
X0047700Y0090898D01*
X0047954Y0091112D01*
X0048212Y0091319D01*
X0048476Y0091519D01*
X0048745Y0091713D01*
X0049018Y0091901D01*
X0049296Y0092082D01*
X0049578Y0092255D01*
X0049864Y0092422D01*
X0050154Y0092582D01*
X0050448Y0092735D01*
X0050746Y0092880D01*
X0051047Y0093018D01*
X0051352Y0093148D01*
X0051659Y0093271D01*
X0051970Y0093387D01*
X0052283Y0093495D01*
X0052599Y0093595D01*
X0052917Y0093687D01*
X0053238Y0093771D01*
X0053560Y0093848D01*
X0053884Y0093917D01*
X0054210Y0093977D01*
X0054537Y0094030D01*
X0054865Y0094074D01*
X0055195Y0094111D01*
X0055525Y0094139D01*
X0055856Y0094160D01*
X0056187Y0094172D01*
X0056518Y0094176D01*
X0056849Y0094172D01*
X0057180Y0094160D01*
X0057511Y0094139D01*
X0057841Y0094111D01*
X0058171Y0094074D01*
X0058499Y0094030D01*
X0058826Y0093977D01*
X0059152Y0093917D01*
X0059476Y0093848D01*
X0059798Y0093771D01*
X0060119Y0093687D01*
X0060437Y0093595D01*
X0060753Y0093495D01*
X0061066Y0093387D01*
X0061377Y0093271D01*
X0061684Y0093148D01*
X0061989Y0093018D01*
X0062290Y0092880D01*
X0062588Y0092735D01*
X0062882Y0092582D01*
X0063172Y0092422D01*
X0063458Y0092255D01*
X0063740Y0092082D01*
X0064018Y0091901D01*
X0064291Y0091713D01*
X0064560Y0091519D01*
X0064824Y0091319D01*
X0065082Y0091112D01*
X0065336Y0090898D01*
X0065584Y0090679D01*
X0065827Y0090453D01*
X0066064Y0090222D01*
X0066295Y0089985D01*
X0066521Y0089742D01*
X0066740Y0089494D01*
X0066954Y0089240D01*
X0067161Y0088982D01*
X0067361Y0088718D01*
X0067555Y0088449D01*
X0067743Y0088176D01*
X0067924Y0087898D01*
X0068097Y0087616D01*
X0068264Y0087330D01*
X0068424Y0087040D01*
X0068577Y0086746D01*
X0068722Y0086448D01*
X0068860Y0086147D01*
X0068990Y0085842D01*
X0069113Y0085535D01*
X0069229Y0085224D01*
X0069337Y0084911D01*
X0069437Y0084595D01*
X0069529Y0084277D01*
X0069613Y0083956D01*
X0069690Y0083634D01*
X0069759Y0083310D01*
X0069819Y0082984D01*
X0069872Y0082657D01*
X0069916Y0082329D01*
X0069953Y0081999D01*
X0069981Y0081669D01*
X0070002Y0081338D01*
X0070014Y0081007D01*
X0070018Y0080676D01*
X0070014Y0080345D01*
X0070002Y0080014D01*
X0069981Y0079683D01*
X0069953Y0079353D01*
X0069916Y0079023D01*
X0069872Y0078695D01*
X0069819Y0078368D01*
X0069759Y0078042D01*
X0069690Y0077718D01*
X0069613Y0077396D01*
X0069529Y0077075D01*
X0069437Y0076757D01*
X0069337Y0076441D01*
X0069229Y0076128D01*
X0069113Y0075817D01*
X0068990Y0075510D01*
X0068860Y0075205D01*
X0068722Y0074904D01*
X0068577Y0074606D01*
X0068424Y0074312D01*
X0068264Y0074022D01*
X0068097Y0073736D01*
X0067924Y0073454D01*
X0067743Y0073176D01*
X0067555Y0072903D01*
X0067361Y0072634D01*
X0067161Y0072370D01*
X0066954Y0072112D01*
X0066740Y0071858D01*
X0066521Y0071610D01*
X0066295Y0071367D01*
X0066064Y0071130D01*
X0065827Y0070899D01*
X0065584Y0070673D01*
X0065336Y0070454D01*
X0065082Y0070240D01*
X0064824Y0070033D01*
X0064560Y0069833D01*
X0064291Y0069639D01*
X0064018Y0069451D01*
X0063740Y0069270D01*
X0063458Y0069097D01*
X0063172Y0068930D01*
X0062882Y0068770D01*
X0062588Y0068617D01*
X0062290Y0068472D01*
X0061989Y0068334D01*
X0061684Y0068204D01*
X0061377Y0068081D01*
X0061066Y0067965D01*
X0060753Y0067857D01*
X0060437Y0067757D01*
X0060119Y0067665D01*
X0059798Y0067581D01*
X0059476Y0067504D01*
X0059152Y0067435D01*
X0058826Y0067375D01*
X0058499Y0067322D01*
X0058171Y0067278D01*
X0057841Y0067241D01*
X0057511Y0067213D01*
X0057180Y0067192D01*
X0056849Y0067180D01*
X0056518Y0067176D01*
X0056187Y0067180D01*
X0055856Y0067192D01*
X0055525Y0067213D01*
X0055195Y0067241D01*
X0054865Y0067278D01*
X0054537Y0067322D01*
X0054210Y0067375D01*
X0053884Y0067435D01*
X0053560Y0067504D01*
X0053238Y0067581D01*
X0052917Y0067665D01*
X0052599Y0067757D01*
X0052283Y0067857D01*
X0051970Y0067965D01*
X0051659Y0068081D01*
X0051352Y0068204D01*
X0051047Y0068334D01*
X0050746Y0068472D01*
X0050448Y0068617D01*
X0050154Y0068770D01*
X0049864Y0068930D01*
X0049578Y0069097D01*
X0049296Y0069270D01*
X0049018Y0069451D01*
X0048745Y0069639D01*
X0048476Y0069833D01*
X0048212Y0070033D01*
X0047954Y0070240D01*
X0047700Y0070454D01*
X0047452Y0070673D01*
X0047209Y0070899D01*
X0046972Y0071130D01*
X0046741Y0071367D01*
X0046515Y0071610D01*
X0046296Y0071858D01*
X0046082Y0072112D01*
X0045875Y0072370D01*
X0045675Y0072634D01*
X0045481Y0072903D01*
X0045293Y0073176D01*
X0045112Y0073454D01*
X0044939Y0073736D01*
X0044772Y0074022D01*
X0044612Y0074312D01*
X0044459Y0074606D01*
X0044314Y0074904D01*
X0044176Y0075205D01*
X0044046Y0075510D01*
X0043923Y0075817D01*
X0043807Y0076128D01*
X0043699Y0076441D01*
X0043599Y0076757D01*
X0043507Y0077075D01*
X0043423Y0077396D01*
X0043346Y0077718D01*
X0043277Y0078042D01*
X0043217Y0078368D01*
X0043164Y0078695D01*
X0043120Y0079023D01*
X0043083Y0079353D01*
X0043055Y0079683D01*
X0043034Y0080014D01*
X0043022Y0080345D01*
X0043018Y0080676D01*
X0158168Y0049857D02*
X0158168Y0025833D01*
X0158168Y0013833D01*
X0163900Y0013833D01*
X0170900Y0013833D01*
X0178900Y0013833D01*
X0185900Y0013833D01*
X0193900Y0013833D01*
X0195400Y0018833D01*
X0199400Y0018833D01*
X0200900Y0013833D01*
X0206632Y0013833D01*
X0206632Y0025833D01*
X0206632Y0049857D01*
X0206632Y0025833D02*
X0158168Y0025833D01*
X0165400Y0018833D02*
X0163900Y0013833D01*
X0165400Y0018833D02*
X0169400Y0018833D01*
X0170900Y0013833D01*
X0178900Y0013833D02*
X0180400Y0018833D01*
X0184400Y0018833D01*
X0185900Y0013833D01*
X0193900Y0013833D02*
X0200900Y0013833D01*
X0160061Y0080676D02*
X0160063Y0080840D01*
X0160069Y0081004D01*
X0160079Y0081168D01*
X0160093Y0081332D01*
X0160111Y0081495D01*
X0160133Y0081658D01*
X0160160Y0081820D01*
X0160190Y0081982D01*
X0160224Y0082142D01*
X0160262Y0082302D01*
X0160303Y0082461D01*
X0160349Y0082619D01*
X0160399Y0082775D01*
X0160452Y0082931D01*
X0160509Y0083085D01*
X0160570Y0083237D01*
X0160635Y0083388D01*
X0160704Y0083538D01*
X0160776Y0083685D01*
X0160851Y0083831D01*
X0160931Y0083975D01*
X0161013Y0084117D01*
X0161099Y0084257D01*
X0161189Y0084394D01*
X0161282Y0084530D01*
X0161378Y0084663D01*
X0161478Y0084794D01*
X0161580Y0084922D01*
X0161686Y0085048D01*
X0161795Y0085171D01*
X0161907Y0085291D01*
X0162021Y0085409D01*
X0162139Y0085523D01*
X0162259Y0085635D01*
X0162382Y0085744D01*
X0162508Y0085850D01*
X0162636Y0085952D01*
X0162767Y0086052D01*
X0162900Y0086148D01*
X0163036Y0086241D01*
X0163173Y0086331D01*
X0163313Y0086417D01*
X0163455Y0086499D01*
X0163599Y0086579D01*
X0163745Y0086654D01*
X0163892Y0086726D01*
X0164042Y0086795D01*
X0164193Y0086860D01*
X0164345Y0086921D01*
X0164499Y0086978D01*
X0164655Y0087031D01*
X0164811Y0087081D01*
X0164969Y0087127D01*
X0165128Y0087168D01*
X0165288Y0087206D01*
X0165448Y0087240D01*
X0165610Y0087270D01*
X0165772Y0087297D01*
X0165935Y0087319D01*
X0166098Y0087337D01*
X0166262Y0087351D01*
X0166426Y0087361D01*
X0166590Y0087367D01*
X0166754Y0087369D01*
X0166918Y0087367D01*
X0167082Y0087361D01*
X0167246Y0087351D01*
X0167410Y0087337D01*
X0167573Y0087319D01*
X0167736Y0087297D01*
X0167898Y0087270D01*
X0168060Y0087240D01*
X0168220Y0087206D01*
X0168380Y0087168D01*
X0168539Y0087127D01*
X0168697Y0087081D01*
X0168853Y0087031D01*
X0169009Y0086978D01*
X0169163Y0086921D01*
X0169315Y0086860D01*
X0169466Y0086795D01*
X0169616Y0086726D01*
X0169763Y0086654D01*
X0169909Y0086579D01*
X0170053Y0086499D01*
X0170195Y0086417D01*
X0170335Y0086331D01*
X0170472Y0086241D01*
X0170608Y0086148D01*
X0170741Y0086052D01*
X0170872Y0085952D01*
X0171000Y0085850D01*
X0171126Y0085744D01*
X0171249Y0085635D01*
X0171369Y0085523D01*
X0171487Y0085409D01*
X0171601Y0085291D01*
X0171713Y0085171D01*
X0171822Y0085048D01*
X0171928Y0084922D01*
X0172030Y0084794D01*
X0172130Y0084663D01*
X0172226Y0084530D01*
X0172319Y0084394D01*
X0172409Y0084257D01*
X0172495Y0084117D01*
X0172577Y0083975D01*
X0172657Y0083831D01*
X0172732Y0083685D01*
X0172804Y0083538D01*
X0172873Y0083388D01*
X0172938Y0083237D01*
X0172999Y0083085D01*
X0173056Y0082931D01*
X0173109Y0082775D01*
X0173159Y0082619D01*
X0173205Y0082461D01*
X0173246Y0082302D01*
X0173284Y0082142D01*
X0173318Y0081982D01*
X0173348Y0081820D01*
X0173375Y0081658D01*
X0173397Y0081495D01*
X0173415Y0081332D01*
X0173429Y0081168D01*
X0173439Y0081004D01*
X0173445Y0080840D01*
X0173447Y0080676D01*
X0173445Y0080512D01*
X0173439Y0080348D01*
X0173429Y0080184D01*
X0173415Y0080020D01*
X0173397Y0079857D01*
X0173375Y0079694D01*
X0173348Y0079532D01*
X0173318Y0079370D01*
X0173284Y0079210D01*
X0173246Y0079050D01*
X0173205Y0078891D01*
X0173159Y0078733D01*
X0173109Y0078577D01*
X0173056Y0078421D01*
X0172999Y0078267D01*
X0172938Y0078115D01*
X0172873Y0077964D01*
X0172804Y0077814D01*
X0172732Y0077667D01*
X0172657Y0077521D01*
X0172577Y0077377D01*
X0172495Y0077235D01*
X0172409Y0077095D01*
X0172319Y0076958D01*
X0172226Y0076822D01*
X0172130Y0076689D01*
X0172030Y0076558D01*
X0171928Y0076430D01*
X0171822Y0076304D01*
X0171713Y0076181D01*
X0171601Y0076061D01*
X0171487Y0075943D01*
X0171369Y0075829D01*
X0171249Y0075717D01*
X0171126Y0075608D01*
X0171000Y0075502D01*
X0170872Y0075400D01*
X0170741Y0075300D01*
X0170608Y0075204D01*
X0170472Y0075111D01*
X0170335Y0075021D01*
X0170195Y0074935D01*
X0170053Y0074853D01*
X0169909Y0074773D01*
X0169763Y0074698D01*
X0169616Y0074626D01*
X0169466Y0074557D01*
X0169315Y0074492D01*
X0169163Y0074431D01*
X0169009Y0074374D01*
X0168853Y0074321D01*
X0168697Y0074271D01*
X0168539Y0074225D01*
X0168380Y0074184D01*
X0168220Y0074146D01*
X0168060Y0074112D01*
X0167898Y0074082D01*
X0167736Y0074055D01*
X0167573Y0074033D01*
X0167410Y0074015D01*
X0167246Y0074001D01*
X0167082Y0073991D01*
X0166918Y0073985D01*
X0166754Y0073983D01*
X0166590Y0073985D01*
X0166426Y0073991D01*
X0166262Y0074001D01*
X0166098Y0074015D01*
X0165935Y0074033D01*
X0165772Y0074055D01*
X0165610Y0074082D01*
X0165448Y0074112D01*
X0165288Y0074146D01*
X0165128Y0074184D01*
X0164969Y0074225D01*
X0164811Y0074271D01*
X0164655Y0074321D01*
X0164499Y0074374D01*
X0164345Y0074431D01*
X0164193Y0074492D01*
X0164042Y0074557D01*
X0163892Y0074626D01*
X0163745Y0074698D01*
X0163599Y0074773D01*
X0163455Y0074853D01*
X0163313Y0074935D01*
X0163173Y0075021D01*
X0163036Y0075111D01*
X0162900Y0075204D01*
X0162767Y0075300D01*
X0162636Y0075400D01*
X0162508Y0075502D01*
X0162382Y0075608D01*
X0162259Y0075717D01*
X0162139Y0075829D01*
X0162021Y0075943D01*
X0161907Y0076061D01*
X0161795Y0076181D01*
X0161686Y0076304D01*
X0161580Y0076430D01*
X0161478Y0076558D01*
X0161378Y0076689D01*
X0161282Y0076822D01*
X0161189Y0076958D01*
X0161099Y0077095D01*
X0161013Y0077235D01*
X0160931Y0077377D01*
X0160851Y0077521D01*
X0160776Y0077667D01*
X0160704Y0077814D01*
X0160635Y0077964D01*
X0160570Y0078115D01*
X0160509Y0078267D01*
X0160452Y0078421D01*
X0160399Y0078577D01*
X0160349Y0078733D01*
X0160303Y0078891D01*
X0160262Y0079050D01*
X0160224Y0079210D01*
X0160190Y0079370D01*
X0160160Y0079532D01*
X0160133Y0079694D01*
X0160111Y0079857D01*
X0160093Y0080020D01*
X0160079Y0080184D01*
X0160069Y0080348D01*
X0160063Y0080512D01*
X0160061Y0080676D01*
X0153254Y0080676D02*
X0153258Y0081007D01*
X0153270Y0081338D01*
X0153291Y0081669D01*
X0153319Y0081999D01*
X0153356Y0082329D01*
X0153400Y0082657D01*
X0153453Y0082984D01*
X0153513Y0083310D01*
X0153582Y0083634D01*
X0153659Y0083956D01*
X0153743Y0084277D01*
X0153835Y0084595D01*
X0153935Y0084911D01*
X0154043Y0085224D01*
X0154159Y0085535D01*
X0154282Y0085842D01*
X0154412Y0086147D01*
X0154550Y0086448D01*
X0154695Y0086746D01*
X0154848Y0087040D01*
X0155008Y0087330D01*
X0155175Y0087616D01*
X0155348Y0087898D01*
X0155529Y0088176D01*
X0155717Y0088449D01*
X0155911Y0088718D01*
X0156111Y0088982D01*
X0156318Y0089240D01*
X0156532Y0089494D01*
X0156751Y0089742D01*
X0156977Y0089985D01*
X0157208Y0090222D01*
X0157445Y0090453D01*
X0157688Y0090679D01*
X0157936Y0090898D01*
X0158190Y0091112D01*
X0158448Y0091319D01*
X0158712Y0091519D01*
X0158981Y0091713D01*
X0159254Y0091901D01*
X0159532Y0092082D01*
X0159814Y0092255D01*
X0160100Y0092422D01*
X0160390Y0092582D01*
X0160684Y0092735D01*
X0160982Y0092880D01*
X0161283Y0093018D01*
X0161588Y0093148D01*
X0161895Y0093271D01*
X0162206Y0093387D01*
X0162519Y0093495D01*
X0162835Y0093595D01*
X0163153Y0093687D01*
X0163474Y0093771D01*
X0163796Y0093848D01*
X0164120Y0093917D01*
X0164446Y0093977D01*
X0164773Y0094030D01*
X0165101Y0094074D01*
X0165431Y0094111D01*
X0165761Y0094139D01*
X0166092Y0094160D01*
X0166423Y0094172D01*
X0166754Y0094176D01*
X0167085Y0094172D01*
X0167416Y0094160D01*
X0167747Y0094139D01*
X0168077Y0094111D01*
X0168407Y0094074D01*
X0168735Y0094030D01*
X0169062Y0093977D01*
X0169388Y0093917D01*
X0169712Y0093848D01*
X0170034Y0093771D01*
X0170355Y0093687D01*
X0170673Y0093595D01*
X0170989Y0093495D01*
X0171302Y0093387D01*
X0171613Y0093271D01*
X0171920Y0093148D01*
X0172225Y0093018D01*
X0172526Y0092880D01*
X0172824Y0092735D01*
X0173118Y0092582D01*
X0173408Y0092422D01*
X0173694Y0092255D01*
X0173976Y0092082D01*
X0174254Y0091901D01*
X0174527Y0091713D01*
X0174796Y0091519D01*
X0175060Y0091319D01*
X0175318Y0091112D01*
X0175572Y0090898D01*
X0175820Y0090679D01*
X0176063Y0090453D01*
X0176300Y0090222D01*
X0176531Y0089985D01*
X0176757Y0089742D01*
X0176976Y0089494D01*
X0177190Y0089240D01*
X0177397Y0088982D01*
X0177597Y0088718D01*
X0177791Y0088449D01*
X0177979Y0088176D01*
X0178160Y0087898D01*
X0178333Y0087616D01*
X0178500Y0087330D01*
X0178660Y0087040D01*
X0178813Y0086746D01*
X0178958Y0086448D01*
X0179096Y0086147D01*
X0179226Y0085842D01*
X0179349Y0085535D01*
X0179465Y0085224D01*
X0179573Y0084911D01*
X0179673Y0084595D01*
X0179765Y0084277D01*
X0179849Y0083956D01*
X0179926Y0083634D01*
X0179995Y0083310D01*
X0180055Y0082984D01*
X0180108Y0082657D01*
X0180152Y0082329D01*
X0180189Y0081999D01*
X0180217Y0081669D01*
X0180238Y0081338D01*
X0180250Y0081007D01*
X0180254Y0080676D01*
X0180250Y0080345D01*
X0180238Y0080014D01*
X0180217Y0079683D01*
X0180189Y0079353D01*
X0180152Y0079023D01*
X0180108Y0078695D01*
X0180055Y0078368D01*
X0179995Y0078042D01*
X0179926Y0077718D01*
X0179849Y0077396D01*
X0179765Y0077075D01*
X0179673Y0076757D01*
X0179573Y0076441D01*
X0179465Y0076128D01*
X0179349Y0075817D01*
X0179226Y0075510D01*
X0179096Y0075205D01*
X0178958Y0074904D01*
X0178813Y0074606D01*
X0178660Y0074312D01*
X0178500Y0074022D01*
X0178333Y0073736D01*
X0178160Y0073454D01*
X0177979Y0073176D01*
X0177791Y0072903D01*
X0177597Y0072634D01*
X0177397Y0072370D01*
X0177190Y0072112D01*
X0176976Y0071858D01*
X0176757Y0071610D01*
X0176531Y0071367D01*
X0176300Y0071130D01*
X0176063Y0070899D01*
X0175820Y0070673D01*
X0175572Y0070454D01*
X0175318Y0070240D01*
X0175060Y0070033D01*
X0174796Y0069833D01*
X0174527Y0069639D01*
X0174254Y0069451D01*
X0173976Y0069270D01*
X0173694Y0069097D01*
X0173408Y0068930D01*
X0173118Y0068770D01*
X0172824Y0068617D01*
X0172526Y0068472D01*
X0172225Y0068334D01*
X0171920Y0068204D01*
X0171613Y0068081D01*
X0171302Y0067965D01*
X0170989Y0067857D01*
X0170673Y0067757D01*
X0170355Y0067665D01*
X0170034Y0067581D01*
X0169712Y0067504D01*
X0169388Y0067435D01*
X0169062Y0067375D01*
X0168735Y0067322D01*
X0168407Y0067278D01*
X0168077Y0067241D01*
X0167747Y0067213D01*
X0167416Y0067192D01*
X0167085Y0067180D01*
X0166754Y0067176D01*
X0166423Y0067180D01*
X0166092Y0067192D01*
X0165761Y0067213D01*
X0165431Y0067241D01*
X0165101Y0067278D01*
X0164773Y0067322D01*
X0164446Y0067375D01*
X0164120Y0067435D01*
X0163796Y0067504D01*
X0163474Y0067581D01*
X0163153Y0067665D01*
X0162835Y0067757D01*
X0162519Y0067857D01*
X0162206Y0067965D01*
X0161895Y0068081D01*
X0161588Y0068204D01*
X0161283Y0068334D01*
X0160982Y0068472D01*
X0160684Y0068617D01*
X0160390Y0068770D01*
X0160100Y0068930D01*
X0159814Y0069097D01*
X0159532Y0069270D01*
X0159254Y0069451D01*
X0158981Y0069639D01*
X0158712Y0069833D01*
X0158448Y0070033D01*
X0158190Y0070240D01*
X0157936Y0070454D01*
X0157688Y0070673D01*
X0157445Y0070899D01*
X0157208Y0071130D01*
X0156977Y0071367D01*
X0156751Y0071610D01*
X0156532Y0071858D01*
X0156318Y0072112D01*
X0156111Y0072370D01*
X0155911Y0072634D01*
X0155717Y0072903D01*
X0155529Y0073176D01*
X0155348Y0073454D01*
X0155175Y0073736D01*
X0155008Y0074022D01*
X0154848Y0074312D01*
X0154695Y0074606D01*
X0154550Y0074904D01*
X0154412Y0075205D01*
X0154282Y0075510D01*
X0154159Y0075817D01*
X0154043Y0076128D01*
X0153935Y0076441D01*
X0153835Y0076757D01*
X0153743Y0077075D01*
X0153659Y0077396D01*
X0153582Y0077718D01*
X0153513Y0078042D01*
X0153453Y0078368D01*
X0153400Y0078695D01*
X0153356Y0079023D01*
X0153319Y0079353D01*
X0153291Y0079683D01*
X0153270Y0080014D01*
X0153258Y0080345D01*
X0153254Y0080676D01*
X0190900Y0199058D02*
X0205900Y0199058D01*
X0208400Y0201558D01*
X0208400Y0206558D01*
X0205900Y0209058D01*
X0190900Y0209058D01*
X0188400Y0206558D01*
X0188400Y0201558D01*
X0190900Y0199058D01*
X0190900Y0209058D02*
X0188400Y0211558D01*
X0188400Y0216558D01*
X0190900Y0219058D01*
X0205900Y0219058D01*
X0208400Y0216558D01*
X0208400Y0211558D01*
X0205900Y0209058D01*
X0205900Y0219058D02*
X0208400Y0221558D01*
X0208400Y0226558D01*
X0205900Y0229058D01*
X0190900Y0229058D01*
X0188400Y0226558D01*
X0188400Y0221558D01*
X0190900Y0219058D01*
X0160061Y0293274D02*
X0160063Y0293438D01*
X0160069Y0293602D01*
X0160079Y0293766D01*
X0160093Y0293930D01*
X0160111Y0294093D01*
X0160133Y0294256D01*
X0160160Y0294418D01*
X0160190Y0294580D01*
X0160224Y0294740D01*
X0160262Y0294900D01*
X0160303Y0295059D01*
X0160349Y0295217D01*
X0160399Y0295373D01*
X0160452Y0295529D01*
X0160509Y0295683D01*
X0160570Y0295835D01*
X0160635Y0295986D01*
X0160704Y0296136D01*
X0160776Y0296283D01*
X0160851Y0296429D01*
X0160931Y0296573D01*
X0161013Y0296715D01*
X0161099Y0296855D01*
X0161189Y0296992D01*
X0161282Y0297128D01*
X0161378Y0297261D01*
X0161478Y0297392D01*
X0161580Y0297520D01*
X0161686Y0297646D01*
X0161795Y0297769D01*
X0161907Y0297889D01*
X0162021Y0298007D01*
X0162139Y0298121D01*
X0162259Y0298233D01*
X0162382Y0298342D01*
X0162508Y0298448D01*
X0162636Y0298550D01*
X0162767Y0298650D01*
X0162900Y0298746D01*
X0163036Y0298839D01*
X0163173Y0298929D01*
X0163313Y0299015D01*
X0163455Y0299097D01*
X0163599Y0299177D01*
X0163745Y0299252D01*
X0163892Y0299324D01*
X0164042Y0299393D01*
X0164193Y0299458D01*
X0164345Y0299519D01*
X0164499Y0299576D01*
X0164655Y0299629D01*
X0164811Y0299679D01*
X0164969Y0299725D01*
X0165128Y0299766D01*
X0165288Y0299804D01*
X0165448Y0299838D01*
X0165610Y0299868D01*
X0165772Y0299895D01*
X0165935Y0299917D01*
X0166098Y0299935D01*
X0166262Y0299949D01*
X0166426Y0299959D01*
X0166590Y0299965D01*
X0166754Y0299967D01*
X0166918Y0299965D01*
X0167082Y0299959D01*
X0167246Y0299949D01*
X0167410Y0299935D01*
X0167573Y0299917D01*
X0167736Y0299895D01*
X0167898Y0299868D01*
X0168060Y0299838D01*
X0168220Y0299804D01*
X0168380Y0299766D01*
X0168539Y0299725D01*
X0168697Y0299679D01*
X0168853Y0299629D01*
X0169009Y0299576D01*
X0169163Y0299519D01*
X0169315Y0299458D01*
X0169466Y0299393D01*
X0169616Y0299324D01*
X0169763Y0299252D01*
X0169909Y0299177D01*
X0170053Y0299097D01*
X0170195Y0299015D01*
X0170335Y0298929D01*
X0170472Y0298839D01*
X0170608Y0298746D01*
X0170741Y0298650D01*
X0170872Y0298550D01*
X0171000Y0298448D01*
X0171126Y0298342D01*
X0171249Y0298233D01*
X0171369Y0298121D01*
X0171487Y0298007D01*
X0171601Y0297889D01*
X0171713Y0297769D01*
X0171822Y0297646D01*
X0171928Y0297520D01*
X0172030Y0297392D01*
X0172130Y0297261D01*
X0172226Y0297128D01*
X0172319Y0296992D01*
X0172409Y0296855D01*
X0172495Y0296715D01*
X0172577Y0296573D01*
X0172657Y0296429D01*
X0172732Y0296283D01*
X0172804Y0296136D01*
X0172873Y0295986D01*
X0172938Y0295835D01*
X0172999Y0295683D01*
X0173056Y0295529D01*
X0173109Y0295373D01*
X0173159Y0295217D01*
X0173205Y0295059D01*
X0173246Y0294900D01*
X0173284Y0294740D01*
X0173318Y0294580D01*
X0173348Y0294418D01*
X0173375Y0294256D01*
X0173397Y0294093D01*
X0173415Y0293930D01*
X0173429Y0293766D01*
X0173439Y0293602D01*
X0173445Y0293438D01*
X0173447Y0293274D01*
X0173445Y0293110D01*
X0173439Y0292946D01*
X0173429Y0292782D01*
X0173415Y0292618D01*
X0173397Y0292455D01*
X0173375Y0292292D01*
X0173348Y0292130D01*
X0173318Y0291968D01*
X0173284Y0291808D01*
X0173246Y0291648D01*
X0173205Y0291489D01*
X0173159Y0291331D01*
X0173109Y0291175D01*
X0173056Y0291019D01*
X0172999Y0290865D01*
X0172938Y0290713D01*
X0172873Y0290562D01*
X0172804Y0290412D01*
X0172732Y0290265D01*
X0172657Y0290119D01*
X0172577Y0289975D01*
X0172495Y0289833D01*
X0172409Y0289693D01*
X0172319Y0289556D01*
X0172226Y0289420D01*
X0172130Y0289287D01*
X0172030Y0289156D01*
X0171928Y0289028D01*
X0171822Y0288902D01*
X0171713Y0288779D01*
X0171601Y0288659D01*
X0171487Y0288541D01*
X0171369Y0288427D01*
X0171249Y0288315D01*
X0171126Y0288206D01*
X0171000Y0288100D01*
X0170872Y0287998D01*
X0170741Y0287898D01*
X0170608Y0287802D01*
X0170472Y0287709D01*
X0170335Y0287619D01*
X0170195Y0287533D01*
X0170053Y0287451D01*
X0169909Y0287371D01*
X0169763Y0287296D01*
X0169616Y0287224D01*
X0169466Y0287155D01*
X0169315Y0287090D01*
X0169163Y0287029D01*
X0169009Y0286972D01*
X0168853Y0286919D01*
X0168697Y0286869D01*
X0168539Y0286823D01*
X0168380Y0286782D01*
X0168220Y0286744D01*
X0168060Y0286710D01*
X0167898Y0286680D01*
X0167736Y0286653D01*
X0167573Y0286631D01*
X0167410Y0286613D01*
X0167246Y0286599D01*
X0167082Y0286589D01*
X0166918Y0286583D01*
X0166754Y0286581D01*
X0166590Y0286583D01*
X0166426Y0286589D01*
X0166262Y0286599D01*
X0166098Y0286613D01*
X0165935Y0286631D01*
X0165772Y0286653D01*
X0165610Y0286680D01*
X0165448Y0286710D01*
X0165288Y0286744D01*
X0165128Y0286782D01*
X0164969Y0286823D01*
X0164811Y0286869D01*
X0164655Y0286919D01*
X0164499Y0286972D01*
X0164345Y0287029D01*
X0164193Y0287090D01*
X0164042Y0287155D01*
X0163892Y0287224D01*
X0163745Y0287296D01*
X0163599Y0287371D01*
X0163455Y0287451D01*
X0163313Y0287533D01*
X0163173Y0287619D01*
X0163036Y0287709D01*
X0162900Y0287802D01*
X0162767Y0287898D01*
X0162636Y0287998D01*
X0162508Y0288100D01*
X0162382Y0288206D01*
X0162259Y0288315D01*
X0162139Y0288427D01*
X0162021Y0288541D01*
X0161907Y0288659D01*
X0161795Y0288779D01*
X0161686Y0288902D01*
X0161580Y0289028D01*
X0161478Y0289156D01*
X0161378Y0289287D01*
X0161282Y0289420D01*
X0161189Y0289556D01*
X0161099Y0289693D01*
X0161013Y0289833D01*
X0160931Y0289975D01*
X0160851Y0290119D01*
X0160776Y0290265D01*
X0160704Y0290412D01*
X0160635Y0290562D01*
X0160570Y0290713D01*
X0160509Y0290865D01*
X0160452Y0291019D01*
X0160399Y0291175D01*
X0160349Y0291331D01*
X0160303Y0291489D01*
X0160262Y0291648D01*
X0160224Y0291808D01*
X0160190Y0291968D01*
X0160160Y0292130D01*
X0160133Y0292292D01*
X0160111Y0292455D01*
X0160093Y0292618D01*
X0160079Y0292782D01*
X0160069Y0292946D01*
X0160063Y0293110D01*
X0160061Y0293274D01*
X0153254Y0293274D02*
X0153258Y0293605D01*
X0153270Y0293936D01*
X0153291Y0294267D01*
X0153319Y0294597D01*
X0153356Y0294927D01*
X0153400Y0295255D01*
X0153453Y0295582D01*
X0153513Y0295908D01*
X0153582Y0296232D01*
X0153659Y0296554D01*
X0153743Y0296875D01*
X0153835Y0297193D01*
X0153935Y0297509D01*
X0154043Y0297822D01*
X0154159Y0298133D01*
X0154282Y0298440D01*
X0154412Y0298745D01*
X0154550Y0299046D01*
X0154695Y0299344D01*
X0154848Y0299638D01*
X0155008Y0299928D01*
X0155175Y0300214D01*
X0155348Y0300496D01*
X0155529Y0300774D01*
X0155717Y0301047D01*
X0155911Y0301316D01*
X0156111Y0301580D01*
X0156318Y0301838D01*
X0156532Y0302092D01*
X0156751Y0302340D01*
X0156977Y0302583D01*
X0157208Y0302820D01*
X0157445Y0303051D01*
X0157688Y0303277D01*
X0157936Y0303496D01*
X0158190Y0303710D01*
X0158448Y0303917D01*
X0158712Y0304117D01*
X0158981Y0304311D01*
X0159254Y0304499D01*
X0159532Y0304680D01*
X0159814Y0304853D01*
X0160100Y0305020D01*
X0160390Y0305180D01*
X0160684Y0305333D01*
X0160982Y0305478D01*
X0161283Y0305616D01*
X0161588Y0305746D01*
X0161895Y0305869D01*
X0162206Y0305985D01*
X0162519Y0306093D01*
X0162835Y0306193D01*
X0163153Y0306285D01*
X0163474Y0306369D01*
X0163796Y0306446D01*
X0164120Y0306515D01*
X0164446Y0306575D01*
X0164773Y0306628D01*
X0165101Y0306672D01*
X0165431Y0306709D01*
X0165761Y0306737D01*
X0166092Y0306758D01*
X0166423Y0306770D01*
X0166754Y0306774D01*
X0167085Y0306770D01*
X0167416Y0306758D01*
X0167747Y0306737D01*
X0168077Y0306709D01*
X0168407Y0306672D01*
X0168735Y0306628D01*
X0169062Y0306575D01*
X0169388Y0306515D01*
X0169712Y0306446D01*
X0170034Y0306369D01*
X0170355Y0306285D01*
X0170673Y0306193D01*
X0170989Y0306093D01*
X0171302Y0305985D01*
X0171613Y0305869D01*
X0171920Y0305746D01*
X0172225Y0305616D01*
X0172526Y0305478D01*
X0172824Y0305333D01*
X0173118Y0305180D01*
X0173408Y0305020D01*
X0173694Y0304853D01*
X0173976Y0304680D01*
X0174254Y0304499D01*
X0174527Y0304311D01*
X0174796Y0304117D01*
X0175060Y0303917D01*
X0175318Y0303710D01*
X0175572Y0303496D01*
X0175820Y0303277D01*
X0176063Y0303051D01*
X0176300Y0302820D01*
X0176531Y0302583D01*
X0176757Y0302340D01*
X0176976Y0302092D01*
X0177190Y0301838D01*
X0177397Y0301580D01*
X0177597Y0301316D01*
X0177791Y0301047D01*
X0177979Y0300774D01*
X0178160Y0300496D01*
X0178333Y0300214D01*
X0178500Y0299928D01*
X0178660Y0299638D01*
X0178813Y0299344D01*
X0178958Y0299046D01*
X0179096Y0298745D01*
X0179226Y0298440D01*
X0179349Y0298133D01*
X0179465Y0297822D01*
X0179573Y0297509D01*
X0179673Y0297193D01*
X0179765Y0296875D01*
X0179849Y0296554D01*
X0179926Y0296232D01*
X0179995Y0295908D01*
X0180055Y0295582D01*
X0180108Y0295255D01*
X0180152Y0294927D01*
X0180189Y0294597D01*
X0180217Y0294267D01*
X0180238Y0293936D01*
X0180250Y0293605D01*
X0180254Y0293274D01*
X0180250Y0292943D01*
X0180238Y0292612D01*
X0180217Y0292281D01*
X0180189Y0291951D01*
X0180152Y0291621D01*
X0180108Y0291293D01*
X0180055Y0290966D01*
X0179995Y0290640D01*
X0179926Y0290316D01*
X0179849Y0289994D01*
X0179765Y0289673D01*
X0179673Y0289355D01*
X0179573Y0289039D01*
X0179465Y0288726D01*
X0179349Y0288415D01*
X0179226Y0288108D01*
X0179096Y0287803D01*
X0178958Y0287502D01*
X0178813Y0287204D01*
X0178660Y0286910D01*
X0178500Y0286620D01*
X0178333Y0286334D01*
X0178160Y0286052D01*
X0177979Y0285774D01*
X0177791Y0285501D01*
X0177597Y0285232D01*
X0177397Y0284968D01*
X0177190Y0284710D01*
X0176976Y0284456D01*
X0176757Y0284208D01*
X0176531Y0283965D01*
X0176300Y0283728D01*
X0176063Y0283497D01*
X0175820Y0283271D01*
X0175572Y0283052D01*
X0175318Y0282838D01*
X0175060Y0282631D01*
X0174796Y0282431D01*
X0174527Y0282237D01*
X0174254Y0282049D01*
X0173976Y0281868D01*
X0173694Y0281695D01*
X0173408Y0281528D01*
X0173118Y0281368D01*
X0172824Y0281215D01*
X0172526Y0281070D01*
X0172225Y0280932D01*
X0171920Y0280802D01*
X0171613Y0280679D01*
X0171302Y0280563D01*
X0170989Y0280455D01*
X0170673Y0280355D01*
X0170355Y0280263D01*
X0170034Y0280179D01*
X0169712Y0280102D01*
X0169388Y0280033D01*
X0169062Y0279973D01*
X0168735Y0279920D01*
X0168407Y0279876D01*
X0168077Y0279839D01*
X0167747Y0279811D01*
X0167416Y0279790D01*
X0167085Y0279778D01*
X0166754Y0279774D01*
X0166423Y0279778D01*
X0166092Y0279790D01*
X0165761Y0279811D01*
X0165431Y0279839D01*
X0165101Y0279876D01*
X0164773Y0279920D01*
X0164446Y0279973D01*
X0164120Y0280033D01*
X0163796Y0280102D01*
X0163474Y0280179D01*
X0163153Y0280263D01*
X0162835Y0280355D01*
X0162519Y0280455D01*
X0162206Y0280563D01*
X0161895Y0280679D01*
X0161588Y0280802D01*
X0161283Y0280932D01*
X0160982Y0281070D01*
X0160684Y0281215D01*
X0160390Y0281368D01*
X0160100Y0281528D01*
X0159814Y0281695D01*
X0159532Y0281868D01*
X0159254Y0282049D01*
X0158981Y0282237D01*
X0158712Y0282431D01*
X0158448Y0282631D01*
X0158190Y0282838D01*
X0157936Y0283052D01*
X0157688Y0283271D01*
X0157445Y0283497D01*
X0157208Y0283728D01*
X0156977Y0283965D01*
X0156751Y0284208D01*
X0156532Y0284456D01*
X0156318Y0284710D01*
X0156111Y0284968D01*
X0155911Y0285232D01*
X0155717Y0285501D01*
X0155529Y0285774D01*
X0155348Y0286052D01*
X0155175Y0286334D01*
X0155008Y0286620D01*
X0154848Y0286910D01*
X0154695Y0287204D01*
X0154550Y0287502D01*
X0154412Y0287803D01*
X0154282Y0288108D01*
X0154159Y0288415D01*
X0154043Y0288726D01*
X0153935Y0289039D01*
X0153835Y0289355D01*
X0153743Y0289673D01*
X0153659Y0289994D01*
X0153582Y0290316D01*
X0153513Y0290640D01*
X0153453Y0290966D01*
X0153400Y0291293D01*
X0153356Y0291621D01*
X0153319Y0291951D01*
X0153291Y0292281D01*
X0153270Y0292612D01*
X0153258Y0292943D01*
X0153254Y0293274D01*
X0154269Y0316059D02*
X0153713Y0316615D01*
X0154269Y0316059D02*
X0155383Y0316059D01*
X0155939Y0316615D01*
X0155939Y0317172D01*
X0155383Y0317728D01*
X0154826Y0317728D01*
X0155383Y0317728D02*
X0155939Y0318285D01*
X0155939Y0318842D01*
X0155383Y0319398D01*
X0154269Y0319398D01*
X0153713Y0318842D01*
X0152314Y0318842D02*
X0152314Y0316615D01*
X0151757Y0316059D01*
X0150087Y0316059D01*
X0150087Y0319398D01*
X0151757Y0319398D01*
X0152314Y0318842D01*
X0148689Y0319398D02*
X0146462Y0319398D01*
X0146462Y0316059D01*
X0148689Y0316059D01*
X0147576Y0317728D02*
X0146462Y0317728D01*
X0145064Y0316059D02*
X0142837Y0316059D01*
X0142837Y0319398D01*
X0135439Y0318842D02*
X0135439Y0318285D01*
X0133213Y0316059D01*
X0135439Y0316059D01*
X0135439Y0318842D02*
X0134883Y0319398D01*
X0133769Y0319398D01*
X0133213Y0318842D01*
X0131814Y0318842D02*
X0131814Y0316615D01*
X0131257Y0316059D01*
X0129587Y0316059D01*
X0129587Y0319398D01*
X0131257Y0319398D01*
X0131814Y0318842D01*
X0128189Y0319398D02*
X0125962Y0319398D01*
X0125962Y0316059D01*
X0128189Y0316059D01*
X0127076Y0317728D02*
X0125962Y0317728D01*
X0124564Y0316059D02*
X0122337Y0316059D01*
X0122337Y0319398D01*
X0114939Y0316059D02*
X0112713Y0316059D01*
X0113826Y0316059D02*
X0113826Y0319398D01*
X0112713Y0318285D01*
X0111314Y0318842D02*
X0111314Y0316615D01*
X0110757Y0316059D01*
X0109087Y0316059D01*
X0109087Y0319398D01*
X0110757Y0319398D01*
X0111314Y0318842D01*
X0107689Y0319398D02*
X0105462Y0319398D01*
X0105462Y0316059D01*
X0107689Y0316059D01*
X0106576Y0317728D02*
X0105462Y0317728D01*
X0104064Y0316059D02*
X0101837Y0316059D01*
X0101837Y0319398D01*
X0093400Y0326058D02*
X0093400Y0340058D01*
X0068900Y0340058D01*
X0068900Y0341058D01*
X0073900Y0341058D01*
X0073900Y0342558D01*
X0083900Y0342558D01*
X0083900Y0341058D01*
X0073900Y0341058D01*
X0076400Y0339058D02*
X0065400Y0339058D01*
X0065400Y0334058D01*
X0065400Y0328058D02*
X0065400Y0326058D01*
X0068400Y0326058D01*
X0068400Y0325058D01*
X0071900Y0325058D01*
X0071900Y0326058D01*
X0075900Y0326058D01*
X0075900Y0327058D01*
X0081900Y0327058D01*
X0081900Y0326058D01*
X0086400Y0326058D01*
X0086400Y0325058D01*
X0089400Y0325058D01*
X0089400Y0326058D01*
X0092400Y0326058D01*
X0092400Y0328058D01*
X0092400Y0334058D02*
X0092400Y0339058D01*
X0081400Y0339058D01*
X0076400Y0339058D01*
X0076400Y0335058D01*
X0081400Y0335058D01*
X0081400Y0339058D01*
X0083900Y0341058D02*
X0088900Y0341058D01*
X0088900Y0340058D01*
X0068900Y0340058D02*
X0064400Y0340058D01*
X0064400Y0326058D01*
X0049825Y0293274D02*
X0049827Y0293438D01*
X0049833Y0293602D01*
X0049843Y0293766D01*
X0049857Y0293930D01*
X0049875Y0294093D01*
X0049897Y0294256D01*
X0049924Y0294418D01*
X0049954Y0294580D01*
X0049988Y0294740D01*
X0050026Y0294900D01*
X0050067Y0295059D01*
X0050113Y0295217D01*
X0050163Y0295373D01*
X0050216Y0295529D01*
X0050273Y0295683D01*
X0050334Y0295835D01*
X0050399Y0295986D01*
X0050468Y0296136D01*
X0050540Y0296283D01*
X0050615Y0296429D01*
X0050695Y0296573D01*
X0050777Y0296715D01*
X0050863Y0296855D01*
X0050953Y0296992D01*
X0051046Y0297128D01*
X0051142Y0297261D01*
X0051242Y0297392D01*
X0051344Y0297520D01*
X0051450Y0297646D01*
X0051559Y0297769D01*
X0051671Y0297889D01*
X0051785Y0298007D01*
X0051903Y0298121D01*
X0052023Y0298233D01*
X0052146Y0298342D01*
X0052272Y0298448D01*
X0052400Y0298550D01*
X0052531Y0298650D01*
X0052664Y0298746D01*
X0052800Y0298839D01*
X0052937Y0298929D01*
X0053077Y0299015D01*
X0053219Y0299097D01*
X0053363Y0299177D01*
X0053509Y0299252D01*
X0053656Y0299324D01*
X0053806Y0299393D01*
X0053957Y0299458D01*
X0054109Y0299519D01*
X0054263Y0299576D01*
X0054419Y0299629D01*
X0054575Y0299679D01*
X0054733Y0299725D01*
X0054892Y0299766D01*
X0055052Y0299804D01*
X0055212Y0299838D01*
X0055374Y0299868D01*
X0055536Y0299895D01*
X0055699Y0299917D01*
X0055862Y0299935D01*
X0056026Y0299949D01*
X0056190Y0299959D01*
X0056354Y0299965D01*
X0056518Y0299967D01*
X0056682Y0299965D01*
X0056846Y0299959D01*
X0057010Y0299949D01*
X0057174Y0299935D01*
X0057337Y0299917D01*
X0057500Y0299895D01*
X0057662Y0299868D01*
X0057824Y0299838D01*
X0057984Y0299804D01*
X0058144Y0299766D01*
X0058303Y0299725D01*
X0058461Y0299679D01*
X0058617Y0299629D01*
X0058773Y0299576D01*
X0058927Y0299519D01*
X0059079Y0299458D01*
X0059230Y0299393D01*
X0059380Y0299324D01*
X0059527Y0299252D01*
X0059673Y0299177D01*
X0059817Y0299097D01*
X0059959Y0299015D01*
X0060099Y0298929D01*
X0060236Y0298839D01*
X0060372Y0298746D01*
X0060505Y0298650D01*
X0060636Y0298550D01*
X0060764Y0298448D01*
X0060890Y0298342D01*
X0061013Y0298233D01*
X0061133Y0298121D01*
X0061251Y0298007D01*
X0061365Y0297889D01*
X0061477Y0297769D01*
X0061586Y0297646D01*
X0061692Y0297520D01*
X0061794Y0297392D01*
X0061894Y0297261D01*
X0061990Y0297128D01*
X0062083Y0296992D01*
X0062173Y0296855D01*
X0062259Y0296715D01*
X0062341Y0296573D01*
X0062421Y0296429D01*
X0062496Y0296283D01*
X0062568Y0296136D01*
X0062637Y0295986D01*
X0062702Y0295835D01*
X0062763Y0295683D01*
X0062820Y0295529D01*
X0062873Y0295373D01*
X0062923Y0295217D01*
X0062969Y0295059D01*
X0063010Y0294900D01*
X0063048Y0294740D01*
X0063082Y0294580D01*
X0063112Y0294418D01*
X0063139Y0294256D01*
X0063161Y0294093D01*
X0063179Y0293930D01*
X0063193Y0293766D01*
X0063203Y0293602D01*
X0063209Y0293438D01*
X0063211Y0293274D01*
X0063209Y0293110D01*
X0063203Y0292946D01*
X0063193Y0292782D01*
X0063179Y0292618D01*
X0063161Y0292455D01*
X0063139Y0292292D01*
X0063112Y0292130D01*
X0063082Y0291968D01*
X0063048Y0291808D01*
X0063010Y0291648D01*
X0062969Y0291489D01*
X0062923Y0291331D01*
X0062873Y0291175D01*
X0062820Y0291019D01*
X0062763Y0290865D01*
X0062702Y0290713D01*
X0062637Y0290562D01*
X0062568Y0290412D01*
X0062496Y0290265D01*
X0062421Y0290119D01*
X0062341Y0289975D01*
X0062259Y0289833D01*
X0062173Y0289693D01*
X0062083Y0289556D01*
X0061990Y0289420D01*
X0061894Y0289287D01*
X0061794Y0289156D01*
X0061692Y0289028D01*
X0061586Y0288902D01*
X0061477Y0288779D01*
X0061365Y0288659D01*
X0061251Y0288541D01*
X0061133Y0288427D01*
X0061013Y0288315D01*
X0060890Y0288206D01*
X0060764Y0288100D01*
X0060636Y0287998D01*
X0060505Y0287898D01*
X0060372Y0287802D01*
X0060236Y0287709D01*
X0060099Y0287619D01*
X0059959Y0287533D01*
X0059817Y0287451D01*
X0059673Y0287371D01*
X0059527Y0287296D01*
X0059380Y0287224D01*
X0059230Y0287155D01*
X0059079Y0287090D01*
X0058927Y0287029D01*
X0058773Y0286972D01*
X0058617Y0286919D01*
X0058461Y0286869D01*
X0058303Y0286823D01*
X0058144Y0286782D01*
X0057984Y0286744D01*
X0057824Y0286710D01*
X0057662Y0286680D01*
X0057500Y0286653D01*
X0057337Y0286631D01*
X0057174Y0286613D01*
X0057010Y0286599D01*
X0056846Y0286589D01*
X0056682Y0286583D01*
X0056518Y0286581D01*
X0056354Y0286583D01*
X0056190Y0286589D01*
X0056026Y0286599D01*
X0055862Y0286613D01*
X0055699Y0286631D01*
X0055536Y0286653D01*
X0055374Y0286680D01*
X0055212Y0286710D01*
X0055052Y0286744D01*
X0054892Y0286782D01*
X0054733Y0286823D01*
X0054575Y0286869D01*
X0054419Y0286919D01*
X0054263Y0286972D01*
X0054109Y0287029D01*
X0053957Y0287090D01*
X0053806Y0287155D01*
X0053656Y0287224D01*
X0053509Y0287296D01*
X0053363Y0287371D01*
X0053219Y0287451D01*
X0053077Y0287533D01*
X0052937Y0287619D01*
X0052800Y0287709D01*
X0052664Y0287802D01*
X0052531Y0287898D01*
X0052400Y0287998D01*
X0052272Y0288100D01*
X0052146Y0288206D01*
X0052023Y0288315D01*
X0051903Y0288427D01*
X0051785Y0288541D01*
X0051671Y0288659D01*
X0051559Y0288779D01*
X0051450Y0288902D01*
X0051344Y0289028D01*
X0051242Y0289156D01*
X0051142Y0289287D01*
X0051046Y0289420D01*
X0050953Y0289556D01*
X0050863Y0289693D01*
X0050777Y0289833D01*
X0050695Y0289975D01*
X0050615Y0290119D01*
X0050540Y0290265D01*
X0050468Y0290412D01*
X0050399Y0290562D01*
X0050334Y0290713D01*
X0050273Y0290865D01*
X0050216Y0291019D01*
X0050163Y0291175D01*
X0050113Y0291331D01*
X0050067Y0291489D01*
X0050026Y0291648D01*
X0049988Y0291808D01*
X0049954Y0291968D01*
X0049924Y0292130D01*
X0049897Y0292292D01*
X0049875Y0292455D01*
X0049857Y0292618D01*
X0049843Y0292782D01*
X0049833Y0292946D01*
X0049827Y0293110D01*
X0049825Y0293274D01*
X0043018Y0293274D02*
X0043022Y0293605D01*
X0043034Y0293936D01*
X0043055Y0294267D01*
X0043083Y0294597D01*
X0043120Y0294927D01*
X0043164Y0295255D01*
X0043217Y0295582D01*
X0043277Y0295908D01*
X0043346Y0296232D01*
X0043423Y0296554D01*
X0043507Y0296875D01*
X0043599Y0297193D01*
X0043699Y0297509D01*
X0043807Y0297822D01*
X0043923Y0298133D01*
X0044046Y0298440D01*
X0044176Y0298745D01*
X0044314Y0299046D01*
X0044459Y0299344D01*
X0044612Y0299638D01*
X0044772Y0299928D01*
X0044939Y0300214D01*
X0045112Y0300496D01*
X0045293Y0300774D01*
X0045481Y0301047D01*
X0045675Y0301316D01*
X0045875Y0301580D01*
X0046082Y0301838D01*
X0046296Y0302092D01*
X0046515Y0302340D01*
X0046741Y0302583D01*
X0046972Y0302820D01*
X0047209Y0303051D01*
X0047452Y0303277D01*
X0047700Y0303496D01*
X0047954Y0303710D01*
X0048212Y0303917D01*
X0048476Y0304117D01*
X0048745Y0304311D01*
X0049018Y0304499D01*
X0049296Y0304680D01*
X0049578Y0304853D01*
X0049864Y0305020D01*
X0050154Y0305180D01*
X0050448Y0305333D01*
X0050746Y0305478D01*
X0051047Y0305616D01*
X0051352Y0305746D01*
X0051659Y0305869D01*
X0051970Y0305985D01*
X0052283Y0306093D01*
X0052599Y0306193D01*
X0052917Y0306285D01*
X0053238Y0306369D01*
X0053560Y0306446D01*
X0053884Y0306515D01*
X0054210Y0306575D01*
X0054537Y0306628D01*
X0054865Y0306672D01*
X0055195Y0306709D01*
X0055525Y0306737D01*
X0055856Y0306758D01*
X0056187Y0306770D01*
X0056518Y0306774D01*
X0056849Y0306770D01*
X0057180Y0306758D01*
X0057511Y0306737D01*
X0057841Y0306709D01*
X0058171Y0306672D01*
X0058499Y0306628D01*
X0058826Y0306575D01*
X0059152Y0306515D01*
X0059476Y0306446D01*
X0059798Y0306369D01*
X0060119Y0306285D01*
X0060437Y0306193D01*
X0060753Y0306093D01*
X0061066Y0305985D01*
X0061377Y0305869D01*
X0061684Y0305746D01*
X0061989Y0305616D01*
X0062290Y0305478D01*
X0062588Y0305333D01*
X0062882Y0305180D01*
X0063172Y0305020D01*
X0063458Y0304853D01*
X0063740Y0304680D01*
X0064018Y0304499D01*
X0064291Y0304311D01*
X0064560Y0304117D01*
X0064824Y0303917D01*
X0065082Y0303710D01*
X0065336Y0303496D01*
X0065584Y0303277D01*
X0065827Y0303051D01*
X0066064Y0302820D01*
X0066295Y0302583D01*
X0066521Y0302340D01*
X0066740Y0302092D01*
X0066954Y0301838D01*
X0067161Y0301580D01*
X0067361Y0301316D01*
X0067555Y0301047D01*
X0067743Y0300774D01*
X0067924Y0300496D01*
X0068097Y0300214D01*
X0068264Y0299928D01*
X0068424Y0299638D01*
X0068577Y0299344D01*
X0068722Y0299046D01*
X0068860Y0298745D01*
X0068990Y0298440D01*
X0069113Y0298133D01*
X0069229Y0297822D01*
X0069337Y0297509D01*
X0069437Y0297193D01*
X0069529Y0296875D01*
X0069613Y0296554D01*
X0069690Y0296232D01*
X0069759Y0295908D01*
X0069819Y0295582D01*
X0069872Y0295255D01*
X0069916Y0294927D01*
X0069953Y0294597D01*
X0069981Y0294267D01*
X0070002Y0293936D01*
X0070014Y0293605D01*
X0070018Y0293274D01*
X0070014Y0292943D01*
X0070002Y0292612D01*
X0069981Y0292281D01*
X0069953Y0291951D01*
X0069916Y0291621D01*
X0069872Y0291293D01*
X0069819Y0290966D01*
X0069759Y0290640D01*
X0069690Y0290316D01*
X0069613Y0289994D01*
X0069529Y0289673D01*
X0069437Y0289355D01*
X0069337Y0289039D01*
X0069229Y0288726D01*
X0069113Y0288415D01*
X0068990Y0288108D01*
X0068860Y0287803D01*
X0068722Y0287502D01*
X0068577Y0287204D01*
X0068424Y0286910D01*
X0068264Y0286620D01*
X0068097Y0286334D01*
X0067924Y0286052D01*
X0067743Y0285774D01*
X0067555Y0285501D01*
X0067361Y0285232D01*
X0067161Y0284968D01*
X0066954Y0284710D01*
X0066740Y0284456D01*
X0066521Y0284208D01*
X0066295Y0283965D01*
X0066064Y0283728D01*
X0065827Y0283497D01*
X0065584Y0283271D01*
X0065336Y0283052D01*
X0065082Y0282838D01*
X0064824Y0282631D01*
X0064560Y0282431D01*
X0064291Y0282237D01*
X0064018Y0282049D01*
X0063740Y0281868D01*
X0063458Y0281695D01*
X0063172Y0281528D01*
X0062882Y0281368D01*
X0062588Y0281215D01*
X0062290Y0281070D01*
X0061989Y0280932D01*
X0061684Y0280802D01*
X0061377Y0280679D01*
X0061066Y0280563D01*
X0060753Y0280455D01*
X0060437Y0280355D01*
X0060119Y0280263D01*
X0059798Y0280179D01*
X0059476Y0280102D01*
X0059152Y0280033D01*
X0058826Y0279973D01*
X0058499Y0279920D01*
X0058171Y0279876D01*
X0057841Y0279839D01*
X0057511Y0279811D01*
X0057180Y0279790D01*
X0056849Y0279778D01*
X0056518Y0279774D01*
X0056187Y0279778D01*
X0055856Y0279790D01*
X0055525Y0279811D01*
X0055195Y0279839D01*
X0054865Y0279876D01*
X0054537Y0279920D01*
X0054210Y0279973D01*
X0053884Y0280033D01*
X0053560Y0280102D01*
X0053238Y0280179D01*
X0052917Y0280263D01*
X0052599Y0280355D01*
X0052283Y0280455D01*
X0051970Y0280563D01*
X0051659Y0280679D01*
X0051352Y0280802D01*
X0051047Y0280932D01*
X0050746Y0281070D01*
X0050448Y0281215D01*
X0050154Y0281368D01*
X0049864Y0281528D01*
X0049578Y0281695D01*
X0049296Y0281868D01*
X0049018Y0282049D01*
X0048745Y0282237D01*
X0048476Y0282431D01*
X0048212Y0282631D01*
X0047954Y0282838D01*
X0047700Y0283052D01*
X0047452Y0283271D01*
X0047209Y0283497D01*
X0046972Y0283728D01*
X0046741Y0283965D01*
X0046515Y0284208D01*
X0046296Y0284456D01*
X0046082Y0284710D01*
X0045875Y0284968D01*
X0045675Y0285232D01*
X0045481Y0285501D01*
X0045293Y0285774D01*
X0045112Y0286052D01*
X0044939Y0286334D01*
X0044772Y0286620D01*
X0044612Y0286910D01*
X0044459Y0287204D01*
X0044314Y0287502D01*
X0044176Y0287803D01*
X0044046Y0288108D01*
X0043923Y0288415D01*
X0043807Y0288726D01*
X0043699Y0289039D01*
X0043599Y0289355D01*
X0043507Y0289673D01*
X0043423Y0289994D01*
X0043346Y0290316D01*
X0043277Y0290640D01*
X0043217Y0290966D01*
X0043164Y0291293D01*
X0043120Y0291621D01*
X0043083Y0291951D01*
X0043055Y0292281D01*
X0043034Y0292612D01*
X0043022Y0292943D01*
X0043018Y0293274D01*
D17*
X0088426Y0078320D02*
X0088426Y0061046D01*
X0088426Y0078320D02*
X0135374Y0078320D01*
X0135374Y0061046D01*
X0135374Y0046823D02*
X0135374Y0023802D01*
X0088426Y0023802D02*
X0088426Y0046823D01*
X0204383Y0296909D02*
X0204283Y0296974D01*
X0204185Y0297042D01*
X0204089Y0297113D01*
X0203996Y0297188D01*
X0203905Y0297266D01*
X0203817Y0297346D01*
X0203732Y0297430D01*
X0203649Y0297516D01*
X0203569Y0297605D01*
X0203493Y0297696D01*
X0203419Y0297790D01*
X0203349Y0297886D01*
X0203281Y0297985D01*
X0203217Y0298086D01*
X0203157Y0298189D01*
X0203100Y0298293D01*
X0203046Y0298400D01*
X0202996Y0298508D01*
X0202949Y0298618D01*
X0202907Y0298730D01*
X0203251Y0302075D02*
X0203316Y0302175D01*
X0203384Y0302273D01*
X0203455Y0302369D01*
X0203530Y0302462D01*
X0203608Y0302553D01*
X0203688Y0302641D01*
X0203772Y0302726D01*
X0203858Y0302809D01*
X0203947Y0302889D01*
X0204038Y0302965D01*
X0204132Y0303039D01*
X0204228Y0303109D01*
X0204327Y0303177D01*
X0204428Y0303241D01*
X0204531Y0303301D01*
X0204635Y0303358D01*
X0204742Y0303412D01*
X0204850Y0303462D01*
X0204960Y0303509D01*
X0205072Y0303551D01*
X0208417Y0303207D02*
X0208517Y0303142D01*
X0208615Y0303074D01*
X0208711Y0303003D01*
X0208804Y0302928D01*
X0208895Y0302850D01*
X0208983Y0302770D01*
X0209068Y0302686D01*
X0209151Y0302600D01*
X0209231Y0302511D01*
X0209307Y0302420D01*
X0209381Y0302326D01*
X0209451Y0302230D01*
X0209519Y0302131D01*
X0209583Y0302030D01*
X0209643Y0301927D01*
X0209700Y0301823D01*
X0209754Y0301716D01*
X0209804Y0301608D01*
X0209851Y0301498D01*
X0209893Y0301386D01*
X0209549Y0298040D02*
X0209484Y0297940D01*
X0209416Y0297842D01*
X0209345Y0297746D01*
X0209270Y0297653D01*
X0209192Y0297562D01*
X0209112Y0297474D01*
X0209028Y0297389D01*
X0208942Y0297306D01*
X0208853Y0297226D01*
X0208762Y0297150D01*
X0208668Y0297076D01*
X0208572Y0297006D01*
X0208473Y0296938D01*
X0208372Y0296874D01*
X0208269Y0296814D01*
X0208165Y0296757D01*
X0208058Y0296703D01*
X0207950Y0296653D01*
X0207840Y0296606D01*
X0207728Y0296564D01*
X0205612Y0300058D02*
X0205614Y0300114D01*
X0205620Y0300169D01*
X0205630Y0300224D01*
X0205643Y0300278D01*
X0205661Y0300330D01*
X0205682Y0300382D01*
X0205706Y0300432D01*
X0205734Y0300480D01*
X0205766Y0300526D01*
X0205800Y0300569D01*
X0205838Y0300610D01*
X0205878Y0300649D01*
X0205921Y0300684D01*
X0205967Y0300716D01*
X0206014Y0300745D01*
X0206063Y0300771D01*
X0206115Y0300792D01*
X0206167Y0300811D01*
X0206221Y0300825D01*
X0206275Y0300836D01*
X0206331Y0300843D01*
X0206386Y0300846D01*
X0206442Y0300845D01*
X0206497Y0300840D01*
X0206552Y0300831D01*
X0206606Y0300819D01*
X0206659Y0300802D01*
X0206711Y0300782D01*
X0206761Y0300758D01*
X0206810Y0300731D01*
X0206856Y0300700D01*
X0206901Y0300667D01*
X0206942Y0300630D01*
X0206981Y0300590D01*
X0207017Y0300548D01*
X0207050Y0300503D01*
X0207080Y0300456D01*
X0207106Y0300407D01*
X0207129Y0300356D01*
X0207149Y0300304D01*
X0207164Y0300251D01*
X0207176Y0300196D01*
X0207184Y0300141D01*
X0207188Y0300086D01*
X0207188Y0300030D01*
X0207184Y0299975D01*
X0207176Y0299920D01*
X0207164Y0299865D01*
X0207149Y0299812D01*
X0207129Y0299760D01*
X0207106Y0299709D01*
X0207080Y0299660D01*
X0207050Y0299613D01*
X0207017Y0299568D01*
X0206981Y0299526D01*
X0206942Y0299486D01*
X0206901Y0299449D01*
X0206856Y0299416D01*
X0206810Y0299385D01*
X0206761Y0299358D01*
X0206711Y0299334D01*
X0206659Y0299314D01*
X0206606Y0299297D01*
X0206552Y0299285D01*
X0206497Y0299276D01*
X0206442Y0299271D01*
X0206386Y0299270D01*
X0206331Y0299273D01*
X0206275Y0299280D01*
X0206221Y0299291D01*
X0206167Y0299305D01*
X0206115Y0299324D01*
X0206063Y0299345D01*
X0206014Y0299371D01*
X0205967Y0299400D01*
X0205921Y0299432D01*
X0205878Y0299467D01*
X0205838Y0299506D01*
X0205800Y0299547D01*
X0205766Y0299590D01*
X0205734Y0299636D01*
X0205706Y0299684D01*
X0205682Y0299734D01*
X0205661Y0299786D01*
X0205643Y0299838D01*
X0205630Y0299892D01*
X0205620Y0299947D01*
X0205614Y0300002D01*
X0205612Y0300058D01*
D18*
X0204704Y0287892D02*
X0203034Y0287892D01*
X0203869Y0287892D02*
X0203869Y0283717D01*
X0203034Y0282882D01*
X0202199Y0282882D01*
X0201364Y0283717D01*
X0206802Y0283717D02*
X0207637Y0282882D01*
X0209307Y0282882D01*
X0210142Y0283717D01*
X0210142Y0284552D01*
X0209307Y0285387D01*
X0208472Y0285387D01*
X0209307Y0285387D02*
X0210142Y0286222D01*
X0210142Y0287057D01*
X0209307Y0287892D01*
X0207637Y0287892D01*
X0206802Y0287057D01*
X0213521Y0323632D02*
X0214356Y0324467D01*
X0214356Y0325302D01*
X0213521Y0326137D01*
X0209346Y0326137D01*
X0209346Y0325302D02*
X0209346Y0326972D01*
X0210181Y0329070D02*
X0209346Y0329905D01*
X0209346Y0331575D01*
X0210181Y0332410D01*
X0211016Y0332410D01*
X0214356Y0329070D01*
X0214356Y0332410D01*
X0203082Y0196112D02*
X0201412Y0194442D01*
X0199314Y0193607D02*
X0198479Y0192772D01*
X0195975Y0192772D01*
X0195975Y0191102D02*
X0195975Y0196112D01*
X0198479Y0196112D01*
X0199314Y0195277D01*
X0199314Y0193607D01*
X0201412Y0191102D02*
X0204752Y0191102D01*
X0203082Y0191102D02*
X0203082Y0196112D01*
X0193877Y0196112D02*
X0192207Y0196112D01*
X0193042Y0196112D02*
X0193042Y0191937D01*
X0192207Y0191102D01*
X0191372Y0191102D01*
X0190537Y0191937D01*
X0209346Y0176575D02*
X0210181Y0177410D01*
X0211016Y0177410D01*
X0211851Y0176575D01*
X0212686Y0177410D01*
X0213521Y0177410D01*
X0214356Y0176575D01*
X0214356Y0174905D01*
X0213521Y0174070D01*
X0213521Y0171972D02*
X0209346Y0171972D01*
X0210181Y0174070D02*
X0209346Y0174905D01*
X0209346Y0176575D01*
X0211851Y0176575D02*
X0211851Y0175740D01*
X0213521Y0171972D02*
X0214356Y0171137D01*
X0214356Y0169467D01*
X0213521Y0168632D01*
X0209346Y0168632D01*
X0166628Y0060518D02*
X0164958Y0059683D01*
X0163288Y0058013D01*
X0165793Y0058013D01*
X0166628Y0057178D01*
X0166628Y0056343D01*
X0165793Y0055508D01*
X0164123Y0055508D01*
X0163288Y0056343D01*
X0163288Y0058013D01*
X0161190Y0060518D02*
X0159520Y0060518D01*
X0160355Y0060518D02*
X0160355Y0056343D01*
X0159520Y0055508D01*
X0158685Y0055508D01*
X0157850Y0056343D01*
X0143856Y0037075D02*
X0138846Y0037075D01*
X0141351Y0034570D01*
X0141351Y0037910D01*
X0138846Y0032472D02*
X0138846Y0030802D01*
X0138846Y0031637D02*
X0143021Y0031637D01*
X0143856Y0030802D01*
X0143856Y0029967D01*
X0143021Y0029132D01*
X0103748Y0142673D02*
X0100408Y0142673D01*
X0102078Y0142673D02*
X0102078Y0147683D01*
X0100408Y0146013D01*
X0098310Y0147683D02*
X0098310Y0143508D01*
X0097476Y0142673D01*
X0095806Y0142673D01*
X0094971Y0143508D01*
X0094971Y0147683D01*
X0023628Y0062018D02*
X0020288Y0062018D01*
X0020288Y0059513D01*
X0021958Y0060348D01*
X0022793Y0060348D01*
X0023628Y0059513D01*
X0023628Y0057843D01*
X0022793Y0057008D01*
X0021123Y0057008D01*
X0020288Y0057843D01*
X0017355Y0057843D02*
X0017355Y0062018D01*
X0016520Y0062018D02*
X0018190Y0062018D01*
X0017355Y0057843D02*
X0016520Y0057008D01*
X0015685Y0057008D01*
X0014850Y0057843D01*
X0008615Y0198008D02*
X0004440Y0198008D01*
X0004440Y0201348D02*
X0008615Y0201348D01*
X0009450Y0200513D01*
X0009450Y0198843D01*
X0008615Y0198008D01*
X0009450Y0203445D02*
X0006110Y0206785D01*
X0005275Y0206785D01*
X0004440Y0205950D01*
X0004440Y0204280D01*
X0005275Y0203445D01*
X0009450Y0203445D02*
X0009450Y0206785D01*
X0012615Y0325008D02*
X0013450Y0325843D01*
X0013450Y0326678D01*
X0012615Y0327513D01*
X0008440Y0327513D01*
X0008440Y0326678D02*
X0008440Y0328348D01*
X0010110Y0330445D02*
X0008440Y0332115D01*
X0013450Y0332115D01*
X0013450Y0330445D02*
X0013450Y0333785D01*
X0074475Y0319277D02*
X0074475Y0318442D01*
X0075310Y0317607D01*
X0076979Y0317607D01*
X0077814Y0316772D01*
X0077814Y0315937D01*
X0076979Y0315102D01*
X0075310Y0315102D01*
X0074475Y0315937D01*
X0074475Y0319277D02*
X0075310Y0320112D01*
X0076979Y0320112D01*
X0077814Y0319277D01*
X0079912Y0318442D02*
X0081582Y0320112D01*
X0081582Y0315102D01*
X0079912Y0315102D02*
X0083252Y0315102D01*
D19*
X0101026Y0321881D02*
X0101026Y0326621D01*
X0101026Y0321881D02*
X0116774Y0321881D01*
X0116774Y0326621D01*
X0121026Y0326621D02*
X0121026Y0321881D01*
X0136774Y0321881D01*
X0136774Y0326621D01*
X0131900Y0324558D02*
X0129900Y0324558D01*
X0129900Y0326058D01*
X0127400Y0324558D01*
X0125400Y0324558D01*
X0127400Y0324558D02*
X0127400Y0323058D01*
X0127400Y0324558D02*
X0127400Y0326058D01*
X0127400Y0324558D02*
X0129900Y0323058D01*
X0129900Y0324558D01*
X0136774Y0332558D02*
X0136774Y0346881D01*
X0121026Y0346881D01*
X0121026Y0332558D01*
X0116774Y0332558D02*
X0116774Y0346881D01*
X0101026Y0346881D01*
X0101026Y0332558D01*
X0105400Y0324558D02*
X0107400Y0324558D01*
X0107400Y0326058D01*
X0107400Y0324558D02*
X0107400Y0323058D01*
X0107400Y0324558D02*
X0109900Y0323058D01*
X0109900Y0324558D01*
X0111900Y0324558D01*
X0109900Y0324558D02*
X0109900Y0326058D01*
X0107400Y0324558D01*
X0141026Y0326621D02*
X0141026Y0321881D01*
X0156774Y0321881D01*
X0156774Y0326621D01*
X0156774Y0332558D02*
X0156774Y0346881D01*
X0141026Y0346881D01*
X0141026Y0332558D01*
X0147400Y0326058D02*
X0147400Y0324558D01*
X0145400Y0324558D01*
X0147400Y0324558D02*
X0147400Y0323058D01*
X0147400Y0324558D02*
X0149900Y0323058D01*
X0149900Y0324558D01*
X0151900Y0324558D01*
X0149900Y0324558D02*
X0149900Y0326058D01*
X0147400Y0324558D01*
X0167900Y0244058D02*
X0107900Y0244058D01*
X0107900Y0156558D01*
X0167900Y0156558D01*
X0167900Y0244058D01*
X0078865Y0236054D02*
X0078865Y0173062D01*
X0075400Y0184558D02*
X0075400Y0209558D01*
X0060400Y0209558D01*
X0060400Y0224558D01*
X0015400Y0224558D01*
X0015400Y0184558D01*
X0075400Y0184558D01*
X0011935Y0173062D02*
X0011935Y0236054D01*
X0015151Y0033312D02*
X0015151Y0028808D01*
X0013650Y0028808D02*
X0016653Y0028808D01*
X0013650Y0031810D02*
X0015151Y0033312D01*
X0162150Y0031810D02*
X0163651Y0033312D01*
X0163651Y0028808D01*
X0162150Y0028808D02*
X0165153Y0028808D01*
D20*
X0064494Y0219558D02*
X0064496Y0219711D01*
X0064502Y0219865D01*
X0064512Y0220018D01*
X0064526Y0220170D01*
X0064544Y0220323D01*
X0064566Y0220474D01*
X0064591Y0220625D01*
X0064621Y0220776D01*
X0064655Y0220926D01*
X0064692Y0221074D01*
X0064733Y0221222D01*
X0064778Y0221368D01*
X0064827Y0221514D01*
X0064880Y0221658D01*
X0064936Y0221800D01*
X0064996Y0221941D01*
X0065060Y0222081D01*
X0065127Y0222219D01*
X0065198Y0222355D01*
X0065273Y0222489D01*
X0065350Y0222621D01*
X0065432Y0222751D01*
X0065516Y0222879D01*
X0065604Y0223005D01*
X0065695Y0223128D01*
X0065789Y0223249D01*
X0065887Y0223367D01*
X0065987Y0223483D01*
X0066091Y0223596D01*
X0066197Y0223707D01*
X0066306Y0223815D01*
X0066418Y0223920D01*
X0066532Y0224021D01*
X0066650Y0224120D01*
X0066769Y0224216D01*
X0066891Y0224309D01*
X0067016Y0224398D01*
X0067143Y0224485D01*
X0067272Y0224567D01*
X0067403Y0224647D01*
X0067536Y0224723D01*
X0067671Y0224796D01*
X0067808Y0224865D01*
X0067947Y0224930D01*
X0068087Y0224992D01*
X0068229Y0225050D01*
X0068372Y0225105D01*
X0068517Y0225156D01*
X0068663Y0225203D01*
X0068810Y0225246D01*
X0068958Y0225285D01*
X0069107Y0225321D01*
X0069257Y0225352D01*
X0069408Y0225380D01*
X0069559Y0225404D01*
X0069712Y0225424D01*
X0069864Y0225440D01*
X0070017Y0225452D01*
X0070170Y0225460D01*
X0070323Y0225464D01*
X0070477Y0225464D01*
X0070630Y0225460D01*
X0070783Y0225452D01*
X0070936Y0225440D01*
X0071088Y0225424D01*
X0071241Y0225404D01*
X0071392Y0225380D01*
X0071543Y0225352D01*
X0071693Y0225321D01*
X0071842Y0225285D01*
X0071990Y0225246D01*
X0072137Y0225203D01*
X0072283Y0225156D01*
X0072428Y0225105D01*
X0072571Y0225050D01*
X0072713Y0224992D01*
X0072853Y0224930D01*
X0072992Y0224865D01*
X0073129Y0224796D01*
X0073264Y0224723D01*
X0073397Y0224647D01*
X0073528Y0224567D01*
X0073657Y0224485D01*
X0073784Y0224398D01*
X0073909Y0224309D01*
X0074031Y0224216D01*
X0074150Y0224120D01*
X0074268Y0224021D01*
X0074382Y0223920D01*
X0074494Y0223815D01*
X0074603Y0223707D01*
X0074709Y0223596D01*
X0074813Y0223483D01*
X0074913Y0223367D01*
X0075011Y0223249D01*
X0075105Y0223128D01*
X0075196Y0223005D01*
X0075284Y0222879D01*
X0075368Y0222751D01*
X0075450Y0222621D01*
X0075527Y0222489D01*
X0075602Y0222355D01*
X0075673Y0222219D01*
X0075740Y0222081D01*
X0075804Y0221941D01*
X0075864Y0221800D01*
X0075920Y0221658D01*
X0075973Y0221514D01*
X0076022Y0221368D01*
X0076067Y0221222D01*
X0076108Y0221074D01*
X0076145Y0220926D01*
X0076179Y0220776D01*
X0076209Y0220625D01*
X0076234Y0220474D01*
X0076256Y0220323D01*
X0076274Y0220170D01*
X0076288Y0220018D01*
X0076298Y0219865D01*
X0076304Y0219711D01*
X0076306Y0219558D01*
X0076304Y0219405D01*
X0076298Y0219251D01*
X0076288Y0219098D01*
X0076274Y0218946D01*
X0076256Y0218793D01*
X0076234Y0218642D01*
X0076209Y0218491D01*
X0076179Y0218340D01*
X0076145Y0218190D01*
X0076108Y0218042D01*
X0076067Y0217894D01*
X0076022Y0217748D01*
X0075973Y0217602D01*
X0075920Y0217458D01*
X0075864Y0217316D01*
X0075804Y0217175D01*
X0075740Y0217035D01*
X0075673Y0216897D01*
X0075602Y0216761D01*
X0075527Y0216627D01*
X0075450Y0216495D01*
X0075368Y0216365D01*
X0075284Y0216237D01*
X0075196Y0216111D01*
X0075105Y0215988D01*
X0075011Y0215867D01*
X0074913Y0215749D01*
X0074813Y0215633D01*
X0074709Y0215520D01*
X0074603Y0215409D01*
X0074494Y0215301D01*
X0074382Y0215196D01*
X0074268Y0215095D01*
X0074150Y0214996D01*
X0074031Y0214900D01*
X0073909Y0214807D01*
X0073784Y0214718D01*
X0073657Y0214631D01*
X0073528Y0214549D01*
X0073397Y0214469D01*
X0073264Y0214393D01*
X0073129Y0214320D01*
X0072992Y0214251D01*
X0072853Y0214186D01*
X0072713Y0214124D01*
X0072571Y0214066D01*
X0072428Y0214011D01*
X0072283Y0213960D01*
X0072137Y0213913D01*
X0071990Y0213870D01*
X0071842Y0213831D01*
X0071693Y0213795D01*
X0071543Y0213764D01*
X0071392Y0213736D01*
X0071241Y0213712D01*
X0071088Y0213692D01*
X0070936Y0213676D01*
X0070783Y0213664D01*
X0070630Y0213656D01*
X0070477Y0213652D01*
X0070323Y0213652D01*
X0070170Y0213656D01*
X0070017Y0213664D01*
X0069864Y0213676D01*
X0069712Y0213692D01*
X0069559Y0213712D01*
X0069408Y0213736D01*
X0069257Y0213764D01*
X0069107Y0213795D01*
X0068958Y0213831D01*
X0068810Y0213870D01*
X0068663Y0213913D01*
X0068517Y0213960D01*
X0068372Y0214011D01*
X0068229Y0214066D01*
X0068087Y0214124D01*
X0067947Y0214186D01*
X0067808Y0214251D01*
X0067671Y0214320D01*
X0067536Y0214393D01*
X0067403Y0214469D01*
X0067272Y0214549D01*
X0067143Y0214631D01*
X0067016Y0214718D01*
X0066891Y0214807D01*
X0066769Y0214900D01*
X0066650Y0214996D01*
X0066532Y0215095D01*
X0066418Y0215196D01*
X0066306Y0215301D01*
X0066197Y0215409D01*
X0066091Y0215520D01*
X0065987Y0215633D01*
X0065887Y0215749D01*
X0065789Y0215867D01*
X0065695Y0215988D01*
X0065604Y0216111D01*
X0065516Y0216237D01*
X0065432Y0216365D01*
X0065350Y0216495D01*
X0065273Y0216627D01*
X0065198Y0216761D01*
X0065127Y0216897D01*
X0065060Y0217035D01*
X0064996Y0217175D01*
X0064936Y0217316D01*
X0064880Y0217458D01*
X0064827Y0217602D01*
X0064778Y0217748D01*
X0064733Y0217894D01*
X0064692Y0218042D01*
X0064655Y0218190D01*
X0064621Y0218340D01*
X0064591Y0218491D01*
X0064566Y0218642D01*
X0064544Y0218793D01*
X0064526Y0218946D01*
X0064512Y0219098D01*
X0064502Y0219251D01*
X0064496Y0219405D01*
X0064494Y0219558D01*
D21*
X0108506Y0343058D03*
X0128506Y0343058D03*
X0148506Y0343058D03*
M02*
